<svg width="1124" height="59" viewBox="0 0 1124 59" fill="none" xmlns="http://www.w3.org/2000/svg">
<g filter="url(#filter0_d_1_309)">
<rect width="2500" height="51" transform="translate(4)" fill="#262324"/>
<path d="M27.816 32.216C26.34 32.216 25.254 31.586 24.558 30.326L25.638 29.57C25.902 30.038 26.202 30.38 26.538 30.596C26.874 30.8 27.252 30.902 27.672 30.902C28.308 30.902 28.782 30.71 29.094 30.326C29.406 29.93 29.562 29.282 29.562 28.382V20.192H31.074V28.526C31.074 29.03 31.008 29.51 30.876 29.966C30.756 30.41 30.564 30.8 30.3 31.136C30.048 31.472 29.712 31.736 29.292 31.928C28.884 32.12 28.392 32.216 27.816 32.216ZM36.6804 32.216C35.7444 32.216 35.0604 31.928 34.6284 31.352C34.2084 30.776 33.9984 29.924 33.9984 28.796V23.252H35.4924V28.598C35.4924 29.426 35.6184 30.026 35.8704 30.398C36.1344 30.758 36.5544 30.938 37.1304 30.938C37.5864 30.938 37.9884 30.824 38.3364 30.596C38.6844 30.356 39.0684 29.978 39.4884 29.462V23.252H40.9644V32H39.7404L39.6144 30.632H39.5604C39.1524 31.112 38.7204 31.496 38.2644 31.784C37.8204 32.072 37.2924 32.216 36.6804 32.216ZM45.4815 32.216C44.9175 32.216 44.5155 32.048 44.2755 31.712C44.0355 31.376 43.9155 30.884 43.9155 30.236V19.184H45.3915V30.344C45.3915 30.584 45.4335 30.752 45.5175 30.848C45.6015 30.944 45.6975 30.992 45.8055 30.992C45.8535 30.992 45.8955 30.992 45.9315 30.992C45.9795 30.992 46.0455 30.98 46.1295 30.956L46.3275 32.072C46.2315 32.12 46.1175 32.156 45.9855 32.18C45.8535 32.204 45.6855 32.216 45.4815 32.216ZM48.6473 35.762C48.4433 35.762 48.2573 35.744 48.0893 35.708C47.9213 35.684 47.7653 35.642 47.6213 35.582L47.9093 34.412C48.0053 34.436 48.1133 34.46 48.2333 34.484C48.3533 34.52 48.4673 34.538 48.5753 34.538C49.0793 34.538 49.4873 34.358 49.7993 33.998C50.1233 33.65 50.3753 33.206 50.5553 32.666L50.7533 32.018L47.2433 23.252H48.7733L50.5553 28.094C50.6873 28.478 50.8253 28.886 50.9693 29.318C51.1253 29.738 51.2693 30.152 51.4013 30.56H51.4733C51.6053 30.164 51.7313 29.75 51.8513 29.318C51.9713 28.886 52.0913 28.478 52.2113 28.094L53.7773 23.252H55.2173L51.9233 32.72C51.7673 33.152 51.5933 33.554 51.4013 33.926C51.2093 34.298 50.9813 34.616 50.7173 34.88C50.4533 35.156 50.1533 35.372 49.8173 35.528C49.4813 35.684 49.0913 35.762 48.6473 35.762ZM63.2812 32.216C62.8252 32.216 62.4052 32.168 62.0212 32.072C61.6492 31.988 61.3072 31.874 60.9952 31.73C60.6832 31.574 60.4012 31.4 60.1492 31.208C59.9092 31.016 59.6932 30.812 59.5012 30.596L60.2572 29.624C60.6052 29.984 61.0072 30.302 61.4632 30.578C61.9312 30.854 62.5072 30.992 63.1912 30.992C63.8872 30.992 64.4572 30.806 64.9012 30.434C65.3452 30.05 65.5672 29.534 65.5672 28.886C65.5672 28.55 65.5012 28.244 65.3692 27.968C65.2492 27.68 65.0452 27.434 64.7572 27.23C64.4692 27.026 64.0912 26.87 63.6232 26.762C63.1552 26.654 62.5792 26.6 61.8952 26.6V25.466C62.5072 25.466 63.0172 25.412 63.4252 25.304C63.8452 25.196 64.1812 25.046 64.4332 24.854C64.6972 24.662 64.8832 24.434 64.9912 24.17C65.0992 23.906 65.1532 23.624 65.1532 23.324C65.1532 22.76 64.9732 22.316 64.6132 21.992C64.2652 21.668 63.7852 21.506 63.1732 21.506C62.6932 21.506 62.2492 21.614 61.8412 21.83C61.4452 22.046 61.0732 22.328 60.7252 22.676L59.9332 21.74C60.3772 21.32 60.8632 20.978 61.3912 20.714C61.9312 20.438 62.5432 20.3 63.2272 20.3C63.7312 20.3 64.1932 20.366 64.6132 20.498C65.0332 20.63 65.3932 20.822 65.6932 21.074C66.0052 21.314 66.2452 21.614 66.4132 21.974C66.5812 22.334 66.6652 22.748 66.6652 23.216C66.6652 23.912 66.4732 24.482 66.0892 24.926C65.7052 25.37 65.2012 25.712 64.5772 25.952V26.024C64.9252 26.108 65.2492 26.234 65.5492 26.402C65.8492 26.558 66.1132 26.762 66.3412 27.014C66.5692 27.254 66.7432 27.536 66.8632 27.86C66.9952 28.184 67.0612 28.544 67.0612 28.94C67.0612 29.444 66.9592 29.9 66.7552 30.308C66.5632 30.716 66.2932 31.064 65.9452 31.352C65.6092 31.628 65.2132 31.844 64.7572 32C64.3012 32.144 63.8092 32.216 63.2812 32.216ZM72.4625 32.216C71.2985 32.216 70.3925 31.7 69.7445 30.668C69.0965 29.636 68.7725 28.154 68.7725 26.222C68.7725 24.29 69.0965 22.82 69.7445 21.812C70.3925 20.804 71.2985 20.3 72.4625 20.3C73.6145 20.3 74.5145 20.804 75.1625 21.812C75.8105 22.82 76.1345 24.29 76.1345 26.222C76.1345 28.154 75.8105 29.636 75.1625 30.668C74.5145 31.7 73.6145 32.216 72.4625 32.216ZM72.4625 31.028C72.7985 31.028 73.0985 30.938 73.3625 30.758C73.6385 30.566 73.8725 30.278 74.0645 29.894C74.2685 29.498 74.4245 29 74.5325 28.4C74.6405 27.788 74.6945 27.062 74.6945 26.222C74.6945 25.382 74.6405 24.662 74.5325 24.062C74.4245 23.462 74.2685 22.976 74.0645 22.604C73.8725 22.22 73.6385 21.938 73.3625 21.758C73.0985 21.578 72.7985 21.488 72.4625 21.488C72.1265 21.488 71.8205 21.578 71.5445 21.758C71.2685 21.938 71.0285 22.22 70.8245 22.604C70.6325 22.976 70.4825 23.462 70.3745 24.062C70.2665 24.662 70.2125 25.382 70.2125 26.222C70.2125 27.902 70.4165 29.126 70.8245 29.894C71.2445 30.65 71.7905 31.028 72.4625 31.028ZM78.1337 35.06L77.7737 34.196C78.2897 33.968 78.6917 33.662 78.9797 33.278C79.2677 32.906 79.4057 32.48 79.3937 32C79.3577 32.012 79.2977 32.018 79.2137 32.018C78.9257 32.018 78.6737 31.934 78.4577 31.766C78.2537 31.586 78.1517 31.328 78.1517 30.992C78.1517 30.668 78.2597 30.416 78.4757 30.236C78.6917 30.044 78.9497 29.948 79.2497 29.948C79.6337 29.948 79.9337 30.104 80.1497 30.416C80.3777 30.728 80.4917 31.154 80.4917 31.694C80.4917 32.474 80.2817 33.152 79.8617 33.728C79.4417 34.304 78.8657 34.748 78.1337 35.06ZM85.7337 32V31.118C86.5977 30.254 87.3657 29.474 88.0377 28.778C88.7097 28.082 89.2737 27.44 89.7297 26.852C90.1857 26.252 90.5337 25.706 90.7737 25.214C91.0137 24.71 91.1337 24.224 91.1337 23.756C91.1337 23.096 90.9537 22.556 90.5937 22.136C90.2337 21.716 89.6877 21.506 88.9557 21.506C88.4757 21.506 88.0317 21.644 87.6237 21.92C87.2157 22.184 86.8437 22.508 86.5077 22.892L85.6617 22.046C86.1417 21.518 86.6517 21.098 87.1917 20.786C87.7317 20.462 88.3797 20.3 89.1357 20.3C90.2037 20.3 91.0437 20.612 91.6557 21.236C92.2677 21.848 92.5737 22.664 92.5737 23.684C92.5737 24.224 92.4537 24.77 92.2137 25.322C91.9857 25.862 91.6617 26.426 91.2417 27.014C90.8337 27.59 90.3417 28.196 89.7657 28.832C89.2017 29.456 88.5777 30.122 87.8937 30.83C88.2057 30.806 88.5297 30.782 88.8657 30.758C89.2017 30.734 89.5197 30.722 89.8197 30.722H93.1497V32H85.7337ZM98.4429 32.216C97.2789 32.216 96.3729 31.7 95.7249 30.668C95.0769 29.636 94.7529 28.154 94.7529 26.222C94.7529 24.29 95.0769 22.82 95.7249 21.812C96.3729 20.804 97.2789 20.3 98.4429 20.3C99.5949 20.3 100.495 20.804 101.143 21.812C101.791 22.82 102.115 24.29 102.115 26.222C102.115 28.154 101.791 29.636 101.143 30.668C100.495 31.7 99.5949 32.216 98.4429 32.216ZM98.4429 31.028C98.7789 31.028 99.0789 30.938 99.3429 30.758C99.6189 30.566 99.8529 30.278 100.045 29.894C100.249 29.498 100.405 29 100.513 28.4C100.621 27.788 100.675 27.062 100.675 26.222C100.675 25.382 100.621 24.662 100.513 24.062C100.405 23.462 100.249 22.976 100.045 22.604C99.8529 22.22 99.6189 21.938 99.3429 21.758C99.0789 21.578 98.7789 21.488 98.4429 21.488C98.1069 21.488 97.8009 21.578 97.5249 21.758C97.2489 21.938 97.0089 22.22 96.8049 22.604C96.6129 22.976 96.4629 23.462 96.3549 24.062C96.2469 24.662 96.1929 25.382 96.1929 26.222C96.1929 27.902 96.3969 29.126 96.8049 29.894C97.2249 30.65 97.7709 31.028 98.4429 31.028ZM103.628 32V31.118C104.492 30.254 105.26 29.474 105.932 28.778C106.604 28.082 107.168 27.44 107.624 26.852C108.08 26.252 108.428 25.706 108.668 25.214C108.908 24.71 109.028 24.224 109.028 23.756C109.028 23.096 108.848 22.556 108.488 22.136C108.128 21.716 107.582 21.506 106.85 21.506C106.37 21.506 105.926 21.644 105.518 21.92C105.11 22.184 104.738 22.508 104.402 22.892L103.556 22.046C104.036 21.518 104.546 21.098 105.086 20.786C105.626 20.462 106.274 20.3 107.03 20.3C108.098 20.3 108.938 20.612 109.55 21.236C110.162 21.848 110.468 22.664 110.468 23.684C110.468 24.224 110.348 24.77 110.108 25.322C109.88 25.862 109.556 26.426 109.136 27.014C108.728 27.59 108.236 28.196 107.66 28.832C107.096 29.456 106.472 30.122 105.788 30.83C106.1 30.806 106.424 30.782 106.76 30.758C107.096 30.734 107.414 30.722 107.714 30.722H111.044V32H103.628ZM116.103 32.216C115.647 32.216 115.227 32.168 114.843 32.072C114.471 31.988 114.129 31.874 113.817 31.73C113.505 31.574 113.223 31.4 112.971 31.208C112.731 31.016 112.515 30.812 112.323 30.596L113.079 29.624C113.427 29.984 113.829 30.302 114.285 30.578C114.753 30.854 115.329 30.992 116.013 30.992C116.709 30.992 117.279 30.806 117.723 30.434C118.167 30.05 118.389 29.534 118.389 28.886C118.389 28.55 118.323 28.244 118.191 27.968C118.071 27.68 117.867 27.434 117.579 27.23C117.291 27.026 116.913 26.87 116.445 26.762C115.977 26.654 115.401 26.6 114.717 26.6V25.466C115.329 25.466 115.839 25.412 116.247 25.304C116.667 25.196 117.003 25.046 117.255 24.854C117.519 24.662 117.705 24.434 117.813 24.17C117.921 23.906 117.975 23.624 117.975 23.324C117.975 22.76 117.795 22.316 117.435 21.992C117.087 21.668 116.607 21.506 115.995 21.506C115.515 21.506 115.071 21.614 114.663 21.83C114.267 22.046 113.895 22.328 113.547 22.676L112.755 21.74C113.199 21.32 113.685 20.978 114.213 20.714C114.753 20.438 115.365 20.3 116.049 20.3C116.553 20.3 117.015 20.366 117.435 20.498C117.855 20.63 118.215 20.822 118.515 21.074C118.827 21.314 119.067 21.614 119.235 21.974C119.403 22.334 119.487 22.748 119.487 23.216C119.487 23.912 119.295 24.482 118.911 24.926C118.527 25.37 118.023 25.712 117.399 25.952V26.024C117.747 26.108 118.071 26.234 118.371 26.402C118.671 26.558 118.935 26.762 119.163 27.014C119.391 27.254 119.565 27.536 119.685 27.86C119.817 28.184 119.883 28.544 119.883 28.94C119.883 29.444 119.781 29.9 119.577 30.308C119.385 30.716 119.115 31.064 118.767 31.352C118.431 31.628 118.035 31.844 117.579 32C117.123 32.144 116.631 32.216 116.103 32.216Z" fill="white"/>
<path d="M168.824 32.216C168.26 32.216 167.738 32.102 167.258 31.874C166.778 31.646 166.358 31.304 165.998 30.848C165.65 30.38 165.374 29.804 165.17 29.12C164.966 28.424 164.864 27.614 164.864 26.69C164.864 25.538 164.984 24.56 165.224 23.756C165.464 22.94 165.788 22.28 166.196 21.776C166.604 21.26 167.066 20.888 167.582 20.66C168.11 20.42 168.662 20.3 169.238 20.3C169.862 20.3 170.396 20.42 170.84 20.66C171.296 20.888 171.686 21.176 172.01 21.524L171.182 22.442C170.942 22.166 170.654 21.95 170.318 21.794C169.994 21.626 169.652 21.542 169.292 21.542C168.896 21.542 168.518 21.626 168.158 21.794C167.798 21.962 167.48 22.238 167.204 22.622C166.928 23.006 166.706 23.51 166.538 24.134C166.37 24.746 166.28 25.508 166.268 26.42C166.628 25.976 167.048 25.628 167.528 25.376C168.008 25.112 168.482 24.98 168.95 24.98C169.946 24.98 170.738 25.274 171.326 25.862C171.926 26.45 172.226 27.338 172.226 28.526C172.226 29.078 172.136 29.582 171.956 30.038C171.776 30.482 171.53 30.866 171.218 31.19C170.906 31.514 170.546 31.766 170.138 31.946C169.73 32.126 169.292 32.216 168.824 32.216ZM168.824 31.046C169.112 31.046 169.376 30.986 169.616 30.866C169.856 30.746 170.066 30.578 170.246 30.362C170.426 30.134 170.564 29.87 170.66 29.57C170.768 29.258 170.822 28.91 170.822 28.526C170.822 27.77 170.648 27.176 170.3 26.744C169.952 26.312 169.418 26.096 168.698 26.096C168.326 26.096 167.924 26.216 167.492 26.456C167.06 26.684 166.664 27.068 166.304 27.608C166.4 28.736 166.658 29.594 167.078 30.182C167.51 30.758 168.092 31.046 168.824 31.046ZM180.205 25.394L179.647 27.194H183.193L182.635 25.394C182.419 24.734 182.215 24.08 182.023 23.432C181.831 22.772 181.639 22.1 181.447 21.416H181.375C181.195 22.1 181.009 22.772 180.817 23.432C180.625 24.08 180.421 24.734 180.205 25.394ZM176.605 32L180.601 20.192H182.293L186.289 32H184.687L183.571 28.4H179.269L178.135 32H176.605ZM190.526 32.216C189.902 32.216 189.308 32.102 188.744 31.874C188.18 31.646 187.688 31.358 187.268 31.01L188.006 30.02C188.39 30.332 188.78 30.584 189.176 30.776C189.584 30.968 190.052 31.064 190.58 31.064C191.156 31.064 191.588 30.932 191.876 30.668C192.164 30.404 192.308 30.08 192.308 29.696C192.308 29.468 192.248 29.27 192.128 29.102C192.008 28.934 191.852 28.79 191.66 28.67C191.48 28.538 191.27 28.424 191.03 28.328C190.79 28.232 190.55 28.136 190.31 28.04C189.998 27.932 189.686 27.812 189.374 27.68C189.062 27.536 188.78 27.368 188.528 27.176C188.288 26.972 188.09 26.738 187.934 26.474C187.778 26.21 187.7 25.892 187.7 25.52C187.7 25.172 187.766 24.848 187.898 24.548C188.042 24.236 188.24 23.972 188.492 23.756C188.756 23.528 189.074 23.354 189.446 23.234C189.818 23.102 190.238 23.036 190.706 23.036C191.258 23.036 191.762 23.132 192.218 23.324C192.686 23.516 193.088 23.75 193.424 24.026L192.722 24.962C192.422 24.734 192.11 24.548 191.786 24.404C191.462 24.26 191.108 24.188 190.724 24.188C190.172 24.188 189.764 24.314 189.5 24.566C189.248 24.818 189.122 25.112 189.122 25.448C189.122 25.652 189.176 25.832 189.284 25.988C189.392 26.132 189.536 26.264 189.716 26.384C189.896 26.492 190.1 26.594 190.328 26.69C190.568 26.774 190.814 26.864 191.066 26.96C191.378 27.08 191.69 27.206 192.002 27.338C192.326 27.47 192.614 27.638 192.866 27.842C193.118 28.034 193.322 28.274 193.478 28.562C193.646 28.85 193.73 29.198 193.73 29.606C193.73 29.966 193.658 30.302 193.514 30.614C193.382 30.926 193.178 31.202 192.902 31.442C192.638 31.682 192.302 31.868 191.894 32C191.498 32.144 191.042 32.216 190.526 32.216ZM198.067 32.216C197.443 32.216 196.849 32.102 196.285 31.874C195.721 31.646 195.229 31.358 194.809 31.01L195.547 30.02C195.931 30.332 196.321 30.584 196.717 30.776C197.125 30.968 197.593 31.064 198.121 31.064C198.697 31.064 199.129 30.932 199.417 30.668C199.705 30.404 199.849 30.08 199.849 29.696C199.849 29.468 199.789 29.27 199.669 29.102C199.549 28.934 199.393 28.79 199.201 28.67C199.021 28.538 198.811 28.424 198.571 28.328C198.331 28.232 198.091 28.136 197.851 28.04C197.539 27.932 197.227 27.812 196.915 27.68C196.603 27.536 196.321 27.368 196.069 27.176C195.829 26.972 195.631 26.738 195.475 26.474C195.319 26.21 195.241 25.892 195.241 25.52C195.241 25.172 195.307 24.848 195.439 24.548C195.583 24.236 195.781 23.972 196.033 23.756C196.297 23.528 196.615 23.354 196.987 23.234C197.359 23.102 197.779 23.036 198.247 23.036C198.799 23.036 199.303 23.132 199.759 23.324C200.227 23.516 200.629 23.75 200.965 24.026L200.263 24.962C199.963 24.734 199.651 24.548 199.327 24.404C199.003 24.26 198.649 24.188 198.265 24.188C197.713 24.188 197.305 24.314 197.041 24.566C196.789 24.818 196.663 25.112 196.663 25.448C196.663 25.652 196.717 25.832 196.825 25.988C196.933 26.132 197.077 26.264 197.257 26.384C197.437 26.492 197.641 26.594 197.869 26.69C198.109 26.774 198.355 26.864 198.607 26.96C198.919 27.08 199.231 27.206 199.543 27.338C199.867 27.47 200.155 27.638 200.407 27.842C200.659 28.034 200.863 28.274 201.019 28.562C201.187 28.85 201.271 29.198 201.271 29.606C201.271 29.966 201.199 30.302 201.055 30.614C200.923 30.926 200.719 31.202 200.443 31.442C200.179 31.682 199.843 31.868 199.435 32C199.039 32.144 198.583 32.216 198.067 32.216ZM203.322 32V23.252H204.798V32H203.322ZM204.078 21.452C203.79 21.452 203.544 21.362 203.34 21.182C203.148 21.002 203.052 20.774 203.052 20.498C203.052 20.21 203.148 19.982 203.34 19.814C203.544 19.634 203.79 19.544 204.078 19.544C204.366 19.544 204.606 19.634 204.798 19.814C205.002 19.982 205.104 20.21 205.104 20.498C205.104 20.774 205.002 21.002 204.798 21.182C204.606 21.362 204.366 21.452 204.078 21.452ZM210.703 36.032C210.163 36.032 209.671 35.978 209.227 35.87C208.783 35.774 208.399 35.624 208.075 35.42C207.763 35.216 207.517 34.97 207.337 34.682C207.169 34.394 207.085 34.058 207.085 33.674C207.085 33.302 207.199 32.948 207.427 32.612C207.655 32.276 207.967 31.97 208.363 31.694V31.622C208.147 31.49 207.961 31.31 207.805 31.082C207.661 30.842 207.589 30.548 207.589 30.2C207.589 29.828 207.691 29.504 207.895 29.228C208.099 28.952 208.315 28.736 208.543 28.58V28.508C208.255 28.268 207.991 27.95 207.751 27.554C207.523 27.146 207.409 26.678 207.409 26.15C207.409 25.67 207.493 25.238 207.661 24.854C207.841 24.47 208.081 24.146 208.381 23.882C208.681 23.606 209.029 23.396 209.425 23.252C209.833 23.108 210.259 23.036 210.703 23.036C210.943 23.036 211.165 23.06 211.369 23.108C211.585 23.144 211.777 23.192 211.945 23.252H214.987V24.386H213.187C213.391 24.59 213.559 24.848 213.691 25.16C213.835 25.472 213.907 25.814 213.907 26.186C213.907 26.654 213.823 27.08 213.655 27.464C213.487 27.836 213.259 28.154 212.971 28.418C212.683 28.67 212.341 28.868 211.945 29.012C211.561 29.156 211.147 29.228 210.703 29.228C210.487 29.228 210.265 29.204 210.037 29.156C209.809 29.096 209.593 29.018 209.389 28.922C209.233 29.054 209.101 29.204 208.993 29.372C208.885 29.528 208.831 29.726 208.831 29.966C208.831 30.242 208.939 30.47 209.155 30.65C209.371 30.83 209.779 30.92 210.379 30.92H212.071C213.091 30.92 213.853 31.088 214.357 31.424C214.873 31.748 215.131 32.276 215.131 33.008C215.131 33.416 215.029 33.8 214.825 34.16C214.621 34.532 214.327 34.856 213.943 35.132C213.559 35.408 213.091 35.624 212.539 35.78C211.999 35.948 211.387 36.032 210.703 36.032ZM210.703 28.238C210.955 28.238 211.189 28.19 211.405 28.094C211.633 27.998 211.831 27.86 211.999 27.68C212.179 27.5 212.317 27.284 212.413 27.032C212.509 26.768 212.557 26.474 212.557 26.15C212.557 25.502 212.377 25.004 212.017 24.656C211.657 24.296 211.219 24.116 210.703 24.116C210.187 24.116 209.749 24.296 209.389 24.656C209.029 25.004 208.849 25.502 208.849 26.15C208.849 26.474 208.897 26.768 208.993 27.032C209.089 27.284 209.221 27.5 209.389 27.68C209.569 27.86 209.767 27.998 209.983 28.094C210.211 28.19 210.451 28.238 210.703 28.238ZM210.919 35.006C211.339 35.006 211.717 34.952 212.053 34.844C212.401 34.748 212.695 34.616 212.935 34.448C213.175 34.292 213.361 34.106 213.493 33.89C213.625 33.674 213.691 33.452 213.691 33.224C213.691 32.816 213.541 32.534 213.241 32.378C212.941 32.222 212.503 32.144 211.927 32.144H210.415C210.247 32.144 210.061 32.132 209.857 32.108C209.665 32.096 209.473 32.06 209.281 32C208.969 32.228 208.741 32.468 208.597 32.72C208.453 32.972 208.381 33.224 208.381 33.476C208.381 33.944 208.603 34.316 209.047 34.592C209.503 34.868 210.127 35.006 210.919 35.006ZM216.822 32V23.252H218.046L218.172 24.512H218.226C218.646 24.092 219.084 23.744 219.54 23.468C220.008 23.18 220.548 23.036 221.16 23.036C222.084 23.036 222.756 23.324 223.176 23.9C223.608 24.476 223.824 25.328 223.824 26.456V32H222.348V26.654C222.348 25.826 222.216 25.232 221.952 24.872C221.688 24.5 221.268 24.314 220.692 24.314C220.236 24.314 219.834 24.428 219.486 24.656C219.138 24.884 218.742 25.22 218.298 25.664V32H216.822ZM226.665 32V23.252H227.889L228.015 24.512H228.069C228.453 24.092 228.867 23.744 229.311 23.468C229.767 23.18 230.259 23.036 230.787 23.036C231.459 23.036 231.981 23.186 232.353 23.486C232.737 23.774 233.019 24.182 233.199 24.71C233.655 24.206 234.111 23.804 234.567 23.504C235.035 23.192 235.539 23.036 236.079 23.036C236.979 23.036 237.645 23.324 238.077 23.9C238.521 24.476 238.743 25.328 238.743 26.456V32H237.267V26.654C237.267 25.826 237.135 25.232 236.871 24.872C236.607 24.5 236.199 24.314 235.647 24.314C234.987 24.314 234.255 24.764 233.451 25.664V32H231.975V26.654C231.975 25.826 231.843 25.232 231.579 24.872C231.315 24.5 230.901 24.314 230.337 24.314C229.677 24.314 228.945 24.764 228.141 25.664V32H226.665ZM245.135 32.216C244.547 32.216 243.995 32.114 243.479 31.91C242.975 31.694 242.531 31.394 242.147 31.01C241.775 30.614 241.481 30.134 241.265 29.57C241.049 29.006 240.941 28.364 240.941 27.644C240.941 26.924 241.049 26.282 241.265 25.718C241.493 25.142 241.787 24.656 242.147 24.26C242.519 23.864 242.939 23.564 243.407 23.36C243.875 23.144 244.361 23.036 244.865 23.036C245.417 23.036 245.909 23.132 246.341 23.324C246.785 23.516 247.151 23.792 247.439 24.152C247.739 24.512 247.967 24.944 248.123 25.448C248.279 25.952 248.357 26.516 248.357 27.14C248.357 27.296 248.351 27.452 248.339 27.608C248.339 27.752 248.327 27.878 248.303 27.986H242.399C242.459 28.922 242.747 29.666 243.263 30.218C243.791 30.758 244.475 31.028 245.315 31.028C245.735 31.028 246.119 30.968 246.467 30.848C246.827 30.716 247.169 30.548 247.493 30.344L248.015 31.316C247.631 31.556 247.205 31.766 246.737 31.946C246.269 32.126 245.735 32.216 245.135 32.216ZM242.381 26.924H247.061C247.061 26.036 246.869 25.364 246.485 24.908C246.113 24.44 245.585 24.206 244.901 24.206C244.589 24.206 244.289 24.266 244.001 24.386C243.725 24.506 243.473 24.686 243.245 24.926C243.017 25.154 242.825 25.436 242.669 25.772C242.525 26.108 242.429 26.492 242.381 26.924ZM250.519 32V23.252H251.743L251.869 24.512H251.923C252.343 24.092 252.781 23.744 253.237 23.468C253.705 23.18 254.245 23.036 254.857 23.036C255.781 23.036 256.453 23.324 256.873 23.9C257.305 24.476 257.521 25.328 257.521 26.456V32H256.045V26.654C256.045 25.826 255.913 25.232 255.649 24.872C255.385 24.5 254.965 24.314 254.389 24.314C253.933 24.314 253.531 24.428 253.183 24.656C252.835 24.884 252.439 25.22 251.995 25.664V32H250.519ZM263.117 32.216C262.649 32.216 262.253 32.144 261.929 32C261.617 31.856 261.359 31.658 261.155 31.406C260.963 31.154 260.825 30.848 260.741 30.488C260.657 30.128 260.615 29.732 260.615 29.3V24.458H259.319V23.342L260.687 23.252L260.867 20.804H262.109V23.252H264.467V24.458H262.109V29.318C262.109 29.858 262.205 30.278 262.397 30.578C262.601 30.866 262.955 31.01 263.459 31.01C263.615 31.01 263.783 30.986 263.963 30.938C264.143 30.89 264.305 30.836 264.449 30.776L264.737 31.892C264.497 31.976 264.233 32.048 263.945 32.108C263.669 32.18 263.393 32.216 263.117 32.216ZM268.555 32.216C267.931 32.216 267.337 32.102 266.773 31.874C266.209 31.646 265.717 31.358 265.297 31.01L266.035 30.02C266.419 30.332 266.809 30.584 267.205 30.776C267.613 30.968 268.081 31.064 268.609 31.064C269.185 31.064 269.617 30.932 269.905 30.668C270.193 30.404 270.337 30.08 270.337 29.696C270.337 29.468 270.277 29.27 270.157 29.102C270.037 28.934 269.881 28.79 269.689 28.67C269.509 28.538 269.299 28.424 269.059 28.328C268.819 28.232 268.579 28.136 268.339 28.04C268.027 27.932 267.715 27.812 267.403 27.68C267.091 27.536 266.809 27.368 266.557 27.176C266.317 26.972 266.119 26.738 265.963 26.474C265.807 26.21 265.729 25.892 265.729 25.52C265.729 25.172 265.795 24.848 265.927 24.548C266.071 24.236 266.269 23.972 266.521 23.756C266.785 23.528 267.103 23.354 267.475 23.234C267.847 23.102 268.267 23.036 268.735 23.036C269.287 23.036 269.791 23.132 270.247 23.324C270.715 23.516 271.117 23.75 271.453 24.026L270.751 24.962C270.451 24.734 270.139 24.548 269.815 24.404C269.491 24.26 269.137 24.188 268.753 24.188C268.201 24.188 267.793 24.314 267.529 24.566C267.277 24.818 267.151 25.112 267.151 25.448C267.151 25.652 267.205 25.832 267.313 25.988C267.421 26.132 267.565 26.264 267.745 26.384C267.925 26.492 268.129 26.594 268.357 26.69C268.597 26.774 268.843 26.864 269.095 26.96C269.407 27.08 269.719 27.206 270.031 27.338C270.355 27.47 270.643 27.638 270.895 27.842C271.147 28.034 271.351 28.274 271.507 28.562C271.675 28.85 271.759 29.198 271.759 29.606C271.759 29.966 271.687 30.302 271.543 30.614C271.411 30.926 271.207 31.202 270.931 31.442C270.667 31.682 270.331 31.868 269.923 32C269.527 32.144 269.071 32.216 268.555 32.216Z" fill="white"/>
</g>
<defs>
<filter id="filter0_d_1_309" x="0" y="0" width="2508" height="59" filterUnits="userSpaceOnUse" color-interpolation-filters="sRGB">
<feFlood flood-opacity="0" result="BackgroundImageFix"/>
<feColorMatrix in="SourceAlpha" type="matrix" values="0 0 0 0 0 0 0 0 0 0 0 0 0 0 0 0 0 0 127 0" result="hardAlpha"/>
<feOffset dy="4"/>
<feGaussianBlur stdDeviation="2"/>
<feComposite in2="hardAlpha" operator="out"/>
<feColorMatrix type="matrix" values="0 0 0 0 0 0 0 0 0 0 0 0 0 0 0 0 0 0 0.06 0"/>
<feBlend mode="normal" in2="BackgroundImageFix" result="effect1_dropShadow_1_309"/>
<feBlend mode="normal" in="SourceGraphic" in2="effect1_dropShadow_1_309" result="shape"/>
</filter>
</defs>
</svg>
