<svg width="1091" height="73" viewBox="0 0 1091 73" fill="none" xmlns="http://www.w3.org/2000/svg">
<g filter="url(#filter0_d_1025_26947)">
<rect x="17" y="12" width="1057" height="39" rx="2" fill="white"/>
<rect x="17.5" y="12.5" width="1056" height="38" rx="1.5" stroke="#D7D7D7"/>
<path d="M37.0234 25.625H38.8828L41.9922 34.1875L45.0938 25.625H46.9609L42.7344 37H41.2422L37.0234 25.625ZM36.0859 25.625H37.9062L38.2344 33.4922V37H36.0859V25.625ZM46.0703 25.625H47.8984V37H45.75V33.4922L46.0703 25.625ZM52.0863 36.0625L54.3519 28.5469H56.5628L53.1722 38.2812C53.0941 38.4896 52.9925 38.7161 52.8675 38.9609C52.7477 39.2057 52.5863 39.4375 52.3831 39.6562C52.18 39.8802 51.9248 40.0625 51.6175 40.2031C51.3154 40.3438 50.9482 40.4141 50.5159 40.4141C50.3284 40.4141 50.1618 40.401 50.0159 40.375C49.8701 40.349 49.7165 40.3151 49.555 40.2734V38.7266C49.6071 38.7318 49.667 38.7344 49.7347 38.7344C49.8076 38.7396 49.8701 38.7422 49.9222 38.7422C50.2243 38.7422 50.4743 38.7057 50.6722 38.6328C50.8701 38.5651 51.029 38.4531 51.1488 38.2969C51.2738 38.1458 51.3779 37.9479 51.4613 37.7031L52.0863 36.0625ZM50.9691 28.5469L52.8831 34.7734L53.2191 36.9531L51.7972 37.2109L48.7425 28.5469H50.9691ZM67.0166 34.0469C67.0166 33.8281 66.9827 33.6328 66.915 33.4609C66.8525 33.2839 66.7353 33.125 66.5634 32.9844C66.3968 32.8385 66.1598 32.6979 65.8525 32.5625C65.5504 32.4219 65.1598 32.276 64.6806 32.125C64.1494 31.9583 63.6546 31.7708 63.1963 31.5625C62.7379 31.3542 62.3343 31.112 61.9853 30.8359C61.6416 30.5599 61.3733 30.2422 61.1806 29.8828C60.9879 29.5182 60.8916 29.0964 60.8916 28.6172C60.8916 28.1484 60.9905 27.7214 61.1884 27.3359C61.3916 26.9505 61.678 26.6198 62.0478 26.3438C62.4176 26.0625 62.8525 25.8464 63.3525 25.6953C63.8577 25.5443 64.415 25.4688 65.0244 25.4688C65.8681 25.4688 66.5973 25.6224 67.2119 25.9297C67.8317 26.237 68.3108 26.6536 68.6494 27.1797C68.9879 27.7057 69.1572 28.2969 69.1572 28.9531H67.0166C67.0166 28.599 66.941 28.2865 66.79 28.0156C66.6442 27.7448 66.4202 27.5312 66.1181 27.375C65.8213 27.2188 65.4463 27.1406 64.9931 27.1406C64.5556 27.1406 64.191 27.2057 63.8994 27.3359C63.6129 27.4661 63.3968 27.6432 63.2509 27.8672C63.1103 28.0911 63.04 28.3411 63.04 28.6172C63.04 28.8255 63.0895 29.013 63.1884 29.1797C63.2874 29.3411 63.4358 29.4948 63.6338 29.6406C63.8317 29.7812 64.0765 29.9141 64.3681 30.0391C64.665 30.1589 65.0088 30.2786 65.3994 30.3984C66.0244 30.5859 66.5713 30.7943 67.04 31.0234C67.514 31.2526 67.9072 31.513 68.2197 31.8047C68.5374 32.0964 68.7744 32.4245 68.9306 32.7891C69.0921 33.1536 69.1728 33.5677 69.1728 34.0312C69.1728 34.5208 69.0765 34.9583 68.8838 35.3438C68.691 35.7292 68.415 36.0573 68.0556 36.3281C67.6963 36.599 67.264 36.8047 66.7588 36.9453C66.2588 37.0859 65.6989 37.1562 65.0791 37.1562C64.527 37.1562 63.9801 37.0833 63.4384 36.9375C62.902 36.7865 62.415 36.5625 61.9775 36.2656C61.54 35.9635 61.191 35.5833 60.9306 35.125C60.6702 34.6615 60.54 34.1198 60.54 33.5H62.6963C62.6963 33.8594 62.7535 34.1667 62.8681 34.4219C62.9879 34.6719 63.1546 34.8776 63.3681 35.0391C63.5869 35.1953 63.8421 35.3099 64.1338 35.3828C64.4254 35.4557 64.7405 35.4922 65.0791 35.4922C65.5166 35.4922 65.8759 35.4323 66.1572 35.3125C66.4436 35.1875 66.6572 35.0156 66.7978 34.7969C66.9436 34.5781 67.0166 34.3281 67.0166 34.0469ZM73.8216 35.5312C74.1132 35.5312 74.3736 35.474 74.6028 35.3594C74.832 35.2448 75.0143 35.0833 75.1497 34.875C75.2903 34.6667 75.3658 34.4245 75.3763 34.1484H77.3216C77.3111 34.7214 77.1497 35.2344 76.8372 35.6875C76.5247 36.1406 76.108 36.5 75.5872 36.7656C75.0716 37.026 74.4934 37.1562 73.8528 37.1562C73.2018 37.1562 72.6341 37.0469 72.1497 36.8281C71.6653 36.6094 71.2617 36.3047 70.9388 35.9141C70.621 35.5234 70.3815 35.0703 70.22 34.5547C70.0638 34.0391 69.9856 33.487 69.9856 32.8984V32.6484C69.9856 32.0599 70.0638 31.5078 70.22 30.9922C70.3815 30.4766 70.621 30.0234 70.9388 29.6328C71.2617 29.2422 71.6653 28.9375 72.1497 28.7188C72.6341 28.5 73.1992 28.3906 73.845 28.3906C74.5273 28.3906 75.1263 28.5234 75.6419 28.7891C76.1627 29.0547 76.569 29.4297 76.8606 29.9141C77.1575 30.3984 77.3111 30.9688 77.3216 31.625H75.3763C75.3658 31.3229 75.2981 31.0521 75.1731 30.8125C75.0481 30.5729 74.871 30.3802 74.6419 30.2344C74.4127 30.0885 74.1341 30.0156 73.8059 30.0156C73.457 30.0156 73.1653 30.0885 72.9309 30.2344C72.7018 30.3802 72.5221 30.5807 72.3919 30.8359C72.2669 31.0859 72.1783 31.3672 72.1263 31.6797C72.0794 31.987 72.0559 32.3099 72.0559 32.6484V32.8984C72.0559 33.2422 72.0794 33.5703 72.1263 33.8828C72.1783 34.1953 72.2669 34.4766 72.3919 34.7266C72.5221 34.9714 72.7018 35.1667 72.9309 35.3125C73.1653 35.4583 73.4622 35.5312 73.8216 35.5312ZM80.4 25V37H78.3297V25H80.4ZM80.0719 32.4688H79.4625C79.4625 31.8802 79.5406 31.3385 79.6969 30.8438C79.8531 30.349 80.0745 29.9193 80.3609 29.5547C80.6474 29.1849 80.9885 28.8984 81.3844 28.6953C81.7854 28.4922 82.2281 28.3906 82.7125 28.3906C83.1292 28.3906 83.5068 28.4505 83.8453 28.5703C84.1891 28.6849 84.4833 28.8698 84.7281 29.125C84.9729 29.3802 85.1604 29.7135 85.2906 30.125C85.426 30.5312 85.4938 31.026 85.4938 31.6094V37H83.4156V31.5938C83.4156 31.2031 83.3583 30.8958 83.2438 30.6719C83.1292 30.4427 82.9651 30.2786 82.7516 30.1797C82.5432 30.0807 82.2854 30.0312 81.9781 30.0312C81.6448 30.0312 81.3583 30.0964 81.1188 30.2266C80.8792 30.3516 80.6813 30.526 80.525 30.75C80.374 30.974 80.2594 31.2318 80.1813 31.5234C80.1083 31.8151 80.0719 32.1302 80.0719 32.4688ZM90.7909 37.1562C90.1503 37.1562 89.5748 37.0521 89.0644 36.8438C88.554 36.6354 88.1191 36.3464 87.7597 35.9766C87.4055 35.6016 87.1321 35.1667 86.9394 34.6719C86.7519 34.1719 86.6581 33.6354 86.6581 33.0625V32.75C86.6581 32.099 86.7519 31.5078 86.9394 30.9766C87.1269 30.4401 87.3925 29.9792 87.7363 29.5938C88.08 29.2083 88.4915 28.9115 88.9706 28.7031C89.4498 28.4948 89.9784 28.3906 90.5566 28.3906C91.1555 28.3906 91.6842 28.4922 92.1425 28.6953C92.6008 28.8932 92.9836 29.1745 93.2909 29.5391C93.5982 29.9036 93.83 30.3411 93.9863 30.8516C94.1425 31.3568 94.2206 31.9167 94.2206 32.5312V33.3984H87.5956V31.9766H92.1894V31.8203C92.179 31.4922 92.1165 31.1927 92.0019 30.9219C91.8873 30.6458 91.7102 30.4271 91.4706 30.2656C91.231 30.099 90.9211 30.0156 90.5409 30.0156C90.2336 30.0156 89.9654 30.0833 89.7363 30.2188C89.5123 30.349 89.3248 30.5365 89.1738 30.7812C89.0279 31.0208 88.9185 31.3073 88.8456 31.6406C88.7727 31.974 88.7363 32.3438 88.7363 32.75V33.0625C88.7363 33.4167 88.7831 33.7448 88.8769 34.0469C88.9758 34.349 89.1191 34.612 89.3066 34.8359C89.4993 35.0547 89.7284 35.2266 89.9941 35.3516C90.2649 35.4714 90.5722 35.5312 90.9159 35.5312C91.3482 35.5312 91.7389 35.4479 92.0878 35.2812C92.442 35.1094 92.7493 34.8568 93.0097 34.5234L94.0488 35.6016C93.8717 35.862 93.6321 36.112 93.33 36.3516C93.0331 36.5911 92.6738 36.7865 92.2519 36.9375C91.83 37.0833 91.343 37.1562 90.7909 37.1562ZM100.354 35.2031V25H102.432V37H100.557L100.354 35.2031ZM94.9241 32.875V32.7109C94.9241 32.0651 94.997 31.4792 95.1428 30.9531C95.2939 30.4219 95.5126 29.9661 95.7991 29.5859C96.0855 29.2057 96.4319 28.9115 96.8381 28.7031C97.2496 28.4948 97.7157 28.3906 98.2366 28.3906C98.7418 28.3906 99.1819 28.4922 99.5569 28.6953C99.9371 28.8984 100.26 29.1875 100.526 29.5625C100.796 29.9375 101.013 30.3828 101.174 30.8984C101.336 31.4089 101.453 31.9714 101.526 32.5859V33.0312C101.453 33.6302 101.336 34.1797 101.174 34.6797C101.013 35.1797 100.796 35.6172 100.526 35.9922C100.26 36.362 99.9371 36.6484 99.5569 36.8516C99.1767 37.0547 98.7314 37.1562 98.2209 37.1562C97.7053 37.1562 97.2418 37.0495 96.8303 36.8359C96.4241 36.6224 96.0777 36.3229 95.7912 35.9375C95.51 35.5521 95.2939 35.099 95.1428 34.5781C94.997 34.0573 94.9241 33.4896 94.9241 32.875ZM96.9944 32.7109V32.875C96.9944 33.2396 97.0256 33.5807 97.0881 33.8984C97.1506 34.2161 97.2522 34.4974 97.3928 34.7422C97.5334 34.9818 97.7131 35.1693 97.9319 35.3047C98.1558 35.4401 98.4267 35.5078 98.7444 35.5078C99.1506 35.5078 99.484 35.4193 99.7444 35.2422C100.01 35.0599 100.216 34.8125 100.362 34.5C100.507 34.1823 100.601 33.8255 100.643 33.4297V32.2031C100.622 31.8906 100.567 31.6016 100.479 31.3359C100.395 31.0703 100.276 30.8411 100.119 30.6484C99.9683 30.4557 99.7808 30.3047 99.5569 30.1953C99.3329 30.0859 99.0673 30.0312 98.76 30.0312C98.4423 30.0312 98.1715 30.1016 97.9475 30.2422C97.7235 30.3776 97.5412 30.5677 97.4006 30.8125C97.26 31.0573 97.1558 31.3411 97.0881 31.6641C97.0256 31.987 96.9944 32.3359 96.9944 32.7109ZM109.01 34.9922V28.5469H111.088V37H109.135L109.01 34.9922ZM109.276 33.2422L109.917 33.2266C109.917 33.7943 109.854 34.3177 109.729 34.7969C109.604 35.276 109.409 35.6927 109.143 36.0469C108.883 36.3958 108.552 36.6693 108.151 36.8672C107.75 37.0599 107.276 37.1562 106.729 37.1562C106.312 37.1562 105.932 37.099 105.588 36.9844C105.245 36.8646 104.948 36.6797 104.698 36.4297C104.453 36.1745 104.263 35.849 104.128 35.4531C103.992 35.0521 103.924 34.5703 103.924 34.0078V28.5469H105.987V34.0234C105.987 34.3047 106.018 34.5391 106.081 34.7266C106.148 34.9141 106.239 35.0677 106.354 35.1875C106.474 35.3021 106.612 35.3854 106.768 35.4375C106.93 35.4844 107.101 35.5078 107.284 35.5078C107.784 35.5078 108.177 35.4089 108.463 35.2109C108.755 35.0078 108.963 34.737 109.088 34.3984C109.213 34.0547 109.276 33.6693 109.276 33.2422ZM114.784 25V37H112.714V25H114.784ZM120.23 37.1562C119.589 37.1562 119.014 37.0521 118.503 36.8438C117.993 36.6354 117.558 36.3464 117.198 35.9766C116.844 35.6016 116.571 35.1667 116.378 34.6719C116.191 34.1719 116.097 33.6354 116.097 33.0625V32.75C116.097 32.099 116.191 31.5078 116.378 30.9766C116.566 30.4401 116.831 29.9792 117.175 29.5938C117.519 29.2083 117.93 28.9115 118.409 28.7031C118.889 28.4948 119.417 28.3906 119.995 28.3906C120.594 28.3906 121.123 28.4922 121.581 28.6953C122.04 28.8932 122.422 29.1745 122.73 29.5391C123.037 29.9036 123.269 30.3411 123.425 30.8516C123.581 31.3568 123.659 31.9167 123.659 32.5312V33.3984H117.034V31.9766H121.628V31.8203C121.618 31.4922 121.555 31.1927 121.441 30.9219C121.326 30.6458 121.149 30.4271 120.909 30.2656C120.67 30.099 120.36 30.0156 119.98 30.0156C119.672 30.0156 119.404 30.0833 119.175 30.2188C118.951 30.349 118.764 30.5365 118.613 30.7812C118.467 31.0208 118.357 31.3073 118.284 31.6406C118.211 31.974 118.175 32.3438 118.175 32.75V33.0625C118.175 33.4167 118.222 33.7448 118.316 34.0469C118.415 34.349 118.558 34.612 118.745 34.8359C118.938 35.0547 119.167 35.2266 119.433 35.3516C119.704 35.4714 120.011 35.5312 120.355 35.5312C120.787 35.5312 121.178 35.4479 121.527 35.2812C121.881 35.1094 122.188 34.8568 122.448 34.5234L123.488 35.6016C123.31 35.862 123.071 36.112 122.769 36.3516C122.472 36.5911 122.113 36.7865 121.691 36.9375C121.269 37.0833 120.782 37.1562 120.23 37.1562Z" fill="#4B5054"/>
<path d="M175.742 33.2578H177.891C177.833 34.0182 177.622 34.6927 177.258 35.2812C176.893 35.8646 176.385 36.3229 175.734 36.6562C175.083 36.9896 174.294 37.1562 173.367 37.1562C172.654 37.1562 172.01 37.0312 171.438 36.7812C170.87 36.526 170.383 36.1641 169.977 35.6953C169.576 35.2214 169.268 34.6536 169.055 33.9922C168.841 33.3255 168.734 32.5781 168.734 31.75V30.8828C168.734 30.0547 168.844 29.3073 169.062 28.6406C169.281 27.974 169.594 27.4062 170 26.9375C170.411 26.4635 170.904 26.099 171.477 25.8438C172.055 25.5885 172.701 25.4609 173.414 25.4609C174.341 25.4609 175.125 25.6328 175.766 25.9766C176.406 26.3151 176.904 26.7812 177.258 27.375C177.612 27.9688 177.826 28.651 177.898 29.4219H175.75C175.708 28.9427 175.604 28.5365 175.438 28.2031C175.276 27.8698 175.031 27.6172 174.703 27.4453C174.38 27.2682 173.951 27.1797 173.414 27.1797C172.997 27.1797 172.63 27.2578 172.312 27.4141C172 27.5703 171.74 27.8047 171.531 28.1172C171.323 28.4245 171.167 28.8099 171.062 29.2734C170.958 29.7318 170.906 30.263 170.906 30.8672V31.75C170.906 32.3281 170.953 32.8464 171.047 33.3047C171.141 33.763 171.286 34.151 171.484 34.4688C171.682 34.7865 171.938 35.0286 172.25 35.1953C172.562 35.362 172.935 35.4453 173.367 35.4453C173.893 35.4453 174.32 35.362 174.648 35.1953C174.982 35.0286 175.234 34.7839 175.406 34.4609C175.583 34.138 175.695 33.737 175.742 33.2578ZM178.711 32.8594V32.6953C178.711 32.0755 178.8 31.5052 178.977 30.9844C179.154 30.4583 179.412 30.0026 179.75 29.6172C180.089 29.2318 180.503 28.9323 180.993 28.7188C181.482 28.5 182.039 28.3906 182.664 28.3906C183.3 28.3906 183.862 28.5 184.352 28.7188C184.847 28.9323 185.263 29.2318 185.602 29.6172C185.94 30.0026 186.198 30.4583 186.375 30.9844C186.552 31.5052 186.641 32.0755 186.641 32.6953V32.8594C186.641 33.474 186.552 34.0443 186.375 34.5703C186.198 35.0911 185.94 35.5469 185.602 35.9375C185.263 36.3229 184.849 36.6224 184.36 36.8359C183.87 37.0495 183.31 37.1562 182.68 37.1562C182.055 37.1562 181.495 37.0495 181 36.8359C180.506 36.6224 180.089 36.3229 179.75 35.9375C179.412 35.5469 179.154 35.0911 178.977 34.5703C178.8 34.0443 178.711 33.474 178.711 32.8594ZM180.774 32.6953V32.8594C180.774 33.2292 180.81 33.5755 180.883 33.8984C180.956 34.2214 181.068 34.5052 181.219 34.75C181.37 34.9948 181.565 35.1875 181.805 35.3281C182.05 35.4635 182.341 35.5312 182.68 35.5312C183.013 35.5312 183.3 35.4635 183.539 35.3281C183.779 35.1875 183.974 34.9948 184.125 34.75C184.282 34.5052 184.396 34.2214 184.469 33.8984C184.542 33.5755 184.578 33.2292 184.578 32.8594V32.6953C184.578 32.3307 184.542 31.9896 184.469 31.6719C184.396 31.349 184.282 31.0651 184.125 30.8203C183.974 30.5703 183.776 30.375 183.532 30.2344C183.292 30.0885 183.003 30.0156 182.664 30.0156C182.331 30.0156 182.045 30.0885 181.805 30.2344C181.565 30.375 181.37 30.5703 181.219 30.8203C181.068 31.0651 180.956 31.349 180.883 31.6719C180.81 31.9896 180.774 32.3307 180.774 32.6953ZM189.844 30.3516V37H187.782V28.5469H189.719L189.844 30.3516ZM189.516 32.4688H188.907C188.912 31.8542 188.995 31.2969 189.157 30.7969C189.318 30.2969 189.545 29.8672 189.837 29.5078C190.133 29.1484 190.485 28.8724 190.891 28.6797C191.298 28.487 191.751 28.3906 192.251 28.3906C192.657 28.3906 193.024 28.4479 193.352 28.5625C193.68 28.6771 193.962 28.8594 194.196 29.1094C194.436 29.3594 194.618 29.6875 194.743 30.0938C194.873 30.4948 194.938 30.9896 194.938 31.5781V37H192.86V31.5625C192.86 31.1771 192.803 30.8724 192.688 30.6484C192.579 30.4245 192.417 30.2656 192.204 30.1719C191.995 30.0781 191.738 30.0312 191.43 30.0312C191.113 30.0312 190.834 30.0964 190.594 30.2266C190.36 30.3516 190.162 30.526 190.001 30.75C189.844 30.974 189.725 31.2318 189.641 31.5234C189.558 31.8151 189.516 32.1302 189.516 32.4688ZM199.048 37H196.97V28.0781C196.97 27.3802 197.11 26.7917 197.392 26.3125C197.678 25.8281 198.087 25.4609 198.618 25.2109C199.155 24.9609 199.793 24.8359 200.532 24.8359C200.964 24.8359 201.381 24.8802 201.782 24.9688C202.188 25.0521 202.605 25.1615 203.032 25.2969L202.728 26.9688C202.451 26.8802 202.149 26.7969 201.821 26.7188C201.498 26.6406 201.116 26.6016 200.673 26.6016C200.126 26.6016 199.717 26.7266 199.446 26.9766C199.181 27.2266 199.048 27.5938 199.048 28.0781V37ZM200.735 28.5469V30.0312H195.696V28.5469H200.735ZM204.001 28.5469V37H201.931V28.5469H204.001ZM207.743 30.2734V37H205.681V28.5469H207.634L207.743 30.2734ZM210.314 28.4922L210.283 30.4141C210.168 30.3932 210.038 30.3776 209.892 30.3672C209.751 30.3568 209.618 30.3516 209.493 30.3516C209.176 30.3516 208.897 30.3958 208.658 30.4844C208.418 30.5677 208.217 30.6901 208.056 30.8516C207.9 31.013 207.78 31.2109 207.697 31.4453C207.613 31.6745 207.566 31.9349 207.556 32.2266L207.111 32.1719C207.111 31.6354 207.165 31.138 207.275 30.6797C207.384 30.2214 207.543 29.8203 207.751 29.4766C207.96 29.1328 208.22 28.8672 208.533 28.6797C208.85 28.487 209.215 28.3906 209.626 28.3906C209.741 28.3906 209.863 28.401 209.993 28.4219C210.129 28.4375 210.236 28.4609 210.314 28.4922ZM213.181 30.2812V37H211.119V28.5469H213.064L213.181 30.2812ZM212.877 32.4688H212.244C212.244 31.8802 212.314 31.3385 212.455 30.8438C212.601 30.349 212.814 29.9193 213.095 29.5547C213.377 29.1849 213.723 28.8984 214.134 28.6953C214.551 28.4922 215.033 28.3906 215.58 28.3906C215.96 28.3906 216.309 28.4479 216.627 28.5625C216.944 28.6719 217.218 28.8464 217.447 29.0859C217.681 29.3203 217.861 29.6276 217.986 30.0078C218.111 30.3828 218.173 30.8333 218.173 31.3594V37H216.111V31.5703C216.111 31.1745 216.054 30.8646 215.939 30.6406C215.83 30.4167 215.671 30.2604 215.463 30.1719C215.254 30.0781 215.004 30.0312 214.713 30.0312C214.39 30.0312 214.111 30.0964 213.877 30.2266C213.647 30.3516 213.457 30.526 213.306 30.75C213.16 30.974 213.051 31.2318 212.978 31.5234C212.91 31.8151 212.877 32.1302 212.877 32.4688ZM218.017 32.0859L217.166 32.2422C217.171 31.7109 217.244 31.2135 217.384 30.75C217.525 30.2812 217.731 29.8724 218.002 29.5234C218.278 29.1693 218.619 28.8932 219.025 28.6953C219.436 28.4922 219.91 28.3906 220.447 28.3906C220.864 28.3906 221.239 28.4505 221.572 28.5703C221.91 28.6849 222.199 28.8698 222.439 29.125C222.679 29.375 222.861 29.7005 222.986 30.1016C223.116 30.5026 223.181 30.9922 223.181 31.5703V37H221.103V31.5625C221.103 31.151 221.046 30.8359 220.931 30.6172C220.822 30.3984 220.663 30.2474 220.455 30.1641C220.246 30.0755 220.002 30.0312 219.72 30.0312C219.434 30.0312 219.184 30.0859 218.97 30.1953C218.762 30.2995 218.585 30.4453 218.439 30.6328C218.298 30.8203 218.192 31.0391 218.119 31.2891C218.051 31.5339 218.017 31.7995 218.017 32.0859ZM229.369 35.2031V31.3047C229.369 31.0182 229.32 30.7708 229.221 30.5625C229.122 30.3542 228.971 30.1927 228.768 30.0781C228.564 29.9635 228.307 29.9062 227.994 29.9062C227.718 29.9062 227.476 29.9531 227.268 30.0469C227.064 30.1406 226.908 30.2734 226.799 30.4453C226.689 30.612 226.635 30.8047 226.635 31.0234H224.564C224.564 30.6745 224.648 30.3438 224.814 30.0312C224.981 29.7135 225.218 29.4323 225.525 29.1875C225.838 28.9375 226.21 28.7422 226.643 28.6016C227.08 28.4609 227.57 28.3906 228.111 28.3906C228.752 28.3906 229.322 28.5 229.822 28.7188C230.327 28.9323 230.723 29.2552 231.01 29.6875C231.301 30.1198 231.447 30.6641 231.447 31.3203V35.0078C231.447 35.4297 231.473 35.7917 231.525 36.0938C231.583 36.3906 231.666 36.6484 231.775 36.8672V37H229.674C229.575 36.7865 229.499 36.5156 229.447 36.1875C229.395 35.8542 229.369 35.526 229.369 35.2031ZM229.658 31.8516L229.674 33.0781H228.369C228.046 33.0781 227.762 33.112 227.518 33.1797C227.273 33.2422 227.072 33.3359 226.916 33.4609C226.76 33.5807 226.643 33.7266 226.564 33.8984C226.486 34.0651 226.447 34.2552 226.447 34.4688C226.447 34.6771 226.494 34.8646 226.588 35.0312C226.687 35.1979 226.827 35.3307 227.01 35.4297C227.197 35.5234 227.416 35.5703 227.666 35.5703C228.031 35.5703 228.348 35.4974 228.619 35.3516C228.89 35.2005 229.101 35.0182 229.252 34.8047C229.403 34.5911 229.484 34.388 229.494 34.1953L230.088 35.0859C230.015 35.2995 229.906 35.526 229.76 35.7656C229.614 36.0052 229.426 36.2292 229.197 36.4375C228.968 36.6458 228.692 36.8177 228.369 36.9531C228.046 37.0885 227.671 37.1562 227.244 37.1562C226.697 37.1562 226.208 37.0469 225.775 36.8281C225.343 36.6094 225.002 36.3099 224.752 35.9297C224.502 35.5495 224.377 35.1172 224.377 34.6328C224.377 34.1849 224.46 33.7891 224.627 33.4453C224.794 33.1016 225.041 32.8125 225.369 32.5781C225.697 32.3385 226.103 32.1589 226.588 32.0391C227.077 31.9141 227.637 31.8516 228.268 31.8516H229.658ZM236.987 28.5469V30.0312H232.143V28.5469H236.987ZM233.44 26.4688H235.51V34.5625C235.51 34.8125 235.544 35.0052 235.612 35.1406C235.679 35.276 235.781 35.3672 235.916 35.4141C236.052 35.4609 236.213 35.4844 236.401 35.4844C236.536 35.4844 236.661 35.4766 236.776 35.4609C236.89 35.4453 236.987 35.4297 237.065 35.4141L237.073 36.9609C236.901 37.0182 236.705 37.0651 236.487 37.1016C236.273 37.138 236.031 37.1562 235.76 37.1562C235.296 37.1562 234.89 37.0781 234.541 36.9219C234.192 36.7604 233.921 36.5026 233.729 36.1484C233.536 35.7891 233.44 35.3151 233.44 34.7266V26.4688ZM240.229 28.5469V37H238.159V28.5469H240.229ZM238.018 26.3359C238.018 26.0286 238.122 25.7734 238.331 25.5703C238.544 25.3672 238.831 25.2656 239.19 25.2656C239.549 25.2656 239.833 25.3672 240.042 25.5703C240.255 25.7734 240.362 26.0286 240.362 26.3359C240.362 26.638 240.255 26.8906 240.042 27.0938C239.833 27.2969 239.549 27.3984 239.19 27.3984C238.831 27.3984 238.544 27.2969 238.331 27.0938C238.122 26.8906 238.018 26.638 238.018 26.3359ZM241.511 32.8594V32.6953C241.511 32.0755 241.599 31.5052 241.776 30.9844C241.953 30.4583 242.211 30.0026 242.55 29.6172C242.888 29.2318 243.302 28.9323 243.792 28.7188C244.281 28.5 244.839 28.3906 245.464 28.3906C246.099 28.3906 246.662 28.5 247.151 28.7188C247.646 28.9323 248.063 29.2318 248.401 29.6172C248.74 30.0026 248.998 30.4583 249.175 30.9844C249.352 31.5052 249.44 32.0755 249.44 32.6953V32.8594C249.44 33.474 249.352 34.0443 249.175 34.5703C248.998 35.0911 248.74 35.5469 248.401 35.9375C248.063 36.3229 247.649 36.6224 247.159 36.8359C246.669 37.0495 246.11 37.1562 245.479 37.1562C244.854 37.1562 244.294 37.0495 243.8 36.8359C243.305 36.6224 242.888 36.3229 242.55 35.9375C242.211 35.5469 241.953 35.0911 241.776 34.5703C241.599 34.0443 241.511 33.474 241.511 32.8594ZM243.573 32.6953V32.8594C243.573 33.2292 243.61 33.5755 243.683 33.8984C243.755 34.2214 243.867 34.5052 244.018 34.75C244.169 34.9948 244.365 35.1875 244.604 35.3281C244.849 35.4635 245.141 35.5312 245.479 35.5312C245.813 35.5312 246.099 35.4635 246.339 35.3281C246.578 35.1875 246.774 34.9948 246.925 34.75C247.081 34.5052 247.196 34.2214 247.268 33.8984C247.341 33.5755 247.378 33.2292 247.378 32.8594V32.6953C247.378 32.3307 247.341 31.9896 247.268 31.6719C247.196 31.349 247.081 31.0651 246.925 30.8203C246.774 30.5703 246.576 30.375 246.331 30.2344C246.091 30.0885 245.802 30.0156 245.464 30.0156C245.13 30.0156 244.844 30.0885 244.604 30.2344C244.365 30.375 244.169 30.5703 244.018 30.8203C243.867 31.0651 243.755 31.349 243.683 31.6719C243.61 31.9896 243.573 32.3307 243.573 32.6953ZM252.644 30.3516V37H250.581V28.5469H252.519L252.644 30.3516ZM252.316 32.4688H251.706C251.711 31.8542 251.795 31.2969 251.956 30.7969C252.118 30.2969 252.344 29.8672 252.636 29.5078C252.933 29.1484 253.284 28.8724 253.691 28.6797C254.097 28.487 254.55 28.3906 255.05 28.3906C255.456 28.3906 255.823 28.4479 256.152 28.5625C256.48 28.6771 256.761 28.8594 256.995 29.1094C257.235 29.3594 257.417 29.6875 257.542 30.0938C257.672 30.4948 257.738 30.9896 257.738 31.5781V37H255.659V31.5625C255.659 31.1771 255.602 30.8724 255.488 30.6484C255.378 30.4245 255.217 30.2656 255.003 30.1719C254.795 30.0781 254.537 30.0312 254.23 30.0312C253.912 30.0312 253.633 30.0964 253.394 30.2266C253.159 30.3516 252.961 30.526 252.8 30.75C252.644 30.974 252.524 31.2318 252.441 31.5234C252.357 31.8151 252.316 32.1302 252.316 32.4688ZM263.886 34.6875C263.886 34.5104 263.839 34.3516 263.746 34.2109C263.652 34.0703 263.475 33.9427 263.214 33.8281C262.959 33.7083 262.584 33.5964 262.089 33.4922C261.652 33.3984 261.248 33.2812 260.878 33.1406C260.509 33 260.191 32.8307 259.925 32.6328C259.66 32.4297 259.451 32.1927 259.3 31.9219C259.154 31.6458 259.082 31.3281 259.082 30.9688C259.082 30.6198 259.157 30.2917 259.308 29.9844C259.459 29.6719 259.678 29.3984 259.964 29.1641C260.251 28.9245 260.6 28.737 261.011 28.6016C261.423 28.4609 261.886 28.3906 262.402 28.3906C263.121 28.3906 263.738 28.5078 264.253 28.7422C264.774 28.9766 265.173 29.2995 265.449 29.7109C265.725 30.1172 265.863 30.5755 265.863 31.0859H263.8C263.8 30.862 263.748 30.6589 263.644 30.4766C263.545 30.2943 263.391 30.1484 263.183 30.0391C262.975 29.9245 262.712 29.8672 262.394 29.8672C262.108 29.8672 261.865 29.9141 261.668 30.0078C261.475 30.1016 261.329 30.224 261.23 30.375C261.131 30.526 261.082 30.6927 261.082 30.875C261.082 31.0104 261.108 31.1328 261.16 31.2422C261.217 31.3464 261.308 31.4427 261.433 31.5312C261.558 31.6198 261.727 31.7005 261.941 31.7734C262.16 31.8464 262.428 31.9167 262.746 31.9844C263.376 32.1094 263.925 32.276 264.394 32.4844C264.868 32.6875 265.238 32.9583 265.503 33.2969C265.769 33.6354 265.902 34.0677 265.902 34.5938C265.902 34.9688 265.821 35.3125 265.66 35.625C265.498 35.9323 265.264 36.2005 264.957 36.4297C264.649 36.6589 264.282 36.8385 263.855 36.9688C263.428 37.0938 262.946 37.1562 262.41 37.1562C261.634 37.1562 260.977 37.0182 260.441 36.7422C259.904 36.4609 259.498 36.1068 259.222 35.6797C258.946 35.2474 258.808 34.7995 258.808 34.3359H260.785C260.8 34.6641 260.889 34.9271 261.05 35.125C261.212 35.3229 261.415 35.4661 261.66 35.5547C261.91 35.638 262.173 35.6797 262.449 35.6797C262.761 35.6797 263.024 35.638 263.238 35.5547C263.451 35.4661 263.613 35.349 263.722 35.2031C263.832 35.0521 263.886 34.8802 263.886 34.6875Z" fill="#FD4F00"/>
</g>
<defs>
<filter id="filter0_d_1025_26947" x="0" y="0" width="1091" height="73" filterUnits="userSpaceOnUse" color-interpolation-filters="sRGB">
<feFlood flood-opacity="0" result="BackgroundImageFix"/>
<feColorMatrix in="SourceAlpha" type="matrix" values="0 0 0 0 0 0 0 0 0 0 0 0 0 0 0 0 0 0 127 0" result="hardAlpha"/>
<feOffset dy="5"/>
<feGaussianBlur stdDeviation="8.5"/>
<feColorMatrix type="matrix" values="0 0 0 0 0.133333 0 0 0 0 0.160784 0 0 0 0 0.180392 0 0 0 0.06 0"/>
<feBlend mode="normal" in2="BackgroundImageFix" result="effect1_dropShadow_1025_26947"/>
<feBlend mode="normal" in="SourceGraphic" in2="effect1_dropShadow_1025_26947" result="shape"/>
</filter>
</defs>
</svg>
