<svg width="1109" height="51" viewBox="0 0 1109 51" fill="none" xmlns="http://www.w3.org/2000/svg">
<g filter="url(#filter0_d_1117_13853)">
<rect width="1101" height="43" transform="translate(4)" fill="#262324"/>
<path d="M27.816 28.216C26.34 28.216 25.254 27.586 24.558 26.326L25.638 25.57C25.902 26.038 26.202 26.38 26.538 26.596C26.874 26.8 27.252 26.902 27.672 26.902C28.308 26.902 28.782 26.71 29.094 26.326C29.406 25.93 29.562 25.282 29.562 24.382V16.192H31.074V24.526C31.074 25.03 31.008 25.51 30.876 25.966C30.756 26.41 30.564 26.8 30.3 27.136C30.048 27.472 29.712 27.736 29.292 27.928C28.884 28.12 28.392 28.216 27.816 28.216ZM36.6804 28.216C35.7444 28.216 35.0604 27.928 34.6284 27.352C34.2084 26.776 33.9984 25.924 33.9984 24.796V19.252H35.4924V24.598C35.4924 25.426 35.6184 26.026 35.8704 26.398C36.1344 26.758 36.5544 26.938 37.1304 26.938C37.5864 26.938 37.9884 26.824 38.3364 26.596C38.6844 26.356 39.0684 25.978 39.4884 25.462V19.252H40.9644V28H39.7404L39.6144 26.632H39.5604C39.1524 27.112 38.7204 27.496 38.2644 27.784C37.8204 28.072 37.2924 28.216 36.6804 28.216ZM45.4815 28.216C44.9175 28.216 44.5155 28.048 44.2755 27.712C44.0355 27.376 43.9155 26.884 43.9155 26.236V15.184H45.3915V26.344C45.3915 26.584 45.4335 26.752 45.5175 26.848C45.6015 26.944 45.6975 26.992 45.8055 26.992C45.8535 26.992 45.8955 26.992 45.9315 26.992C45.9795 26.992 46.0455 26.98 46.1295 26.956L46.3275 28.072C46.2315 28.12 46.1175 28.156 45.9855 28.18C45.8535 28.204 45.6855 28.216 45.4815 28.216ZM48.6473 31.762C48.4433 31.762 48.2573 31.744 48.0893 31.708C47.9213 31.684 47.7653 31.642 47.6213 31.582L47.9093 30.412C48.0053 30.436 48.1133 30.46 48.2333 30.484C48.3533 30.52 48.4673 30.538 48.5753 30.538C49.0793 30.538 49.4873 30.358 49.7993 29.998C50.1233 29.65 50.3753 29.206 50.5553 28.666L50.7533 28.018L47.2433 19.252H48.7733L50.5553 24.094C50.6873 24.478 50.8253 24.886 50.9693 25.318C51.1253 25.738 51.2693 26.152 51.4013 26.56H51.4733C51.6053 26.164 51.7313 25.75 51.8513 25.318C51.9713 24.886 52.0913 24.478 52.2113 24.094L53.7773 19.252H55.2173L51.9233 28.72C51.7673 29.152 51.5933 29.554 51.4013 29.926C51.2093 30.298 50.9813 30.616 50.7173 30.88C50.4533 31.156 50.1533 31.372 49.8173 31.528C49.4813 31.684 49.0913 31.762 48.6473 31.762ZM63.2812 28.216C62.8252 28.216 62.4052 28.168 62.0212 28.072C61.6492 27.988 61.3072 27.874 60.9952 27.73C60.6832 27.574 60.4012 27.4 60.1492 27.208C59.9092 27.016 59.6932 26.812 59.5012 26.596L60.2572 25.624C60.6052 25.984 61.0072 26.302 61.4632 26.578C61.9312 26.854 62.5072 26.992 63.1912 26.992C63.8872 26.992 64.4572 26.806 64.9012 26.434C65.3452 26.05 65.5672 25.534 65.5672 24.886C65.5672 24.55 65.5012 24.244 65.3692 23.968C65.2492 23.68 65.0452 23.434 64.7572 23.23C64.4692 23.026 64.0912 22.87 63.6232 22.762C63.1552 22.654 62.5792 22.6 61.8952 22.6V21.466C62.5072 21.466 63.0172 21.412 63.4252 21.304C63.8452 21.196 64.1812 21.046 64.4332 20.854C64.6972 20.662 64.8832 20.434 64.9912 20.17C65.0992 19.906 65.1532 19.624 65.1532 19.324C65.1532 18.76 64.9732 18.316 64.6132 17.992C64.2652 17.668 63.7852 17.506 63.1732 17.506C62.6932 17.506 62.2492 17.614 61.8412 17.83C61.4452 18.046 61.0732 18.328 60.7252 18.676L59.9332 17.74C60.3772 17.32 60.8632 16.978 61.3912 16.714C61.9312 16.438 62.5432 16.3 63.2272 16.3C63.7312 16.3 64.1932 16.366 64.6132 16.498C65.0332 16.63 65.3932 16.822 65.6932 17.074C66.0052 17.314 66.2452 17.614 66.4132 17.974C66.5812 18.334 66.6652 18.748 66.6652 19.216C66.6652 19.912 66.4732 20.482 66.0892 20.926C65.7052 21.37 65.2012 21.712 64.5772 21.952V22.024C64.9252 22.108 65.2492 22.234 65.5492 22.402C65.8492 22.558 66.1132 22.762 66.3412 23.014C66.5692 23.254 66.7432 23.536 66.8632 23.86C66.9952 24.184 67.0612 24.544 67.0612 24.94C67.0612 25.444 66.9592 25.9 66.7552 26.308C66.5632 26.716 66.2932 27.064 65.9452 27.352C65.6092 27.628 65.2132 27.844 64.7572 28C64.3012 28.144 63.8092 28.216 63.2812 28.216ZM72.4625 28.216C71.2985 28.216 70.3925 27.7 69.7445 26.668C69.0965 25.636 68.7725 24.154 68.7725 22.222C68.7725 20.29 69.0965 18.82 69.7445 17.812C70.3925 16.804 71.2985 16.3 72.4625 16.3C73.6145 16.3 74.5145 16.804 75.1625 17.812C75.8105 18.82 76.1345 20.29 76.1345 22.222C76.1345 24.154 75.8105 25.636 75.1625 26.668C74.5145 27.7 73.6145 28.216 72.4625 28.216ZM72.4625 27.028C72.7985 27.028 73.0985 26.938 73.3625 26.758C73.6385 26.566 73.8725 26.278 74.0645 25.894C74.2685 25.498 74.4245 25 74.5325 24.4C74.6405 23.788 74.6945 23.062 74.6945 22.222C74.6945 21.382 74.6405 20.662 74.5325 20.062C74.4245 19.462 74.2685 18.976 74.0645 18.604C73.8725 18.22 73.6385 17.938 73.3625 17.758C73.0985 17.578 72.7985 17.488 72.4625 17.488C72.1265 17.488 71.8205 17.578 71.5445 17.758C71.2685 17.938 71.0285 18.22 70.8245 18.604C70.6325 18.976 70.4825 19.462 70.3745 20.062C70.2665 20.662 70.2125 21.382 70.2125 22.222C70.2125 23.902 70.4165 25.126 70.8245 25.894C71.2445 26.65 71.7905 27.028 72.4625 27.028ZM78.1337 31.06L77.7737 30.196C78.2897 29.968 78.6917 29.662 78.9797 29.278C79.2677 28.906 79.4057 28.48 79.3937 28C79.3577 28.012 79.2977 28.018 79.2137 28.018C78.9257 28.018 78.6737 27.934 78.4577 27.766C78.2537 27.586 78.1517 27.328 78.1517 26.992C78.1517 26.668 78.2597 26.416 78.4757 26.236C78.6917 26.044 78.9497 25.948 79.2497 25.948C79.6337 25.948 79.9337 26.104 80.1497 26.416C80.3777 26.728 80.4917 27.154 80.4917 27.694C80.4917 28.474 80.2817 29.152 79.8617 29.728C79.4417 30.304 78.8657 30.748 78.1337 31.06ZM85.7337 28V27.118C86.5977 26.254 87.3657 25.474 88.0377 24.778C88.7097 24.082 89.2737 23.44 89.7297 22.852C90.1857 22.252 90.5337 21.706 90.7737 21.214C91.0137 20.71 91.1337 20.224 91.1337 19.756C91.1337 19.096 90.9537 18.556 90.5937 18.136C90.2337 17.716 89.6877 17.506 88.9557 17.506C88.4757 17.506 88.0317 17.644 87.6237 17.92C87.2157 18.184 86.8437 18.508 86.5077 18.892L85.6617 18.046C86.1417 17.518 86.6517 17.098 87.1917 16.786C87.7317 16.462 88.3797 16.3 89.1357 16.3C90.2037 16.3 91.0437 16.612 91.6557 17.236C92.2677 17.848 92.5737 18.664 92.5737 19.684C92.5737 20.224 92.4537 20.77 92.2137 21.322C91.9857 21.862 91.6617 22.426 91.2417 23.014C90.8337 23.59 90.3417 24.196 89.7657 24.832C89.2017 25.456 88.5777 26.122 87.8937 26.83C88.2057 26.806 88.5297 26.782 88.8657 26.758C89.2017 26.734 89.5197 26.722 89.8197 26.722H93.1497V28H85.7337ZM98.4429 28.216C97.2789 28.216 96.3729 27.7 95.7249 26.668C95.0769 25.636 94.7529 24.154 94.7529 22.222C94.7529 20.29 95.0769 18.82 95.7249 17.812C96.3729 16.804 97.2789 16.3 98.4429 16.3C99.5949 16.3 100.495 16.804 101.143 17.812C101.791 18.82 102.115 20.29 102.115 22.222C102.115 24.154 101.791 25.636 101.143 26.668C100.495 27.7 99.5949 28.216 98.4429 28.216ZM98.4429 27.028C98.7789 27.028 99.0789 26.938 99.3429 26.758C99.6189 26.566 99.8529 26.278 100.045 25.894C100.249 25.498 100.405 25 100.513 24.4C100.621 23.788 100.675 23.062 100.675 22.222C100.675 21.382 100.621 20.662 100.513 20.062C100.405 19.462 100.249 18.976 100.045 18.604C99.8529 18.22 99.6189 17.938 99.3429 17.758C99.0789 17.578 98.7789 17.488 98.4429 17.488C98.1069 17.488 97.8009 17.578 97.5249 17.758C97.2489 17.938 97.0089 18.22 96.8049 18.604C96.6129 18.976 96.4629 19.462 96.3549 20.062C96.2469 20.662 96.1929 21.382 96.1929 22.222C96.1929 23.902 96.3969 25.126 96.8049 25.894C97.2249 26.65 97.7709 27.028 98.4429 27.028ZM103.628 28V27.118C104.492 26.254 105.26 25.474 105.932 24.778C106.604 24.082 107.168 23.44 107.624 22.852C108.08 22.252 108.428 21.706 108.668 21.214C108.908 20.71 109.028 20.224 109.028 19.756C109.028 19.096 108.848 18.556 108.488 18.136C108.128 17.716 107.582 17.506 106.85 17.506C106.37 17.506 105.926 17.644 105.518 17.92C105.11 18.184 104.738 18.508 104.402 18.892L103.556 18.046C104.036 17.518 104.546 17.098 105.086 16.786C105.626 16.462 106.274 16.3 107.03 16.3C108.098 16.3 108.938 16.612 109.55 17.236C110.162 17.848 110.468 18.664 110.468 19.684C110.468 20.224 110.348 20.77 110.108 21.322C109.88 21.862 109.556 22.426 109.136 23.014C108.728 23.59 108.236 24.196 107.66 24.832C107.096 25.456 106.472 26.122 105.788 26.83C106.1 26.806 106.424 26.782 106.76 26.758C107.096 26.734 107.414 26.722 107.714 26.722H111.044V28H103.628ZM116.103 28.216C115.647 28.216 115.227 28.168 114.843 28.072C114.471 27.988 114.129 27.874 113.817 27.73C113.505 27.574 113.223 27.4 112.971 27.208C112.731 27.016 112.515 26.812 112.323 26.596L113.079 25.624C113.427 25.984 113.829 26.302 114.285 26.578C114.753 26.854 115.329 26.992 116.013 26.992C116.709 26.992 117.279 26.806 117.723 26.434C118.167 26.05 118.389 25.534 118.389 24.886C118.389 24.55 118.323 24.244 118.191 23.968C118.071 23.68 117.867 23.434 117.579 23.23C117.291 23.026 116.913 22.87 116.445 22.762C115.977 22.654 115.401 22.6 114.717 22.6V21.466C115.329 21.466 115.839 21.412 116.247 21.304C116.667 21.196 117.003 21.046 117.255 20.854C117.519 20.662 117.705 20.434 117.813 20.17C117.921 19.906 117.975 19.624 117.975 19.324C117.975 18.76 117.795 18.316 117.435 17.992C117.087 17.668 116.607 17.506 115.995 17.506C115.515 17.506 115.071 17.614 114.663 17.83C114.267 18.046 113.895 18.328 113.547 18.676L112.755 17.74C113.199 17.32 113.685 16.978 114.213 16.714C114.753 16.438 115.365 16.3 116.049 16.3C116.553 16.3 117.015 16.366 117.435 16.498C117.855 16.63 118.215 16.822 118.515 17.074C118.827 17.314 119.067 17.614 119.235 17.974C119.403 18.334 119.487 18.748 119.487 19.216C119.487 19.912 119.295 20.482 118.911 20.926C118.527 21.37 118.023 21.712 117.399 21.952V22.024C117.747 22.108 118.071 22.234 118.371 22.402C118.671 22.558 118.935 22.762 119.163 23.014C119.391 23.254 119.565 23.536 119.685 23.86C119.817 24.184 119.883 24.544 119.883 24.94C119.883 25.444 119.781 25.9 119.577 26.308C119.385 26.716 119.115 27.064 118.767 27.352C118.431 27.628 118.035 27.844 117.579 28C117.123 28.144 116.631 28.216 116.103 28.216Z" fill="white"/>
<path d="M168.824 28.216C168.26 28.216 167.738 28.102 167.258 27.874C166.778 27.646 166.358 27.304 165.998 26.848C165.65 26.38 165.374 25.804 165.17 25.12C164.966 24.424 164.864 23.614 164.864 22.69C164.864 21.538 164.984 20.56 165.224 19.756C165.464 18.94 165.788 18.28 166.196 17.776C166.604 17.26 167.066 16.888 167.582 16.66C168.11 16.42 168.662 16.3 169.238 16.3C169.862 16.3 170.396 16.42 170.84 16.66C171.296 16.888 171.686 17.176 172.01 17.524L171.182 18.442C170.942 18.166 170.654 17.95 170.318 17.794C169.994 17.626 169.652 17.542 169.292 17.542C168.896 17.542 168.518 17.626 168.158 17.794C167.798 17.962 167.48 18.238 167.204 18.622C166.928 19.006 166.706 19.51 166.538 20.134C166.37 20.746 166.28 21.508 166.268 22.42C166.628 21.976 167.048 21.628 167.528 21.376C168.008 21.112 168.482 20.98 168.95 20.98C169.946 20.98 170.738 21.274 171.326 21.862C171.926 22.45 172.226 23.338 172.226 24.526C172.226 25.078 172.136 25.582 171.956 26.038C171.776 26.482 171.53 26.866 171.218 27.19C170.906 27.514 170.546 27.766 170.138 27.946C169.73 28.126 169.292 28.216 168.824 28.216ZM168.824 27.046C169.112 27.046 169.376 26.986 169.616 26.866C169.856 26.746 170.066 26.578 170.246 26.362C170.426 26.134 170.564 25.87 170.66 25.57C170.768 25.258 170.822 24.91 170.822 24.526C170.822 23.77 170.648 23.176 170.3 22.744C169.952 22.312 169.418 22.096 168.698 22.096C168.326 22.096 167.924 22.216 167.492 22.456C167.06 22.684 166.664 23.068 166.304 23.608C166.4 24.736 166.658 25.594 167.078 26.182C167.51 26.758 168.092 27.046 168.824 27.046ZM180.205 21.394L179.647 23.194H183.193L182.635 21.394C182.419 20.734 182.215 20.08 182.023 19.432C181.831 18.772 181.639 18.1 181.447 17.416H181.375C181.195 18.1 181.009 18.772 180.817 19.432C180.625 20.08 180.421 20.734 180.205 21.394ZM176.605 28L180.601 16.192H182.293L186.289 28H184.687L183.571 24.4H179.269L178.135 28H176.605ZM190.526 28.216C189.902 28.216 189.308 28.102 188.744 27.874C188.18 27.646 187.688 27.358 187.268 27.01L188.006 26.02C188.39 26.332 188.78 26.584 189.176 26.776C189.584 26.968 190.052 27.064 190.58 27.064C191.156 27.064 191.588 26.932 191.876 26.668C192.164 26.404 192.308 26.08 192.308 25.696C192.308 25.468 192.248 25.27 192.128 25.102C192.008 24.934 191.852 24.79 191.66 24.67C191.48 24.538 191.27 24.424 191.03 24.328C190.79 24.232 190.55 24.136 190.31 24.04C189.998 23.932 189.686 23.812 189.374 23.68C189.062 23.536 188.78 23.368 188.528 23.176C188.288 22.972 188.09 22.738 187.934 22.474C187.778 22.21 187.7 21.892 187.7 21.52C187.7 21.172 187.766 20.848 187.898 20.548C188.042 20.236 188.24 19.972 188.492 19.756C188.756 19.528 189.074 19.354 189.446 19.234C189.818 19.102 190.238 19.036 190.706 19.036C191.258 19.036 191.762 19.132 192.218 19.324C192.686 19.516 193.088 19.75 193.424 20.026L192.722 20.962C192.422 20.734 192.11 20.548 191.786 20.404C191.462 20.26 191.108 20.188 190.724 20.188C190.172 20.188 189.764 20.314 189.5 20.566C189.248 20.818 189.122 21.112 189.122 21.448C189.122 21.652 189.176 21.832 189.284 21.988C189.392 22.132 189.536 22.264 189.716 22.384C189.896 22.492 190.1 22.594 190.328 22.69C190.568 22.774 190.814 22.864 191.066 22.96C191.378 23.08 191.69 23.206 192.002 23.338C192.326 23.47 192.614 23.638 192.866 23.842C193.118 24.034 193.322 24.274 193.478 24.562C193.646 24.85 193.73 25.198 193.73 25.606C193.73 25.966 193.658 26.302 193.514 26.614C193.382 26.926 193.178 27.202 192.902 27.442C192.638 27.682 192.302 27.868 191.894 28C191.498 28.144 191.042 28.216 190.526 28.216ZM198.067 28.216C197.443 28.216 196.849 28.102 196.285 27.874C195.721 27.646 195.229 27.358 194.809 27.01L195.547 26.02C195.931 26.332 196.321 26.584 196.717 26.776C197.125 26.968 197.593 27.064 198.121 27.064C198.697 27.064 199.129 26.932 199.417 26.668C199.705 26.404 199.849 26.08 199.849 25.696C199.849 25.468 199.789 25.27 199.669 25.102C199.549 24.934 199.393 24.79 199.201 24.67C199.021 24.538 198.811 24.424 198.571 24.328C198.331 24.232 198.091 24.136 197.851 24.04C197.539 23.932 197.227 23.812 196.915 23.68C196.603 23.536 196.321 23.368 196.069 23.176C195.829 22.972 195.631 22.738 195.475 22.474C195.319 22.21 195.241 21.892 195.241 21.52C195.241 21.172 195.307 20.848 195.439 20.548C195.583 20.236 195.781 19.972 196.033 19.756C196.297 19.528 196.615 19.354 196.987 19.234C197.359 19.102 197.779 19.036 198.247 19.036C198.799 19.036 199.303 19.132 199.759 19.324C200.227 19.516 200.629 19.75 200.965 20.026L200.263 20.962C199.963 20.734 199.651 20.548 199.327 20.404C199.003 20.26 198.649 20.188 198.265 20.188C197.713 20.188 197.305 20.314 197.041 20.566C196.789 20.818 196.663 21.112 196.663 21.448C196.663 21.652 196.717 21.832 196.825 21.988C196.933 22.132 197.077 22.264 197.257 22.384C197.437 22.492 197.641 22.594 197.869 22.69C198.109 22.774 198.355 22.864 198.607 22.96C198.919 23.08 199.231 23.206 199.543 23.338C199.867 23.47 200.155 23.638 200.407 23.842C200.659 24.034 200.863 24.274 201.019 24.562C201.187 24.85 201.271 25.198 201.271 25.606C201.271 25.966 201.199 26.302 201.055 26.614C200.923 26.926 200.719 27.202 200.443 27.442C200.179 27.682 199.843 27.868 199.435 28C199.039 28.144 198.583 28.216 198.067 28.216ZM203.322 28V19.252H204.798V28H203.322ZM204.078 17.452C203.79 17.452 203.544 17.362 203.34 17.182C203.148 17.002 203.052 16.774 203.052 16.498C203.052 16.21 203.148 15.982 203.34 15.814C203.544 15.634 203.79 15.544 204.078 15.544C204.366 15.544 204.606 15.634 204.798 15.814C205.002 15.982 205.104 16.21 205.104 16.498C205.104 16.774 205.002 17.002 204.798 17.182C204.606 17.362 204.366 17.452 204.078 17.452ZM210.703 32.032C210.163 32.032 209.671 31.978 209.227 31.87C208.783 31.774 208.399 31.624 208.075 31.42C207.763 31.216 207.517 30.97 207.337 30.682C207.169 30.394 207.085 30.058 207.085 29.674C207.085 29.302 207.199 28.948 207.427 28.612C207.655 28.276 207.967 27.97 208.363 27.694V27.622C208.147 27.49 207.961 27.31 207.805 27.082C207.661 26.842 207.589 26.548 207.589 26.2C207.589 25.828 207.691 25.504 207.895 25.228C208.099 24.952 208.315 24.736 208.543 24.58V24.508C208.255 24.268 207.991 23.95 207.751 23.554C207.523 23.146 207.409 22.678 207.409 22.15C207.409 21.67 207.493 21.238 207.661 20.854C207.841 20.47 208.081 20.146 208.381 19.882C208.681 19.606 209.029 19.396 209.425 19.252C209.833 19.108 210.259 19.036 210.703 19.036C210.943 19.036 211.165 19.06 211.369 19.108C211.585 19.144 211.777 19.192 211.945 19.252H214.987V20.386H213.187C213.391 20.59 213.559 20.848 213.691 21.16C213.835 21.472 213.907 21.814 213.907 22.186C213.907 22.654 213.823 23.08 213.655 23.464C213.487 23.836 213.259 24.154 212.971 24.418C212.683 24.67 212.341 24.868 211.945 25.012C211.561 25.156 211.147 25.228 210.703 25.228C210.487 25.228 210.265 25.204 210.037 25.156C209.809 25.096 209.593 25.018 209.389 24.922C209.233 25.054 209.101 25.204 208.993 25.372C208.885 25.528 208.831 25.726 208.831 25.966C208.831 26.242 208.939 26.47 209.155 26.65C209.371 26.83 209.779 26.92 210.379 26.92H212.071C213.091 26.92 213.853 27.088 214.357 27.424C214.873 27.748 215.131 28.276 215.131 29.008C215.131 29.416 215.029 29.8 214.825 30.16C214.621 30.532 214.327 30.856 213.943 31.132C213.559 31.408 213.091 31.624 212.539 31.78C211.999 31.948 211.387 32.032 210.703 32.032ZM210.703 24.238C210.955 24.238 211.189 24.19 211.405 24.094C211.633 23.998 211.831 23.86 211.999 23.68C212.179 23.5 212.317 23.284 212.413 23.032C212.509 22.768 212.557 22.474 212.557 22.15C212.557 21.502 212.377 21.004 212.017 20.656C211.657 20.296 211.219 20.116 210.703 20.116C210.187 20.116 209.749 20.296 209.389 20.656C209.029 21.004 208.849 21.502 208.849 22.15C208.849 22.474 208.897 22.768 208.993 23.032C209.089 23.284 209.221 23.5 209.389 23.68C209.569 23.86 209.767 23.998 209.983 24.094C210.211 24.19 210.451 24.238 210.703 24.238ZM210.919 31.006C211.339 31.006 211.717 30.952 212.053 30.844C212.401 30.748 212.695 30.616 212.935 30.448C213.175 30.292 213.361 30.106 213.493 29.89C213.625 29.674 213.691 29.452 213.691 29.224C213.691 28.816 213.541 28.534 213.241 28.378C212.941 28.222 212.503 28.144 211.927 28.144H210.415C210.247 28.144 210.061 28.132 209.857 28.108C209.665 28.096 209.473 28.06 209.281 28C208.969 28.228 208.741 28.468 208.597 28.72C208.453 28.972 208.381 29.224 208.381 29.476C208.381 29.944 208.603 30.316 209.047 30.592C209.503 30.868 210.127 31.006 210.919 31.006ZM216.822 28V19.252H218.046L218.172 20.512H218.226C218.646 20.092 219.084 19.744 219.54 19.468C220.008 19.18 220.548 19.036 221.16 19.036C222.084 19.036 222.756 19.324 223.176 19.9C223.608 20.476 223.824 21.328 223.824 22.456V28H222.348V22.654C222.348 21.826 222.216 21.232 221.952 20.872C221.688 20.5 221.268 20.314 220.692 20.314C220.236 20.314 219.834 20.428 219.486 20.656C219.138 20.884 218.742 21.22 218.298 21.664V28H216.822ZM226.665 28V19.252H227.889L228.015 20.512H228.069C228.453 20.092 228.867 19.744 229.311 19.468C229.767 19.18 230.259 19.036 230.787 19.036C231.459 19.036 231.981 19.186 232.353 19.486C232.737 19.774 233.019 20.182 233.199 20.71C233.655 20.206 234.111 19.804 234.567 19.504C235.035 19.192 235.539 19.036 236.079 19.036C236.979 19.036 237.645 19.324 238.077 19.9C238.521 20.476 238.743 21.328 238.743 22.456V28H237.267V22.654C237.267 21.826 237.135 21.232 236.871 20.872C236.607 20.5 236.199 20.314 235.647 20.314C234.987 20.314 234.255 20.764 233.451 21.664V28H231.975V22.654C231.975 21.826 231.843 21.232 231.579 20.872C231.315 20.5 230.901 20.314 230.337 20.314C229.677 20.314 228.945 20.764 228.141 21.664V28H226.665ZM245.135 28.216C244.547 28.216 243.995 28.114 243.479 27.91C242.975 27.694 242.531 27.394 242.147 27.01C241.775 26.614 241.481 26.134 241.265 25.57C241.049 25.006 240.941 24.364 240.941 23.644C240.941 22.924 241.049 22.282 241.265 21.718C241.493 21.142 241.787 20.656 242.147 20.26C242.519 19.864 242.939 19.564 243.407 19.36C243.875 19.144 244.361 19.036 244.865 19.036C245.417 19.036 245.909 19.132 246.341 19.324C246.785 19.516 247.151 19.792 247.439 20.152C247.739 20.512 247.967 20.944 248.123 21.448C248.279 21.952 248.357 22.516 248.357 23.14C248.357 23.296 248.351 23.452 248.339 23.608C248.339 23.752 248.327 23.878 248.303 23.986H242.399C242.459 24.922 242.747 25.666 243.263 26.218C243.791 26.758 244.475 27.028 245.315 27.028C245.735 27.028 246.119 26.968 246.467 26.848C246.827 26.716 247.169 26.548 247.493 26.344L248.015 27.316C247.631 27.556 247.205 27.766 246.737 27.946C246.269 28.126 245.735 28.216 245.135 28.216ZM242.381 22.924H247.061C247.061 22.036 246.869 21.364 246.485 20.908C246.113 20.44 245.585 20.206 244.901 20.206C244.589 20.206 244.289 20.266 244.001 20.386C243.725 20.506 243.473 20.686 243.245 20.926C243.017 21.154 242.825 21.436 242.669 21.772C242.525 22.108 242.429 22.492 242.381 22.924ZM250.519 28V19.252H251.743L251.869 20.512H251.923C252.343 20.092 252.781 19.744 253.237 19.468C253.705 19.18 254.245 19.036 254.857 19.036C255.781 19.036 256.453 19.324 256.873 19.9C257.305 20.476 257.521 21.328 257.521 22.456V28H256.045V22.654C256.045 21.826 255.913 21.232 255.649 20.872C255.385 20.5 254.965 20.314 254.389 20.314C253.933 20.314 253.531 20.428 253.183 20.656C252.835 20.884 252.439 21.22 251.995 21.664V28H250.519ZM263.117 28.216C262.649 28.216 262.253 28.144 261.929 28C261.617 27.856 261.359 27.658 261.155 27.406C260.963 27.154 260.825 26.848 260.741 26.488C260.657 26.128 260.615 25.732 260.615 25.3V20.458H259.319V19.342L260.687 19.252L260.867 16.804H262.109V19.252H264.467V20.458H262.109V25.318C262.109 25.858 262.205 26.278 262.397 26.578C262.601 26.866 262.955 27.01 263.459 27.01C263.615 27.01 263.783 26.986 263.963 26.938C264.143 26.89 264.305 26.836 264.449 26.776L264.737 27.892C264.497 27.976 264.233 28.048 263.945 28.108C263.669 28.18 263.393 28.216 263.117 28.216ZM268.555 28.216C267.931 28.216 267.337 28.102 266.773 27.874C266.209 27.646 265.717 27.358 265.297 27.01L266.035 26.02C266.419 26.332 266.809 26.584 267.205 26.776C267.613 26.968 268.081 27.064 268.609 27.064C269.185 27.064 269.617 26.932 269.905 26.668C270.193 26.404 270.337 26.08 270.337 25.696C270.337 25.468 270.277 25.27 270.157 25.102C270.037 24.934 269.881 24.79 269.689 24.67C269.509 24.538 269.299 24.424 269.059 24.328C268.819 24.232 268.579 24.136 268.339 24.04C268.027 23.932 267.715 23.812 267.403 23.68C267.091 23.536 266.809 23.368 266.557 23.176C266.317 22.972 266.119 22.738 265.963 22.474C265.807 22.21 265.729 21.892 265.729 21.52C265.729 21.172 265.795 20.848 265.927 20.548C266.071 20.236 266.269 19.972 266.521 19.756C266.785 19.528 267.103 19.354 267.475 19.234C267.847 19.102 268.267 19.036 268.735 19.036C269.287 19.036 269.791 19.132 270.247 19.324C270.715 19.516 271.117 19.75 271.453 20.026L270.751 20.962C270.451 20.734 270.139 20.548 269.815 20.404C269.491 20.26 269.137 20.188 268.753 20.188C268.201 20.188 267.793 20.314 267.529 20.566C267.277 20.818 267.151 21.112 267.151 21.448C267.151 21.652 267.205 21.832 267.313 21.988C267.421 22.132 267.565 22.264 267.745 22.384C267.925 22.492 268.129 22.594 268.357 22.69C268.597 22.774 268.843 22.864 269.095 22.96C269.407 23.08 269.719 23.206 270.031 23.338C270.355 23.47 270.643 23.638 270.895 23.842C271.147 24.034 271.351 24.274 271.507 24.562C271.675 24.85 271.759 25.198 271.759 25.606C271.759 25.966 271.687 26.302 271.543 26.614C271.411 26.926 271.207 27.202 270.931 27.442C270.667 27.682 270.331 27.868 269.923 28C269.527 28.144 269.071 28.216 268.555 28.216Z" fill="white"/>
</g>
<defs>
<filter id="filter0_d_1117_13853" x="0" y="0" width="1109" height="51" filterUnits="userSpaceOnUse" color-interpolation-filters="sRGB">
<feFlood flood-opacity="0" result="BackgroundImageFix"/>
<feColorMatrix in="SourceAlpha" type="matrix" values="0 0 0 0 0 0 0 0 0 0 0 0 0 0 0 0 0 0 127 0" result="hardAlpha"/>
<feOffset dy="4"/>
<feGaussianBlur stdDeviation="2"/>
<feComposite in2="hardAlpha" operator="out"/>
<feColorMatrix type="matrix" values="0 0 0 0 0 0 0 0 0 0 0 0 0 0 0 0 0 0 0.06 0"/>
<feBlend mode="normal" in2="BackgroundImageFix" result="effect1_dropShadow_1117_13853"/>
<feBlend mode="normal" in="SourceGraphic" in2="effect1_dropShadow_1117_13853" result="shape"/>
</filter>
</defs>
</svg>
