<svg width="114" height="41" viewBox="0 0 114 41" fill="none" xmlns="http://www.w3.org/2000/svg">
<rect width="114" height="41" rx="5" fill="#4B5054"/>
<path d="M28.916 23.012H24.842L24.142 25H22.476L25.962 15.256H27.81L31.296 25H29.616L28.916 23.012ZM28.468 21.71L26.886 17.188L25.29 21.71H28.468ZM34.4077 18.42C34.6784 18.0653 35.0471 17.7667 35.5137 17.524C35.9804 17.2813 36.5077 17.16 37.0957 17.16C37.7677 17.16 38.3791 17.328 38.9297 17.664C39.4897 17.9907 39.9284 18.4527 40.2457 19.05C40.5631 19.6473 40.7217 20.3333 40.7217 21.108C40.7217 21.8827 40.5631 22.578 40.2457 23.194C39.9284 23.8007 39.4897 24.2767 38.9297 24.622C38.3791 24.958 37.7677 25.126 37.0957 25.126C36.5077 25.126 35.9851 25.0093 35.5277 24.776C35.0704 24.5333 34.6971 24.2347 34.4077 23.88V28.668H32.8117V17.286H34.4077V18.42ZM39.0977 21.108C39.0977 20.576 38.9857 20.1187 38.7617 19.736C38.5471 19.344 38.2577 19.05 37.8937 18.854C37.5391 18.6487 37.1564 18.546 36.7457 18.546C36.3444 18.546 35.9617 18.6487 35.5977 18.854C35.2431 19.0593 34.9537 19.358 34.7297 19.75C34.5151 20.142 34.4077 20.604 34.4077 21.136C34.4077 21.668 34.5151 22.1347 34.7297 22.536C34.9537 22.928 35.2431 23.2267 35.5977 23.432C35.9617 23.6373 36.3444 23.74 36.7457 23.74C37.1564 23.74 37.5391 23.6373 37.8937 23.432C38.2577 23.2173 38.5471 22.9093 38.7617 22.508C38.9857 22.1067 39.0977 21.64 39.0977 21.108ZM43.896 18.42C44.1667 18.0653 44.5353 17.7667 45.002 17.524C45.4687 17.2813 45.996 17.16 46.584 17.16C47.256 17.16 47.8673 17.328 48.418 17.664C48.978 17.9907 49.4167 18.4527 49.734 19.05C50.0513 19.6473 50.21 20.3333 50.21 21.108C50.21 21.8827 50.0513 22.578 49.734 23.194C49.4167 23.8007 48.978 24.2767 48.418 24.622C47.8673 24.958 47.256 25.126 46.584 25.126C45.996 25.126 45.4733 25.0093 45.016 24.776C44.5587 24.5333 44.1853 24.2347 43.896 23.88V28.668H42.3V17.286H43.896V18.42ZM48.586 21.108C48.586 20.576 48.474 20.1187 48.25 19.736C48.0353 19.344 47.746 19.05 47.382 18.854C47.0273 18.6487 46.6447 18.546 46.234 18.546C45.8327 18.546 45.45 18.6487 45.086 18.854C44.7313 19.0593 44.442 19.358 44.218 19.75C44.0033 20.142 43.896 20.604 43.896 21.136C43.896 21.668 44.0033 22.1347 44.218 22.536C44.442 22.928 44.7313 23.2267 45.086 23.432C45.45 23.6373 45.8327 23.74 46.234 23.74C46.6447 23.74 47.0273 23.6373 47.382 23.432C47.746 23.2173 48.0353 22.9093 48.25 22.508C48.474 22.1067 48.586 21.64 48.586 21.108ZM53.3843 18.406C53.6176 18.014 53.9256 17.7107 54.3083 17.496C54.7003 17.272 55.1623 17.16 55.6943 17.16V18.812H55.2883C54.6629 18.812 54.1869 18.9707 53.8603 19.288C53.5429 19.6053 53.3843 20.156 53.3843 20.94V25H51.7883V17.286H53.3843V18.406ZM60.5073 25.126C59.7793 25.126 59.1213 24.9627 58.5333 24.636C57.9453 24.3 57.4833 23.8333 57.1473 23.236C56.8113 22.6293 56.6433 21.9293 56.6433 21.136C56.6433 20.352 56.816 19.6567 57.1613 19.05C57.5067 18.4433 57.978 17.9767 58.5753 17.65C59.1727 17.3233 59.84 17.16 60.5773 17.16C61.3147 17.16 61.982 17.3233 62.5793 17.65C63.1767 17.9767 63.648 18.4433 63.9933 19.05C64.3387 19.6567 64.5113 20.352 64.5113 21.136C64.5113 21.92 64.334 22.6153 63.9793 23.222C63.6247 23.8287 63.1393 24.3 62.5233 24.636C61.9167 24.9627 61.2447 25.126 60.5073 25.126ZM60.5073 23.74C60.918 23.74 61.3007 23.642 61.6553 23.446C62.0193 23.25 62.3133 22.956 62.5373 22.564C62.7613 22.172 62.8733 21.696 62.8733 21.136C62.8733 20.576 62.766 20.1047 62.5513 19.722C62.3367 19.33 62.052 19.036 61.6973 18.84C61.3427 18.644 60.96 18.546 60.5493 18.546C60.1387 18.546 59.756 18.644 59.4013 18.84C59.056 19.036 58.7807 19.33 58.5753 19.722C58.37 20.1047 58.2673 20.576 58.2673 21.136C58.2673 21.9667 58.4773 22.6107 58.8973 23.068C59.3267 23.516 59.8633 23.74 60.5073 23.74ZM69.0711 23.572L71.2551 17.286H72.9491L70.0091 25H68.1051L65.1791 17.286H66.8871L69.0711 23.572ZM81.2255 20.954C81.2255 21.2433 81.2068 21.5047 81.1695 21.738H75.2755C75.3221 22.354 75.5508 22.8487 75.9615 23.222C76.3721 23.5953 76.8761 23.782 77.4735 23.782C78.3321 23.782 78.9388 23.4227 79.2935 22.704H81.0155C80.7821 23.4133 80.3575 23.9967 79.7415 24.454C79.1348 24.902 78.3788 25.126 77.4735 25.126C76.7361 25.126 76.0735 24.9627 75.4855 24.636C74.9068 24.3 74.4495 23.8333 74.1135 23.236C73.7868 22.6293 73.6235 21.9293 73.6235 21.136C73.6235 20.3427 73.7821 19.6473 74.0995 19.05C74.4261 18.4433 74.8788 17.9767 75.4575 17.65C76.0455 17.3233 76.7175 17.16 77.4735 17.16C78.2015 17.16 78.8501 17.3187 79.4195 17.636C79.9888 17.9533 80.4321 18.4013 80.7495 18.98C81.0668 19.5493 81.2255 20.2073 81.2255 20.954ZM79.5595 20.45C79.5501 19.862 79.3401 19.3907 78.9295 19.036C78.5188 18.6813 78.0101 18.504 77.4035 18.504C76.8528 18.504 76.3815 18.6813 75.9895 19.036C75.5975 19.3813 75.3641 19.8527 75.2895 20.45H79.5595ZM82.2641 21.108C82.2641 20.3333 82.4228 19.6473 82.7401 19.05C83.0668 18.4527 83.5054 17.9907 84.0561 17.664C84.6161 17.328 85.2368 17.16 85.9181 17.16C86.4221 17.16 86.9168 17.272 87.4021 17.496C87.8968 17.7107 88.2888 18 88.5781 18.364V14.64H90.1881V25H88.5781V23.838C88.3168 24.2113 87.9528 24.5193 87.4861 24.762C87.0288 25.0047 86.5014 25.126 85.9041 25.126C85.2321 25.126 84.6161 24.958 84.0561 24.622C83.5054 24.2767 83.0668 23.8007 82.7401 23.194C82.4228 22.578 82.2641 21.8827 82.2641 21.108ZM88.5781 21.136C88.5781 20.604 88.4661 20.142 88.2421 19.75C88.0274 19.358 87.7428 19.0593 87.3881 18.854C87.0334 18.6487 86.6508 18.546 86.2401 18.546C85.8294 18.546 85.4468 18.6487 85.0921 18.854C84.7374 19.05 84.4481 19.344 84.2241 19.736C84.0094 20.1187 83.9021 20.576 83.9021 21.108C83.9021 21.64 84.0094 22.1067 84.2241 22.508C84.4481 22.9093 84.7374 23.2173 85.0921 23.432C85.4561 23.6373 85.8388 23.74 86.2401 23.74C86.6508 23.74 87.0334 23.6373 87.3881 23.432C87.7428 23.2267 88.0274 22.928 88.2421 22.536C88.4661 22.1347 88.5781 21.668 88.5781 21.136Z" fill="white"/>
</svg>
