<svg width="20" height="18" viewBox="0 0 20 18" fill="none" xmlns="http://www.w3.org/2000/svg">
<path d="M18.8035 7.89599H17.7489C17.3044 3.75006 13.9896 0.421875 9.9969 0.421875C7.78959 0.421875 5.78569 1.46858 4.39953 3.10405C4.03039 3.49657 4.04545 4.01992 4.34679 4.32248C4.65566 4.63322 5.10014 4.63322 5.47681 4.25706C6.5993 2.9405 8.21147 2.11459 9.9969 2.11459C13.176 2.11459 15.7449 4.6414 16.1744 7.89599H15.0217C14.4417 7.89599 14.2835 8.3621 14.6225 8.8691L16.423 11.633C16.7017 12.0419 17.1236 12.0501 17.3948 11.633L19.2028 8.87728C19.5418 8.3621 19.3912 7.89599 18.8035 7.89599ZM1.19026 9.86674H2.25248C2.69696 14.0127 6.01169 17.3409 9.9969 17.3409C12.2193 17.3409 14.2232 16.286 15.6093 14.6505C15.971 14.258 15.9559 13.7346 15.6545 13.4321C15.3457 13.1213 14.9087 13.1213 14.5245 13.5057C13.4171 14.8222 11.8049 15.6481 9.9969 15.6481C6.82531 15.6481 4.25639 13.1213 3.82698 9.86674H4.97207C5.54462 9.86674 5.71035 9.40063 5.37135 8.89363L3.56331 6.12968C3.2921 5.72081 2.87023 5.71263 2.59902 6.12968L0.790988 8.88545C0.444448 9.40063 0.602651 9.86674 1.19026 9.86674Z" fill="#1C1C1E"/>
</svg>
