<svg width="34" height="28" viewBox="0 0 34 28" fill="none" xmlns="http://www.w3.org/2000/svg">
<path d="M11.1731 23.1826H22.2084C24.4341 23.1826 25.5832 22.1895 25.5832 20.291V12.3105C25.5832 11.0801 25.3969 10.5176 24.4962 9.73535L19.0821 5.06836C18.2022 4.3125 17.4775 4.13672 16.1732 4.13672H11.1731C8.95777 4.13672 7.79834 5.12988 7.79834 7.03711V20.291C7.79834 22.1895 8.95777 23.1826 11.1731 23.1826ZM11.3491 21.4248C10.3553 21.4248 9.8584 20.9854 9.8584 20.1768V7.14258C9.8584 6.34277 10.3553 5.89453 11.3595 5.89453H15.7487V10.6758C15.7487 11.9502 16.4837 12.5654 17.9744 12.5654H23.5231V20.1768C23.5231 20.9854 23.0262 21.4248 22.0221 21.4248H11.3491ZM18.1711 11.0273C17.7363 11.0273 17.55 10.8691 17.55 10.5088V6.12305L23.2436 11.0273H18.1711ZM17.6017 19.623V16.9688L17.5189 15.6064L18.316 16.3184L19.0924 16.9951C19.2477 17.1357 19.4858 17.2236 19.7032 17.2236C20.1794 17.2236 20.5314 16.9424 20.5314 16.5557C20.5314 16.3271 20.4279 16.1689 20.2312 16.0195L17.3844 13.8047C17.1463 13.6201 16.9496 13.5322 16.6908 13.5322C16.432 13.5322 16.2353 13.6201 15.9972 13.8047L13.1504 16.0195C12.9537 16.1689 12.8501 16.3271 12.8501 16.5557C12.8501 16.9424 13.2021 17.2236 13.6783 17.2236C13.8957 17.2236 14.1338 17.1357 14.2891 16.9951L15.0655 16.3184L15.8626 15.6064L15.7798 16.9688V19.623C15.7798 20.0449 16.1939 20.3701 16.6908 20.3701C17.1877 20.3701 17.6017 20.0449 17.6017 19.623Z" fill="#1C1C1E"/>
</svg>
