<svg width="96" height="40" viewBox="0 0 96 40" fill="none" xmlns="http://www.w3.org/2000/svg">
<path d="M25 30L15 20L25 10" stroke="#0F151F" stroke-width="2" stroke-linecap="round" stroke-linejoin="round"/>
<path d="M48.4717 20.4678H43.9429L43.9185 18.2339H47.8735C48.5409 18.2339 49.1064 18.1362 49.5703 17.9409C50.0423 17.7375 50.4004 17.4486 50.6445 17.0742C50.8887 16.6917 51.0107 16.2319 51.0107 15.6948C51.0107 15.1007 50.8968 14.6165 50.6689 14.2422C50.4411 13.8678 50.0911 13.5952 49.6191 13.4243C49.1553 13.2534 48.5612 13.168 47.8369 13.168H44.8706V28.5H41.8066V10.7266H47.8369C48.8135 10.7266 49.6842 10.8201 50.4492 11.0073C51.2223 11.1945 51.8774 11.4875 52.4146 11.8862C52.9598 12.2769 53.3708 12.7733 53.6475 13.3755C53.9323 13.9777 54.0747 14.6938 54.0747 15.5239C54.0747 16.2563 53.8997 16.9277 53.5498 17.5381C53.1999 18.1403 52.6831 18.6326 51.9995 19.0151C51.3159 19.3976 50.4655 19.6255 49.4482 19.6987L48.4717 20.4678ZM48.3374 28.5H42.9785L44.3579 26.0708H48.3374C49.0291 26.0708 49.6069 25.9569 50.0708 25.729C50.5347 25.493 50.8805 25.1715 51.1084 24.7646C51.3444 24.3496 51.4624 23.8654 51.4624 23.312C51.4624 22.7342 51.3607 22.2337 51.1572 21.8105C50.9538 21.3792 50.6323 21.0496 50.1929 20.8218C49.7534 20.5858 49.1797 20.4678 48.4717 20.4678H45.0293L45.0537 18.2339H49.5337L50.2295 19.0762C51.2061 19.1087 52.0076 19.3244 52.6343 19.7231C53.269 20.1219 53.741 20.6387 54.0503 21.2734C54.3595 21.9082 54.5142 22.5918 54.5142 23.3242C54.5142 24.4554 54.266 25.4035 53.7695 26.1685C53.2812 26.9334 52.5773 27.5153 51.6577 27.9141C50.7381 28.3047 49.6313 28.5 48.3374 28.5ZM64.7559 25.8511V19.5522C64.7559 19.0802 64.6704 18.6733 64.4995 18.3315C64.3286 17.9897 64.0682 17.7253 63.7183 17.5381C63.3765 17.3509 62.9451 17.2573 62.4243 17.2573C61.9442 17.2573 61.5291 17.3387 61.1792 17.5015C60.8293 17.6642 60.5566 17.884 60.3613 18.1606C60.166 18.4373 60.0684 18.7507 60.0684 19.1006H57.1387C57.1387 18.5798 57.2648 18.0752 57.5171 17.5869C57.7694 17.0986 58.1356 16.6632 58.6157 16.2808C59.0959 15.8983 59.6696 15.5972 60.3369 15.3774C61.0042 15.1577 61.7529 15.0479 62.583 15.0479C63.5758 15.0479 64.4548 15.2147 65.2197 15.5483C65.9928 15.882 66.5991 16.3866 67.0386 17.062C67.4862 17.7293 67.71 18.5675 67.71 19.5767V25.4482C67.71 26.0505 67.7507 26.5916 67.832 27.0718C67.9215 27.5438 68.0477 27.9548 68.2104 28.3047V28.5H65.1953C65.057 28.1826 64.9471 27.7798 64.8657 27.2915C64.7925 26.7951 64.7559 26.3149 64.7559 25.8511ZM65.1831 20.4678L65.2075 22.2866H63.0957C62.5505 22.2866 62.0703 22.3395 61.6553 22.4453C61.2402 22.543 60.8944 22.6895 60.6177 22.8848C60.341 23.0801 60.1335 23.3161 59.9951 23.5928C59.8568 23.8695 59.7876 24.1828 59.7876 24.5327C59.7876 24.8826 59.869 25.2041 60.0317 25.4971C60.1945 25.7819 60.4305 26.0057 60.7397 26.1685C61.0571 26.3312 61.4396 26.4126 61.8872 26.4126C62.4894 26.4126 63.0143 26.2905 63.4619 26.0464C63.9176 25.7941 64.2757 25.4889 64.5361 25.1309C64.7965 24.7646 64.9349 24.4188 64.9512 24.0933L65.9033 25.3994C65.8057 25.7331 65.6388 26.0911 65.4028 26.4736C65.1668 26.8561 64.8576 27.2223 64.4751 27.5723C64.1007 27.9141 63.6491 28.1948 63.1201 28.4146C62.5993 28.6343 61.9971 28.7441 61.3135 28.7441C60.4508 28.7441 59.6818 28.5732 59.0063 28.2314C58.3309 27.8815 57.8019 27.4136 57.4194 26.8276C57.0369 26.2336 56.8457 25.5622 56.8457 24.8135C56.8457 24.1136 56.9759 23.4951 57.2363 22.958C57.5049 22.4128 57.8955 21.957 58.4082 21.5908C58.929 21.2246 59.5638 20.9479 60.3125 20.7607C61.0612 20.5654 61.9157 20.4678 62.876 20.4678H65.1831ZM76.1816 26.4004C76.6618 26.4004 77.0931 26.3068 77.4756 26.1196C77.8662 25.9243 78.1795 25.6558 78.4155 25.314C78.6597 24.9722 78.7939 24.5775 78.8184 24.1299H81.5894C81.5731 24.9844 81.3208 25.7616 80.8325 26.4614C80.3442 27.1613 79.6973 27.7188 78.8916 28.1338C78.0859 28.5407 77.1948 28.7441 76.2183 28.7441C75.2091 28.7441 74.3302 28.5732 73.5815 28.2314C72.8328 27.8815 72.2103 27.4014 71.7139 26.791C71.2174 26.1807 70.8431 25.4767 70.5908 24.6792C70.3467 23.8817 70.2246 23.0272 70.2246 22.1157V21.6885C70.2246 20.777 70.3467 19.9225 70.5908 19.125C70.8431 18.3193 71.2174 17.6113 71.7139 17.001C72.2103 16.3906 72.8328 15.9146 73.5815 15.5728C74.3302 15.2228 75.2051 15.0479 76.2061 15.0479C77.264 15.0479 78.1917 15.2594 78.9893 15.6826C79.7868 16.0977 80.4134 16.6795 80.8691 17.4282C81.333 18.1688 81.5731 19.0314 81.5894 20.0161H78.8184C78.7939 19.5278 78.6719 19.0884 78.4521 18.6978C78.2406 18.299 77.9395 17.9816 77.5488 17.7456C77.1663 17.5096 76.7065 17.3916 76.1694 17.3916C75.5754 17.3916 75.083 17.5137 74.6924 17.7578C74.3018 17.9938 73.9966 18.3193 73.7769 18.7344C73.5571 19.1413 73.3984 19.6011 73.3008 20.1138C73.2113 20.6183 73.1665 21.1432 73.1665 21.6885V22.1157C73.1665 22.661 73.2113 23.1899 73.3008 23.7026C73.3903 24.2153 73.5449 24.6751 73.7646 25.082C73.9925 25.4808 74.3018 25.8022 74.6924 26.0464C75.083 26.2824 75.5794 26.4004 76.1816 26.4004ZM86.814 9.75V28.5H83.8599V9.75H86.814ZM95.0171 15.292L89.2676 21.6641L86.1182 24.8867L85.3491 22.3965L87.7295 19.4546L91.4648 15.292H95.0171ZM92.0996 28.5L87.8149 22.2988L89.6704 20.2358L95.5054 28.5H92.0996Z" fill="black"/>
</svg>
