<svg width="93" height="68" viewBox="0 0 93 68" fill="none" xmlns="http://www.w3.org/2000/svg">
<g opacity="0.1">
<path d="M9.97266 55.6526C9.97266 56.8853 11.2107 57.7312 13.1041 57.7312H102.896C104.789 57.7312 106.027 56.8853 106.027 55.6526V19.4702C106.027 18.2134 104.789 17.3916 102.896 17.3916H13.1041C11.2107 17.3916 9.97266 18.2134 9.97266 19.4702V55.6526ZM17.6556 51.302V23.8208C17.6556 22.9265 18.3474 22.4915 19.6218 22.4915H96.4143C97.6523 22.4915 98.3806 22.9265 98.3806 23.8208V51.302C98.3806 52.1721 97.6523 52.6313 96.4143 52.6313H19.6218C18.3474 52.6313 17.6556 52.1721 17.6556 51.302ZM21.6609 49.4167C21.6609 49.7793 21.9521 49.9485 22.4619 49.9485H49.5887C46.0568 47.4348 43.9813 43.0601 43.9813 37.5251C43.9813 32.0386 46.0568 27.688 49.5523 25.1501H22.4619C21.9521 25.1501 21.6609 25.3435 21.6609 25.6819V49.4167ZM66.3382 49.9485H93.5742C94.0476 49.9485 94.3389 49.7793 94.3389 49.4167V25.6819C94.3389 25.3435 94.0476 25.1501 93.5742 25.1501H66.3746C69.9794 27.688 72.0912 32.0386 72.0912 37.5251C72.0912 43.0601 69.9429 47.4348 66.3382 49.9485ZM48.5692 37.5251C48.5692 44.752 52.356 49.4167 57.8542 49.4167C63.5709 49.4167 67.4669 44.752 67.4669 37.5251C67.4669 30.3225 63.5709 25.6819 57.8542 25.6819C52.356 25.6819 48.5692 30.3225 48.5692 37.5251Z" fill="#0F151F"/>
</g>
</svg>
