<svg width="1069" height="51" viewBox="0 0 1069 51" fill="none" xmlns="http://www.w3.org/2000/svg">
<g filter="url(#filter0_d_1029_15358)">
<rect width="1061" height="43" transform="translate(4)" fill="#262324"/>
</g>
<path d="M30.66 30V16.92H38.56V18.88H32.98V22.58H37.74V24.54H32.98V30H30.66ZM42.3127 30.24C41.446 30.24 40.746 29.98 40.2127 29.46C39.6793 28.9267 39.4127 28.2267 39.4127 27.36C39.4127 26.84 39.5193 26.38 39.7327 25.98C39.9593 25.5667 40.306 25.2133 40.7727 24.92C41.2527 24.6267 41.8527 24.38 42.5727 24.18C43.306 23.98 44.1793 23.8267 45.1927 23.72C45.1793 23.4667 45.1393 23.2267 45.0727 23C45.0193 22.76 44.9193 22.5533 44.7727 22.38C44.6393 22.1933 44.4593 22.0533 44.2327 21.96C44.006 21.8533 43.726 21.8 43.3927 21.8C42.9127 21.8 42.4393 21.8933 41.9727 22.08C41.5193 22.2667 41.0727 22.4933 40.6327 22.76L39.7927 21.22C40.3393 20.8733 40.9527 20.5733 41.6327 20.32C42.3127 20.0667 43.046 19.94 43.8327 19.94C45.0593 19.94 45.9727 20.3067 46.5727 21.04C47.186 21.76 47.4927 22.8067 47.4927 24.18V30H45.5927L45.4327 28.92H45.3527C44.9127 29.2933 44.4393 29.6067 43.9327 29.86C43.4393 30.1133 42.8993 30.24 42.3127 30.24ZM43.0527 28.44C43.4527 28.44 43.8127 28.3467 44.1327 28.16C44.466 27.9733 44.8193 27.7067 45.1927 27.36V25.16C44.526 25.24 43.966 25.3467 43.5127 25.48C43.0593 25.6133 42.6927 25.7667 42.4127 25.94C42.1327 26.1 41.9327 26.2867 41.8127 26.5C41.6927 26.7133 41.6327 26.94 41.6327 27.18C41.6327 27.62 41.766 27.94 42.0327 28.14C42.2993 28.34 42.6393 28.44 43.0527 28.44ZM53.1652 30.24C52.1118 30.24 51.3452 29.9067 50.8652 29.24C50.3852 28.56 50.1452 27.5933 50.1452 26.34V20.18H52.4452V26.04C52.4452 26.8533 52.5652 27.4267 52.8052 27.76C53.0452 28.0933 53.4318 28.26 53.9652 28.26C54.3918 28.26 54.7652 28.1533 55.0852 27.94C55.4185 27.7267 55.7718 27.38 56.1452 26.9V20.18H58.4452V30H56.5652L56.3852 28.56H56.3252C55.8985 29.0667 55.4318 29.4733 54.9252 29.78C54.4318 30.0867 53.8452 30.24 53.1652 30.24ZM63.5984 30.24C62.7718 30.24 62.1918 29.9933 61.8584 29.5C61.5251 29.0067 61.3584 28.3333 61.3584 27.48V15.88H63.6584V27.6C63.6584 27.88 63.7118 28.08 63.8184 28.2C63.9251 28.3067 64.0384 28.36 64.1584 28.36C64.2118 28.36 64.2584 28.36 64.2984 28.36C64.3518 28.36 64.4251 28.3467 64.5184 28.32L64.8184 30.04C64.5118 30.1733 64.1051 30.24 63.5984 30.24ZM70.2481 30.24C69.6748 30.24 69.1881 30.1533 68.7881 29.98C68.4015 29.8067 68.0815 29.5667 67.8281 29.26C67.5881 28.94 67.4081 28.5667 67.2881 28.14C67.1815 27.7 67.1281 27.2133 67.1281 26.68V22H65.7281V20.28L67.2481 20.18L67.5281 17.5H69.4481V20.18H71.9481V22H69.4481V26.68C69.4481 27.8267 69.9081 28.4 70.8281 28.4C71.0015 28.4 71.1748 28.38 71.3481 28.34C71.5348 28.3 71.7015 28.2467 71.8481 28.18L72.2481 29.88C71.9815 29.9733 71.6748 30.0533 71.3281 30.12C70.9948 30.2 70.6348 30.24 70.2481 30.24ZM78.2186 30V16.92H82.6386C83.3186 16.92 83.9519 16.9867 84.5386 17.12C85.1253 17.2533 85.6319 17.4733 86.0586 17.78C86.4853 18.0733 86.8186 18.4667 87.0586 18.96C87.3119 19.4533 87.4386 20.0667 87.4386 20.8C87.4386 21.8 87.1986 22.6067 86.7186 23.22C86.2519 23.8333 85.6253 24.2733 84.8386 24.54L87.9586 30H85.3586L82.5386 24.88H80.5386V30H78.2186ZM80.5386 23.04H82.3986C83.2919 23.04 83.9719 22.8533 84.4386 22.48C84.9186 22.1067 85.1586 21.5467 85.1586 20.8C85.1586 20.04 84.9186 19.5133 84.4386 19.22C83.9719 18.9267 83.2919 18.78 82.3986 18.78H80.5386V23.04ZM93.8592 30.24C93.1792 30.24 92.5459 30.1267 91.9592 29.9C91.3726 29.66 90.8592 29.32 90.4192 28.88C89.9792 28.44 89.6326 27.9067 89.3792 27.28C89.1392 26.64 89.0192 25.9133 89.0192 25.1C89.0192 24.3 89.1459 23.58 89.3992 22.94C89.6526 22.3 89.9859 21.76 90.3992 21.32C90.8259 20.88 91.3126 20.54 91.8592 20.3C92.4059 20.06 92.9659 19.94 93.5392 19.94C94.2059 19.94 94.7926 20.0533 95.2992 20.28C95.8059 20.5067 96.2259 20.8267 96.5592 21.24C96.9059 21.6533 97.1659 22.1467 97.3392 22.72C97.5126 23.2933 97.5992 23.92 97.5992 24.6C97.5992 24.8267 97.5859 25.04 97.5592 25.24C97.5459 25.44 97.5259 25.6 97.4992 25.72H91.2592C91.3659 26.6 91.6726 27.28 92.1792 27.76C92.6992 28.2267 93.3592 28.46 94.1592 28.46C94.5859 28.46 94.9792 28.4 95.3392 28.28C95.7126 28.1467 96.0792 27.9667 96.4392 27.74L97.2192 29.18C96.7526 29.4867 96.2326 29.74 95.6592 29.94C95.0859 30.14 94.4859 30.24 93.8592 30.24ZM91.2392 24.16H95.5992C95.5992 23.4 95.4326 22.8067 95.0992 22.38C94.7792 21.94 94.2792 21.72 93.5992 21.72C93.0126 21.72 92.4992 21.9267 92.0592 22.34C91.6192 22.7533 91.3459 23.36 91.2392 24.16ZM102.536 30.24C101.856 30.24 101.183 30.1133 100.516 29.86C99.8626 29.5933 99.2959 29.2667 98.8159 28.88L99.8959 27.4C100.336 27.7467 100.769 28.02 101.196 28.22C101.636 28.4067 102.109 28.5 102.616 28.5C103.149 28.5 103.543 28.3933 103.796 28.18C104.049 27.9533 104.176 27.6667 104.176 27.32C104.176 27.12 104.116 26.9467 103.996 26.8C103.876 26.64 103.716 26.5 103.516 26.38C103.316 26.26 103.089 26.1533 102.836 26.06C102.583 25.9533 102.329 25.8467 102.076 25.74C101.756 25.62 101.429 25.48 101.096 25.32C100.763 25.16 100.463 24.9667 100.196 24.74C99.9426 24.5133 99.7293 24.2533 99.5559 23.96C99.3959 23.6533 99.3159 23.2933 99.3159 22.88C99.3159 22.0133 99.6359 21.3067 100.276 20.76C100.916 20.2133 101.789 19.94 102.896 19.94C103.576 19.94 104.189 20.06 104.736 20.3C105.283 20.54 105.756 20.8133 106.156 21.12L105.096 22.52C104.749 22.2667 104.396 22.0667 104.036 21.92C103.689 21.76 103.323 21.68 102.936 21.68C102.443 21.68 102.076 21.7867 101.836 22C101.609 22.2 101.496 22.4533 101.496 22.76C101.496 22.96 101.549 23.1333 101.656 23.28C101.776 23.4133 101.929 23.5333 102.116 23.64C102.303 23.7467 102.516 23.8467 102.756 23.94C103.009 24.0333 103.269 24.1267 103.536 24.22C103.869 24.34 104.203 24.48 104.536 24.64C104.869 24.7867 105.169 24.9733 105.436 25.2C105.716 25.4267 105.936 25.7067 106.096 26.04C106.269 26.36 106.356 26.7467 106.356 27.2C106.356 27.6267 106.269 28.0267 106.096 28.4C105.936 28.76 105.696 29.08 105.376 29.36C105.056 29.6267 104.656 29.84 104.176 30C103.696 30.16 103.149 30.24 102.536 30.24ZM112.429 30.24C111.816 30.24 111.229 30.1267 110.669 29.9C110.109 29.6733 109.609 29.34 109.169 28.9C108.743 28.46 108.403 27.92 108.149 27.28C107.896 26.64 107.769 25.9133 107.769 25.1C107.769 24.2867 107.896 23.56 108.149 22.92C108.403 22.28 108.743 21.74 109.169 21.3C109.609 20.86 110.109 20.5267 110.669 20.3C111.229 20.06 111.816 19.94 112.429 19.94C113.043 19.94 113.629 20.06 114.189 20.3C114.763 20.5267 115.263 20.86 115.689 21.3C116.116 21.74 116.456 22.28 116.709 22.92C116.976 23.56 117.109 24.2867 117.109 25.1C117.109 25.9133 116.976 26.64 116.709 27.28C116.456 27.92 116.116 28.46 115.689 28.9C115.263 29.34 114.763 29.6733 114.189 29.9C113.629 30.1267 113.043 30.24 112.429 30.24ZM112.429 28.36C113.149 28.36 113.716 28.0667 114.129 27.48C114.543 26.88 114.749 26.0867 114.749 25.1C114.749 24.1 114.543 23.3067 114.129 22.72C113.716 22.12 113.149 21.82 112.429 21.82C111.709 21.82 111.143 22.12 110.729 22.72C110.329 23.3067 110.129 24.1 110.129 25.1C110.129 26.0867 110.329 26.88 110.729 27.48C111.143 28.0667 111.709 28.36 112.429 28.36ZM121.626 30.24C120.799 30.24 120.219 29.9933 119.886 29.5C119.552 29.0067 119.386 28.3333 119.386 27.48V15.88H121.686V27.6C121.686 27.88 121.739 28.08 121.846 28.2C121.952 28.3067 122.066 28.36 122.186 28.36C122.239 28.36 122.286 28.36 122.326 28.36C122.379 28.36 122.452 28.3467 122.546 28.32L122.846 30.04C122.539 30.1733 122.132 30.24 121.626 30.24ZM127.735 30.24C126.682 30.24 125.915 29.9067 125.435 29.24C124.955 28.56 124.715 27.5933 124.715 26.34V20.18H127.015V26.04C127.015 26.8533 127.135 27.4267 127.375 27.76C127.615 28.0933 128.002 28.26 128.535 28.26C128.962 28.26 129.335 28.1533 129.655 27.94C129.989 27.7267 130.342 27.38 130.715 26.9V20.18H133.015V30H131.135L130.955 28.56H130.895C130.469 29.0667 130.002 29.4733 129.495 29.78C129.002 30.0867 128.415 30.24 127.735 30.24ZM139.389 30.24C138.815 30.24 138.329 30.1533 137.929 29.98C137.542 29.8067 137.222 29.5667 136.969 29.26C136.729 28.94 136.549 28.5667 136.429 28.14C136.322 27.7 136.269 27.2133 136.269 26.68V22H134.869V20.28L136.389 20.18L136.669 17.5H138.589V20.18H141.089V22H138.589V26.68C138.589 27.8267 139.049 28.4 139.969 28.4C140.142 28.4 140.315 28.38 140.489 28.34C140.675 28.3 140.842 28.2467 140.989 28.18L141.389 29.88C141.122 29.9733 140.815 30.0533 140.469 30.12C140.135 30.2 139.775 30.24 139.389 30.24ZM143.155 30V20.18H145.455V30H143.155ZM144.315 18.46C143.902 18.46 143.562 18.34 143.295 18.1C143.029 17.86 142.895 17.5467 142.895 17.16C142.895 16.7733 143.029 16.46 143.295 16.22C143.562 15.9667 143.902 15.84 144.315 15.84C144.729 15.84 145.069 15.9667 145.335 16.22C145.602 16.46 145.735 16.7733 145.735 17.16C145.735 17.5467 145.602 17.86 145.335 18.1C145.069 18.34 144.729 18.46 144.315 18.46ZM152.41 30.24C151.796 30.24 151.21 30.1267 150.65 29.9C150.09 29.6733 149.59 29.34 149.15 28.9C148.723 28.46 148.383 27.92 148.13 27.28C147.876 26.64 147.75 25.9133 147.75 25.1C147.75 24.2867 147.876 23.56 148.13 22.92C148.383 22.28 148.723 21.74 149.15 21.3C149.59 20.86 150.09 20.5267 150.65 20.3C151.21 20.06 151.796 19.94 152.41 19.94C153.023 19.94 153.61 20.06 154.17 20.3C154.743 20.5267 155.243 20.86 155.67 21.3C156.096 21.74 156.436 22.28 156.69 22.92C156.956 23.56 157.09 24.2867 157.09 25.1C157.09 25.9133 156.956 26.64 156.69 27.28C156.436 27.92 156.096 28.46 155.67 28.9C155.243 29.34 154.743 29.6733 154.17 29.9C153.61 30.1267 153.023 30.24 152.41 30.24ZM152.41 28.36C153.13 28.36 153.696 28.0667 154.11 27.48C154.523 26.88 154.73 26.0867 154.73 25.1C154.73 24.1 154.523 23.3067 154.11 22.72C153.696 22.12 153.13 21.82 152.41 21.82C151.69 21.82 151.123 22.12 150.71 22.72C150.31 23.3067 150.11 24.1 150.11 25.1C150.11 26.0867 150.31 26.88 150.71 27.48C151.123 28.0667 151.69 28.36 152.41 28.36ZM159.366 30V20.18H161.266L161.426 21.5H161.506C161.946 21.0733 162.42 20.7067 162.926 20.4C163.446 20.0933 164.046 19.94 164.726 19.94C165.78 19.94 166.546 20.28 167.026 20.96C167.506 21.6267 167.746 22.5867 167.746 23.84V30H165.446V24.14C165.446 23.3267 165.326 22.7533 165.086 22.42C164.846 22.0867 164.453 21.92 163.906 21.92C163.48 21.92 163.1 22.0267 162.766 22.24C162.446 22.44 162.08 22.74 161.666 23.14V30H159.366ZM174.762 30V16.92H179.182C179.862 16.92 180.495 16.9867 181.082 17.12C181.668 17.2533 182.175 17.4733 182.602 17.78C183.028 18.0733 183.362 18.4667 183.602 18.96C183.855 19.4533 183.982 20.0667 183.982 20.8C183.982 21.8 183.742 22.6067 183.262 23.22C182.795 23.8333 182.168 24.2733 181.382 24.54L184.502 30H181.902L179.082 24.88H177.082V30H174.762ZM177.082 23.04H178.942C179.835 23.04 180.515 22.8533 180.982 22.48C181.462 22.1067 181.702 21.5467 181.702 20.8C181.702 20.04 181.462 19.5133 180.982 19.22C180.515 18.9267 179.835 18.78 178.942 18.78H177.082V23.04ZM190.402 30.24C189.722 30.24 189.089 30.1267 188.502 29.9C187.916 29.66 187.402 29.32 186.962 28.88C186.522 28.44 186.176 27.9067 185.922 27.28C185.682 26.64 185.562 25.9133 185.562 25.1C185.562 24.3 185.689 23.58 185.942 22.94C186.196 22.3 186.529 21.76 186.942 21.32C187.369 20.88 187.856 20.54 188.402 20.3C188.949 20.06 189.509 19.94 190.082 19.94C190.749 19.94 191.336 20.0533 191.842 20.28C192.349 20.5067 192.769 20.8267 193.102 21.24C193.449 21.6533 193.709 22.1467 193.882 22.72C194.056 23.2933 194.142 23.92 194.142 24.6C194.142 24.8267 194.129 25.04 194.102 25.24C194.089 25.44 194.069 25.6 194.042 25.72H187.802C187.909 26.6 188.216 27.28 188.722 27.76C189.242 28.2267 189.902 28.46 190.702 28.46C191.129 28.46 191.522 28.4 191.882 28.28C192.256 28.1467 192.622 27.9667 192.982 27.74L193.762 29.18C193.296 29.4867 192.776 29.74 192.202 29.94C191.629 30.14 191.029 30.24 190.402 30.24ZM187.782 24.16H192.142C192.142 23.4 191.976 22.8067 191.642 22.38C191.322 21.94 190.822 21.72 190.142 21.72C189.556 21.72 189.042 21.9267 188.602 22.34C188.162 22.7533 187.889 23.36 187.782 24.16ZM196.339 33.88V20.18H198.239L198.399 21.22H198.479C198.892 20.8733 199.352 20.5733 199.859 20.32C200.366 20.0667 200.892 19.94 201.439 19.94C202.052 19.94 202.592 20.06 203.059 20.3C203.539 20.5267 203.946 20.86 204.279 21.3C204.612 21.74 204.866 22.2667 205.039 22.88C205.212 23.4933 205.299 24.18 205.299 24.94C205.299 25.78 205.179 26.5333 204.939 27.2C204.712 27.8533 204.406 28.4067 204.019 28.86C203.632 29.3 203.186 29.64 202.679 29.88C202.172 30.12 201.646 30.24 201.099 30.24C200.672 30.24 200.246 30.1467 199.819 29.96C199.392 29.7733 198.979 29.5067 198.579 29.16L198.639 30.8V33.88H196.339ZM200.619 28.34C201.272 28.34 201.819 28.06 202.259 27.5C202.699 26.9267 202.919 26.08 202.919 24.96C202.919 23.9733 202.752 23.2067 202.419 22.66C202.086 22.1133 201.546 21.84 200.799 21.84C200.106 21.84 199.386 22.2067 198.639 22.94V27.52C198.999 27.8267 199.346 28.04 199.679 28.16C200.012 28.28 200.326 28.34 200.619 28.34ZM211.648 30.24C211.035 30.24 210.448 30.1267 209.888 29.9C209.328 29.6733 208.828 29.34 208.388 28.9C207.961 28.46 207.621 27.92 207.368 27.28C207.115 26.64 206.988 25.9133 206.988 25.1C206.988 24.2867 207.115 23.56 207.368 22.92C207.621 22.28 207.961 21.74 208.388 21.3C208.828 20.86 209.328 20.5267 209.888 20.3C210.448 20.06 211.035 19.94 211.648 19.94C212.261 19.94 212.848 20.06 213.408 20.3C213.981 20.5267 214.481 20.86 214.908 21.3C215.335 21.74 215.675 22.28 215.928 22.92C216.195 23.56 216.328 24.2867 216.328 25.1C216.328 25.9133 216.195 26.64 215.928 27.28C215.675 27.92 215.335 28.46 214.908 28.9C214.481 29.34 213.981 29.6733 213.408 29.9C212.848 30.1267 212.261 30.24 211.648 30.24ZM211.648 28.36C212.368 28.36 212.935 28.0667 213.348 27.48C213.761 26.88 213.968 26.0867 213.968 25.1C213.968 24.1 213.761 23.3067 213.348 22.72C212.935 22.12 212.368 21.82 211.648 21.82C210.928 21.82 210.361 22.12 209.948 22.72C209.548 23.3067 209.348 24.1 209.348 25.1C209.348 26.0867 209.548 26.88 209.948 27.48C210.361 28.0667 210.928 28.36 211.648 28.36ZM218.605 30V20.18H220.505L220.665 21.92H220.745C221.091 21.28 221.511 20.7933 222.005 20.46C222.498 20.1133 223.005 19.94 223.525 19.94C223.991 19.94 224.365 20.0067 224.645 20.14L224.245 22.14C224.071 22.0867 223.911 22.0467 223.765 22.02C223.618 21.9933 223.438 21.98 223.225 21.98C222.838 21.98 222.431 22.1333 222.005 22.44C221.578 22.7333 221.211 23.2533 220.905 24V30H218.605ZM229.525 30.24C228.952 30.24 228.465 30.1533 228.065 29.98C227.679 29.8067 227.359 29.5667 227.105 29.26C226.865 28.94 226.685 28.5667 226.565 28.14C226.459 27.7 226.405 27.2133 226.405 26.68V22H225.005V20.28L226.525 20.18L226.805 17.5H228.725V20.18H231.225V22H228.725V26.68C228.725 27.8267 229.185 28.4 230.105 28.4C230.279 28.4 230.452 28.38 230.625 28.34C230.812 28.3 230.979 28.2467 231.125 28.18L231.525 29.88C231.259 29.9733 230.952 30.0533 230.605 30.12C230.272 30.2 229.912 30.24 229.525 30.24Z" fill="white"/>
<path d="M876.312 29.192C875.651 29.192 875.043 29.064 874.488 28.808C873.944 28.552 873.475 28.1893 873.08 27.72C872.685 27.24 872.376 26.664 872.152 25.992C871.939 25.3093 871.832 24.5467 871.832 23.704C871.832 22.8613 871.939 22.1093 872.152 21.448C872.376 20.776 872.685 20.2107 873.08 19.752C873.475 19.2827 873.944 18.9253 874.488 18.68C875.043 18.4347 875.651 18.312 876.312 18.312C876.973 18.312 877.576 18.44 878.12 18.696C878.675 18.9413 879.149 19.2987 879.544 19.768C879.949 20.2267 880.259 20.792 880.472 21.464C880.696 22.1253 880.808 22.872 880.808 23.704C880.808 24.5467 880.696 25.3093 880.472 25.992C880.259 26.664 879.949 27.24 879.544 27.72C879.149 28.1893 878.675 28.552 878.12 28.808C877.576 29.064 876.973 29.192 876.312 29.192ZM876.312 28.024C876.781 28.024 877.203 27.9227 877.576 27.72C877.96 27.5173 878.285 27.2293 878.552 26.856C878.829 26.472 879.043 26.0187 879.192 25.496C879.341 24.9627 879.416 24.3653 879.416 23.704C879.416 23.0533 879.341 22.4667 879.192 21.944C879.043 21.4213 878.829 20.9787 878.552 20.616C878.285 20.2533 877.96 19.976 877.576 19.784C877.203 19.5813 876.781 19.48 876.312 19.48C875.843 19.48 875.416 19.5813 875.032 19.784C874.659 19.976 874.333 20.2533 874.056 20.616C873.789 20.9787 873.581 21.4213 873.432 21.944C873.283 22.4667 873.208 23.0533 873.208 23.704C873.208 24.3653 873.283 24.9627 873.432 25.496C873.581 26.0187 873.789 26.472 874.056 26.856C874.333 27.2293 874.659 27.5173 875.032 27.72C875.416 27.9227 875.843 28.024 876.312 28.024ZM886.009 29.192C885.497 29.192 885.017 29.1013 884.569 28.92C884.121 28.7387 883.732 28.4773 883.401 28.136C883.081 27.784 882.825 27.3573 882.633 26.856C882.452 26.344 882.361 25.768 882.361 25.128C882.361 24.4773 882.462 23.9013 882.665 23.4C882.868 22.888 883.14 22.456 883.481 22.104C883.822 21.752 884.217 21.4853 884.665 21.304C885.124 21.1227 885.604 21.032 886.105 21.032C886.617 21.032 887.054 21.1227 887.417 21.304C887.78 21.4853 888.1 21.6987 888.377 21.944L887.705 22.808C887.481 22.6053 887.241 22.44 886.985 22.312C886.74 22.184 886.462 22.12 886.153 22.12C885.801 22.12 885.476 22.1947 885.177 22.344C884.878 22.4827 884.622 22.6853 884.409 22.952C884.196 23.2187 884.025 23.5387 883.897 23.912C883.78 24.2747 883.721 24.68 883.721 25.128C883.721 25.576 883.78 25.9813 883.897 26.344C884.014 26.7067 884.174 27.0213 884.377 27.288C884.59 27.544 884.846 27.7467 885.145 27.896C885.444 28.0347 885.769 28.104 886.121 28.104C886.484 28.104 886.814 28.0293 887.113 27.88C887.422 27.72 887.7 27.5333 887.945 27.32L888.521 28.2C888.169 28.5093 887.78 28.7547 887.353 28.936C886.926 29.1067 886.478 29.192 886.009 29.192ZM892.526 29.192C892.11 29.192 891.758 29.128 891.47 29C891.192 28.872 890.963 28.696 890.782 28.472C890.611 28.248 890.488 27.976 890.414 27.656C890.339 27.336 890.302 26.984 890.302 26.6V22.296H889.15V21.304L890.366 21.224L890.526 19.048H891.63V21.224H893.726V22.296H891.63V26.616C891.63 27.096 891.715 27.4693 891.886 27.736C892.067 27.992 892.382 28.12 892.83 28.12C892.968 28.12 893.118 28.0987 893.278 28.056C893.438 28.0133 893.582 27.9653 893.71 27.912L893.966 28.904C893.752 28.9787 893.518 29.0427 893.262 29.096C893.016 29.16 892.771 29.192 892.526 29.192ZM901.151 29.192C900.746 29.192 900.372 29.1493 900.031 29.064C899.7 28.9893 899.396 28.888 899.119 28.76C898.842 28.6213 898.591 28.4667 898.367 28.296C898.154 28.1253 897.962 27.944 897.791 27.752L898.463 26.888C898.772 27.208 899.13 27.4907 899.535 27.736C899.951 27.9813 900.463 28.104 901.071 28.104C901.69 28.104 902.196 27.9387 902.591 27.608C902.986 27.2667 903.183 26.808 903.183 26.232C903.183 25.9333 903.124 25.6613 903.007 25.416C902.9 25.16 902.719 24.9413 902.463 24.76C902.207 24.5787 901.871 24.44 901.455 24.344C901.039 24.248 900.527 24.2 899.919 24.2V23.192C900.463 23.192 900.916 23.144 901.279 23.048C901.652 22.952 901.951 22.8187 902.175 22.648C902.41 22.4773 902.575 22.2747 902.671 22.04C902.767 21.8053 902.815 21.5547 902.815 21.288C902.815 20.7867 902.655 20.392 902.335 20.104C902.026 19.816 901.599 19.672 901.055 19.672C900.628 19.672 900.234 19.768 899.871 19.96C899.519 20.152 899.188 20.4027 898.879 20.712L898.175 19.88C898.57 19.5067 899.002 19.2027 899.471 18.968C899.951 18.7227 900.495 18.6 901.103 18.6C901.551 18.6 901.962 18.6587 902.335 18.776C902.708 18.8933 903.028 19.064 903.295 19.288C903.572 19.5013 903.786 19.768 903.935 20.088C904.084 20.408 904.159 20.776 904.159 21.192C904.159 21.8107 903.988 22.3173 903.647 22.712C903.306 23.1067 902.858 23.4107 902.303 23.624V23.688C902.612 23.7627 902.9 23.8747 903.167 24.024C903.434 24.1627 903.668 24.344 903.871 24.568C904.074 24.7813 904.228 25.032 904.335 25.32C904.452 25.608 904.511 25.928 904.511 26.28C904.511 26.728 904.42 27.1333 904.239 27.496C904.068 27.8587 903.828 28.168 903.519 28.424C903.22 28.6693 902.868 28.8613 902.463 29C902.058 29.128 901.62 29.192 901.151 29.192ZM909.312 29.192C908.277 29.192 907.472 28.7333 906.896 27.816C906.32 26.8987 906.032 25.5813 906.032 23.864C906.032 22.1467 906.32 20.84 906.896 19.944C907.472 19.048 908.277 18.6 909.312 18.6C910.336 18.6 911.136 19.048 911.712 19.944C912.288 20.84 912.576 22.1467 912.576 23.864C912.576 25.5813 912.288 26.8987 911.712 27.816C911.136 28.7333 910.336 29.192 909.312 29.192ZM909.312 28.136C909.611 28.136 909.877 28.056 910.112 27.896C910.357 27.7253 910.565 27.4693 910.736 27.128C910.917 26.776 911.056 26.3333 911.152 25.8C911.248 25.256 911.296 24.6107 911.296 23.864C911.296 23.1173 911.248 22.4773 911.152 21.944C911.056 21.4107 910.917 20.9787 910.736 20.648C910.565 20.3067 910.357 20.056 910.112 19.896C909.877 19.736 909.611 19.656 909.312 19.656C909.013 19.656 908.741 19.736 908.496 19.896C908.251 20.056 908.037 20.3067 907.856 20.648C907.685 20.9787 907.552 21.4107 907.456 21.944C907.36 22.4773 907.312 23.1173 907.312 23.864C907.312 25.3573 907.493 26.4453 907.856 27.128C908.229 27.8 908.715 28.136 909.312 28.136ZM914.353 31.72L914.033 30.952C914.492 30.7493 914.849 30.4773 915.105 30.136C915.361 29.8053 915.484 29.4267 915.473 29C915.441 29.0107 915.388 29.016 915.313 29.016C915.057 29.016 914.833 28.9413 914.641 28.792C914.46 28.632 914.369 28.4027 914.369 28.104C914.369 27.816 914.465 27.592 914.657 27.432C914.849 27.2613 915.079 27.176 915.345 27.176C915.687 27.176 915.953 27.3147 916.145 27.592C916.348 27.8693 916.449 28.248 916.449 28.728C916.449 29.4213 916.263 30.024 915.889 30.536C915.516 31.048 915.004 31.4427 914.353 31.72ZM921.109 29V28.216C921.877 27.448 922.559 26.7547 923.157 26.136C923.754 25.5173 924.255 24.9467 924.661 24.424C925.066 23.8907 925.375 23.4053 925.589 22.968C925.802 22.52 925.909 22.088 925.909 21.672C925.909 21.0853 925.749 20.6053 925.429 20.232C925.109 19.8587 924.623 19.672 923.973 19.672C923.546 19.672 923.151 19.7947 922.789 20.04C922.426 20.2747 922.095 20.5627 921.797 20.904L921.045 20.152C921.471 19.6827 921.925 19.3093 922.405 19.032C922.885 18.744 923.461 18.6 924.133 18.6C925.082 18.6 925.829 18.8773 926.373 19.432C926.917 19.976 927.189 20.7013 927.189 21.608C927.189 22.088 927.082 22.5733 926.869 23.064C926.666 23.544 926.378 24.0453 926.005 24.568C925.642 25.08 925.205 25.6187 924.693 26.184C924.191 26.7387 923.637 27.3307 923.029 27.96C923.306 27.9387 923.594 27.9173 923.893 27.896C924.191 27.8747 924.474 27.864 924.741 27.864H927.701V29H921.109ZM932.406 29.192C931.371 29.192 930.566 28.7333 929.99 27.816C929.414 26.8987 929.126 25.5813 929.126 23.864C929.126 22.1467 929.414 20.84 929.99 19.944C930.566 19.048 931.371 18.6 932.406 18.6C933.43 18.6 934.23 19.048 934.806 19.944C935.382 20.84 935.67 22.1467 935.67 23.864C935.67 25.5813 935.382 26.8987 934.806 27.816C934.23 28.7333 933.43 29.192 932.406 29.192ZM932.406 28.136C932.705 28.136 932.971 28.056 933.206 27.896C933.451 27.7253 933.659 27.4693 933.83 27.128C934.011 26.776 934.15 26.3333 934.246 25.8C934.342 25.256 934.39 24.6107 934.39 23.864C934.39 23.1173 934.342 22.4773 934.246 21.944C934.15 21.4107 934.011 20.9787 933.83 20.648C933.659 20.3067 933.451 20.056 933.206 19.896C932.971 19.736 932.705 19.656 932.406 19.656C932.107 19.656 931.835 19.736 931.59 19.896C931.345 20.056 931.131 20.3067 930.95 20.648C930.779 20.9787 930.646 21.4107 930.55 21.944C930.454 22.4773 930.406 23.1173 930.406 23.864C930.406 25.3573 930.587 26.4453 930.95 27.128C931.323 27.8 931.809 28.136 932.406 28.136ZM937.015 29V28.216C937.783 27.448 938.466 26.7547 939.063 26.136C939.66 25.5173 940.162 24.9467 940.567 24.424C940.972 23.8907 941.282 23.4053 941.495 22.968C941.708 22.52 941.815 22.088 941.815 21.672C941.815 21.0853 941.655 20.6053 941.335 20.232C941.015 19.8587 940.53 19.672 939.879 19.672C939.452 19.672 939.058 19.7947 938.695 20.04C938.332 20.2747 938.002 20.5627 937.703 20.904L936.951 20.152C937.378 19.6827 937.831 19.3093 938.311 19.032C938.791 18.744 939.367 18.6 940.039 18.6C940.988 18.6 941.735 18.8773 942.279 19.432C942.823 19.976 943.095 20.7013 943.095 21.608C943.095 22.088 942.988 22.5733 942.775 23.064C942.572 23.544 942.284 24.0453 941.911 24.568C941.548 25.08 941.111 25.6187 940.599 26.184C940.098 26.7387 939.543 27.3307 938.935 27.96C939.212 27.9387 939.5 27.9173 939.799 27.896C940.098 27.8747 940.38 27.864 940.647 27.864H943.607V29H937.015ZM948.104 29.192C947.699 29.192 947.325 29.1493 946.984 29.064C946.653 28.9893 946.349 28.888 946.072 28.76C945.795 28.6213 945.544 28.4667 945.32 28.296C945.107 28.1253 944.915 27.944 944.744 27.752L945.416 26.888C945.725 27.208 946.083 27.4907 946.488 27.736C946.904 27.9813 947.416 28.104 948.024 28.104C948.643 28.104 949.149 27.9387 949.544 27.608C949.939 27.2667 950.136 26.808 950.136 26.232C950.136 25.9333 950.077 25.6613 949.96 25.416C949.853 25.16 949.672 24.9413 949.416 24.76C949.16 24.5787 948.824 24.44 948.408 24.344C947.992 24.248 947.48 24.2 946.872 24.2V23.192C947.416 23.192 947.869 23.144 948.232 23.048C948.605 22.952 948.904 22.8187 949.128 22.648C949.363 22.4773 949.528 22.2747 949.624 22.04C949.72 21.8053 949.768 21.5547 949.768 21.288C949.768 20.7867 949.608 20.392 949.288 20.104C948.979 19.816 948.552 19.672 948.008 19.672C947.581 19.672 947.187 19.768 946.824 19.96C946.472 20.152 946.141 20.4027 945.832 20.712L945.128 19.88C945.523 19.5067 945.955 19.2027 946.424 18.968C946.904 18.7227 947.448 18.6 948.056 18.6C948.504 18.6 948.915 18.6587 949.288 18.776C949.661 18.8933 949.981 19.064 950.248 19.288C950.525 19.5013 950.739 19.768 950.888 20.088C951.037 20.408 951.112 20.776 951.112 21.192C951.112 21.8107 950.941 22.3173 950.6 22.712C950.259 23.1067 949.811 23.4107 949.256 23.624V23.688C949.565 23.7627 949.853 23.8747 950.12 24.024C950.387 24.1627 950.621 24.344 950.824 24.568C951.027 24.7813 951.181 25.032 951.288 25.32C951.405 25.608 951.464 25.928 951.464 26.28C951.464 26.728 951.373 27.1333 951.192 27.496C951.021 27.8587 950.781 28.168 950.472 28.424C950.173 28.6693 949.821 28.8613 949.416 29C949.011 29.128 948.573 29.192 948.104 29.192ZM975.967 29V27.912H978.303V20.392H976.447V19.544C976.916 19.4587 977.322 19.3573 977.663 19.24C978.015 19.112 978.33 18.9627 978.607 18.792H979.615V27.912H981.727V29H975.967ZM983.92 29V27.912H986.256V20.392H984.4V19.544C984.87 19.4587 985.275 19.3573 985.616 19.24C985.968 19.112 986.283 18.9627 986.56 18.792H987.568V27.912H989.68V29H983.92ZM992.609 23.416C992.343 23.416 992.113 23.3253 991.921 23.144C991.74 22.952 991.649 22.712 991.649 22.424C991.649 22.1147 991.74 21.8693 991.921 21.688C992.113 21.496 992.343 21.4 992.609 21.4C992.865 21.4 993.084 21.496 993.265 21.688C993.457 21.8693 993.553 22.1147 993.553 22.424C993.553 22.712 993.457 22.952 993.265 23.144C993.084 23.3253 992.865 23.416 992.609 23.416ZM992.609 29.192C992.343 29.192 992.113 29.1013 991.921 28.92C991.74 28.728 991.649 28.488 991.649 28.2C991.649 27.8907 991.74 27.6453 991.921 27.464C992.113 27.272 992.343 27.176 992.609 27.176C992.865 27.176 993.084 27.272 993.265 27.464C993.457 27.6453 993.553 27.8907 993.553 28.2C993.553 28.488 993.457 28.728 993.265 28.92C993.084 29.1013 992.865 29.192 992.609 29.192ZM998.37 29.192C997.964 29.192 997.591 29.1493 997.25 29.064C996.919 28.9893 996.615 28.888 996.338 28.76C996.06 28.6213 995.81 28.4667 995.586 28.296C995.372 28.1253 995.18 27.944 995.01 27.752L995.682 26.888C995.991 27.208 996.348 27.4907 996.754 27.736C997.17 27.9813 997.682 28.104 998.29 28.104C998.908 28.104 999.415 27.9387 999.81 27.608C1000.2 27.2667 1000.4 26.808 1000.4 26.232C1000.4 25.9333 1000.34 25.6613 1000.23 25.416C1000.12 25.16 999.938 24.9413 999.682 24.76C999.426 24.5787 999.09 24.44 998.674 24.344C998.258 24.248 997.746 24.2 997.138 24.2V23.192C997.682 23.192 998.135 23.144 998.498 23.048C998.871 22.952 999.17 22.8187 999.394 22.648C999.628 22.4773 999.794 22.2747 999.89 22.04C999.986 21.8053 1000.03 21.5547 1000.03 21.288C1000.03 20.7867 999.874 20.392 999.554 20.104C999.244 19.816 998.818 19.672 998.274 19.672C997.847 19.672 997.452 19.768 997.09 19.96C996.738 20.152 996.407 20.4027 996.098 20.712L995.394 19.88C995.788 19.5067 996.22 19.2027 996.69 18.968C997.17 18.7227 997.714 18.6 998.322 18.6C998.77 18.6 999.18 18.6587 999.554 18.776C999.927 18.8933 1000.25 19.064 1000.51 19.288C1000.79 19.5013 1001 19.768 1001.15 20.088C1001.3 20.408 1001.38 20.776 1001.38 21.192C1001.38 21.8107 1001.21 22.3173 1000.87 22.712C1000.52 23.1067 1000.08 23.4107 999.522 23.624V23.688C999.831 23.7627 1000.12 23.8747 1000.39 24.024C1000.65 24.1627 1000.89 24.344 1001.09 24.568C1001.29 24.7813 1001.45 25.032 1001.55 25.32C1001.67 25.608 1001.73 25.928 1001.73 26.28C1001.73 26.728 1001.64 27.1333 1001.46 27.496C1001.29 27.8587 1001.05 28.168 1000.74 28.424C1000.44 28.6693 1000.09 28.8613 999.682 29C999.276 29.128 998.839 29.192 998.37 29.192ZM1006.29 29.192C1005.89 29.192 1005.51 29.1493 1005.17 29.064C1004.84 28.9893 1004.54 28.888 1004.26 28.76C1003.99 28.632 1003.75 28.488 1003.52 28.328C1003.31 28.1573 1003.12 27.9813 1002.95 27.8L1003.59 26.936C1003.89 27.2453 1004.24 27.5173 1004.64 27.752C1005.06 27.9867 1005.57 28.104 1006.16 28.104C1006.47 28.104 1006.76 28.0507 1007.03 27.944C1007.3 27.8267 1007.54 27.6667 1007.75 27.464C1007.95 27.2613 1008.11 27.016 1008.23 26.728C1008.34 26.44 1008.4 26.12 1008.4 25.768C1008.4 25.064 1008.21 24.5147 1007.81 24.12C1007.42 23.7253 1006.89 23.528 1006.23 23.528C1005.87 23.528 1005.57 23.5813 1005.31 23.688C1005.07 23.7947 1004.79 23.9493 1004.48 24.152L1003.78 23.704L1004.11 18.792H1009.22V19.928H1005.27L1004.99 22.952C1005.24 22.824 1005.49 22.7227 1005.73 22.648C1005.98 22.5733 1006.25 22.536 1006.56 22.536C1007 22.536 1007.41 22.6 1007.79 22.728C1008.18 22.856 1008.51 23.0533 1008.8 23.32C1009.09 23.576 1009.31 23.9067 1009.47 24.312C1009.65 24.7067 1009.73 25.1813 1009.73 25.736C1009.73 26.2907 1009.63 26.7813 1009.44 27.208C1009.25 27.6347 1008.99 27.9973 1008.67 28.296C1008.35 28.584 1007.99 28.808 1007.57 28.968C1007.17 29.1173 1006.74 29.192 1006.29 29.192ZM1016.95 23.128L1016.46 24.728H1019.61L1019.11 23.128C1018.92 22.5413 1018.74 21.96 1018.57 21.384C1018.4 20.7973 1018.23 20.2 1018.06 19.592H1017.99C1017.83 20.2 1017.67 20.7973 1017.5 21.384C1017.32 21.96 1017.14 22.5413 1016.95 23.128ZM1013.75 29L1017.3 18.504H1018.81L1022.36 29H1020.94L1019.94 25.8H1016.12L1015.11 29H1013.75ZM1023.85 29V18.504H1025.45L1027.46 24.104C1027.59 24.4667 1027.71 24.8347 1027.83 25.208C1027.96 25.5707 1028.09 25.9333 1028.21 26.296H1028.28C1028.41 25.9333 1028.52 25.5707 1028.63 25.208C1028.75 24.8347 1028.87 24.4667 1029 24.104L1030.98 18.504H1032.6V29H1031.35V23.224C1031.35 22.7547 1031.37 22.2373 1031.41 21.672C1031.46 21.1067 1031.49 20.5893 1031.53 20.12H1031.46L1030.63 22.504L1028.65 27.944H1027.77L1025.78 22.504L1024.95 20.12H1024.89C1024.92 20.5893 1024.95 21.1067 1024.98 21.672C1025.02 22.2373 1025.05 22.7547 1025.05 23.224V29H1023.85Z" fill="white"/>
<defs>
<filter id="filter0_d_1029_15358" x="0" y="0" width="1069" height="51" filterUnits="userSpaceOnUse" color-interpolation-filters="sRGB">
<feFlood flood-opacity="0" result="BackgroundImageFix"/>
<feColorMatrix in="SourceAlpha" type="matrix" values="0 0 0 0 0 0 0 0 0 0 0 0 0 0 0 0 0 0 127 0" result="hardAlpha"/>
<feOffset dy="4"/>
<feGaussianBlur stdDeviation="2"/>
<feComposite in2="hardAlpha" operator="out"/>
<feColorMatrix type="matrix" values="0 0 0 0 0 0 0 0 0 0 0 0 0 0 0 0 0 0 0.06 0"/>
<feBlend mode="normal" in2="BackgroundImageFix" result="effect1_dropShadow_1029_15358"/>
<feBlend mode="normal" in="SourceGraphic" in2="effect1_dropShadow_1029_15358" result="shape"/>
</filter>
</defs>
</svg>
