<svg width="25" height="25" viewBox="0 0 25 25" fill="none" xmlns="http://www.w3.org/2000/svg">
<path d="M9.4224 22.1248H15.4563C20.4846 22.1248 22.4959 20.1135 22.4959 15.0852V9.05131C22.4959 4.02303 20.4846 2.01172 15.4563 2.01172H9.4224C4.39412 2.01172 2.38281 4.02303 2.38281 9.05131V15.0852C2.38281 20.1135 4.39412 22.1248 9.4224 22.1248Z" stroke="#B3B3B3" stroke-width="1.50848" stroke-linecap="round" stroke-linejoin="round"/>
<path d="M15.9644 18.6048C17.0707 18.6048 17.9757 17.6997 17.9757 16.5935V7.54256C17.9757 6.43634 17.0707 5.53125 15.9644 5.53125C14.8582 5.53125 13.9531 6.43634 13.9531 7.54256V16.5935C13.9531 17.6997 14.8482 18.6048 15.9644 18.6048Z" stroke="#B3B3B3" stroke-width="1.50848" stroke-linecap="round" stroke-linejoin="round"/>
<path d="M8.91756 18.603C10.0238 18.603 10.9289 17.6979 10.9289 16.5917V13.0719C10.9289 11.9656 10.0238 11.0605 8.91756 11.0605C7.81134 11.0605 6.90625 11.9656 6.90625 13.0719V16.5917C6.90625 17.6979 7.80128 18.603 8.91756 18.603Z" stroke="#B3B3B3" stroke-width="1.50848" stroke-linecap="round" stroke-linejoin="round"/>
</svg>
