<svg width="22" height="24" viewBox="0 0 22 24" fill="none" xmlns="http://www.w3.org/2000/svg">
<path fill-rule="evenodd" clip-rule="evenodd" d="M19.2 13.9032V9.6C19.2 5.7396 16.578 2.4876 13.026 1.5096C12.6744 0.624 11.8152 0 10.8 0C9.7848 0 8.9256 0.624 8.574 1.5096C5.022 2.4888 2.4 5.7396 2.4 9.6V13.9032L0.3516 15.9516C0.126 16.176 0 16.4808 0 16.8V19.2C0 19.8636 0.5364 20.4 1.2 20.4H20.4C21.0636 20.4 21.6 19.8636 21.6 19.2V16.8C21.6 16.4808 21.474 16.176 21.2484 15.9516L19.2 13.9032ZM19.2001 18H2.40009V17.2968L4.44849 15.2484C4.67409 15.024 4.80009 14.7192 4.80009 14.4V9.60002C4.80009 6.29162 7.49169 3.60002 10.8001 3.60002C14.1085 3.60002 16.8001 6.29162 16.8001 9.60002V14.4C16.8001 14.7192 16.9261 15.024 17.1517 15.2484L19.2001 17.2968V18ZM10.8001 24C12.3733 24 13.6885 22.9992 14.1817 21.6H7.41848C7.91168 22.9992 9.22688 24 10.8001 24Z" fill="#0F151F"/>
</svg>
