<svg width="16" height="9" viewBox="0 0 16 9" fill="none" xmlns="http://www.w3.org/2000/svg">
<path d="M8.2041 8.54816C8.51172 8.53979 8.77539 8.43095 9.0127 8.20489L15.7012 1.69121C15.8945 1.49865 16 1.2726 16 0.996308C16 0.435362 15.543 0 14.9541 0C14.6729 0 14.4092 0.10884 14.207 0.301404L8.2041 6.16204L2.20117 0.301404C1.99902 0.10884 1.74414 0 1.4541 0C0.865234 0 0.408203 0.435362 0.408203 0.996308C0.408203 1.26422 0.513672 1.49865 0.707031 1.69121L7.4043 8.20489C7.63281 8.43932 7.89648 8.54816 8.2041 8.54816Z" fill="#0F151F"/>
</svg>
