<svg width="20" height="169" viewBox="0 0 20 169" fill="none" xmlns="http://www.w3.org/2000/svg">
<path d="M7.01807 7.88379C7.01807 8.36003 6.90706 8.76465 6.68506 9.09766C6.46663 9.42708 6.16943 9.67773 5.79346 9.84961C5.42106 10.0215 5.00033 10.1074 4.53125 10.1074C4.06217 10.1074 3.63965 10.0215 3.26367 9.84961C2.8877 9.67773 2.59049 9.42708 2.37207 9.09766C2.15365 8.76465 2.04443 8.36003 2.04443 7.88379C2.04443 7.57227 2.10352 7.2876 2.22168 7.02979C2.34342 6.76839 2.51351 6.54102 2.73193 6.34766C2.95394 6.1543 3.21533 6.0057 3.51611 5.90186C3.82048 5.79443 4.15527 5.74072 4.52051 5.74072C5.00033 5.74072 5.42822 5.83382 5.8042 6.02002C6.18018 6.20264 6.47559 6.45508 6.69043 6.77734C6.90885 7.09961 7.01807 7.46842 7.01807 7.88379ZM6.01904 7.8623C6.01904 7.57227 5.95638 7.31624 5.83105 7.09424C5.70573 6.86865 5.53027 6.6932 5.30469 6.56787C5.0791 6.44255 4.81771 6.37988 4.52051 6.37988C4.21615 6.37988 3.95296 6.44255 3.73096 6.56787C3.51253 6.6932 3.34245 6.86865 3.2207 7.09424C3.09896 7.31624 3.03809 7.57227 3.03809 7.8623C3.03809 8.16309 3.09717 8.4209 3.21533 8.63574C3.33708 8.84701 3.50895 9.00993 3.73096 9.12451C3.95654 9.23551 4.22331 9.29102 4.53125 9.29102C4.83919 9.29102 5.10417 9.23551 5.32617 9.12451C5.54818 9.00993 5.71826 8.84701 5.83643 8.63574C5.95817 8.4209 6.01904 8.16309 6.01904 7.8623ZM6.83545 4.21533C6.83545 4.59489 6.73519 4.93685 6.53467 5.24121C6.33415 5.54557 6.06022 5.78548 5.71289 5.96094C5.36556 6.13639 4.97168 6.22412 4.53125 6.22412C4.08366 6.22412 3.68441 6.13639 3.3335 5.96094C2.98617 5.78548 2.71403 5.54557 2.51709 5.24121C2.32015 4.93685 2.22168 4.59489 2.22168 4.21533C2.22168 3.76058 2.32015 3.37386 2.51709 3.05518C2.71761 2.73649 2.99154 2.493 3.33887 2.32471C3.6862 2.15641 4.08187 2.07227 4.52588 2.07227C4.97347 2.07227 5.37093 2.15641 5.71826 2.32471C6.06559 2.493 6.33773 2.73649 6.53467 3.05518C6.73519 3.37386 6.83545 3.76058 6.83545 4.21533ZM5.8418 4.23145C5.8418 3.97005 5.7863 3.7391 5.67529 3.53857C5.56429 3.33805 5.41032 3.1805 5.21338 3.06592C5.01644 2.94775 4.78727 2.88867 4.52588 2.88867C4.26449 2.88867 4.03532 2.94417 3.83838 3.05518C3.64502 3.1626 3.49284 3.31657 3.38184 3.51709C3.27441 3.71761 3.2207 3.95573 3.2207 4.23145C3.2207 4.5 3.27441 4.73454 3.38184 4.93506C3.49284 5.13558 3.64681 5.29134 3.84375 5.40234C4.04069 5.51335 4.26986 5.56885 4.53125 5.56885C4.79264 5.56885 5.02002 5.51335 5.21338 5.40234C5.41032 5.29134 5.56429 5.13558 5.67529 4.93506C5.7863 4.73454 5.8418 4.5 5.8418 4.23145ZM13.1841 5.4668V6.65918C13.1841 7.30013 13.1268 7.84082 13.0122 8.28125C12.8976 8.72168 12.7329 9.07617 12.5181 9.34473C12.3032 9.61328 12.0436 9.80843 11.7393 9.93018C11.4385 10.0483 11.0983 10.1074 10.7188 10.1074C10.418 10.1074 10.1405 10.0698 9.88623 9.99463C9.632 9.91943 9.40283 9.79948 9.19873 9.63477C8.99821 9.46647 8.82633 9.24805 8.68311 8.97949C8.53988 8.71094 8.43066 8.38509 8.35547 8.00195C8.28027 7.61882 8.24268 7.17122 8.24268 6.65918V5.4668C8.24268 4.82585 8.29997 4.28874 8.41455 3.85547C8.53271 3.4222 8.69922 3.07487 8.91406 2.81348C9.12891 2.5485 9.38672 2.35872 9.6875 2.24414C9.99186 2.12956 10.332 2.07227 10.708 2.07227C11.0124 2.07227 11.2917 2.10986 11.5459 2.18506C11.8037 2.25667 12.0329 2.37305 12.2334 2.53418C12.4339 2.69173 12.604 2.90299 12.7437 3.16797C12.8869 3.42936 12.9961 3.74984 13.0713 4.12939C13.1465 4.50895 13.1841 4.95475 13.1841 5.4668ZM12.1851 6.82031V5.30029C12.1851 4.94938 12.1636 4.64144 12.1206 4.37646C12.0812 4.10791 12.0221 3.87874 11.9434 3.68896C11.8646 3.49919 11.7643 3.34521 11.6426 3.22705C11.5244 3.10889 11.3866 3.02295 11.229 2.96924C11.075 2.91195 10.9014 2.8833 10.708 2.8833C10.4717 2.8833 10.2622 2.92806 10.0796 3.01758C9.89697 3.10352 9.743 3.24137 9.61768 3.43115C9.49593 3.62093 9.40283 3.86979 9.33838 4.17773C9.27393 4.48568 9.2417 4.85986 9.2417 5.30029V6.82031C9.2417 7.17122 9.26139 7.48096 9.30078 7.74951C9.34375 8.01807 9.40641 8.25081 9.48877 8.44775C9.57113 8.64111 9.67139 8.80046 9.78955 8.92578C9.90771 9.05111 10.0438 9.14421 10.1978 9.20508C10.3553 9.26237 10.529 9.29102 10.7188 9.29102C10.9622 9.29102 11.1753 9.24447 11.3579 9.15137C11.5405 9.05827 11.6927 8.91325 11.8145 8.71631C11.9398 8.51579 12.0329 8.25977 12.0938 7.94824C12.1546 7.63314 12.1851 7.25716 12.1851 6.82031ZM19.3716 5.4668V6.65918C19.3716 7.30013 19.3143 7.84082 19.1997 8.28125C19.0851 8.72168 18.9204 9.07617 18.7056 9.34473C18.4907 9.61328 18.2311 9.80843 17.9268 9.93018C17.626 10.0483 17.2858 10.1074 16.9062 10.1074C16.6055 10.1074 16.328 10.0698 16.0737 9.99463C15.8195 9.91943 15.5903 9.79948 15.3862 9.63477C15.1857 9.46647 15.0138 9.24805 14.8706 8.97949C14.7274 8.71094 14.6182 8.38509 14.543 8.00195C14.4678 7.61882 14.4302 7.17122 14.4302 6.65918V5.4668C14.4302 4.82585 14.4875 4.28874 14.6021 3.85547C14.7202 3.4222 14.8867 3.07487 15.1016 2.81348C15.3164 2.5485 15.5742 2.35872 15.875 2.24414C16.1794 2.12956 16.5195 2.07227 16.8955 2.07227C17.1999 2.07227 17.4792 2.10986 17.7334 2.18506C17.9912 2.25667 18.2204 2.37305 18.4209 2.53418C18.6214 2.69173 18.7915 2.90299 18.9312 3.16797C19.0744 3.42936 19.1836 3.74984 19.2588 4.12939C19.334 4.50895 19.3716 4.95475 19.3716 5.4668ZM18.3726 6.82031V5.30029C18.3726 4.94938 18.3511 4.64144 18.3081 4.37646C18.2687 4.10791 18.2096 3.87874 18.1309 3.68896C18.0521 3.49919 17.9518 3.34521 17.8301 3.22705C17.7119 3.10889 17.5741 3.02295 17.4165 2.96924C17.2625 2.91195 17.0889 2.8833 16.8955 2.8833C16.6592 2.8833 16.4497 2.92806 16.2671 3.01758C16.0845 3.10352 15.9305 3.24137 15.8052 3.43115C15.6834 3.62093 15.5903 3.86979 15.5259 4.17773C15.4614 4.48568 15.4292 4.85986 15.4292 5.30029V6.82031C15.4292 7.17122 15.4489 7.48096 15.4883 7.74951C15.5312 8.01807 15.5939 8.25081 15.6763 8.44775C15.7586 8.64111 15.8589 8.80046 15.9771 8.92578C16.0952 9.05111 16.2313 9.14421 16.3853 9.20508C16.5428 9.26237 16.7165 9.29102 16.9062 9.29102C17.1497 9.29102 17.3628 9.24447 17.5454 9.15137C17.728 9.05827 17.8802 8.91325 18.002 8.71631C18.1273 8.51579 18.2204 8.25977 18.2812 7.94824C18.3421 7.63314 18.3726 7.25716 18.3726 6.82031Z" fill="#25233A"/>
<path d="M4.90088 42.1689H4.98682V43.0122H4.90088C4.37451 43.0122 3.93408 43.0981 3.57959 43.27C3.2251 43.4383 2.94401 43.6657 2.73633 43.9521C2.52865 44.235 2.37826 44.5537 2.28516 44.9082C2.19564 45.2627 2.15088 45.6226 2.15088 45.9878V47.1372C2.15088 47.4845 2.19206 47.7925 2.27441 48.061C2.35677 48.326 2.46956 48.5498 2.61279 48.7324C2.75602 48.915 2.91715 49.0529 3.09619 49.146C3.27881 49.2391 3.46859 49.2856 3.66553 49.2856C3.89469 49.2856 4.0988 49.2427 4.27783 49.1567C4.45687 49.0672 4.60726 48.9437 4.729 48.7861C4.85433 48.625 4.94922 48.4352 5.01367 48.2168C5.07812 47.9984 5.11035 47.7585 5.11035 47.4971C5.11035 47.2643 5.08171 47.0405 5.02441 46.8257C4.96712 46.6073 4.87939 46.4139 4.76123 46.2456C4.64307 46.0737 4.49447 45.9395 4.31543 45.8428C4.13997 45.7425 3.9305 45.6924 3.68701 45.6924C3.4113 45.6924 3.15348 45.7604 2.91357 45.8965C2.67725 46.029 2.4821 46.2044 2.32812 46.4229C2.17773 46.6377 2.0918 46.8722 2.07031 47.1265L1.54395 47.1211C1.59408 46.7201 1.68717 46.3781 1.82324 46.0952C1.96289 45.8088 2.13477 45.576 2.33887 45.397C2.54655 45.2144 2.77751 45.0819 3.03174 44.9995C3.28955 44.9136 3.56169 44.8706 3.84814 44.8706C4.23844 44.8706 4.57503 44.944 4.85791 45.0908C5.14079 45.2376 5.37354 45.4346 5.55615 45.6816C5.73877 45.9251 5.87305 46.2008 5.95898 46.5088C6.0485 46.8132 6.09326 47.1265 6.09326 47.4487C6.09326 47.8175 6.04134 48.1631 5.9375 48.4854C5.83366 48.8076 5.6779 49.0905 5.47021 49.334C5.26611 49.5775 5.01367 49.7673 4.71289 49.9033C4.41211 50.0394 4.06299 50.1074 3.66553 50.1074C3.243 50.1074 2.87419 50.0215 2.55908 49.8496C2.24398 49.6742 1.98258 49.4414 1.7749 49.1514C1.56722 48.8613 1.41146 48.5391 1.30762 48.1846C1.20378 47.8301 1.15186 47.4702 1.15186 47.105V46.6377C1.15186 46.0863 1.20736 45.5456 1.31836 45.0156C1.42936 44.4857 1.62093 44.0059 1.89307 43.5762C2.16878 43.1465 2.55013 42.8045 3.03711 42.5503C3.52409 42.2961 4.14535 42.1689 4.90088 42.1689ZM12.1841 45.4668V46.6592C12.1841 47.3001 12.1268 47.8408 12.0122 48.2812C11.8976 48.7217 11.7329 49.0762 11.5181 49.3447C11.3032 49.6133 11.0436 49.8084 10.7393 49.9302C10.4385 50.0483 10.0983 50.1074 9.71875 50.1074C9.41797 50.1074 9.14046 50.0698 8.88623 49.9946C8.632 49.9194 8.40283 49.7995 8.19873 49.6348C7.99821 49.4665 7.82633 49.248 7.68311 48.9795C7.53988 48.7109 7.43066 48.3851 7.35547 48.002C7.28027 47.6188 7.24268 47.1712 7.24268 46.6592V45.4668C7.24268 44.8258 7.29997 44.2887 7.41455 43.8555C7.53271 43.4222 7.69922 43.0749 7.91406 42.8135C8.12891 42.5485 8.38672 42.3587 8.6875 42.2441C8.99186 42.1296 9.33203 42.0723 9.70801 42.0723C10.0124 42.0723 10.2917 42.1099 10.5459 42.1851C10.8037 42.2567 11.0329 42.373 11.2334 42.5342C11.4339 42.6917 11.604 42.903 11.7437 43.168C11.8869 43.4294 11.9961 43.7498 12.0713 44.1294C12.1465 44.509 12.1841 44.9548 12.1841 45.4668ZM11.1851 46.8203V45.3003C11.1851 44.9494 11.1636 44.6414 11.1206 44.3765C11.0812 44.1079 11.0221 43.8787 10.9434 43.689C10.8646 43.4992 10.7643 43.3452 10.6426 43.2271C10.5244 43.1089 10.3866 43.0229 10.229 42.9692C10.075 42.9119 9.90137 42.8833 9.70801 42.8833C9.47168 42.8833 9.26221 42.9281 9.07959 43.0176C8.89697 43.1035 8.743 43.2414 8.61768 43.4312C8.49593 43.6209 8.40283 43.8698 8.33838 44.1777C8.27393 44.4857 8.2417 44.8599 8.2417 45.3003V46.8203C8.2417 47.1712 8.26139 47.481 8.30078 47.7495C8.34375 48.0181 8.40641 48.2508 8.48877 48.4478C8.57113 48.6411 8.67139 48.8005 8.78955 48.9258C8.90771 49.0511 9.04378 49.1442 9.19775 49.2051C9.35531 49.2624 9.52897 49.291 9.71875 49.291C9.96224 49.291 10.1753 49.2445 10.3579 49.1514C10.5405 49.0583 10.6927 48.9132 10.8145 48.7163C10.9398 48.5158 11.0329 48.2598 11.0938 47.9482C11.1546 47.6331 11.1851 47.2572 11.1851 46.8203ZM18.3716 45.4668V46.6592C18.3716 47.3001 18.3143 47.8408 18.1997 48.2812C18.0851 48.7217 17.9204 49.0762 17.7056 49.3447C17.4907 49.6133 17.2311 49.8084 16.9268 49.9302C16.626 50.0483 16.2858 50.1074 15.9062 50.1074C15.6055 50.1074 15.328 50.0698 15.0737 49.9946C14.8195 49.9194 14.5903 49.7995 14.3862 49.6348C14.1857 49.4665 14.0138 49.248 13.8706 48.9795C13.7274 48.7109 13.6182 48.3851 13.543 48.002C13.4678 47.6188 13.4302 47.1712 13.4302 46.6592V45.4668C13.4302 44.8258 13.4875 44.2887 13.6021 43.8555C13.7202 43.4222 13.8867 43.0749 14.1016 42.8135C14.3164 42.5485 14.5742 42.3587 14.875 42.2441C15.1794 42.1296 15.5195 42.0723 15.8955 42.0723C16.1999 42.0723 16.4792 42.1099 16.7334 42.1851C16.9912 42.2567 17.2204 42.373 17.4209 42.5342C17.6214 42.6917 17.7915 42.903 17.9312 43.168C18.0744 43.4294 18.1836 43.7498 18.2588 44.1294C18.334 44.509 18.3716 44.9548 18.3716 45.4668ZM17.3726 46.8203V45.3003C17.3726 44.9494 17.3511 44.6414 17.3081 44.3765C17.2687 44.1079 17.2096 43.8787 17.1309 43.689C17.0521 43.4992 16.9518 43.3452 16.8301 43.2271C16.7119 43.1089 16.5741 43.0229 16.4165 42.9692C16.2625 42.9119 16.0889 42.8833 15.8955 42.8833C15.6592 42.8833 15.4497 42.9281 15.2671 43.0176C15.0845 43.1035 14.9305 43.2414 14.8052 43.4312C14.6834 43.6209 14.5903 43.8698 14.5259 44.1777C14.4614 44.4857 14.4292 44.8599 14.4292 45.3003V46.8203C14.4292 47.1712 14.4489 47.481 14.4883 47.7495C14.5312 48.0181 14.5939 48.2508 14.6763 48.4478C14.7586 48.6411 14.8589 48.8005 14.9771 48.9258C15.0952 49.0511 15.2313 49.1442 15.3853 49.2051C15.5428 49.2624 15.7165 49.291 15.9062 49.291C16.1497 49.291 16.3628 49.2445 16.5454 49.1514C16.728 49.0583 16.8802 48.9132 17.002 48.7163C17.1273 48.5158 17.2204 48.2598 17.2812 47.9482C17.3421 47.6331 17.3726 47.2572 17.3726 46.8203Z" fill="#25233A"/>
<path d="M7.37256 84.3682V85.1846H1.72217V84.5991L5.22412 79.1797H6.03516L5.16504 80.748L2.8501 84.3682H7.37256ZM6.28223 79.1797V87H5.28857V79.1797H6.28223ZM13.1841 82.4668V83.6592C13.1841 84.3001 13.1268 84.8408 13.0122 85.2812C12.8976 85.7217 12.7329 86.0762 12.5181 86.3447C12.3032 86.6133 12.0436 86.8084 11.7393 86.9302C11.4385 87.0483 11.0983 87.1074 10.7188 87.1074C10.418 87.1074 10.1405 87.0698 9.88623 86.9946C9.632 86.9194 9.40283 86.7995 9.19873 86.6348C8.99821 86.4665 8.82633 86.248 8.68311 85.9795C8.53988 85.7109 8.43066 85.3851 8.35547 85.002C8.28027 84.6188 8.24268 84.1712 8.24268 83.6592V82.4668C8.24268 81.8258 8.29997 81.2887 8.41455 80.8555C8.53271 80.4222 8.69922 80.0749 8.91406 79.8135C9.12891 79.5485 9.38672 79.3587 9.6875 79.2441C9.99186 79.1296 10.332 79.0723 10.708 79.0723C11.0124 79.0723 11.2917 79.1099 11.5459 79.1851C11.8037 79.2567 12.0329 79.373 12.2334 79.5342C12.4339 79.6917 12.604 79.903 12.7437 80.168C12.8869 80.4294 12.9961 80.7498 13.0713 81.1294C13.1465 81.509 13.1841 81.9548 13.1841 82.4668ZM12.1851 83.8203V82.3003C12.1851 81.9494 12.1636 81.6414 12.1206 81.3765C12.0812 81.1079 12.0221 80.8787 11.9434 80.689C11.8646 80.4992 11.7643 80.3452 11.6426 80.2271C11.5244 80.1089 11.3866 80.0229 11.229 79.9692C11.075 79.9119 10.9014 79.8833 10.708 79.8833C10.4717 79.8833 10.2622 79.9281 10.0796 80.0176C9.89697 80.1035 9.743 80.2414 9.61768 80.4312C9.49593 80.6209 9.40283 80.8698 9.33838 81.1777C9.27393 81.4857 9.2417 81.8599 9.2417 82.3003V83.8203C9.2417 84.1712 9.26139 84.481 9.30078 84.7495C9.34375 85.0181 9.40641 85.2508 9.48877 85.4478C9.57113 85.6411 9.67139 85.8005 9.78955 85.9258C9.90771 86.0511 10.0438 86.1442 10.1978 86.2051C10.3553 86.2624 10.529 86.291 10.7188 86.291C10.9622 86.291 11.1753 86.2445 11.3579 86.1514C11.5405 86.0583 11.6927 85.9132 11.8145 85.7163C11.9398 85.5158 12.0329 85.2598 12.0938 84.9482C12.1546 84.6331 12.1851 84.2572 12.1851 83.8203ZM19.3716 82.4668V83.6592C19.3716 84.3001 19.3143 84.8408 19.1997 85.2812C19.0851 85.7217 18.9204 86.0762 18.7056 86.3447C18.4907 86.6133 18.2311 86.8084 17.9268 86.9302C17.626 87.0483 17.2858 87.1074 16.9062 87.1074C16.6055 87.1074 16.328 87.0698 16.0737 86.9946C15.8195 86.9194 15.5903 86.7995 15.3862 86.6348C15.1857 86.4665 15.0138 86.248 14.8706 85.9795C14.7274 85.7109 14.6182 85.3851 14.543 85.002C14.4678 84.6188 14.4302 84.1712 14.4302 83.6592V82.4668C14.4302 81.8258 14.4875 81.2887 14.6021 80.8555C14.7202 80.4222 14.8867 80.0749 15.1016 79.8135C15.3164 79.5485 15.5742 79.3587 15.875 79.2441C16.1794 79.1296 16.5195 79.0723 16.8955 79.0723C17.1999 79.0723 17.4792 79.1099 17.7334 79.1851C17.9912 79.2567 18.2204 79.373 18.4209 79.5342C18.6214 79.6917 18.7915 79.903 18.9312 80.168C19.0744 80.4294 19.1836 80.7498 19.2588 81.1294C19.334 81.509 19.3716 81.9548 19.3716 82.4668ZM18.3726 83.8203V82.3003C18.3726 81.9494 18.3511 81.6414 18.3081 81.3765C18.2687 81.1079 18.2096 80.8787 18.1309 80.689C18.0521 80.4992 17.9518 80.3452 17.8301 80.2271C17.7119 80.1089 17.5741 80.0229 17.4165 79.9692C17.2625 79.9119 17.0889 79.8833 16.8955 79.8833C16.6592 79.8833 16.4497 79.9281 16.2671 80.0176C16.0845 80.1035 15.9305 80.2414 15.8052 80.4312C15.6834 80.6209 15.5903 80.8698 15.5259 81.1777C15.4614 81.4857 15.4292 81.8599 15.4292 82.3003V83.8203C15.4292 84.1712 15.4489 84.481 15.4883 84.7495C15.5312 85.0181 15.5939 85.2508 15.6763 85.4478C15.7586 85.6411 15.8589 85.8005 15.9771 85.9258C16.0952 86.0511 16.2313 86.1442 16.3853 86.2051C16.5428 86.2624 16.7165 86.291 16.9062 86.291C17.1497 86.291 17.3628 86.2445 17.5454 86.1514C17.728 86.0583 17.8802 85.9132 18.002 85.7163C18.1273 85.5158 18.2204 85.2598 18.2812 84.9482C18.3421 84.6331 18.3726 84.2572 18.3726 83.8203Z" fill="#25233A"/>
<path d="M7.21143 128.184V129H2.09277V128.286L4.65479 125.434C4.96989 125.083 5.21338 124.785 5.38525 124.542C5.56071 124.295 5.68245 124.075 5.75049 123.881C5.8221 123.684 5.85791 123.484 5.85791 123.28C5.85791 123.022 5.8042 122.789 5.69678 122.582C5.59294 122.37 5.43896 122.202 5.23486 122.077C5.03076 121.951 4.78369 121.889 4.49365 121.889C4.14632 121.889 3.85628 121.957 3.62354 122.093C3.39437 122.225 3.22249 122.411 3.10791 122.651C2.99333 122.891 2.93604 123.167 2.93604 123.479H1.94238C1.94238 123.038 2.03906 122.635 2.23242 122.27C2.42578 121.905 2.71224 121.615 3.0918 121.4C3.47135 121.181 3.93864 121.072 4.49365 121.072C4.98779 121.072 5.41032 121.16 5.76123 121.335C6.11214 121.507 6.3807 121.751 6.56689 122.066C6.75667 122.377 6.85156 122.743 6.85156 123.162C6.85156 123.391 6.81217 123.624 6.7334 123.86C6.6582 124.093 6.55257 124.325 6.4165 124.558C6.28402 124.791 6.12826 125.02 5.94922 125.246C5.77376 125.471 5.58577 125.693 5.38525 125.912L3.29053 128.184H7.21143ZM13.1841 124.467V125.659C13.1841 126.3 13.1268 126.841 13.0122 127.281C12.8976 127.722 12.7329 128.076 12.5181 128.345C12.3032 128.613 12.0436 128.808 11.7393 128.93C11.4385 129.048 11.0983 129.107 10.7188 129.107C10.418 129.107 10.1405 129.07 9.88623 128.995C9.632 128.919 9.40283 128.799 9.19873 128.635C8.99821 128.466 8.82633 128.248 8.68311 127.979C8.53988 127.711 8.43066 127.385 8.35547 127.002C8.28027 126.619 8.24268 126.171 8.24268 125.659V124.467C8.24268 123.826 8.29997 123.289 8.41455 122.855C8.53271 122.422 8.69922 122.075 8.91406 121.813C9.12891 121.549 9.38672 121.359 9.6875 121.244C9.99186 121.13 10.332 121.072 10.708 121.072C11.0124 121.072 11.2917 121.11 11.5459 121.185C11.8037 121.257 12.0329 121.373 12.2334 121.534C12.4339 121.692 12.604 121.903 12.7437 122.168C12.8869 122.429 12.9961 122.75 13.0713 123.129C13.1465 123.509 13.1841 123.955 13.1841 124.467ZM12.1851 125.82V124.3C12.1851 123.949 12.1636 123.641 12.1206 123.376C12.0812 123.108 12.0221 122.879 11.9434 122.689C11.8646 122.499 11.7643 122.345 11.6426 122.227C11.5244 122.109 11.3866 122.023 11.229 121.969C11.075 121.912 10.9014 121.883 10.708 121.883C10.4717 121.883 10.2622 121.928 10.0796 122.018C9.89697 122.104 9.743 122.241 9.61768 122.431C9.49593 122.621 9.40283 122.87 9.33838 123.178C9.27393 123.486 9.2417 123.86 9.2417 124.3V125.82C9.2417 126.171 9.26139 126.481 9.30078 126.75C9.34375 127.018 9.40641 127.251 9.48877 127.448C9.57113 127.641 9.67139 127.8 9.78955 127.926C9.90771 128.051 10.0438 128.144 10.1978 128.205C10.3553 128.262 10.529 128.291 10.7188 128.291C10.9622 128.291 11.1753 128.244 11.3579 128.151C11.5405 128.058 11.6927 127.913 11.8145 127.716C11.9398 127.516 12.0329 127.26 12.0938 126.948C12.1546 126.633 12.1851 126.257 12.1851 125.82ZM19.3716 124.467V125.659C19.3716 126.3 19.3143 126.841 19.1997 127.281C19.0851 127.722 18.9204 128.076 18.7056 128.345C18.4907 128.613 18.2311 128.808 17.9268 128.93C17.626 129.048 17.2858 129.107 16.9062 129.107C16.6055 129.107 16.328 129.07 16.0737 128.995C15.8195 128.919 15.5903 128.799 15.3862 128.635C15.1857 128.466 15.0138 128.248 14.8706 127.979C14.7274 127.711 14.6182 127.385 14.543 127.002C14.4678 126.619 14.4302 126.171 14.4302 125.659V124.467C14.4302 123.826 14.4875 123.289 14.6021 122.855C14.7202 122.422 14.8867 122.075 15.1016 121.813C15.3164 121.549 15.5742 121.359 15.875 121.244C16.1794 121.13 16.5195 121.072 16.8955 121.072C17.1999 121.072 17.4792 121.11 17.7334 121.185C17.9912 121.257 18.2204 121.373 18.4209 121.534C18.6214 121.692 18.7915 121.903 18.9312 122.168C19.0744 122.429 19.1836 122.75 19.2588 123.129C19.334 123.509 19.3716 123.955 19.3716 124.467ZM18.3726 125.82V124.3C18.3726 123.949 18.3511 123.641 18.3081 123.376C18.2687 123.108 18.2096 122.879 18.1309 122.689C18.0521 122.499 17.9518 122.345 17.8301 122.227C17.7119 122.109 17.5741 122.023 17.4165 121.969C17.2625 121.912 17.0889 121.883 16.8955 121.883C16.6592 121.883 16.4497 121.928 16.2671 122.018C16.0845 122.104 15.9305 122.241 15.8052 122.431C15.6834 122.621 15.5903 122.87 15.5259 123.178C15.4614 123.486 15.4292 123.86 15.4292 124.3V125.82C15.4292 126.171 15.4489 126.481 15.4883 126.75C15.5312 127.018 15.5939 127.251 15.6763 127.448C15.7586 127.641 15.8589 127.8 15.9771 127.926C16.0952 128.051 16.2313 128.144 16.3853 128.205C16.5428 128.262 16.7165 128.291 16.9062 128.291C17.1497 128.291 17.3628 128.244 17.5454 128.151C17.728 128.058 17.8802 127.913 18.002 127.716C18.1273 127.516 18.2204 127.26 18.2812 126.948C18.3421 126.633 18.3726 126.257 18.3726 125.82Z" fill="#25233A"/>
<path d="M19.3716 161.467V162.659C19.3716 163.3 19.3143 163.841 19.1997 164.281C19.0851 164.722 18.9204 165.076 18.7056 165.345C18.4907 165.613 18.2311 165.808 17.9268 165.93C17.626 166.048 17.2858 166.107 16.9062 166.107C16.6055 166.107 16.328 166.07 16.0737 165.995C15.8195 165.919 15.5903 165.799 15.3862 165.635C15.1857 165.466 15.0138 165.248 14.8706 164.979C14.7274 164.711 14.6182 164.385 14.543 164.002C14.4678 163.619 14.4302 163.171 14.4302 162.659V161.467C14.4302 160.826 14.4875 160.289 14.6021 159.855C14.7202 159.422 14.8867 159.075 15.1016 158.813C15.3164 158.549 15.5742 158.359 15.875 158.244C16.1794 158.13 16.5195 158.072 16.8955 158.072C17.1999 158.072 17.4792 158.11 17.7334 158.185C17.9912 158.257 18.2204 158.373 18.4209 158.534C18.6214 158.692 18.7915 158.903 18.9312 159.168C19.0744 159.429 19.1836 159.75 19.2588 160.129C19.334 160.509 19.3716 160.955 19.3716 161.467ZM18.3726 162.82V161.3C18.3726 160.949 18.3511 160.641 18.3081 160.376C18.2687 160.108 18.2096 159.879 18.1309 159.689C18.0521 159.499 17.9518 159.345 17.8301 159.227C17.7119 159.109 17.5741 159.023 17.4165 158.969C17.2625 158.912 17.0889 158.883 16.8955 158.883C16.6592 158.883 16.4497 158.928 16.2671 159.018C16.0845 159.104 15.9305 159.241 15.8052 159.431C15.6834 159.621 15.5903 159.87 15.5259 160.178C15.4614 160.486 15.4292 160.86 15.4292 161.3V162.82C15.4292 163.171 15.4489 163.481 15.4883 163.75C15.5312 164.018 15.5939 164.251 15.6763 164.448C15.7586 164.641 15.8589 164.8 15.9771 164.926C16.0952 165.051 16.2313 165.144 16.3853 165.205C16.5428 165.262 16.7165 165.291 16.9062 165.291C17.1497 165.291 17.3628 165.244 17.5454 165.151C17.728 165.058 17.8802 164.913 18.002 164.716C18.1273 164.516 18.2204 164.26 18.2812 163.948C18.3421 163.633 18.3726 163.257 18.3726 162.82Z" fill="#25233A"/>
</svg>
