<svg width="943" height="139" viewBox="0 0 943 139" fill="none" xmlns="http://www.w3.org/2000/svg">
<path opacity="0.12" fill-rule="evenodd" clip-rule="evenodd" d="M942 139H1V44.0013C4.97875 43.8129 12.3915 45.7338 20.7188 45.7838C26.9719 45.8213 33.3267 43.7641 41.4191 44.714C45.8875 45.2385 50.4209 47.1352 56.2577 47.3515C61.1977 47.5346 67.3227 46.0539 72.537 46.2681C79.3637 46.5486 81.1748 59.5047 86.5561 59.4649C90.16 59.4382 97.0835 56.0896 98.5461 56.4593C108.701 59.0259 115.321 65.3386 115.852 65.8558C136.142 85.5904 122.666 55.0752 151.307 70.7134C152.984 71.629 160.524 69.3102 162.635 70.1603C174.003 74.736 168.414 71.4175 187.375 73.5969C200.406 75.0945 199.779 74.0934 210.998 71.7846C211.525 71.676 224.21 84.1645 241.133 82.3281C248.058 81.5766 255.946 81.5287 262.254 80.4617C280.629 77.3537 288.857 91.4638 305.744 87.8107C308.671 87.1775 312.945 89.7845 315.881 89.1544C319.7 88.3352 323.265 85.4485 326.864 84.562L340.999 86.276C358.926 81.8601 366.37 77.4861 377.287 73.5969C383.357 71.4343 382.04 73.436 396.332 71.7846C400.524 71.3004 407.65 68.9766 413.015 68.3757C420.643 67.5212 424.163 71.8918 431.43 70.8393C439.555 69.6626 442.503 67.0591 448.319 65.8558C452.815 64.9256 460.375 65.5101 464.903 63.9902C470.473 62.1206 476.811 57.743 484.162 56.4593C489.733 55.4864 497.442 58.4716 502.165 58.4348C508.867 58.3825 512.098 55.7063 516.557 56.8027C526.864 59.3373 529.525 67.0049 544.669 65.1375C553.532 64.0447 555.101 60.3741 560.216 59.0259C565.348 57.6733 571.882 60.9311 575.33 59.4649C579.788 57.5689 582.293 52.0727 588.496 49.672C594.312 47.421 603.62 48.2486 613.822 46.89C615.889 46.6148 616.88 43.7347 619.519 41.4197C621.668 39.5347 626.42 40.0488 628.501 38.0658C630.629 36.0384 630.068 31.5149 630.414 29.6914C631.258 25.2433 647.884 26.7008 648.65 23.1307C649.554 18.9216 662.332 18.93 674.949 16.125C678.894 15.2481 682.65 17.5913 689.826 17.6649C697.982 17.7486 700.64 15.12 708.677 14.7426C714.061 14.4897 717.511 16.6429 722.618 16.125C736.214 14.7461 744.099 1.84569 758.335 1.03931C766.55 0.574019 768.235 4.38798 776.587 4.6242C783.85 4.8296 788.046 16.4485 795.47 16.125C799.611 15.9445 802.737 14.1071 807.051 13.6614C813.651 12.9793 815.602 13.9833 822.447 13.6614C827.846 13.4075 833.179 11.057 839.597 10.527C846.167 9.98431 851.258 11.2701 855.984 11.7298C855.984 11.7298 867.189 14.6025 872.144 14.7426C875.403 14.8347 881.027 12.212 886.559 11.7298C890.191 11.4133 895.501 14.7426 895.501 14.7426C904.14 15.5829 900.755 18.2085 908.342 19.5886C914.198 20.6538 921.78 23.5769 926.514 24.98C934.194 27.2558 942 32.5856 942 32.5856V139Z" fill="#0009D5"/>
<path d="M1 43.8778C4.97875 43.69 12.3915 45.6053 20.7188 45.6551C26.9719 45.6925 33.3267 43.6413 41.4191 44.5884C45.8875 45.1114 50.4209 47.0027 56.2577 47.2184C61.1977 47.4009 67.3227 45.9245 72.537 46.1381C79.3637 46.4178 81.1748 59.3366 86.5561 59.297C90.16 59.2704 97.0835 55.9314 98.5461 56.3C108.701 58.8593 115.321 65.1538 115.852 65.6695C136.142 85.3474 122.666 54.9199 151.307 70.5131C152.984 71.4261 160.524 69.114 162.635 69.9616C174.003 74.5242 168.414 71.2153 187.375 73.3884C200.406 74.8817 199.779 73.8834 210.998 71.5813C211.525 71.473 224.21 83.9257 241.134 82.0945C248.058 81.3452 255.946 81.2974 262.254 80.2335C280.629 77.1343 288.857 91.204 305.744 87.5613C308.671 86.9299 312.945 89.5295 315.881 88.9012C319.7 88.0843 323.265 85.2059 326.864 84.322L340.999 86.0311C358.926 81.6279 366.37 77.2664 377.287 73.3884C383.357 71.232 382.04 73.2279 396.332 71.5813C400.524 71.0985 407.65 68.7814 413.015 68.1822C420.643 67.3302 424.163 71.6882 431.43 70.6387C439.555 69.4654 442.503 66.8693 448.319 65.6695C452.815 64.742 460.375 65.3249 464.903 63.8093C470.473 61.945 476.811 57.5801 484.162 56.3C489.733 55.3299 497.442 58.3066 502.165 58.2698C508.867 58.2177 512.098 55.5492 516.557 56.6424C526.864 59.1697 529.525 66.8153 544.669 64.9533C553.532 63.8636 555.101 60.2036 560.216 58.8593C565.348 57.5106 571.882 60.759 575.33 59.297C579.788 57.4064 582.293 51.926 588.496 49.5322C594.312 47.2877 603.62 48.1129 613.822 46.7582C615.889 46.4838 616.88 43.6119 619.519 41.3037C621.668 39.424 626.42 39.9367 628.501 37.9594C630.629 35.9378 630.068 31.4273 630.414 29.609C631.258 25.1737 647.884 26.627 648.65 23.0671C649.554 18.8702 662.332 18.8785 674.949 16.0816C678.894 15.2072 682.65 17.5436 689.826 17.6171C697.982 17.7005 700.64 15.0794 708.677 14.7031C714.061 14.451 717.511 16.598 722.618 16.0816C736.214 14.7066 744.099 1.84326 758.335 1.0392C766.55 0.575243 768.235 4.37825 776.587 4.61379C783.85 4.8186 788.046 16.4041 795.47 16.0816C799.611 15.9016 802.737 14.0695 807.051 13.625C813.651 12.9449 815.602 13.946 822.447 13.625C827.846 13.3719 833.179 11.0281 839.597 10.4996C846.167 9.95851 851.258 11.2406 855.984 11.699C855.984 11.699 867.189 14.5634 872.144 14.7031C875.403 14.7949 881.027 12.1798 886.559 11.699C890.191 11.3834 895.501 14.7031 895.501 14.7031C904.14 15.541 900.755 18.159 908.342 19.5353C914.198 20.5973 921.78 23.512 926.514 24.9111C934.194 27.1803 938.206 29.5451 942 32.4949" stroke="#0009D5" stroke-width="2"/>
</svg>
