<svg width="928" height="15" viewBox="0 0 928 15" fill="none" xmlns="http://www.w3.org/2000/svg">
<path d="M3.012 12.144C2.196 12.144 1.54 11.916 1.044 11.46C0.556 10.996 0.312 10.34 0.312 9.492H1.848C1.856 9.884 1.948 10.196 2.124 10.428C2.3 10.66 2.584 10.776 2.976 10.776C3.344 10.776 3.612 10.668 3.78 10.452C3.948 10.228 4.032 9.936 4.032 9.576V3.6H5.568V9.576C5.568 10.4 5.336 11.036 4.872 11.484C4.416 11.924 3.796 12.144 3.012 12.144ZM9.21872 12.144C8.70672 12.144 8.28672 12.064 7.95872 11.904C7.63072 11.736 7.38672 11.516 7.22672 11.244C7.06672 10.972 6.98672 10.672 6.98672 10.344C6.98672 9.792 7.20272 9.344 7.63472 9C8.06672 8.656 8.71472 8.484 9.57872 8.484H11.0907V8.34C11.0907 7.932 10.9747 7.632 10.7427 7.44C10.5107 7.248 10.2227 7.152 9.87872 7.152C9.56672 7.152 9.29472 7.228 9.06272 7.38C8.83072 7.524 8.68672 7.74 8.63072 8.028H7.13072C7.17072 7.596 7.31472 7.22 7.56272 6.9C7.81872 6.58 8.14672 6.336 8.54672 6.168C8.94672 5.992 9.39472 5.904 9.89072 5.904C10.7387 5.904 11.4067 6.116 11.8947 6.54C12.3827 6.964 12.6267 7.564 12.6267 8.34V12H11.3187L11.1747 11.04C10.9987 11.36 10.7507 11.624 10.4307 11.832C10.1187 12.04 9.71472 12.144 9.21872 12.144ZM9.56672 10.944C10.0067 10.944 10.3467 10.8 10.5867 10.512C10.8347 10.224 10.9907 9.868 11.0547 9.444H9.74672C9.33872 9.444 9.04672 9.52 8.87072 9.672C8.69472 9.816 8.60672 9.996 8.60672 10.212C8.60672 10.444 8.69472 10.624 8.87072 10.752C9.04672 10.88 9.27872 10.944 9.56672 10.944ZM14.0925 12V6.048H15.4485L15.5685 7.056C15.7525 6.704 16.0165 6.424 16.3605 6.216C16.7125 6.008 17.1245 5.904 17.5965 5.904C18.3325 5.904 18.9045 6.136 19.3125 6.6C19.7205 7.064 19.9245 7.744 19.9245 8.64V12H18.3885V8.784C18.3885 8.272 18.2845 7.88 18.0765 7.608C17.8685 7.336 17.5445 7.2 17.1045 7.2C16.6725 7.2 16.3165 7.352 16.0365 7.656C15.7645 7.96 15.6285 8.384 15.6285 8.928V12H14.0925Z" fill="#6D7D93"/>
<path d="M81.816 12V3.6H87.24V4.836H83.352V7.188H86.496V8.4H83.352V12H81.816ZM90.965 12.144C90.365 12.144 89.833 12.016 89.369 11.76C88.905 11.504 88.541 11.144 88.277 10.68C88.013 10.216 87.881 9.68 87.881 9.072C87.881 8.456 88.009 7.908 88.265 7.428C88.529 6.948 88.889 6.576 89.345 6.312C89.809 6.04 90.353 5.904 90.977 5.904C91.561 5.904 92.077 6.032 92.525 6.288C92.973 6.544 93.321 6.896 93.569 7.344C93.825 7.784 93.953 8.276 93.953 8.82C93.953 8.908 93.949 9 93.941 9.096C93.941 9.192 93.937 9.292 93.929 9.396H89.405C89.437 9.86 89.597 10.224 89.885 10.488C90.181 10.752 90.537 10.884 90.953 10.884C91.265 10.884 91.525 10.816 91.733 10.68C91.949 10.536 92.109 10.352 92.213 10.128H93.773C93.661 10.504 93.473 10.848 93.209 11.16C92.953 11.464 92.633 11.704 92.249 11.88C91.873 12.056 91.445 12.144 90.965 12.144ZM90.977 7.152C90.601 7.152 90.269 7.26 89.981 7.476C89.693 7.684 89.509 8.004 89.429 8.436H92.393C92.369 8.044 92.225 7.732 91.961 7.5C91.697 7.268 91.369 7.152 90.977 7.152ZM98.7728 12.144C98.3248 12.144 97.9328 12.06 97.5968 11.892C97.2608 11.724 96.9888 11.488 96.7808 11.184L96.6128 12H95.2448V3.36H96.7808V6.9C96.9728 6.636 97.2248 6.404 97.5368 6.204C97.8568 6.004 98.2688 5.904 98.7728 5.904C99.3328 5.904 99.8328 6.04 100.273 6.312C100.713 6.584 101.061 6.956 101.317 7.428C101.573 7.9 101.701 8.436 101.701 9.036C101.701 9.636 101.573 10.172 101.317 10.644C101.061 11.108 100.713 11.476 100.273 11.748C99.8328 12.012 99.3328 12.144 98.7728 12.144ZM98.4488 10.8C98.9368 10.8 99.3408 10.636 99.6608 10.308C99.9808 9.98 100.141 9.556 100.141 9.036C100.141 8.516 99.9808 8.088 99.6608 7.752C99.3408 7.416 98.9368 7.248 98.4488 7.248C97.9528 7.248 97.5448 7.416 97.2248 7.752C96.9128 8.08 96.7568 8.504 96.7568 9.024C96.7568 9.544 96.9128 9.972 97.2248 10.308C97.5448 10.636 97.9528 10.8 98.4488 10.8Z" fill="#6D7D93"/>
<path d="M163.816 12V3.6H165.64L168.316 8.928L170.956 3.6H172.78V12H171.244V6.204L168.904 10.8H167.692L165.352 6.204V12H163.816ZM176.426 12.144C175.914 12.144 175.494 12.064 175.166 11.904C174.838 11.736 174.594 11.516 174.434 11.244C174.274 10.972 174.194 10.672 174.194 10.344C174.194 9.792 174.41 9.344 174.842 9C175.274 8.656 175.922 8.484 176.786 8.484H178.298V8.34C178.298 7.932 178.182 7.632 177.95 7.44C177.718 7.248 177.43 7.152 177.086 7.152C176.774 7.152 176.502 7.228 176.27 7.38C176.038 7.524 175.894 7.74 175.838 8.028H174.338C174.378 7.596 174.522 7.22 174.77 6.9C175.026 6.58 175.354 6.336 175.754 6.168C176.154 5.992 176.602 5.904 177.098 5.904C177.946 5.904 178.614 6.116 179.102 6.54C179.59 6.964 179.834 7.564 179.834 8.34V12H178.526L178.382 11.04C178.206 11.36 177.958 11.624 177.638 11.832C177.326 12.04 176.922 12.144 176.426 12.144ZM176.774 10.944C177.214 10.944 177.554 10.8 177.794 10.512C178.042 10.224 178.198 9.868 178.262 9.444H176.954C176.546 9.444 176.254 9.52 176.078 9.672C175.902 9.816 175.814 9.996 175.814 10.212C175.814 10.444 175.902 10.624 176.078 10.752C176.254 10.88 176.486 10.944 176.774 10.944ZM181.3 12V6.048H182.668L182.812 7.164C183.028 6.78 183.32 6.476 183.688 6.252C184.064 6.02 184.504 5.904 185.008 5.904V7.524H184.576C184.24 7.524 183.94 7.576 183.676 7.68C183.412 7.784 183.204 7.964 183.052 8.22C182.908 8.476 182.836 8.832 182.836 9.288V12H181.3Z" fill="#6D7D93"/>
<path d="M246.276 12L249.348 3.6H251.076L254.148 12H252.516L251.844 10.056H248.568L247.884 12H246.276ZM248.988 8.856H251.424L250.2 5.364L248.988 8.856ZM255.194 14.64V6.048H256.562L256.73 6.9C256.922 6.636 257.174 6.404 257.486 6.204C257.806 6.004 258.218 5.904 258.722 5.904C259.282 5.904 259.782 6.04 260.222 6.312C260.662 6.584 261.01 6.956 261.266 7.428C261.522 7.9 261.65 8.436 261.65 9.036C261.65 9.636 261.522 10.172 261.266 10.644C261.01 11.108 260.662 11.476 260.222 11.748C259.782 12.012 259.282 12.144 258.722 12.144C258.274 12.144 257.882 12.06 257.546 11.892C257.21 11.724 256.938 11.488 256.73 11.184V14.64H255.194ZM258.398 10.8C258.886 10.8 259.29 10.636 259.61 10.308C259.93 9.98 260.09 9.556 260.09 9.036C260.09 8.516 259.93 8.088 259.61 7.752C259.29 7.416 258.886 7.248 258.398 7.248C257.902 7.248 257.494 7.416 257.174 7.752C256.862 8.08 256.706 8.504 256.706 9.024C256.706 9.544 256.862 9.972 257.174 10.308C257.494 10.636 257.902 10.8 258.398 10.8ZM263.022 12V6.048H264.39L264.534 7.164C264.75 6.78 265.042 6.476 265.41 6.252C265.786 6.02 266.226 5.904 266.73 5.904V7.524H266.298C265.962 7.524 265.662 7.576 265.398 7.68C265.134 7.784 264.926 7.964 264.774 8.22C264.63 8.476 264.558 8.832 264.558 9.288V12H263.022Z" fill="#6D7D93"/>
<path d="M327.816 12V3.6H329.64L332.316 8.928L334.956 3.6H336.78V12H335.244V6.204L332.904 10.8H331.692L329.352 6.204V12H327.816ZM340.426 12.144C339.914 12.144 339.494 12.064 339.166 11.904C338.838 11.736 338.594 11.516 338.434 11.244C338.274 10.972 338.194 10.672 338.194 10.344C338.194 9.792 338.41 9.344 338.842 9C339.274 8.656 339.922 8.484 340.786 8.484H342.298V8.34C342.298 7.932 342.182 7.632 341.95 7.44C341.718 7.248 341.43 7.152 341.086 7.152C340.774 7.152 340.502 7.228 340.27 7.38C340.038 7.524 339.894 7.74 339.838 8.028H338.338C338.378 7.596 338.522 7.22 338.77 6.9C339.026 6.58 339.354 6.336 339.754 6.168C340.154 5.992 340.602 5.904 341.098 5.904C341.946 5.904 342.614 6.116 343.102 6.54C343.59 6.964 343.834 7.564 343.834 8.34V12H342.526L342.382 11.04C342.206 11.36 341.958 11.624 341.638 11.832C341.326 12.04 340.922 12.144 340.426 12.144ZM340.774 10.944C341.214 10.944 341.554 10.8 341.794 10.512C342.042 10.224 342.198 9.868 342.262 9.444H340.954C340.546 9.444 340.254 9.52 340.078 9.672C339.902 9.816 339.814 9.996 339.814 10.212C339.814 10.444 339.902 10.624 340.078 10.752C340.254 10.88 340.486 10.944 340.774 10.944ZM345.844 14.64L347.224 11.604H346.864L344.548 6.048H346.216L347.884 10.236L349.624 6.048H351.256L347.476 14.64H345.844Z" fill="#6D7D93"/>
<path d="M415.012 12.144C414.196 12.144 413.54 11.916 413.044 11.46C412.556 10.996 412.312 10.34 412.312 9.492H413.848C413.856 9.884 413.948 10.196 414.124 10.428C414.3 10.66 414.584 10.776 414.976 10.776C415.344 10.776 415.612 10.668 415.78 10.452C415.948 10.228 416.032 9.936 416.032 9.576V3.6H417.568V9.576C417.568 10.4 417.336 11.036 416.872 11.484C416.416 11.924 415.796 12.144 415.012 12.144ZM421.399 12.144C420.655 12.144 420.079 11.912 419.671 11.448C419.271 10.984 419.071 10.304 419.071 9.408V6.048H420.595V9.264C420.595 9.776 420.699 10.168 420.907 10.44C421.115 10.712 421.443 10.848 421.891 10.848C422.315 10.848 422.663 10.696 422.935 10.392C423.215 10.088 423.355 9.664 423.355 9.12V6.048H424.891V12H423.535L423.415 10.992C423.231 11.344 422.963 11.624 422.611 11.832C422.267 12.04 421.863 12.144 421.399 12.144ZM426.468 12V6.048H427.824L427.944 7.056C428.128 6.704 428.392 6.424 428.736 6.216C429.088 6.008 429.5 5.904 429.972 5.904C430.708 5.904 431.28 6.136 431.688 6.6C432.095 7.064 432.299 7.744 432.299 8.64V12H430.764V8.784C430.764 8.272 430.66 7.88 430.452 7.608C430.244 7.336 429.92 7.2 429.48 7.2C429.048 7.2 428.692 7.352 428.412 7.656C428.14 7.96 428.004 8.384 428.004 8.928V12H426.468Z" fill="#6D7D93"/>
<path d="M496.012 12.144C495.196 12.144 494.54 11.916 494.044 11.46C493.556 10.996 493.312 10.34 493.312 9.492H494.848C494.856 9.884 494.948 10.196 495.124 10.428C495.3 10.66 495.584 10.776 495.976 10.776C496.344 10.776 496.612 10.668 496.78 10.452C496.948 10.228 497.032 9.936 497.032 9.576V3.6H498.568V9.576C498.568 10.4 498.336 11.036 497.872 11.484C497.416 11.924 496.796 12.144 496.012 12.144ZM502.399 12.144C501.655 12.144 501.079 11.912 500.671 11.448C500.271 10.984 500.071 10.304 500.071 9.408V6.048H501.595V9.264C501.595 9.776 501.699 10.168 501.907 10.44C502.115 10.712 502.443 10.848 502.891 10.848C503.315 10.848 503.663 10.696 503.935 10.392C504.215 10.088 504.355 9.664 504.355 9.12V6.048H505.891V12H504.535L504.415 10.992C504.231 11.344 503.963 11.624 503.611 11.832C503.267 12.04 502.863 12.144 502.399 12.144ZM507.468 12V3.36H509.004V12H507.468Z" fill="#6D7D93"/>
<path d="M570.276 12L573.348 3.6H575.076L578.148 12H576.516L575.844 10.056H572.568L571.884 12H570.276ZM572.988 8.856H575.424L574.2 5.364L572.988 8.856ZM581.309 12.144C580.565 12.144 579.989 11.912 579.581 11.448C579.181 10.984 578.981 10.304 578.981 9.408V6.048H580.505V9.264C580.505 9.776 580.609 10.168 580.817 10.44C581.025 10.712 581.353 10.848 581.801 10.848C582.225 10.848 582.573 10.696 582.845 10.392C583.125 10.088 583.265 9.664 583.265 9.12V6.048H584.801V12H583.445L583.325 10.992C583.141 11.344 582.873 11.624 582.521 11.832C582.177 12.04 581.773 12.144 581.309 12.144ZM588.898 10.224C588.61 10.224 588.342 10.192 588.094 10.128L587.65 10.572C587.786 10.644 587.97 10.704 588.202 10.752C588.434 10.8 588.81 10.848 589.33 10.896C590.122 10.968 590.698 11.156 591.058 11.46C591.418 11.764 591.598 12.184 591.598 12.72C591.598 13.072 591.502 13.404 591.31 13.716C591.118 14.036 590.822 14.292 590.422 14.484C590.022 14.684 589.51 14.784 588.886 14.784C588.038 14.784 587.354 14.624 586.834 14.304C586.314 13.992 586.054 13.52 586.054 12.888C586.054 12.352 586.314 11.888 586.834 11.496C586.674 11.424 586.534 11.348 586.414 11.268C586.302 11.188 586.202 11.104 586.114 11.016V10.74L587.158 9.636C586.694 9.228 586.462 8.704 586.462 8.064C586.462 7.664 586.558 7.3 586.75 6.972C586.95 6.644 587.23 6.384 587.59 6.192C587.95 6 588.386 5.904 588.898 5.904C589.234 5.904 589.546 5.952 589.834 6.048H592.09V6.984L591.07 7.056C591.23 7.36 591.31 7.696 591.31 8.064C591.31 8.464 591.214 8.828 591.022 9.156C590.83 9.484 590.55 9.744 590.182 9.936C589.822 10.128 589.394 10.224 588.898 10.224ZM588.898 9.048C589.21 9.048 589.466 8.964 589.666 8.796C589.874 8.628 589.978 8.388 589.978 8.076C589.978 7.764 589.874 7.524 589.666 7.356C589.466 7.188 589.21 7.104 588.898 7.104C588.57 7.104 588.306 7.188 588.106 7.356C587.906 7.524 587.806 7.764 587.806 8.076C587.806 8.388 587.906 8.628 588.106 8.796C588.306 8.964 588.57 9.048 588.898 9.048ZM587.458 12.732C587.458 13.028 587.594 13.248 587.866 13.392C588.146 13.544 588.486 13.62 588.886 13.62C589.27 13.62 589.582 13.54 589.822 13.38C590.062 13.228 590.182 13.02 590.182 12.756C590.182 12.54 590.102 12.36 589.942 12.216C589.79 12.072 589.482 11.984 589.018 11.952C588.69 11.928 588.386 11.892 588.106 11.844C587.874 11.972 587.706 12.112 587.602 12.264C587.506 12.416 587.458 12.572 587.458 12.732Z" fill="#6D7D93"/>
<path d="M656.684 12.144C656.068 12.144 655.524 12.04 655.052 11.832C654.58 11.616 654.208 11.312 653.936 10.92C653.664 10.52 653.524 10.036 653.516 9.468H655.136C655.152 9.86 655.292 10.192 655.556 10.464C655.828 10.728 656.2 10.86 656.672 10.86C657.08 10.86 657.404 10.764 657.644 10.572C657.884 10.372 658.004 10.108 658.004 9.78C658.004 9.436 657.896 9.168 657.68 8.976C657.472 8.784 657.192 8.628 656.84 8.508C656.488 8.388 656.112 8.26 655.712 8.124C655.064 7.9 654.568 7.612 654.224 7.26C653.888 6.908 653.72 6.44 653.72 5.856C653.712 5.36 653.828 4.936 654.068 4.584C654.316 4.224 654.652 3.948 655.076 3.756C655.5 3.556 655.988 3.456 656.54 3.456C657.1 3.456 657.592 3.556 658.016 3.756C658.448 3.956 658.784 4.236 659.024 4.596C659.272 4.956 659.404 5.384 659.42 5.88H657.776C657.768 5.584 657.652 5.324 657.428 5.1C657.212 4.868 656.908 4.752 656.516 4.752C656.18 4.744 655.896 4.828 655.664 5.004C655.44 5.172 655.328 5.42 655.328 5.748C655.328 6.028 655.416 6.252 655.592 6.42C655.768 6.58 656.008 6.716 656.312 6.828C656.616 6.94 656.964 7.06 657.356 7.188C657.772 7.332 658.152 7.5 658.496 7.692C658.84 7.884 659.116 8.14 659.324 8.46C659.532 8.772 659.636 9.176 659.636 9.672C659.636 10.112 659.524 10.52 659.3 10.896C659.076 11.272 658.744 11.576 658.304 11.808C657.864 12.032 657.324 12.144 656.684 12.144ZM663.832 12.144C663.232 12.144 662.7 12.016 662.236 11.76C661.772 11.504 661.408 11.144 661.144 10.68C660.88 10.216 660.748 9.68 660.748 9.072C660.748 8.456 660.876 7.908 661.132 7.428C661.396 6.948 661.756 6.576 662.212 6.312C662.676 6.04 663.22 5.904 663.844 5.904C664.428 5.904 664.944 6.032 665.392 6.288C665.84 6.544 666.188 6.896 666.436 7.344C666.692 7.784 666.82 8.276 666.82 8.82C666.82 8.908 666.816 9 666.808 9.096C666.808 9.192 666.804 9.292 666.796 9.396H662.272C662.304 9.86 662.464 10.224 662.752 10.488C663.048 10.752 663.404 10.884 663.82 10.884C664.132 10.884 664.392 10.816 664.6 10.68C664.816 10.536 664.976 10.352 665.08 10.128H666.64C666.528 10.504 666.34 10.848 666.076 11.16C665.82 11.464 665.5 11.704 665.116 11.88C664.74 12.056 664.312 12.144 663.832 12.144ZM663.844 7.152C663.468 7.152 663.136 7.26 662.848 7.476C662.56 7.684 662.376 8.004 662.296 8.436H665.26C665.236 8.044 665.092 7.732 664.828 7.5C664.564 7.268 664.236 7.152 663.844 7.152ZM668.112 14.64V6.048H669.48L669.648 6.9C669.84 6.636 670.092 6.404 670.404 6.204C670.724 6.004 671.136 5.904 671.64 5.904C672.2 5.904 672.7 6.04 673.14 6.312C673.58 6.584 673.928 6.956 674.184 7.428C674.44 7.9 674.568 8.436 674.568 9.036C674.568 9.636 674.44 10.172 674.184 10.644C673.928 11.108 673.58 11.476 673.14 11.748C672.7 12.012 672.2 12.144 671.64 12.144C671.192 12.144 670.8 12.06 670.464 11.892C670.128 11.724 669.856 11.488 669.648 11.184V14.64H668.112ZM671.316 10.8C671.804 10.8 672.208 10.636 672.528 10.308C672.848 9.98 673.008 9.556 673.008 9.036C673.008 8.516 672.848 8.088 672.528 7.752C672.208 7.416 671.804 7.248 671.316 7.248C670.82 7.248 670.412 7.416 670.092 7.752C669.78 8.08 669.624 8.504 669.624 9.024C669.624 9.544 669.78 9.972 670.092 10.308C670.412 10.636 670.82 10.8 671.316 10.8ZM678.358 12C677.734 12 677.234 11.848 676.858 11.544C676.482 11.24 676.294 10.7 676.294 9.924V7.332H675.274V6.048H676.294L676.474 4.452H677.83V6.048H679.438V7.332H677.83V9.936C677.83 10.224 677.89 10.424 678.01 10.536C678.138 10.64 678.354 10.692 678.658 10.692H679.402V12H678.358Z" fill="#6D7D93"/>
<path d="M744.752 12.144C743.912 12.144 743.176 11.96 742.544 11.592C741.92 11.224 741.428 10.716 741.068 10.068C740.716 9.412 740.54 8.656 740.54 7.8C740.54 6.944 740.716 6.192 741.068 5.544C741.428 4.888 741.92 4.376 742.544 4.008C743.176 3.64 743.912 3.456 744.752 3.456C745.584 3.456 746.316 3.64 746.948 4.008C747.58 4.376 748.072 4.888 748.424 5.544C748.776 6.192 748.952 6.944 748.952 7.8C748.952 8.656 748.776 9.412 748.424 10.068C748.072 10.716 747.58 11.224 746.948 11.592C746.316 11.96 745.584 12.144 744.752 12.144ZM744.752 10.764C745.552 10.764 746.188 10.5 746.66 9.972C747.14 9.444 747.38 8.72 747.38 7.8C747.38 6.88 747.14 6.156 746.66 5.628C746.188 5.1 745.552 4.836 744.752 4.836C743.952 4.836 743.312 5.1 742.832 5.628C742.352 6.156 742.112 6.88 742.112 7.8C742.112 8.72 742.352 9.444 742.832 9.972C743.312 10.5 743.952 10.764 744.752 10.764ZM753.188 12.144C752.58 12.144 752.044 12.012 751.58 11.748C751.116 11.484 750.748 11.116 750.476 10.644C750.212 10.172 750.08 9.632 750.08 9.024C750.08 8.416 750.212 7.876 750.476 7.404C750.748 6.932 751.116 6.564 751.58 6.3C752.044 6.036 752.58 5.904 753.188 5.904C753.948 5.904 754.588 6.104 755.108 6.504C755.628 6.896 755.96 7.44 756.104 8.136H754.484C754.404 7.848 754.244 7.624 754.004 7.464C753.772 7.296 753.496 7.212 753.176 7.212C752.752 7.212 752.392 7.372 752.096 7.692C751.8 8.012 751.652 8.456 751.652 9.024C751.652 9.592 751.8 10.036 752.096 10.356C752.392 10.676 752.752 10.836 753.176 10.836C753.496 10.836 753.772 10.756 754.004 10.596C754.244 10.436 754.404 10.208 754.484 9.912H756.104C755.96 10.584 755.628 11.124 755.108 11.532C754.588 11.94 753.948 12.144 753.188 12.144ZM760.037 12C759.413 12 758.913 11.848 758.537 11.544C758.161 11.24 757.973 10.7 757.973 9.924V7.332H756.953V6.048H757.973L758.153 4.452H759.509V6.048H761.117V7.332H759.509V9.936C759.509 10.224 759.569 10.424 759.689 10.536C759.817 10.64 760.033 10.692 760.337 10.692H761.081V12H760.037Z" fill="#6D7D93"/>
<path d="M822.816 12V3.6H824.352L828.3 9.516V3.6H829.836V12H828.3L824.352 6.096V12H822.816ZM834.284 12.144C833.708 12.144 833.188 12.012 832.724 11.748C832.268 11.484 831.904 11.12 831.632 10.656C831.368 10.184 831.236 9.64 831.236 9.024C831.236 8.408 831.372 7.868 831.644 7.404C831.916 6.932 832.28 6.564 832.736 6.3C833.2 6.036 833.72 5.904 834.296 5.904C834.864 5.904 835.376 6.036 835.832 6.3C836.296 6.564 836.66 6.932 836.924 7.404C837.196 7.868 837.332 8.408 837.332 9.024C837.332 9.64 837.196 10.184 836.924 10.656C836.66 11.12 836.296 11.484 835.832 11.748C835.368 12.012 834.852 12.144 834.284 12.144ZM834.284 10.812C834.684 10.812 835.032 10.664 835.328 10.368C835.624 10.064 835.772 9.616 835.772 9.024C835.772 8.432 835.624 7.988 835.328 7.692C835.032 7.388 834.688 7.236 834.296 7.236C833.888 7.236 833.536 7.388 833.24 7.692C832.952 7.988 832.808 8.432 832.808 9.024C832.808 9.616 832.952 10.064 833.24 10.368C833.536 10.664 833.884 10.812 834.284 10.812ZM840.021 12L837.837 6.048H839.445L840.957 10.548L842.469 6.048H844.077L841.881 12H840.021Z" fill="#6D7D93"/>
<path d="M905.816 12V3.6H908.684C909.668 3.6 910.476 3.776 911.108 4.128C911.748 4.472 912.22 4.96 912.524 5.592C912.836 6.216 912.992 6.952 912.992 7.8C912.992 8.648 912.836 9.388 912.524 10.02C912.22 10.644 911.748 11.132 911.108 11.484C910.476 11.828 909.668 12 908.684 12H905.816ZM907.352 10.68H908.612C909.316 10.68 909.872 10.568 910.28 10.344C910.688 10.112 910.98 9.784 911.156 9.36C911.332 8.928 911.42 8.408 911.42 7.8C911.42 7.2 911.332 6.684 911.156 6.252C910.98 5.82 910.688 5.488 910.28 5.256C909.872 5.024 909.316 4.908 908.612 4.908H907.352V10.68ZM917.203 12.144C916.603 12.144 916.071 12.016 915.607 11.76C915.143 11.504 914.779 11.144 914.515 10.68C914.251 10.216 914.119 9.68 914.119 9.072C914.119 8.456 914.247 7.908 914.503 7.428C914.767 6.948 915.127 6.576 915.583 6.312C916.047 6.04 916.591 5.904 917.215 5.904C917.799 5.904 918.315 6.032 918.763 6.288C919.211 6.544 919.559 6.896 919.807 7.344C920.063 7.784 920.191 8.276 920.191 8.82C920.191 8.908 920.187 9 920.179 9.096C920.179 9.192 920.175 9.292 920.167 9.396H915.643C915.675 9.86 915.835 10.224 916.123 10.488C916.419 10.752 916.775 10.884 917.191 10.884C917.503 10.884 917.763 10.816 917.971 10.68C918.187 10.536 918.347 10.352 918.451 10.128H920.011C919.899 10.504 919.711 10.848 919.447 11.16C919.191 11.464 918.871 11.704 918.487 11.88C918.111 12.056 917.683 12.144 917.203 12.144ZM917.215 7.152C916.839 7.152 916.507 7.26 916.219 7.476C915.931 7.684 915.747 8.004 915.667 8.436H918.631C918.607 8.044 918.463 7.732 918.199 7.5C917.935 7.268 917.607 7.152 917.215 7.152ZM924.399 12.144C923.791 12.144 923.255 12.012 922.791 11.748C922.327 11.484 921.959 11.116 921.687 10.644C921.423 10.172 921.291 9.632 921.291 9.024C921.291 8.416 921.423 7.876 921.687 7.404C921.959 6.932 922.327 6.564 922.791 6.3C923.255 6.036 923.791 5.904 924.399 5.904C925.159 5.904 925.799 6.104 926.319 6.504C926.839 6.896 927.171 7.44 927.315 8.136H925.695C925.615 7.848 925.455 7.624 925.215 7.464C924.983 7.296 924.707 7.212 924.387 7.212C923.963 7.212 923.603 7.372 923.307 7.692C923.011 8.012 922.863 8.456 922.863 9.024C922.863 9.592 923.011 10.036 923.307 10.356C923.603 10.676 923.963 10.836 924.387 10.836C924.707 10.836 924.983 10.756 925.215 10.596C925.455 10.436 925.615 10.208 925.695 9.912H927.315C927.171 10.584 926.839 11.124 926.319 11.532C925.799 11.94 925.159 12.144 924.399 12.144Z" fill="#6D7D93"/>
</svg>
