<svg width="452" height="252" viewBox="0 0 452 252" fill="none" xmlns="http://www.w3.org/2000/svg">
<g clip-path="url(#clip0_1413_19072)">
<rect width="452" height="252" rx="14" fill="white" fill-opacity="0.34"/>
<path d="M389.231 193.704C392.972 193.704 396.019 190.67 395.87 186.932C395.072 167.002 390.76 147.352 383.113 128.892C374.602 108.344 362.127 89.6738 346.4 73.947C330.673 58.2202 312.003 45.745 291.455 37.2338C270.907 28.7225 248.884 24.3418 226.643 24.3418C204.402 24.3418 182.378 28.7225 161.83 37.2338C141.282 45.745 122.612 58.2202 106.885 73.947C91.1583 89.6738 78.6831 108.344 70.1719 128.892C62.5256 147.352 58.213 167.002 57.4154 186.932C57.2658 190.67 60.313 193.704 64.0544 193.704C67.7959 193.704 70.8135 190.67 70.9762 186.932C71.7658 168.783 75.7242 150.893 82.6895 134.077C90.5199 115.173 101.997 97.9962 116.466 83.5276C130.934 69.0589 148.111 57.5818 167.015 49.7514C185.919 41.921 206.181 37.8908 226.643 37.8908C247.104 37.8908 267.366 41.921 286.27 49.7514C305.174 57.5818 322.351 69.0589 336.819 83.5276C351.288 97.9962 362.765 115.173 370.596 134.077C377.561 150.893 381.519 168.783 382.309 186.932C382.472 190.67 385.489 193.704 389.231 193.704Z" fill="black" fill-opacity="0.08"/>
<g filter="url(#filter0_i_1413_19072)">
<path d="M144.553 53.3613C142.664 50.1317 138.506 49.0336 135.355 51.0503C112.419 65.7272 93.3302 85.7387 79.7451 109.414C66.16 133.09 58.5154 159.668 57.4176 186.876C57.2668 190.614 60.313 193.65 64.0544 193.651C67.7959 193.652 70.8146 190.618 70.9784 186.88C72.0673 162.038 79.0887 137.782 91.4969 116.157C103.905 94.5331 121.304 76.2311 142.202 62.7555C145.346 60.7279 146.442 56.5908 144.553 53.3613Z" fill="#E6612D"/>
</g>
<path d="M30.3207 180.393L45.9836 181.512" stroke="#060606" stroke-opacity="0.3" stroke-miterlimit="10"/>
<path d="M31.2571 170.472L46.8455 172.389" stroke="#060606" stroke-opacity="0.3" stroke-miterlimit="10"/>
<path d="M32.7019 160.609L48.1637 163.309" stroke="#060606" stroke-opacity="0.3" stroke-miterlimit="10"/>
<path d="M34.6308 150.83L49.9397 154.326" stroke="#060606" stroke-opacity="0.3" stroke-miterlimit="10"/>
<path d="M37.0698 141.175L52.187 145.428" stroke="#060606" stroke-opacity="0.3" stroke-miterlimit="10"/>
<path d="M39.9916 131.645L54.8776 136.668" stroke="#060606" stroke-opacity="0.3" stroke-miterlimit="10"/>
<path d="M43.4044 122.277L57.994 128.055" stroke="#060606" stroke-opacity="0.3" stroke-miterlimit="10"/>
<path d="M47.2799 113.093L61.5733 119.613" stroke="#060606" stroke-opacity="0.3" stroke-miterlimit="10"/>
<path d="M51.6196 104.127L65.5516 111.363" stroke="#060606" stroke-opacity="0.3" stroke-miterlimit="10"/>
<path d="M56.416 95.3897L69.9606 103.328" stroke="#060606" stroke-opacity="0.3" stroke-miterlimit="10"/>
<path d="M61.6423 86.9034L74.7737 95.5176" stroke="#060606" stroke-opacity="0.3" stroke-miterlimit="10"/>
<path d="M67.294 78.6963L79.973 87.9727" stroke="#060606" stroke-opacity="0.3" stroke-miterlimit="10"/>
<path d="M73.362 70.7965L85.5498 80.6953" stroke="#060606" stroke-opacity="0.3" stroke-miterlimit="10"/>
<path d="M79.833 63.2031L91.4906 73.7109" stroke="#060606" stroke-opacity="0.3" stroke-miterlimit="10"/>
<path d="M86.6677 55.9524L97.7822 67.043" stroke="#060606" stroke-opacity="0.3" stroke-miterlimit="10"/>
<path d="M93.8649 49.0604L104.397 60.707" stroke="#060606" stroke-opacity="0.3" stroke-miterlimit="10"/>
<path d="M101.409 42.5498L111.333 54.7129" stroke="#060606" stroke-opacity="0.3" stroke-miterlimit="10"/>
<path d="M109.275 36.4249L118.566 49.0781" stroke="#060606" stroke-opacity="0.3" stroke-miterlimit="10"/>
<path d="M134.593 20.5626L141.855 34.4883" stroke="#060606" stroke-opacity="0.3" stroke-miterlimit="10"/>
<path d="M143.539 16.1628L150.077 30.4336" stroke="#060606" stroke-opacity="0.3" stroke-miterlimit="10"/>
<path d="M152.689 12.221L158.491 26.8105" stroke="#060606" stroke-opacity="0.3" stroke-miterlimit="10"/>
<path d="M162.034 8.74625L167.087 23.6152" stroke="#060606" stroke-opacity="0.3" stroke-miterlimit="10"/>
<path d="M171.539 5.76152L175.83 20.8574" stroke="#060606" stroke-opacity="0.3" stroke-miterlimit="10"/>
<path d="M181.184 3.25622L184.701 18.5527" stroke="#060606" stroke-opacity="0.3" stroke-miterlimit="10"/>
<path d="M190.945 1.24348L193.675 16.7012" stroke="#060606" stroke-opacity="0.3" stroke-miterlimit="10"/>
<path d="M200.802 -0.263149L202.733 15.3164" stroke="#060606" stroke-opacity="0.3" stroke-miterlimit="10"/>
<path d="M210.717 -1.26575L211.861 14.3965" stroke="#060606" stroke-opacity="0.3" stroke-miterlimit="10"/>
<path d="M220.666 -1.7706L221.012 13.9219" stroke="#060606" stroke-opacity="0.3" stroke-miterlimit="10"/>
<path d="M230.638 -1.7602L230.173 13.9362" stroke="#060606" stroke-opacity="0.3" stroke-miterlimit="10"/>
<path d="M240.587 -1.24244L239.325 14.4057" stroke="#060606" stroke-opacity="0.3" stroke-miterlimit="10"/>
<path d="M250.497 -0.212773L248.45 15.348" stroke="#060606" stroke-opacity="0.3" stroke-miterlimit="10"/>
<path d="M260.344 1.30789L257.514 16.7552" stroke="#060606" stroke-opacity="0.3" stroke-miterlimit="10"/>
<path d="M270.111 3.33015L266.484 18.6114" stroke="#060606" stroke-opacity="0.3" stroke-miterlimit="10"/>
<path d="M279.747 5.86171L275.351 20.9249" stroke="#060606" stroke-opacity="0.3" stroke-miterlimit="10"/>
<path d="M289.255 8.85953L284.089 23.6916" stroke="#060606" stroke-opacity="0.3" stroke-miterlimit="10"/>
<path d="M298.585 12.3531L292.677 26.9019" stroke="#060606" stroke-opacity="0.3" stroke-miterlimit="10"/>
<path d="M307.737 16.3174L301.087 30.5439" stroke="#060606" stroke-opacity="0.3" stroke-miterlimit="10"/>
<path d="M316.662 20.7371L309.309 34.6023" stroke="#060606" stroke-opacity="0.3" stroke-miterlimit="10"/>
<path d="M325.361 25.5969L317.305 39.0748" stroke="#060606" stroke-opacity="0.3" stroke-miterlimit="10"/>
<path d="M349.806 42.7779L339.79 54.8728" stroke="#060606" stroke-opacity="0.3" stroke-miterlimit="10"/>
<path d="M357.335 49.2993L346.723 60.864" stroke="#060606" stroke-opacity="0.3" stroke-miterlimit="10"/>
<path d="M364.517 56.2101L353.336 67.2189" stroke="#060606" stroke-opacity="0.3" stroke-miterlimit="10"/>
<path d="M371.344 63.4732L359.607 73.9" stroke="#060606" stroke-opacity="0.3" stroke-miterlimit="10"/>
<path d="M377.802 71.0692L365.548 80.8882" stroke="#060606" stroke-opacity="0.3" stroke-miterlimit="10"/>
<path d="M383.851 78.9876L371.12 88.1601" stroke="#060606" stroke-opacity="0.3" stroke-miterlimit="10"/>
<path d="M389.487 87.2023L376.306 95.7155" stroke="#060606" stroke-opacity="0.3" stroke-miterlimit="10"/>
<path d="M394.705 95.6879L381.1 103.529" stroke="#060606" stroke-opacity="0.3" stroke-miterlimit="10"/>
<path d="M399.488 104.445L385.498 111.575" stroke="#060606" stroke-opacity="0.3" stroke-miterlimit="10"/>
<path d="M403.809 113.419L389.474 119.839" stroke="#060606" stroke-opacity="0.3" stroke-miterlimit="10"/>
<path d="M407.668 122.604L393.028 128.275" stroke="#060606" stroke-opacity="0.3" stroke-miterlimit="10"/>
<path d="M411.056 131.986L396.149 136.895" stroke="#060606" stroke-opacity="0.3" stroke-miterlimit="10"/>
<path d="M413.969 141.519L398.822 145.665" stroke="#060606" stroke-opacity="0.3" stroke-miterlimit="10"/>
<path d="M416.389 151.176L401.055 154.562" stroke="#060606" stroke-opacity="0.3" stroke-miterlimit="10"/>
<path d="M418.303 160.961L402.82 163.56" stroke="#060606" stroke-opacity="0.3" stroke-miterlimit="10"/>
<path d="M419.724 170.829L404.132 172.629" stroke="#060606" stroke-opacity="0.3" stroke-miterlimit="10"/>
<path d="M420.647 180.743L404.973 181.757" stroke="#060606" stroke-opacity="0.3" stroke-miterlimit="10"/>
<path d="M43.144 191.854C43.144 192.63 42.8 193.234 42.112 193.666C41.424 194.098 40.436 194.314 39.148 194.314C37.86 194.314 36.88 194.098 36.208 193.666C35.536 193.234 35.2 192.63 35.2 191.854C35.2 191.086 35.536 190.486 36.208 190.054C36.88 189.622 37.86 189.406 39.148 189.406C40.436 189.406 41.424 189.622 42.112 190.054C42.8 190.486 43.144 191.086 43.144 191.854ZM42.352 191.854C42.352 191.63 42.292 191.43 42.172 191.254C42.044 191.07 41.852 190.914 41.596 190.786C41.332 190.65 41 190.546 40.6 190.474C40.192 190.402 39.708 190.366 39.148 190.366C38.588 190.366 38.108 190.402 37.708 190.474C37.308 190.546 36.984 190.65 36.736 190.786C36.48 190.914 36.292 191.07 36.172 191.254C36.052 191.43 35.992 191.63 35.992 191.854C35.992 192.078 36.052 192.282 36.172 192.466C36.292 192.65 36.48 192.81 36.736 192.946C36.984 193.074 37.308 193.174 37.708 193.246C38.108 193.318 38.588 193.354 39.148 193.354C40.268 193.354 41.084 193.218 41.596 192.946C42.1 192.666 42.352 192.302 42.352 191.854Z" fill="black"/>
<path d="M403.773 195.338V194.522H405.525V188.882H404.133V188.246C404.485 188.182 404.789 188.106 405.045 188.018C405.309 187.922 405.545 187.81 405.753 187.682H406.509V194.522H408.093V195.338H403.773ZM411.898 195.482C411.122 195.482 410.518 195.138 410.086 194.45C409.654 193.762 409.438 192.774 409.438 191.486C409.438 190.198 409.654 189.218 410.086 188.546C410.518 187.874 411.122 187.538 411.898 187.538C412.666 187.538 413.266 187.874 413.698 188.546C414.13 189.218 414.346 190.198 414.346 191.486C414.346 192.774 414.13 193.762 413.698 194.45C413.266 195.138 412.666 195.482 411.898 195.482ZM411.898 194.69C412.122 194.69 412.322 194.63 412.498 194.51C412.682 194.382 412.838 194.19 412.966 193.934C413.102 193.67 413.206 193.338 413.278 192.938C413.35 192.53 413.386 192.046 413.386 191.486C413.386 190.926 413.35 190.446 413.278 190.046C413.206 189.646 413.102 189.322 412.966 189.074C412.838 188.818 412.682 188.63 412.498 188.51C412.322 188.39 412.122 188.33 411.898 188.33C411.674 188.33 411.47 188.39 411.286 188.51C411.102 188.63 410.942 188.818 410.806 189.074C410.678 189.322 410.578 189.646 410.506 190.046C410.434 190.446 410.398 190.926 410.398 191.486C410.398 192.606 410.534 193.422 410.806 193.934C411.086 194.438 411.45 194.69 411.898 194.69ZM417.983 195.482C417.207 195.482 416.603 195.138 416.171 194.45C415.739 193.762 415.523 192.774 415.523 191.486C415.523 190.198 415.739 189.218 416.171 188.546C416.603 187.874 417.207 187.538 417.983 187.538C418.751 187.538 419.351 187.874 419.783 188.546C420.215 189.218 420.431 190.198 420.431 191.486C420.431 192.774 420.215 193.762 419.783 194.45C419.351 195.138 418.751 195.482 417.983 195.482ZM417.983 194.69C418.207 194.69 418.407 194.63 418.583 194.51C418.767 194.382 418.923 194.19 419.051 193.934C419.187 193.67 419.291 193.338 419.363 192.938C419.435 192.53 419.471 192.046 419.471 191.486C419.471 190.926 419.435 190.446 419.363 190.046C419.291 189.646 419.187 189.322 419.051 189.074C418.923 188.818 418.767 188.63 418.583 188.51C418.407 188.39 418.207 188.33 417.983 188.33C417.759 188.33 417.555 188.39 417.371 188.51C417.187 188.63 417.027 188.818 416.891 189.074C416.763 189.322 416.663 189.646 416.591 190.046C416.519 190.446 416.483 190.926 416.483 191.486C416.483 192.606 416.619 193.422 416.891 193.934C417.171 194.438 417.535 194.69 417.983 194.69Z" fill="black"/>
<path d="M122.359 42.0568L122.056 41.5528C122.253 40.7624 122.423 40.053 122.568 39.4245C122.713 38.796 122.815 38.2354 122.874 37.7429C122.928 37.2434 122.939 36.8119 122.908 36.4484C122.872 36.0779 122.773 35.759 122.613 35.4916C122.386 35.1145 122.098 34.8678 121.748 34.7515C121.398 34.6351 121.014 34.7027 120.595 34.9541C120.321 35.1189 120.115 35.3503 119.976 35.6481C119.834 35.9391 119.733 36.252 119.673 36.5868L118.899 36.394C118.992 35.9274 119.139 35.5123 119.34 35.1485C119.537 34.7779 119.852 34.4628 120.284 34.2032C120.894 33.8363 121.481 33.7261 122.045 33.8725C122.605 34.0119 123.06 34.3731 123.411 34.9559C123.596 35.2645 123.715 35.6176 123.767 36.0155C123.823 36.4023 123.831 36.8359 123.793 37.3161C123.758 37.7854 123.685 38.3006 123.574 38.8618C123.466 39.4121 123.339 40.0069 123.191 40.6464C123.361 40.5255 123.538 40.4005 123.722 40.2714C123.905 40.1423 124.083 40.0262 124.254 39.9232L126.157 38.7795L126.596 39.5097L122.359 42.0568ZM129.643 37.846C129.383 38.0026 129.126 38.1194 128.874 38.1965C128.632 38.2763 128.398 38.3286 128.17 38.3535C127.949 38.3742 127.736 38.3765 127.53 38.3602C127.327 38.3329 127.136 38.2939 126.956 38.2433L127.033 37.4406C127.345 37.5241 127.676 37.5629 128.027 37.5571C128.385 37.5472 128.757 37.4269 129.14 37.1961C129.339 37.0766 129.504 36.931 129.634 36.7594C129.767 36.5768 129.859 36.3812 129.911 36.1726C129.963 35.9641 129.971 35.7445 129.936 35.5141C129.9 35.2836 129.814 35.0552 129.678 34.829C129.406 34.3764 129.067 34.0996 128.66 33.9984C128.254 33.8972 127.839 33.9743 127.413 34.2299C127.187 34.3659 127.012 34.5176 126.889 34.6851C126.773 34.8485 126.654 35.0551 126.534 35.3049L125.908 35.2889L124.226 32.0016L127.507 30.0295L127.946 30.7597L125.405 32.2867L126.399 34.3357C126.507 34.1586 126.626 33.9986 126.755 33.8559C126.883 33.7131 127.047 33.5819 127.246 33.4624C127.527 33.2934 127.816 33.1759 128.112 33.1098C128.409 33.0437 128.701 33.0407 128.989 33.1008C129.273 33.1541 129.545 33.2801 129.804 33.4788C130.066 33.6666 130.305 33.9387 130.519 34.2953C130.733 34.6518 130.861 35.0043 130.903 35.3528C130.944 35.7012 130.92 36.0333 130.829 36.3489C130.735 36.6577 130.585 36.9438 130.379 37.2074C130.177 37.46 129.931 37.6729 129.643 37.846Z" fill="black"/>
<path d="M328.229 41.6015C327.969 41.4449 327.745 41.2733 327.559 41.0866C327.375 40.9109 327.219 40.7283 327.09 40.5389C326.968 40.3536 326.866 40.1662 326.783 39.9768C326.712 39.7847 326.657 39.5974 326.617 39.4149L327.362 39.1067C327.435 39.4209 327.556 39.7317 327.726 40.0392C327.903 40.3507 328.183 40.6219 328.567 40.8526C328.766 40.9721 328.972 41.0491 329.184 41.0835C329.408 41.1152 329.624 41.105 329.833 41.053C330.041 41.001 330.239 40.9051 330.426 40.7653C330.612 40.6255 330.774 40.4424 330.91 40.2161C331.181 39.7635 331.267 39.3342 331.166 38.928C331.064 38.5218 330.801 38.191 330.376 37.9355C330.15 37.7996 329.934 37.7164 329.728 37.6861C329.529 37.6599 329.291 37.6522 329.014 37.663L328.734 37.1031L330.848 34.0751L334.129 36.0466L333.69 36.7769L331.149 35.2504L329.806 37.0893C330.014 37.1018 330.21 37.1314 330.397 37.1782C330.584 37.225 330.776 37.3081 330.975 37.4276C331.256 37.5965 331.496 37.7963 331.693 38.0269C331.89 38.2575 332.03 38.5142 332.112 38.7969C332.199 39.0727 332.215 39.3718 332.161 39.6942C332.118 40.0138 331.99 40.3519 331.776 40.7085C331.561 41.0651 331.31 41.3435 331.022 41.5436C330.734 41.7437 330.429 41.878 330.108 41.9464C329.791 42.0079 329.468 42.0098 329.139 41.9519C328.82 41.8914 328.517 41.7746 328.229 41.6015ZM333.599 44.8281C332.934 44.4285 332.593 43.8225 332.578 43.0103C332.562 42.1981 332.885 41.2399 333.549 40.1359C334.212 39.0319 334.902 38.3031 335.618 37.9496C336.335 37.5961 337.025 37.6191 337.691 38.0188C338.349 38.4144 338.69 39.0114 338.714 39.8099C338.739 40.6084 338.419 41.5597 337.756 42.6637C337.092 43.7677 336.398 44.5034 335.674 44.8706C334.949 45.2378 334.257 45.2237 333.599 44.8281ZM334.007 44.1493C334.199 44.2646 334.401 44.3162 334.614 44.304C334.838 44.289 335.07 44.2048 335.312 44.0513C335.564 43.8951 335.825 43.664 336.092 43.3583C336.364 43.0456 336.644 42.6493 336.933 42.1693C337.221 41.6893 337.438 41.2593 337.582 40.8793C337.726 40.4994 337.804 40.1681 337.815 39.8855C337.837 39.6001 337.8 39.3586 337.704 39.161C337.615 38.9675 337.475 38.813 337.283 38.6977C337.091 38.5823 336.885 38.5287 336.665 38.5368C336.446 38.5449 336.212 38.6236 335.964 38.773C335.726 38.9196 335.473 39.1459 335.206 39.4516C334.938 39.7574 334.66 40.1503 334.372 40.6303C333.795 41.5904 333.491 42.3599 333.46 42.9388C333.441 43.515 333.623 43.9185 334.007 44.1493Z" fill="black"/>
<g filter="url(#filter1_di_1413_19072)">
<path d="M292.936 45.2456C294.462 41.8293 292.934 37.8096 289.459 36.4219C265.314 26.7784 239.241 22.8123 213.262 24.8712C187.283 26.9301 162.161 34.9535 139.836 48.2799C136.623 50.1976 135.747 54.4078 137.792 57.5412C139.836 60.6746 144.027 61.5434 147.246 59.6369C167.669 47.5424 190.612 40.2577 214.333 38.3778C238.053 36.498 261.858 40.0777 283.93 48.8044C287.41 50.18 291.411 48.6619 292.936 45.2456Z" fill="#E5AE21"/>
</g>
<g filter="url(#filter2_di_1413_19072)">
<path d="M386.1 161.949C389.769 161.218 392.165 157.647 391.288 154.01C385.175 128.656 373.281 105.023 356.499 84.9795C339.716 64.9357 318.543 49.0728 294.657 38.599C291.231 37.0965 287.294 38.8273 285.93 42.3112C284.566 45.795 286.291 49.7115 289.712 51.2259C311.484 60.8633 330.787 75.376 346.11 93.6775C361.434 111.979 372.328 133.532 377.988 156.659C378.878 160.293 382.43 162.68 386.1 161.949Z" fill="#00B454"/>
</g>
<path d="M201.704 146C201.779 144.413 201.919 142.967 202.124 141.66C202.329 140.335 202.619 139.075 202.992 137.88C203.384 136.685 203.879 135.528 204.476 134.408C205.073 133.269 205.801 132.103 206.66 130.908H198.232V128.192H210.188V130.152C209.143 131.44 208.293 132.672 207.64 133.848C207.005 135.005 206.501 136.2 206.128 137.432C205.755 138.645 205.484 139.943 205.316 141.324C205.167 142.705 205.055 144.264 204.98 146H201.704ZM212.699 146V144.124C213.931 142.929 215.042 141.828 216.031 140.82C217.039 139.812 217.889 138.879 218.579 138.02C219.289 137.161 219.83 136.359 220.203 135.612C220.577 134.865 220.763 134.156 220.763 133.484C220.763 132.532 220.511 131.785 220.007 131.244C219.503 130.684 218.775 130.404 217.823 130.404C217.133 130.404 216.498 130.6 215.919 130.992C215.359 131.384 214.837 131.851 214.351 132.392L212.559 130.6C213.381 129.723 214.221 129.051 215.079 128.584C215.957 128.099 217.011 127.856 218.243 127.856C219.102 127.856 219.877 127.987 220.567 128.248C221.258 128.509 221.846 128.883 222.331 129.368C222.817 129.835 223.19 130.404 223.451 131.076C223.731 131.748 223.871 132.495 223.871 133.316C223.871 134.1 223.694 134.903 223.339 135.724C223.003 136.527 222.537 137.348 221.939 138.188C221.361 139.009 220.679 139.859 219.895 140.736C219.111 141.613 218.281 142.519 217.403 143.452C217.87 143.415 218.374 143.377 218.915 143.34C219.457 143.284 219.942 143.256 220.371 143.256H224.739V146H212.699ZM231.479 138.944C230.191 138.944 229.136 138.44 228.315 137.432C227.512 136.405 227.111 134.968 227.111 133.12C227.111 131.272 227.512 129.853 228.315 128.864C229.136 127.856 230.191 127.352 231.479 127.352C232.767 127.352 233.812 127.856 234.615 128.864C235.436 129.853 235.847 131.272 235.847 133.12C235.847 134.968 235.436 136.405 234.615 137.432C233.812 138.44 232.767 138.944 231.479 138.944ZM231.479 137.068C232.076 137.068 232.562 136.76 232.935 136.144C233.327 135.509 233.523 134.501 233.523 133.12C233.523 131.739 233.327 130.749 232.935 130.152C232.562 129.536 232.076 129.228 231.479 129.228C230.882 129.228 230.387 129.536 229.995 130.152C229.622 130.749 229.435 131.739 229.435 133.12C229.435 134.501 229.622 135.509 229.995 136.144C230.387 136.76 230.882 137.068 231.479 137.068ZM232.039 146.336L242.035 127.352H243.995L234.027 146.336H232.039ZM244.611 146.336C243.323 146.336 242.268 145.832 241.447 144.824C240.644 143.797 240.243 142.36 240.243 140.512C240.243 138.664 240.644 137.245 241.447 136.256C242.268 135.248 243.323 134.744 244.611 134.744C245.899 134.744 246.944 135.248 247.747 136.256C248.568 137.245 248.979 138.664 248.979 140.512C248.979 142.36 248.568 143.797 247.747 144.824C246.944 145.832 245.899 146.336 244.611 146.336ZM244.611 144.46C245.208 144.46 245.694 144.152 246.067 143.536C246.459 142.901 246.655 141.893 246.655 140.512C246.655 139.131 246.459 138.141 246.067 137.544C245.694 136.928 245.208 136.62 244.611 136.62C244.014 136.62 243.519 136.928 243.127 137.544C242.754 138.141 242.567 139.131 242.567 140.512C242.567 141.893 242.754 142.901 243.127 143.536C243.519 144.152 244.014 144.46 244.611 144.46Z" fill="#060606"/>
<path d="M201.704 146L201.454 145.988L201.442 146.25H201.704V146ZM202.124 141.66L202.371 141.699L202.371 141.698L202.124 141.66ZM202.992 137.88L202.754 137.802L202.753 137.805L202.992 137.88ZM204.476 134.408L204.697 134.526L204.697 134.524L204.476 134.408ZM206.66 130.908L206.863 131.054L207.148 130.658H206.66V130.908ZM198.232 130.908H197.982V131.158H198.232V130.908ZM198.232 128.192V127.942H197.982V128.192H198.232ZM210.188 128.192H210.438V127.942H210.188V128.192ZM210.188 130.152L210.382 130.31L210.438 130.241V130.152H210.188ZM207.64 133.848L207.421 133.727L207.421 133.728L207.64 133.848ZM206.128 137.432L206.367 137.506L206.367 137.505L206.128 137.432ZM205.316 141.324L205.068 141.294L205.067 141.297L205.316 141.324ZM204.98 146V146.25H205.219L205.23 146.011L204.98 146ZM201.954 146.012C202.028 144.432 202.167 142.995 202.371 141.699L201.877 141.621C201.67 142.938 201.529 144.394 201.454 145.988L201.954 146.012ZM202.371 141.698C202.575 140.384 202.861 139.137 203.231 137.955L202.753 137.805C202.376 139.013 202.084 140.285 201.877 141.622L202.371 141.698ZM203.23 137.958C203.617 136.777 204.106 135.633 204.697 134.526L204.255 134.29C203.651 135.423 203.151 136.594 202.754 137.802L203.23 137.958ZM204.697 134.524C205.289 133.397 206.01 132.24 206.863 131.054L206.457 130.762C205.592 131.965 204.858 133.142 204.255 134.292L204.697 134.524ZM206.66 130.658H198.232V131.158H206.66V130.658ZM198.482 130.908V128.192H197.982V130.908H198.482ZM198.232 128.442H210.188V127.942H198.232V128.442ZM209.938 128.192V130.152H210.438V128.192H209.938ZM209.994 129.994C208.941 131.291 208.083 132.535 207.421 133.727L207.859 133.969C208.503 132.809 209.344 131.589 210.382 130.31L209.994 129.994ZM207.421 133.728C206.778 134.9 206.267 136.111 205.889 137.359L206.367 137.505C206.735 136.289 207.233 135.111 207.859 133.968L207.421 133.728ZM205.889 137.358C205.511 138.587 205.237 139.899 205.068 141.294L205.564 141.354C205.731 139.986 205.998 138.703 206.367 137.506L205.889 137.358ZM205.067 141.297C204.917 142.685 204.805 144.249 204.73 145.989L205.23 146.011C205.304 144.279 205.416 142.726 205.565 141.351L205.067 141.297ZM204.98 145.75H201.704V146.25H204.98V145.75ZM212.699 146H212.449V146.25H212.699V146ZM212.699 144.124L212.525 143.945L212.449 144.018V144.124H212.699ZM216.031 140.82L215.855 140.643L215.853 140.645L216.031 140.82ZM218.579 138.02L218.387 137.861L218.385 137.863L218.579 138.02ZM220.203 135.612L220.427 135.724L220.203 135.612ZM220.007 131.244L219.822 131.411L219.824 131.414L220.007 131.244ZM215.919 130.992L215.779 130.785L215.776 130.787L215.919 130.992ZM214.351 132.392L214.175 132.569L214.361 132.755L214.538 132.559L214.351 132.392ZM212.559 130.6L212.377 130.429L212.212 130.606L212.383 130.777L212.559 130.6ZM215.079 128.584L215.199 128.804L215.2 128.803L215.079 128.584ZM222.331 129.368L222.155 129.545L222.158 129.548L222.331 129.368ZM223.451 131.076L223.218 131.167L223.221 131.172L223.451 131.076ZM223.339 135.724L223.11 135.625L223.109 135.627L223.339 135.724ZM221.939 138.188L221.736 138.043L221.735 138.044L221.939 138.188ZM217.403 143.452L217.221 143.281L216.778 143.753L217.423 143.701L217.403 143.452ZM218.915 143.34L218.933 143.59L218.941 143.589L218.915 143.34ZM224.739 143.256H224.989V143.006H224.739V143.256ZM224.739 146V146.25H224.989V146H224.739ZM212.949 146V144.124H212.449V146H212.949ZM212.874 144.303C214.107 143.108 215.219 142.005 216.21 140.995L215.853 140.645C214.865 141.651 213.756 142.751 212.525 143.945L212.874 144.303ZM216.208 140.997C217.221 139.984 218.077 139.044 218.774 138.177L218.385 137.863C217.701 138.713 216.858 139.64 215.855 140.643L216.208 140.997ZM218.772 138.179C219.49 137.31 220.043 136.492 220.427 135.724L219.98 135.5C219.617 136.225 219.088 137.012 218.387 137.861L218.772 138.179ZM220.427 135.724C220.814 134.951 221.013 134.203 221.013 133.484H220.513C220.513 134.109 220.34 134.78 219.98 135.5L220.427 135.724ZM221.013 133.484C221.013 132.488 220.749 131.673 220.19 131.074L219.824 131.414C220.274 131.897 220.513 132.576 220.513 133.484H221.013ZM220.193 131.077C219.63 130.451 218.826 130.154 217.823 130.154V130.654C218.725 130.654 219.377 130.917 219.822 131.411L220.193 131.077ZM217.823 130.154C217.082 130.154 216.399 130.365 215.779 130.785L216.06 131.199C216.597 130.835 217.183 130.654 217.823 130.654V130.154ZM215.776 130.787C215.199 131.191 214.663 131.67 214.165 132.225L214.538 132.559C215.011 132.031 215.519 131.577 216.063 131.197L215.776 130.787ZM214.528 132.215L212.736 130.423L212.383 130.777L214.175 132.569L214.528 132.215ZM212.742 130.771C213.549 129.909 214.368 129.255 215.199 128.804L214.96 128.364C214.073 128.846 213.213 129.537 212.377 130.429L212.742 130.771ZM215.2 128.803C216.033 128.342 217.044 128.106 218.243 128.106V127.606C216.979 127.606 215.88 127.855 214.958 128.365L215.2 128.803ZM218.243 128.106C219.077 128.106 219.821 128.233 220.479 128.482L220.656 128.014C219.933 127.741 219.128 127.606 218.243 127.606V128.106ZM220.479 128.482C221.139 128.732 221.696 129.086 222.155 129.545L222.508 129.191C221.996 128.679 221.377 128.287 220.656 128.014L220.479 128.482ZM222.158 129.548C222.616 129.988 222.969 130.526 223.218 131.167L223.684 130.985C223.411 130.282 223.018 129.681 222.505 129.188L222.158 129.548ZM223.221 131.172C223.486 131.81 223.621 132.523 223.621 133.316H224.121C224.121 132.466 223.976 131.686 223.682 130.98L223.221 131.172ZM223.621 133.316C223.621 134.061 223.453 134.83 223.11 135.625L223.569 135.823C223.935 134.975 224.121 134.139 224.121 133.316H223.621ZM223.109 135.627C222.781 136.41 222.324 137.216 221.736 138.043L222.143 138.333C222.749 137.48 223.226 136.643 223.57 135.821L223.109 135.627ZM221.735 138.044C221.163 138.856 220.488 139.698 219.709 140.569L220.082 140.903C220.871 140.019 221.559 139.162 222.144 138.332L221.735 138.044ZM219.709 140.569C218.927 141.445 218.097 142.349 217.221 143.281L217.586 143.623C218.464 142.688 219.296 141.782 220.082 140.903L219.709 140.569ZM217.423 143.701C217.889 143.664 218.392 143.627 218.933 143.589L218.898 143.091C218.356 143.128 217.851 143.165 217.384 143.203L217.423 143.701ZM218.941 143.589C219.476 143.533 219.953 143.506 220.371 143.506V143.006C219.932 143.006 219.437 143.035 218.89 143.091L218.941 143.589ZM220.371 143.506H224.739V143.006H220.371V143.506ZM224.489 143.256V146H224.989V143.256H224.489ZM224.739 145.75H212.699V146.25H224.739V145.75ZM228.315 137.432L228.118 137.586L228.121 137.59L228.315 137.432ZM228.315 128.864L228.121 128.706L228.121 128.706L228.315 128.864ZM234.615 128.864L234.419 129.02L234.423 129.024L234.615 128.864ZM234.615 137.432L234.42 137.276L234.419 137.276L234.615 137.432ZM232.935 136.144L232.722 136.013L232.721 136.014L232.935 136.144ZM232.935 130.152L232.721 130.282L232.726 130.289L232.935 130.152ZM229.995 130.152L229.784 130.018L229.783 130.019L229.995 130.152ZM229.995 136.144L229.779 136.271L229.784 136.278L229.995 136.144ZM232.039 146.336L231.818 146.22L231.625 146.586H232.039V146.336ZM242.035 127.352V127.102H241.884L241.814 127.236L242.035 127.352ZM243.995 127.352L244.216 127.468L244.409 127.102H243.995V127.352ZM234.027 146.336V146.586H234.178L234.248 146.452L234.027 146.336ZM241.447 144.824L241.25 144.978L241.253 144.982L241.447 144.824ZM241.447 136.256L241.253 136.098L241.253 136.098L241.447 136.256ZM247.747 136.256L247.551 136.412L247.555 136.416L247.747 136.256ZM247.747 144.824L247.552 144.668L247.551 144.668L247.747 144.824ZM246.067 143.536L245.854 143.405L245.853 143.406L246.067 143.536ZM246.067 137.544L245.853 137.674L245.858 137.681L246.067 137.544ZM243.127 137.544L242.916 137.41L242.915 137.411L243.127 137.544ZM243.127 143.536L242.911 143.663L242.916 143.67L243.127 143.536ZM231.479 138.694C230.267 138.694 229.283 138.224 228.509 137.274L228.121 137.59C228.989 138.656 230.115 139.194 231.479 139.194V138.694ZM228.512 137.278C227.755 136.31 227.361 134.935 227.361 133.12H226.861C226.861 135.001 227.269 136.5 228.118 137.586L228.512 137.278ZM227.361 133.12C227.361 131.304 227.756 129.95 228.509 129.022L228.121 128.706C227.269 129.757 226.861 131.24 226.861 133.12H227.361ZM228.509 129.022C229.283 128.072 230.267 127.602 231.479 127.602V127.102C230.115 127.102 228.989 127.64 228.121 128.706L228.509 129.022ZM231.479 127.602C232.691 127.602 233.664 128.071 234.419 129.02L234.811 128.708C233.96 127.641 232.843 127.102 231.479 127.102V127.602ZM234.423 129.024C235.193 129.952 235.597 131.305 235.597 133.12H236.097C236.097 131.239 235.679 129.755 234.807 128.704L234.423 129.024ZM235.597 133.12C235.597 134.934 235.194 136.308 234.42 137.276L234.81 137.588C235.679 136.502 236.097 135.002 236.097 133.12H235.597ZM234.419 137.276C233.664 138.225 232.691 138.694 231.479 138.694V139.194C232.843 139.194 233.96 138.655 234.811 137.588L234.419 137.276ZM231.479 137.318C232.183 137.318 232.741 136.946 233.149 136.274L232.721 136.014C232.382 136.574 231.97 136.818 231.479 136.818V137.318ZM233.148 136.275C233.577 135.58 233.773 134.514 233.773 133.12H233.273C233.273 134.489 233.077 135.439 232.722 136.013L233.148 136.275ZM233.773 133.12C233.773 131.728 233.578 130.676 233.144 130.015L232.726 130.289C233.076 130.823 233.273 131.749 233.273 133.12H233.773ZM233.149 130.022C232.741 129.35 232.183 128.978 231.479 128.978V129.478C231.97 129.478 232.382 129.722 232.721 130.282L233.149 130.022ZM231.479 128.978C230.776 128.978 230.21 129.348 229.784 130.018L230.206 130.286C230.564 129.724 230.987 129.478 231.479 129.478V128.978ZM229.783 130.019C229.37 130.679 229.185 131.729 229.185 133.12H229.685C229.685 131.748 229.873 130.819 230.207 130.284L229.783 130.019ZM229.185 133.12C229.185 134.513 229.371 135.577 229.779 136.271L230.21 136.017C229.872 135.442 229.685 134.49 229.685 133.12H229.185ZM229.784 136.278C230.21 136.948 230.776 137.318 231.479 137.318V136.818C230.987 136.818 230.564 136.572 230.206 136.01L229.784 136.278ZM232.26 146.452L242.256 127.468L241.814 127.236L231.818 146.22L232.26 146.452ZM242.035 127.602H243.995V127.102H242.035V127.602ZM243.774 127.236L233.806 146.22L234.248 146.452L244.216 127.468L243.774 127.236ZM234.027 146.086H232.039V146.586H234.027V146.086ZM244.611 146.086C243.399 146.086 242.415 145.616 241.641 144.666L241.253 144.982C242.121 146.048 243.247 146.586 244.611 146.586V146.086ZM241.644 144.67C240.887 143.702 240.493 142.327 240.493 140.512H239.993C239.993 142.393 240.401 143.892 241.25 144.978L241.644 144.67ZM240.493 140.512C240.493 138.696 240.888 137.342 241.641 136.414L241.253 136.098C240.401 137.149 239.993 138.632 239.993 140.512H240.493ZM241.641 136.414C242.415 135.464 243.399 134.994 244.611 134.994V134.494C243.247 134.494 242.121 135.032 241.253 136.098L241.641 136.414ZM244.611 134.994C245.823 134.994 246.796 135.463 247.551 136.412L247.943 136.1C247.092 135.033 245.975 134.494 244.611 134.494V134.994ZM247.555 136.416C248.325 137.344 248.729 138.697 248.729 140.512H249.229C249.229 138.631 248.811 137.147 247.939 136.096L247.555 136.416ZM248.729 140.512C248.729 142.326 248.326 143.7 247.552 144.668L247.942 144.98C248.811 143.894 249.229 142.394 249.229 140.512H248.729ZM247.551 144.668C246.796 145.617 245.823 146.086 244.611 146.086V146.586C245.975 146.586 247.092 146.047 247.943 144.98L247.551 144.668ZM244.611 144.71C245.315 144.71 245.873 144.338 246.281 143.666L245.853 143.406C245.514 143.966 245.102 144.21 244.611 144.21V144.71ZM246.28 143.667C246.709 142.972 246.905 141.906 246.905 140.512H246.405C246.405 141.881 246.209 142.831 245.854 143.405L246.28 143.667ZM246.905 140.512C246.905 139.12 246.71 138.068 246.276 137.407L245.858 137.681C246.208 138.215 246.405 139.141 246.405 140.512H246.905ZM246.281 137.414C245.873 136.742 245.315 136.37 244.611 136.37V136.87C245.102 136.87 245.514 137.114 245.853 137.674L246.281 137.414ZM244.611 136.37C243.908 136.37 243.342 136.74 242.916 137.41L243.338 137.678C243.696 137.116 244.119 136.87 244.611 136.87V136.37ZM242.915 137.411C242.502 138.071 242.317 139.121 242.317 140.512H242.817C242.817 139.14 243.005 138.211 243.339 137.677L242.915 137.411ZM242.317 140.512C242.317 141.905 242.503 142.969 242.911 143.663L243.342 143.409C243.004 142.834 242.817 141.882 242.817 140.512H242.317ZM242.916 143.67C243.342 144.34 243.908 144.71 244.611 144.71V144.21C244.119 144.21 243.696 143.964 243.338 143.402L242.916 143.67Z" fill="#060606"/>
<path d="M196.043 167V157.16H199.118C199.618 157.16 200.078 157.21 200.498 157.31C200.928 157.4 201.293 157.555 201.593 157.775C201.903 157.995 202.143 158.28 202.313 158.63C202.483 158.98 202.568 159.41 202.568 159.92C202.568 160.69 202.368 161.305 201.968 161.765C201.568 162.225 201.028 162.54 200.348 162.71L202.853 167H201.443L199.073 162.845H197.288V167H196.043ZM197.288 161.825H198.938C199.708 161.825 200.298 161.67 200.708 161.36C201.118 161.04 201.323 160.56 201.323 159.92C201.323 159.27 201.118 158.815 200.708 158.555C200.298 158.295 199.708 158.165 198.938 158.165H197.288V161.825ZM207.422 167.18C206.932 167.18 206.472 167.095 206.042 166.925C205.622 166.745 205.252 166.495 204.932 166.175C204.622 165.845 204.377 165.445 204.197 164.975C204.017 164.505 203.927 163.97 203.927 163.37C203.927 162.77 204.017 162.235 204.197 161.765C204.387 161.285 204.632 160.88 204.932 160.55C205.242 160.22 205.592 159.97 205.982 159.8C206.372 159.62 206.777 159.53 207.197 159.53C207.657 159.53 208.067 159.61 208.427 159.77C208.797 159.93 209.102 160.16 209.342 160.46C209.592 160.76 209.782 161.12 209.912 161.54C210.042 161.96 210.107 162.43 210.107 162.95C210.107 163.08 210.102 163.21 210.092 163.34C210.092 163.46 210.082 163.565 210.062 163.655H205.142C205.192 164.435 205.432 165.055 205.862 165.515C206.302 165.965 206.872 166.19 207.572 166.19C207.922 166.19 208.242 166.14 208.532 166.04C208.832 165.93 209.117 165.79 209.387 165.62L209.822 166.43C209.502 166.63 209.147 166.805 208.757 166.955C208.367 167.105 207.922 167.18 207.422 167.18ZM205.127 162.77H209.027C209.027 162.03 208.867 161.47 208.547 161.09C208.237 160.7 207.797 160.505 207.227 160.505C206.967 160.505 206.717 160.555 206.477 160.655C206.247 160.755 206.037 160.905 205.847 161.105C205.657 161.295 205.497 161.53 205.367 161.81C205.247 162.09 205.167 162.41 205.127 162.77ZM213.533 167.18C212.923 167.18 212.413 167 212.003 166.64C211.603 166.28 211.403 165.77 211.403 165.11C211.403 164.31 211.758 163.7 212.468 163.28C213.178 162.85 214.313 162.55 215.873 162.38C215.873 162.15 215.848 161.925 215.798 161.705C215.758 161.485 215.683 161.29 215.573 161.12C215.463 160.95 215.308 160.815 215.108 160.715C214.918 160.605 214.673 160.55 214.373 160.55C213.953 160.55 213.558 160.63 213.188 160.79C212.818 160.95 212.488 161.13 212.198 161.33L211.718 160.475C212.058 160.255 212.473 160.045 212.963 159.845C213.453 159.635 213.993 159.53 214.583 159.53C215.473 159.53 216.118 159.805 216.518 160.355C216.918 160.895 217.118 161.62 217.118 162.53V167H216.098L215.993 166.13H215.948C215.598 166.42 215.223 166.67 214.823 166.88C214.423 167.08 213.993 167.18 213.533 167.18ZM213.893 166.19C214.243 166.19 214.573 166.11 214.883 165.95C215.193 165.78 215.523 165.535 215.873 165.215V163.19C215.263 163.27 214.748 163.365 214.328 163.475C213.918 163.585 213.583 163.715 213.323 163.865C213.073 164.015 212.888 164.19 212.768 164.39C212.658 164.58 212.603 164.79 212.603 165.02C212.603 165.44 212.728 165.74 212.978 165.92C213.228 166.1 213.533 166.19 213.893 166.19ZM222.052 167.18C221.132 167.18 220.397 166.85 219.847 166.19C219.307 165.53 219.037 164.59 219.037 163.37C219.037 162.78 219.122 162.25 219.292 161.78C219.472 161.3 219.707 160.895 219.997 160.565C220.287 160.235 220.622 159.98 221.002 159.8C221.382 159.62 221.782 159.53 222.202 159.53C222.622 159.53 222.987 159.605 223.297 159.755C223.607 159.905 223.922 160.11 224.242 160.37L224.182 159.125V156.32H225.427V167H224.407L224.302 166.145H224.257C223.967 166.425 223.632 166.67 223.252 166.88C222.882 167.08 222.482 167.18 222.052 167.18ZM222.322 166.145C222.662 166.145 222.982 166.065 223.282 165.905C223.582 165.735 223.882 165.48 224.182 165.14V161.33C223.872 161.05 223.572 160.855 223.282 160.745C223.002 160.625 222.712 160.565 222.412 160.565C222.122 160.565 221.847 160.635 221.587 160.775C221.337 160.905 221.117 161.095 220.927 161.345C220.737 161.585 220.587 161.875 220.477 162.215C220.367 162.555 220.312 162.935 220.312 163.355C220.312 164.235 220.487 164.92 220.837 165.41C221.187 165.9 221.682 166.145 222.322 166.145ZM228.032 167V159.71H229.262V167H228.032ZM228.662 158.21C228.422 158.21 228.217 158.135 228.047 157.985C227.887 157.835 227.807 157.645 227.807 157.415C227.807 157.175 227.887 156.985 228.047 156.845C228.217 156.695 228.422 156.62 228.662 156.62C228.902 156.62 229.102 156.695 229.262 156.845C229.432 156.985 229.517 157.175 229.517 157.415C229.517 157.645 229.432 157.835 229.262 157.985C229.102 158.135 228.902 158.21 228.662 158.21ZM231.874 167V159.71H232.894L232.999 160.76H233.044C233.394 160.41 233.759 160.12 234.139 159.89C234.529 159.65 234.979 159.53 235.489 159.53C236.259 159.53 236.819 159.77 237.169 160.25C237.529 160.73 237.709 161.44 237.709 162.38V167H236.479V162.545C236.479 161.855 236.369 161.36 236.149 161.06C235.929 160.75 235.579 160.595 235.099 160.595C234.719 160.595 234.384 160.69 234.094 160.88C233.804 161.07 233.474 161.35 233.104 161.72V167H231.874ZM243.182 167.18C242.692 167.18 242.232 167.095 241.802 166.925C241.382 166.745 241.012 166.495 240.692 166.175C240.382 165.845 240.137 165.445 239.957 164.975C239.777 164.505 239.687 163.97 239.687 163.37C239.687 162.77 239.777 162.235 239.957 161.765C240.147 161.285 240.392 160.88 240.692 160.55C241.002 160.22 241.352 159.97 241.742 159.8C242.132 159.62 242.537 159.53 242.957 159.53C243.417 159.53 243.827 159.61 244.187 159.77C244.557 159.93 244.862 160.16 245.102 160.46C245.352 160.76 245.542 161.12 245.672 161.54C245.802 161.96 245.867 162.43 245.867 162.95C245.867 163.08 245.862 163.21 245.852 163.34C245.852 163.46 245.842 163.565 245.822 163.655H240.902C240.952 164.435 241.192 165.055 241.622 165.515C242.062 165.965 242.632 166.19 243.332 166.19C243.682 166.19 244.002 166.14 244.292 166.04C244.592 165.93 244.877 165.79 245.147 165.62L245.582 166.43C245.262 166.63 244.907 166.805 244.517 166.955C244.127 167.105 243.682 167.18 243.182 167.18ZM240.887 162.77H244.787C244.787 162.03 244.627 161.47 244.307 161.09C243.997 160.7 243.557 160.505 242.987 160.505C242.727 160.505 242.477 160.555 242.237 160.655C242.007 160.755 241.797 160.905 241.607 161.105C241.417 161.295 241.257 161.53 241.127 161.81C241.007 162.09 240.927 162.41 240.887 162.77ZM249.723 167.18C249.203 167.18 248.708 167.085 248.238 166.895C247.768 166.705 247.358 166.465 247.008 166.175L247.623 165.35C247.943 165.61 248.268 165.82 248.598 165.98C248.938 166.14 249.328 166.22 249.768 166.22C250.248 166.22 250.608 166.11 250.848 165.89C251.088 165.67 251.208 165.4 251.208 165.08C251.208 164.89 251.158 164.725 251.058 164.585C250.958 164.445 250.828 164.325 250.668 164.225C250.518 164.115 250.343 164.02 250.143 163.94C249.943 163.86 249.743 163.78 249.543 163.7C249.283 163.61 249.023 163.51 248.763 163.4C248.503 163.28 248.268 163.14 248.058 162.98C247.858 162.81 247.693 162.615 247.563 162.395C247.433 162.175 247.368 161.91 247.368 161.6C247.368 161.31 247.423 161.04 247.533 160.79C247.653 160.53 247.818 160.31 248.028 160.13C248.248 159.94 248.513 159.795 248.823 159.695C249.133 159.585 249.483 159.53 249.873 159.53C250.333 159.53 250.753 159.61 251.133 159.77C251.523 159.93 251.858 160.125 252.138 160.355L251.553 161.135C251.303 160.945 251.043 160.79 250.773 160.67C250.503 160.55 250.208 160.49 249.888 160.49C249.428 160.49 249.088 160.595 248.868 160.805C248.658 161.015 248.553 161.26 248.553 161.54C248.553 161.71 248.598 161.86 248.688 161.99C248.778 162.11 248.898 162.22 249.048 162.32C249.198 162.41 249.368 162.495 249.558 162.575C249.758 162.645 249.963 162.72 250.173 162.8C250.433 162.9 250.693 163.005 250.953 163.115C251.223 163.225 251.463 163.365 251.673 163.535C251.883 163.695 252.053 163.895 252.183 164.135C252.323 164.375 252.393 164.665 252.393 165.005C252.393 165.305 252.333 165.585 252.213 165.845C252.103 166.105 251.933 166.335 251.703 166.535C251.483 166.735 251.203 166.89 250.863 167C250.533 167.12 250.153 167.18 249.723 167.18ZM256.157 167.18C255.637 167.18 255.142 167.085 254.672 166.895C254.202 166.705 253.792 166.465 253.442 166.175L254.057 165.35C254.377 165.61 254.702 165.82 255.032 165.98C255.372 166.14 255.762 166.22 256.202 166.22C256.682 166.22 257.042 166.11 257.282 165.89C257.522 165.67 257.642 165.4 257.642 165.08C257.642 164.89 257.592 164.725 257.492 164.585C257.392 164.445 257.262 164.325 257.102 164.225C256.952 164.115 256.777 164.02 256.577 163.94C256.377 163.86 256.177 163.78 255.977 163.7C255.717 163.61 255.457 163.51 255.197 163.4C254.937 163.28 254.702 163.14 254.492 162.98C254.292 162.81 254.127 162.615 253.997 162.395C253.867 162.175 253.802 161.91 253.802 161.6C253.802 161.31 253.857 161.04 253.967 160.79C254.087 160.53 254.252 160.31 254.462 160.13C254.682 159.94 254.947 159.795 255.257 159.695C255.567 159.585 255.917 159.53 256.307 159.53C256.767 159.53 257.187 159.61 257.567 159.77C257.957 159.93 258.292 160.125 258.572 160.355L257.987 161.135C257.737 160.945 257.477 160.79 257.207 160.67C256.937 160.55 256.642 160.49 256.322 160.49C255.862 160.49 255.522 160.595 255.302 160.805C255.092 161.015 254.987 161.26 254.987 161.54C254.987 161.71 255.032 161.86 255.122 161.99C255.212 162.11 255.332 162.22 255.482 162.32C255.632 162.41 255.802 162.495 255.992 162.575C256.192 162.645 256.397 162.72 256.607 162.8C256.867 162.9 257.127 163.005 257.387 163.115C257.657 163.225 257.897 163.365 258.107 163.535C258.317 163.695 258.487 163.895 258.617 164.135C258.757 164.375 258.827 164.665 258.827 165.005C258.827 165.305 258.767 165.585 258.647 165.845C258.537 166.105 258.367 166.335 258.137 166.535C257.917 166.735 257.637 166.89 257.297 167C256.967 167.12 256.587 167.18 256.157 167.18Z" fill="#9A9A9A"/>
</g>
<defs>
<filter id="filter0_i_1413_19072" x="57.4122" y="50.0352" width="88.0695" height="146.615" filterUnits="userSpaceOnUse" color-interpolation-filters="sRGB">
<feFlood flood-opacity="0" result="BackgroundImageFix"/>
<feBlend mode="normal" in="SourceGraphic" in2="BackgroundImageFix" result="shape"/>
<feColorMatrix in="SourceAlpha" type="matrix" values="0 0 0 0 0 0 0 0 0 0 0 0 0 0 0 0 0 0 127 0" result="hardAlpha"/>
<feOffset dy="3"/>
<feGaussianBlur stdDeviation="2"/>
<feComposite in2="hardAlpha" operator="arithmetic" k2="-1" k3="1"/>
<feColorMatrix type="matrix" values="0 0 0 0 1 0 0 0 0 1 0 0 0 0 1 0 0 0 0.45 0"/>
<feBlend mode="normal" in2="shape" result="effect1_innerShadow_1413_19072"/>
</filter>
<filter id="filter1_di_1413_19072" x="130.692" y="20.3418" width="164.835" height="44.2988" filterUnits="userSpaceOnUse" color-interpolation-filters="sRGB">
<feFlood flood-opacity="0" result="BackgroundImageFix"/>
<feColorMatrix in="SourceAlpha" type="matrix" values="0 0 0 0 0 0 0 0 0 0 0 0 0 0 0 0 0 0 127 0" result="hardAlpha"/>
<feOffset dx="-2"/>
<feGaussianBlur stdDeviation="2"/>
<feComposite in2="hardAlpha" operator="out"/>
<feColorMatrix type="matrix" values="0 0 0 0 1 0 0 0 0 1 0 0 0 0 1 0 0 0 0.13 0"/>
<feBlend mode="normal" in2="BackgroundImageFix" result="effect1_dropShadow_1413_19072"/>
<feBlend mode="normal" in="SourceGraphic" in2="effect1_dropShadow_1413_19072" result="shape"/>
<feColorMatrix in="SourceAlpha" type="matrix" values="0 0 0 0 0 0 0 0 0 0 0 0 0 0 0 0 0 0 127 0" result="hardAlpha"/>
<feOffset dy="3"/>
<feGaussianBlur stdDeviation="2"/>
<feComposite in2="hardAlpha" operator="arithmetic" k2="-1" k3="1"/>
<feColorMatrix type="matrix" values="0 0 0 0 1 0 0 0 0 1 0 0 0 0 1 0 0 0 0.25 0"/>
<feBlend mode="normal" in2="shape" result="effect2_innerShadow_1413_19072"/>
</filter>
<filter id="filter2_di_1413_19072" x="279.462" y="34.0547" width="114.007" height="132.025" filterUnits="userSpaceOnUse" color-interpolation-filters="sRGB">
<feFlood flood-opacity="0" result="BackgroundImageFix"/>
<feColorMatrix in="SourceAlpha" type="matrix" values="0 0 0 0 0 0 0 0 0 0 0 0 0 0 0 0 0 0 127 0" result="hardAlpha"/>
<feOffset dx="-2"/>
<feGaussianBlur stdDeviation="2"/>
<feComposite in2="hardAlpha" operator="out"/>
<feColorMatrix type="matrix" values="0 0 0 0 1 0 0 0 0 1 0 0 0 0 1 0 0 0 0.13 0"/>
<feBlend mode="normal" in2="BackgroundImageFix" result="effect1_dropShadow_1413_19072"/>
<feBlend mode="normal" in="SourceGraphic" in2="effect1_dropShadow_1413_19072" result="shape"/>
<feColorMatrix in="SourceAlpha" type="matrix" values="0 0 0 0 0 0 0 0 0 0 0 0 0 0 0 0 0 0 127 0" result="hardAlpha"/>
<feOffset dy="3"/>
<feGaussianBlur stdDeviation="2"/>
<feComposite in2="hardAlpha" operator="arithmetic" k2="-1" k3="1"/>
<feColorMatrix type="matrix" values="0 0 0 0 1 0 0 0 0 1 0 0 0 0 1 0 0 0 0.25 0"/>
<feBlend mode="normal" in2="shape" result="effect2_innerShadow_1413_19072"/>
</filter>
<clipPath id="clip0_1413_19072">
<rect width="452" height="252" rx="14" fill="white"/>
</clipPath>
</defs>
</svg>
