<svg width="22" height="22" viewBox="0 0 22 22" fill="none" xmlns="http://www.w3.org/2000/svg">
<path d="M19.2546 10.2131V4.41526C19.2546 3.13633 18.7089 2.62476 17.3533 2.62476H13.9087C12.553 2.62476 12.0073 3.13633 12.0073 4.41526V10.2131C12.0073 11.492 12.553 12.0036 13.9087 12.0036H17.3533C18.7089 12.0036 19.2546 11.492 19.2546 10.2131Z" fill="white"/>
<path d="M10.3022 12.0888V17.8867C10.3022 19.1656 9.75654 19.6772 8.40087 19.6772H4.95628C3.60061 19.6772 3.05493 19.1656 3.05493 17.8867V12.0888C3.05493 10.8099 3.60061 10.2983 4.95628 10.2983H8.40087C9.75654 10.2983 10.3022 10.8099 10.3022 12.0888Z" fill="white"/>
<path d="M19.2546 17.8867V15.4993C19.2546 14.2204 18.7089 13.7088 17.3533 13.7088H13.9087C12.553 13.7088 12.0073 14.2204 12.0073 15.4993V17.8867C12.0073 19.1656 12.553 19.6772 13.9087 19.6772H17.3533C18.7089 19.6772 19.2546 19.1656 19.2546 17.8867Z" fill="white"/>
<path d="M10.3022 6.8026V4.41526C10.3022 3.13633 9.75654 2.62476 8.40087 2.62476H4.95628C3.60061 2.62476 3.05493 3.13633 3.05493 4.41526V6.8026C3.05493 8.08153 3.60061 8.5931 4.95628 8.5931H8.40087C9.75654 8.5931 10.3022 8.08153 10.3022 6.8026Z" fill="white"/>
</svg>
