<svg width="22" height="22" viewBox="0 0 22 22" fill="none" xmlns="http://www.w3.org/2000/svg">
<path d="M19.2547 10.2153V4.41746C19.2547 3.13853 18.709 2.62695 17.3534 2.62695H13.9088C12.5531 2.62695 12.0074 3.13853 12.0074 4.41746V10.2153C12.0074 11.4942 12.5531 12.0058 13.9088 12.0058H17.3534C18.709 12.0058 19.2547 11.4942 19.2547 10.2153Z" fill="white"/>
<path d="M10.3023 12.0893V17.8872C10.3023 19.1661 9.7566 19.6777 8.40093 19.6777H4.95634C3.60067 19.6777 3.05499 19.1661 3.05499 17.8872V12.0893C3.05499 10.8104 3.60067 10.2988 4.95634 10.2988H8.40093C9.7566 10.2988 10.3023 10.8104 10.3023 12.0893Z" fill="white"/>
<path d="M19.2547 17.8888V15.5014C19.2547 14.2225 18.709 13.7109 17.3534 13.7109H13.9088C12.5531 13.7109 12.0074 14.2225 12.0074 15.5014V17.8888C12.0074 19.1677 12.5531 19.6793 13.9088 19.6793H17.3534C18.709 19.6793 19.2547 19.1677 19.2547 17.8888Z" fill="white"/>
<path d="M10.3023 6.8048V4.41746C10.3023 3.13853 9.7566 2.62695 8.40093 2.62695H4.95634C3.60067 2.62695 3.05499 3.13853 3.05499 4.41746V6.8048C3.05499 8.08373 3.60067 8.5953 4.95634 8.5953H8.40093C9.7566 8.5953 10.3023 8.08373 10.3023 6.8048Z" fill="white"/>
</svg>
