<svg width="20" height="20" viewBox="0 0 20 20" fill="none" xmlns="http://www.w3.org/2000/svg">
<path d="M0.246094 18.501L6.03809 12.7881L1.34473 8.2002C1.17773 8.04199 1.18652 7.83984 1.35352 7.7168L8.85059 2.00391C9.29004 1.66992 9.52734 1.51172 9.87012 1.51172C10.2217 1.51172 10.4502 1.66113 10.8984 2.00391L18.3955 7.7168C18.5625 7.83984 18.5625 8.04199 18.3955 8.20898L13.7373 12.7881L19.5029 18.4834C19.6611 18.2109 19.749 17.7451 19.749 17.1035V8.41992C19.749 7.33887 19.5557 6.80273 18.7119 6.13477L11.8477 0.870117C11.1182 0.307617 10.582 0 9.87012 0C9.16699 0 8.63086 0.307617 7.90137 0.870117L1.03711 6.13477C0.202148 6.79395 0 7.33887 0 8.41992V17.1035C0 17.7539 0.0878906 18.2197 0.246094 18.501ZM2.68066 19.9688H16.8574C17.71 19.9688 18.3164 19.8105 18.668 19.5029L10.9951 11.9004C10.5996 11.5049 10.2656 11.3291 9.8877 11.3291C9.50977 11.3291 9.16699 11.5049 8.78027 11.9004L1.07227 19.5381C1.38867 19.8281 1.9248 19.9688 2.68066 19.9688Z" fill="white"/>
</svg>
