<svg width="20" height="16" viewBox="0 0 20 16" fill="none" xmlns="http://www.w3.org/2000/svg">
<path d="M9.89331 8.59931C10.2523 8.59931 10.5696 8.43232 10.9454 8.05659L18.2262 0.834177C17.9006 0.541941 17.3245 0.399998 16.5146 0.399998H3.04663C2.32856 0.399998 1.81924 0.533591 1.527 0.800779L8.84126 8.05659C9.20864 8.43232 9.53428 8.59931 9.89331 8.59931ZM0.725439 13.6508L6.72881 7.70591L0.733789 1.78603C0.583496 2.05322 0.5 2.49575 0.5 3.12197V12.3483C0.5 12.9578 0.575146 13.392 0.725439 13.6508ZM19.0445 13.6425C19.1864 13.3836 19.2616 12.9495 19.2616 12.3483V3.12197C19.2616 2.51245 19.1781 2.06992 19.0278 1.81108L13.0578 7.70591L19.0445 13.6425ZM3.24702 15.0703H16.7149C17.4497 15.0703 17.9674 14.9283 18.268 14.6528L12.1561 8.58261L11.6384 9.09194C11.0623 9.65136 10.5112 9.91855 9.89331 9.91855C9.27544 9.91855 8.71602 9.65136 8.13989 9.09194L7.62222 8.58261L1.51865 14.6361C1.85264 14.92 2.43711 15.0703 3.24702 15.0703Z" fill="white"/>
</svg>
