<svg width="107" height="13" viewBox="0 0 107 13" fill="none" xmlns="http://www.w3.org/2000/svg">
<path opacity="0.4" d="M1.65186 1.33594V12H0.238281V1.33594H1.65186ZM6.11963 6.1333V7.29053H1.34424V6.1333H6.11963ZM6.84473 1.33594V2.49316H1.34424V1.33594H6.84473ZM9.79639 4.0752V12H8.43408V4.0752H9.79639ZM8.33154 1.97314C8.33154 1.75342 8.39746 1.56787 8.5293 1.4165C8.66602 1.26514 8.86621 1.18945 9.12988 1.18945C9.38867 1.18945 9.58643 1.26514 9.72314 1.4165C9.86475 1.56787 9.93555 1.75342 9.93555 1.97314C9.93555 2.18311 9.86475 2.36377 9.72314 2.51514C9.58643 2.66162 9.38867 2.73486 9.12988 2.73486C8.86621 2.73486 8.66602 2.66162 8.5293 2.51514C8.39746 2.36377 8.33154 2.18311 8.33154 1.97314ZM11.9644 0.75H13.3267V10.4619L13.2095 12H11.9644V0.75ZM18.6807 7.97168V8.12549C18.6807 8.70166 18.6123 9.23633 18.4756 9.72949C18.3389 10.2178 18.1387 10.6426 17.875 11.0039C17.6113 11.3652 17.2891 11.646 16.9082 11.8462C16.5273 12.0464 16.0903 12.1465 15.5972 12.1465C15.0942 12.1465 14.6523 12.061 14.2715 11.8901C13.8955 11.7144 13.5781 11.4629 13.3193 11.1357C13.0605 10.8086 12.853 10.4131 12.6968 9.94922C12.5454 9.48535 12.4404 8.96289 12.3818 8.38184V7.70801C12.4404 7.12207 12.5454 6.59717 12.6968 6.1333C12.853 5.66943 13.0605 5.27393 13.3193 4.94678C13.5781 4.61475 13.8955 4.36328 14.2715 4.19238C14.6475 4.0166 15.0845 3.92871 15.5825 3.92871C16.0806 3.92871 16.5225 4.02637 16.9082 4.22168C17.2939 4.41211 17.6162 4.68555 17.875 5.04199C18.1387 5.39844 18.3389 5.82568 18.4756 6.32373C18.6123 6.81689 18.6807 7.36621 18.6807 7.97168ZM17.3184 8.12549V7.97168C17.3184 7.57617 17.2817 7.20508 17.2085 6.8584C17.1353 6.50684 17.0181 6.19922 16.8569 5.93555C16.6958 5.66699 16.4834 5.45703 16.2197 5.30566C15.9561 5.14941 15.6313 5.07129 15.2456 5.07129C14.9038 5.07129 14.606 5.12988 14.3521 5.24707C14.103 5.36426 13.8906 5.52295 13.7148 5.72314C13.5391 5.91846 13.395 6.14307 13.2827 6.39697C13.1753 6.646 13.0947 6.90479 13.041 7.17334V8.93848C13.1191 9.28027 13.2461 9.60986 13.4219 9.92725C13.6025 10.2397 13.8418 10.4961 14.1396 10.6963C14.4424 10.8965 14.8159 10.9966 15.2603 10.9966C15.6265 10.9966 15.939 10.9233 16.1978 10.7769C16.4614 10.6255 16.6738 10.418 16.835 10.1543C17.001 9.89062 17.123 9.58545 17.2012 9.23877C17.2793 8.89209 17.3184 8.521 17.3184 8.12549ZM23.6831 12.1465C23.1313 12.1465 22.6309 12.0537 22.1816 11.8682C21.7373 11.6777 21.354 11.4116 21.0317 11.0698C20.7144 10.728 20.4702 10.3228 20.2993 9.854C20.1284 9.38525 20.043 8.87256 20.043 8.31592V8.0083C20.043 7.36377 20.1382 6.79004 20.3286 6.28711C20.519 5.7793 20.7778 5.34961 21.105 4.99805C21.4321 4.64648 21.8032 4.38037 22.2183 4.19971C22.6333 4.01904 23.063 3.92871 23.5073 3.92871C24.0737 3.92871 24.562 4.02637 24.9722 4.22168C25.3872 4.41699 25.7266 4.69043 25.9902 5.04199C26.2539 5.38867 26.4492 5.79883 26.5762 6.27246C26.7031 6.74121 26.7666 7.25391 26.7666 7.81055V8.41846H20.8486V7.3125H25.4116V7.20996C25.3921 6.8584 25.3188 6.5166 25.1919 6.18457C25.0698 5.85254 24.8745 5.5791 24.606 5.36426C24.3374 5.14941 23.9712 5.04199 23.5073 5.04199C23.1997 5.04199 22.9165 5.10791 22.6577 5.23975C22.3989 5.3667 22.1768 5.55713 21.9912 5.81104C21.8057 6.06494 21.6616 6.375 21.5591 6.74121C21.4565 7.10742 21.4053 7.52979 21.4053 8.0083V8.31592C21.4053 8.69189 21.4565 9.0459 21.5591 9.37793C21.6665 9.70508 21.8203 9.99316 22.0205 10.2422C22.2256 10.4912 22.4722 10.6865 22.7603 10.8281C23.0532 10.9697 23.3853 11.0405 23.7563 11.0405C24.2349 11.0405 24.6401 10.9429 24.9722 10.7476C25.3042 10.5522 25.5947 10.291 25.8438 9.96387L26.6641 10.6157C26.4932 10.8745 26.2759 11.1211 26.0122 11.3555C25.7485 11.5898 25.4238 11.7803 25.0381 11.9268C24.6572 12.0732 24.2056 12.1465 23.6831 12.1465ZM29.7036 5.32031V12H28.3486V4.0752H29.667L29.7036 5.32031ZM32.1792 4.03125L32.1719 5.29102C32.0596 5.2666 31.9521 5.25195 31.8496 5.24707C31.752 5.2373 31.6396 5.23242 31.5127 5.23242C31.2002 5.23242 30.9243 5.28125 30.6851 5.37891C30.4458 5.47656 30.2432 5.61328 30.0771 5.78906C29.9111 5.96484 29.7793 6.1748 29.6816 6.41895C29.5889 6.6582 29.5278 6.92188 29.4985 7.20996L29.1177 7.42969C29.1177 6.95117 29.1641 6.50195 29.2568 6.08203C29.3545 5.66211 29.5034 5.29102 29.7036 4.96875C29.9038 4.6416 30.1577 4.3877 30.4653 4.20703C30.7778 4.02148 31.1489 3.92871 31.5786 3.92871C31.6763 3.92871 31.7886 3.94092 31.9155 3.96533C32.0425 3.98486 32.1304 4.00684 32.1792 4.03125ZM41.0049 1.33594V12H39.6133V1.33594H41.0049ZM44.4326 1.33594V2.49316H36.1929V1.33594H44.4326ZM48.3657 12.1465C47.814 12.1465 47.3135 12.0537 46.8643 11.8682C46.4199 11.6777 46.0366 11.4116 45.7144 11.0698C45.397 10.728 45.1528 10.3228 44.9819 9.854C44.811 9.38525 44.7256 8.87256 44.7256 8.31592V8.0083C44.7256 7.36377 44.8208 6.79004 45.0112 6.28711C45.2017 5.7793 45.4604 5.34961 45.7876 4.99805C46.1147 4.64648 46.4858 4.38037 46.9009 4.19971C47.3159 4.01904 47.7456 3.92871 48.1899 3.92871C48.7563 3.92871 49.2446 4.02637 49.6548 4.22168C50.0698 4.41699 50.4092 4.69043 50.6729 5.04199C50.9365 5.38867 51.1318 5.79883 51.2588 6.27246C51.3857 6.74121 51.4492 7.25391 51.4492 7.81055V8.41846H45.5312V7.3125H50.0942V7.20996C50.0747 6.8584 50.0015 6.5166 49.8745 6.18457C49.7524 5.85254 49.5571 5.5791 49.2886 5.36426C49.02 5.14941 48.6538 5.04199 48.1899 5.04199C47.8823 5.04199 47.5991 5.10791 47.3403 5.23975C47.0815 5.3667 46.8594 5.55713 46.6738 5.81104C46.4883 6.06494 46.3442 6.375 46.2417 6.74121C46.1392 7.10742 46.0879 7.52979 46.0879 8.0083V8.31592C46.0879 8.69189 46.1392 9.0459 46.2417 9.37793C46.3491 9.70508 46.5029 9.99316 46.7031 10.2422C46.9082 10.4912 47.1548 10.6865 47.4429 10.8281C47.7358 10.9697 48.0679 11.0405 48.439 11.0405C48.9175 11.0405 49.3228 10.9429 49.6548 10.7476C49.9868 10.5522 50.2773 10.291 50.5264 9.96387L51.3467 10.6157C51.1758 10.8745 50.9585 11.1211 50.6948 11.3555C50.4312 11.5898 50.1064 11.7803 49.7207 11.9268C49.3398 12.0732 48.8882 12.1465 48.3657 12.1465ZM56.2026 11.0332C56.5249 11.0332 56.8228 10.9673 57.0962 10.8354C57.3696 10.7036 57.5942 10.5229 57.77 10.2935C57.9458 10.0591 58.0459 9.79297 58.0703 9.49512H59.3594C59.335 9.96387 59.1763 10.4009 58.8833 10.8062C58.5952 11.2065 58.2168 11.5312 57.748 11.7803C57.2793 12.0244 56.7642 12.1465 56.2026 12.1465C55.6069 12.1465 55.0869 12.0415 54.6426 11.8315C54.2031 11.6216 53.8369 11.3335 53.5439 10.9673C53.2559 10.6011 53.0386 10.1812 52.8921 9.70752C52.7505 9.229 52.6797 8.72363 52.6797 8.19141V7.88379C52.6797 7.35156 52.7505 6.84863 52.8921 6.375C53.0386 5.89648 53.2559 5.47412 53.5439 5.10791C53.8369 4.7417 54.2031 4.45361 54.6426 4.24365C55.0869 4.03369 55.6069 3.92871 56.2026 3.92871C56.8228 3.92871 57.3647 4.05566 57.8286 4.30957C58.2925 4.55859 58.6562 4.90039 58.9199 5.33496C59.1885 5.76465 59.335 6.25293 59.3594 6.7998H58.0703C58.0459 6.47266 57.9531 6.17725 57.792 5.91357C57.6357 5.6499 57.4209 5.43994 57.1475 5.28369C56.8789 5.12256 56.564 5.04199 56.2026 5.04199C55.7876 5.04199 55.4385 5.125 55.1553 5.29102C54.877 5.45215 54.6548 5.67188 54.4888 5.9502C54.3276 6.22363 54.2104 6.52881 54.1372 6.86572C54.0688 7.19775 54.0347 7.53711 54.0347 7.88379V8.19141C54.0347 8.53809 54.0688 8.87988 54.1372 9.2168C54.2056 9.55371 54.3203 9.85889 54.4814 10.1323C54.6475 10.4058 54.8696 10.6255 55.1479 10.7915C55.4312 10.9526 55.7827 11.0332 56.2026 11.0332ZM62.2378 0.75V12H60.8828V0.75H62.2378ZM61.9155 7.7373L61.3516 7.71533C61.3564 7.17334 61.437 6.67285 61.5933 6.21387C61.7495 5.75 61.9692 5.34717 62.2524 5.00537C62.5356 4.66357 62.8726 4.3999 63.2632 4.21436C63.6587 4.02393 64.0957 3.92871 64.5742 3.92871C64.9648 3.92871 65.3164 3.98242 65.6289 4.08984C65.9414 4.19238 66.2075 4.3584 66.4272 4.58789C66.6519 4.81738 66.8228 5.11523 66.9399 5.48145C67.0571 5.84277 67.1157 6.28467 67.1157 6.80713V12H65.7534V6.79248C65.7534 6.37744 65.6924 6.04541 65.5703 5.79639C65.4482 5.54248 65.27 5.35938 65.0356 5.24707C64.8013 5.12988 64.5132 5.07129 64.1714 5.07129C63.8345 5.07129 63.5269 5.14209 63.2485 5.28369C62.9751 5.42529 62.7383 5.62061 62.5381 5.86963C62.3428 6.11865 62.189 6.4043 62.0767 6.72656C61.9692 7.04395 61.9155 7.38086 61.9155 7.7373ZM70.4995 5.76709V12H69.1445V4.0752H70.4263L70.4995 5.76709ZM70.1772 7.7373L69.6133 7.71533C69.6182 7.17334 69.6987 6.67285 69.855 6.21387C70.0112 5.75 70.231 5.34717 70.5142 5.00537C70.7974 4.66357 71.1343 4.3999 71.5249 4.21436C71.9204 4.02393 72.3574 3.92871 72.8359 3.92871C73.2266 3.92871 73.5781 3.98242 73.8906 4.08984C74.2031 4.19238 74.4692 4.3584 74.689 4.58789C74.9136 4.81738 75.0845 5.11523 75.2017 5.48145C75.3188 5.84277 75.3774 6.28467 75.3774 6.80713V12H74.0151V6.79248C74.0151 6.37744 73.9541 6.04541 73.832 5.79639C73.71 5.54248 73.5317 5.35938 73.2974 5.24707C73.063 5.12988 72.7749 5.07129 72.4331 5.07129C72.0962 5.07129 71.7886 5.14209 71.5103 5.28369C71.2368 5.42529 71 5.62061 70.7998 5.86963C70.6045 6.11865 70.4507 6.4043 70.3384 6.72656C70.231 7.04395 70.1772 7.38086 70.1772 7.7373ZM78.9077 4.0752V12H77.5454V4.0752H78.9077ZM77.4429 1.97314C77.4429 1.75342 77.5088 1.56787 77.6406 1.4165C77.7773 1.26514 77.9775 1.18945 78.2412 1.18945C78.5 1.18945 78.6978 1.26514 78.8345 1.4165C78.9761 1.56787 79.0469 1.75342 79.0469 1.97314C79.0469 2.18311 78.9761 2.36377 78.8345 2.51514C78.6978 2.66162 78.5 2.73486 78.2412 2.73486C77.9775 2.73486 77.7773 2.66162 77.6406 2.51514C77.5088 2.36377 77.4429 2.18311 77.4429 1.97314ZM84.2544 11.0332C84.5767 11.0332 84.8745 10.9673 85.1479 10.8354C85.4214 10.7036 85.646 10.5229 85.8218 10.2935C85.9976 10.0591 86.0977 9.79297 86.1221 9.49512H87.4111C87.3867 9.96387 87.228 10.4009 86.9351 10.8062C86.647 11.2065 86.2686 11.5312 85.7998 11.7803C85.3311 12.0244 84.8159 12.1465 84.2544 12.1465C83.6587 12.1465 83.1387 12.0415 82.6943 11.8315C82.2549 11.6216 81.8887 11.3335 81.5957 10.9673C81.3076 10.6011 81.0903 10.1812 80.9438 9.70752C80.8022 9.229 80.7314 8.72363 80.7314 8.19141V7.88379C80.7314 7.35156 80.8022 6.84863 80.9438 6.375C81.0903 5.89648 81.3076 5.47412 81.5957 5.10791C81.8887 4.7417 82.2549 4.45361 82.6943 4.24365C83.1387 4.03369 83.6587 3.92871 84.2544 3.92871C84.8745 3.92871 85.4165 4.05566 85.8804 4.30957C86.3442 4.55859 86.708 4.90039 86.9717 5.33496C87.2402 5.76465 87.3867 6.25293 87.4111 6.7998H86.1221C86.0977 6.47266 86.0049 6.17725 85.8438 5.91357C85.6875 5.6499 85.4727 5.43994 85.1992 5.28369C84.9307 5.12256 84.6157 5.04199 84.2544 5.04199C83.8394 5.04199 83.4902 5.125 83.207 5.29102C82.9287 5.45215 82.7065 5.67188 82.5405 5.9502C82.3794 6.22363 82.2622 6.52881 82.189 6.86572C82.1206 7.19775 82.0864 7.53711 82.0864 7.88379V8.19141C82.0864 8.53809 82.1206 8.87988 82.189 9.2168C82.2573 9.55371 82.3721 9.85889 82.5332 10.1323C82.6992 10.4058 82.9214 10.6255 83.1997 10.7915C83.4829 10.9526 83.8345 11.0332 84.2544 11.0332ZM90.4067 4.0752V12H89.0444V4.0752H90.4067ZM88.9419 1.97314C88.9419 1.75342 89.0078 1.56787 89.1396 1.4165C89.2764 1.26514 89.4766 1.18945 89.7402 1.18945C89.999 1.18945 90.1968 1.26514 90.3335 1.4165C90.4751 1.56787 90.5459 1.75342 90.5459 1.97314C90.5459 2.18311 90.4751 2.36377 90.3335 2.51514C90.1968 2.66162 89.999 2.73486 89.7402 2.73486C89.4766 2.73486 89.2764 2.66162 89.1396 2.51514C89.0078 2.36377 88.9419 2.18311 88.9419 1.97314ZM97.2549 10.645V6.56543C97.2549 6.25293 97.1914 5.98193 97.0645 5.75244C96.9424 5.51807 96.7568 5.3374 96.5078 5.21045C96.2588 5.0835 95.9512 5.02002 95.585 5.02002C95.2432 5.02002 94.9429 5.07861 94.6841 5.1958C94.4302 5.31299 94.23 5.4668 94.0835 5.65723C93.9419 5.84766 93.8711 6.05273 93.8711 6.27246H92.5161C92.5161 5.98926 92.5894 5.7085 92.7358 5.43018C92.8823 5.15186 93.0923 4.90039 93.3657 4.67578C93.644 4.44629 93.9761 4.26562 94.3618 4.13379C94.7524 3.99707 95.187 3.92871 95.6655 3.92871C96.2417 3.92871 96.7495 4.02637 97.189 4.22168C97.6333 4.41699 97.98 4.7124 98.229 5.10791C98.4829 5.49854 98.6099 5.98926 98.6099 6.58008V10.2715C98.6099 10.5352 98.6318 10.8159 98.6758 11.1138C98.7246 11.4116 98.7954 11.668 98.8882 11.8828V12H97.4746C97.4062 11.8438 97.3525 11.6362 97.3135 11.3774C97.2744 11.1138 97.2549 10.8696 97.2549 10.645ZM97.4893 7.19531L97.5039 8.14746H96.1343C95.7485 8.14746 95.4043 8.1792 95.1016 8.24268C94.7988 8.30127 94.5449 8.3916 94.3398 8.51367C94.1348 8.63574 93.9785 8.78955 93.8711 8.9751C93.7637 9.15576 93.71 9.36816 93.71 9.6123C93.71 9.86133 93.7661 10.0884 93.8784 10.2935C93.9907 10.4985 94.1592 10.6621 94.3838 10.7842C94.6133 10.9014 94.894 10.96 95.2261 10.96C95.6411 10.96 96.0073 10.8721 96.3247 10.6963C96.6421 10.5205 96.8936 10.3057 97.0791 10.0518C97.2695 9.79785 97.3721 9.55127 97.3867 9.31201L97.9653 9.96387C97.9312 10.1689 97.8384 10.396 97.687 10.645C97.5356 10.894 97.333 11.1333 97.0791 11.3628C96.8301 11.5874 96.5322 11.7754 96.1855 11.9268C95.8438 12.0732 95.458 12.1465 95.0283 12.1465C94.4912 12.1465 94.02 12.0415 93.6147 11.8315C93.2144 11.6216 92.9019 11.3408 92.6772 10.9893C92.4575 10.6328 92.3477 10.2349 92.3477 9.79541C92.3477 9.37061 92.4307 8.99707 92.5967 8.6748C92.7627 8.34766 93.002 8.07666 93.3145 7.86182C93.627 7.64209 94.0029 7.47607 94.4424 7.36377C94.8818 7.25146 95.3726 7.19531 95.9146 7.19531H97.4893ZM102.096 5.76709V12H100.741V4.0752H102.023L102.096 5.76709ZM101.774 7.7373L101.21 7.71533C101.215 7.17334 101.295 6.67285 101.452 6.21387C101.608 5.75 101.828 5.34717 102.111 5.00537C102.394 4.66357 102.731 4.3999 103.122 4.21436C103.517 4.02393 103.954 3.92871 104.433 3.92871C104.823 3.92871 105.175 3.98242 105.487 4.08984C105.8 4.19238 106.066 4.3584 106.286 4.58789C106.51 4.81738 106.681 5.11523 106.798 5.48145C106.916 5.84277 106.974 6.28467 106.974 6.80713V12H105.612V6.79248C105.612 6.37744 105.551 6.04541 105.429 5.79639C105.307 5.54248 105.128 5.35938 104.894 5.24707C104.66 5.12988 104.372 5.07129 104.03 5.07129C103.693 5.07129 103.385 5.14209 103.107 5.28369C102.833 5.42529 102.597 5.62061 102.396 5.86963C102.201 6.11865 102.047 6.4043 101.935 6.72656C101.828 7.04395 101.774 7.38086 101.774 7.7373Z" fill="#B3B3B3"/>
</svg>
