<svg width="28" height="28" viewBox="0 0 28 28" fill="none" xmlns="http://www.w3.org/2000/svg">
<path fill-rule="evenodd" clip-rule="evenodd" d="M9.29303 11.2932C9.48056 11.1057 9.73487 11.0004 10 11.0004C10.2652 11.0004 10.5195 11.1057 10.707 11.2932L14 14.5862L17.293 11.2932C17.4816 11.1111 17.7342 11.0103 17.9964 11.0125C18.2586 11.0148 18.5094 11.12 18.6948 11.3054C18.8803 11.4908 18.9854 11.7416 18.9877 12.0038C18.99 12.266 18.8892 12.5186 18.707 12.7072L14.707 16.7072C14.5195 16.8947 14.2652 17 14 17C13.7349 17 13.4806 16.8947 13.293 16.7072L9.29303 12.7072C9.10556 12.5197 9.00024 12.2654 9.00024 12.0002C9.00024 11.735 9.10556 11.4807 9.29303 11.2932Z" fill="white"/>
</svg>
