<svg width="988" height="352" viewBox="0 0 988 352" fill="none" xmlns="http://www.w3.org/2000/svg">
<rect x="59.8125" y="48.6797" width="928.186" height="1.24823" fill="#E7E8F2"/>
<rect x="59.8125" y="92.3672" width="928.186" height="2.49645" fill="#E7E8F2"/>
<rect x="59.8125" y="4.99219" width="928.186" height="1.24823" fill="#E7E8F2"/>
<rect x="59.8125" y="137.305" width="928.186" height="1.24823" fill="#E7E8F2"/>
<rect x="59.8125" y="180.992" width="928.186" height="1.24823" fill="#E7E8F2"/>
<rect x="59.8125" y="224.68" width="928.186" height="1.24823" fill="#E7E8F2"/>
<rect x="59.8125" y="268.367" width="928.186" height="2.49645" fill="#E7E8F2"/>
<rect x="59.8125" y="313.305" width="928.186" height="1.24823" fill="#E7E8F2"/>
<g clip-path="url(#clip0_325_27226)">
<path d="M35.241 89V97H34.2722V90.0156H34.2253L32.2722 91.3125V90.3281L34.2722 89H35.241ZM40.1511 97.1094C39.5626 97.1094 39.0613 96.9492 38.6472 96.6289C38.2332 96.306 37.9167 95.8385 37.698 95.2266C37.4792 94.612 37.3699 93.8698 37.3699 93C37.3699 92.1354 37.4792 91.3971 37.698 90.7852C37.9194 90.1706 38.2371 89.7018 38.6511 89.3789C39.0678 89.0534 39.5678 88.8906 40.1511 88.8906C40.7345 88.8906 41.2332 89.0534 41.6472 89.3789C42.0639 89.7018 42.3816 90.1706 42.6003 90.7852C42.8217 91.3971 42.9324 92.1354 42.9324 93C42.9324 93.8698 42.823 94.612 42.6042 95.2266C42.3855 95.8385 42.0691 96.306 41.655 96.6289C41.241 96.9492 40.7397 97.1094 40.1511 97.1094ZM40.1511 96.25C40.7345 96.25 41.1876 95.9687 41.5105 95.4062C41.8334 94.8437 41.9949 94.0417 41.9949 93C41.9949 92.3073 41.9207 91.7174 41.7722 91.2305C41.6264 90.7435 41.4154 90.3724 41.1394 90.1172C40.866 89.862 40.5365 89.7344 40.1511 89.7344C39.573 89.7344 39.1212 90.0195 38.7957 90.5898C38.4701 91.1576 38.3074 91.9609 38.3074 93C38.3074 93.6927 38.3803 94.2812 38.5261 94.7656C38.672 95.25 38.8816 95.6185 39.155 95.8711C39.4311 96.1237 39.7631 96.25 40.1511 96.25ZM47.0261 97.1094C46.4376 97.1094 45.9363 96.9492 45.5222 96.6289C45.1082 96.306 44.7917 95.8385 44.573 95.2266C44.3542 94.612 44.2449 93.8698 44.2449 93C44.2449 92.1354 44.3542 91.3971 44.573 90.7852C44.7944 90.1706 45.1121 89.7018 45.5261 89.3789C45.9428 89.0534 46.4428 88.8906 47.0261 88.8906C47.6095 88.8906 48.1082 89.0534 48.5222 89.3789C48.9389 89.7018 49.2566 90.1706 49.4753 90.7852C49.6967 91.3971 49.8074 92.1354 49.8074 93C49.8074 93.8698 49.698 94.612 49.4792 95.2266C49.2605 95.8385 48.9441 96.306 48.53 96.6289C48.116 96.9492 47.6147 97.1094 47.0261 97.1094ZM47.0261 96.25C47.6095 96.25 48.0626 95.9687 48.3855 95.4062C48.7084 94.8437 48.8699 94.0417 48.8699 93C48.8699 92.3073 48.7957 91.7174 48.6472 91.2305C48.5014 90.7435 48.2904 90.3724 48.0144 90.1172C47.741 89.862 47.4115 89.7344 47.0261 89.7344C46.448 89.7344 45.9962 90.0195 45.6707 90.5898C45.3451 91.1576 45.1824 91.9609 45.1824 93C45.1824 93.6927 45.2553 94.2812 45.4011 94.7656C45.547 95.25 45.7566 95.6185 46.03 95.8711C46.3061 96.1237 46.6381 96.25 47.0261 96.25Z" fill="#0F151F"/>
<path d="M34.5029 45V53H33.5341V46.0156H33.4873L31.5341 47.3125V46.3281L33.5341 45H34.5029ZM36.8037 53V52.2969L39.4443 49.4062C39.7542 49.0677 40.0094 48.7734 40.2099 48.5234C40.4104 48.2708 40.5589 48.0339 40.6552 47.8125C40.7542 47.5885 40.8037 47.3542 40.8037 47.1094C40.8037 46.8281 40.736 46.5846 40.6005 46.3789C40.4677 46.1732 40.2854 46.0143 40.0537 45.9023C39.8219 45.7904 39.5615 45.7344 39.2724 45.7344C38.9651 45.7344 38.6969 45.7982 38.4677 45.9258C38.2412 46.0508 38.0654 46.2266 37.9404 46.4531C37.818 46.6797 37.7568 46.9453 37.7568 47.25H36.8349C36.8349 46.7812 36.943 46.3698 37.1591 46.0156C37.3753 45.6615 37.6696 45.3854 38.0419 45.1875C38.4169 44.9896 38.8375 44.8906 39.3037 44.8906C39.7724 44.8906 40.1878 44.9896 40.5498 45.1875C40.9117 45.3854 41.1956 45.6523 41.4013 45.9883C41.6071 46.3242 41.7099 46.6979 41.7099 47.1094C41.7099 47.4036 41.6565 47.6914 41.5498 47.9727C41.4456 48.2513 41.2633 48.5625 41.0029 48.9062C40.7451 49.2474 40.387 49.6641 39.9287 50.1562L38.1318 52.0781V52.1406H41.8505V53H36.8037ZM46.0732 53.1094C45.4847 53.1094 44.9834 52.9492 44.5693 52.6289C44.1552 52.306 43.8388 51.8385 43.6201 51.2266C43.4013 50.612 43.2919 49.8698 43.2919 49C43.2919 48.1354 43.4013 47.3971 43.6201 46.7852C43.8414 46.1706 44.1591 45.7018 44.5732 45.3789C44.9899 45.0534 45.4899 44.8906 46.0732 44.8906C46.6565 44.8906 47.1552 45.0534 47.5693 45.3789C47.986 45.7018 48.3037 46.1706 48.5224 46.7852C48.7438 47.3971 48.8544 48.1354 48.8544 49C48.8544 49.8698 48.7451 50.612 48.5263 51.2266C48.3076 51.8385 47.9912 52.306 47.5771 52.6289C47.163 52.9492 46.6617 53.1094 46.0732 53.1094ZM46.0732 52.25C46.6565 52.25 47.1097 51.9687 47.4326 51.4062C47.7555 50.8437 47.9169 50.0417 47.9169 49C47.9169 48.3073 47.8427 47.7174 47.6943 47.2305C47.5485 46.7435 47.3375 46.3724 47.0615 46.1172C46.788 45.862 46.4586 45.7344 46.0732 45.7344C45.4951 45.7344 45.0432 46.0195 44.7177 46.5898C44.3922 47.1576 44.2294 47.9609 44.2294 49C44.2294 49.6927 44.3024 50.2812 44.4482 50.7656C44.594 51.25 44.8037 51.6185 45.0771 51.8711C45.3531 52.1237 45.6852 52.25 46.0732 52.25Z" fill="#0F151F"/>
<path d="M34.1054 -2.38419e-07V8H33.1367V1.01562H33.0898L31.1367 2.3125V1.32812L33.1367 -2.38419e-07H34.1054ZM36.2187 6.35937V5.5625L39.7343 -2.38419e-07H40.3125V1.23438H39.9218L37.2656 5.4375V5.5H42V6.35937H36.2187ZM39.9843 8V6.11719V5.74609V-2.38419e-07H40.9062V8H39.9843ZM46.0732 8.10937C45.4847 8.10937 44.9834 7.94922 44.5693 7.62891C44.1552 7.30599 43.8388 6.83854 43.6201 6.22656C43.4013 5.61198 43.2919 4.86979 43.2919 4C43.2919 3.13542 43.4013 2.39714 43.6201 1.78516C43.8414 1.17057 44.1591 0.701823 44.5732 0.378906C44.9899 0.0533851 45.4899 -0.109375 46.0732 -0.109375C46.6565 -0.109375 47.1552 0.0533851 47.5693 0.378906C47.986 0.701823 48.3037 1.17057 48.5224 1.78516C48.7438 2.39714 48.8544 3.13542 48.8544 4C48.8544 4.86979 48.7451 5.61198 48.5263 6.22656C48.3076 6.83854 47.9912 7.30599 47.5771 7.62891C47.163 7.94922 46.6617 8.10937 46.0732 8.10937ZM46.0732 7.25C46.6565 7.25 47.1097 6.96875 47.4326 6.40625C47.7555 5.84375 47.9169 5.04167 47.9169 4C47.9169 3.30729 47.8427 2.71745 47.6943 2.23047C47.5485 1.74349 47.3375 1.3724 47.0615 1.11719C46.788 0.861979 46.4586 0.734375 46.0732 0.734375C45.4951 0.734375 45.0432 1.01953 44.7177 1.58984C44.3922 2.15755 44.2294 2.96094 44.2294 4C44.2294 4.69271 44.3024 5.28125 44.4482 5.76562C44.594 6.25 44.8037 6.61849 45.0771 6.87109C45.3531 7.1237 45.6852 7.25 46.0732 7.25Z" fill="#0F151F"/>
<path d="M39.3821 140.109C38.8456 140.109 38.3717 140.014 37.9602 139.824C37.5514 139.632 37.2324 139.367 37.0032 139.031C36.774 138.693 36.6607 138.307 36.6633 137.875C36.6607 137.536 36.7272 137.224 36.8626 136.937C36.998 136.648 37.1829 136.408 37.4173 136.215C37.6542 136.02 37.9186 135.896 38.2102 135.844V135.797C37.8274 135.698 37.5227 135.483 37.2962 135.152C37.0696 134.819 36.9576 134.44 36.9602 134.016C36.9576 133.609 37.0605 133.246 37.2688 132.926C37.4772 132.605 37.7636 132.353 38.1282 132.168C38.4954 131.983 38.9133 131.891 39.3821 131.891C39.8456 131.891 40.2597 131.983 40.6243 132.168C40.9889 132.353 41.2753 132.605 41.4837 132.926C41.6946 133.246 41.8014 133.609 41.804 134.016C41.8014 134.44 41.6855 134.819 41.4563 135.152C41.2298 135.483 40.929 135.698 40.554 135.797V135.844C40.843 135.896 41.1035 136.02 41.3352 136.215C41.567 136.408 41.7519 136.648 41.8899 136.937C42.0279 137.224 42.0982 137.536 42.1008 137.875C42.0982 138.307 41.9811 138.693 41.7493 139.031C41.5201 139.367 41.2011 139.632 40.7923 139.824C40.386 140.014 39.916 140.109 39.3821 140.109ZM39.3821 139.25C39.7441 139.25 40.0566 139.191 40.3196 139.074C40.5826 138.957 40.7857 138.792 40.929 138.578C41.0722 138.365 41.1451 138.115 41.1477 137.828C41.1451 137.526 41.067 137.259 40.9133 137.027C40.7597 136.796 40.5501 136.613 40.2844 136.48C40.0214 136.348 39.7206 136.281 39.3821 136.281C39.041 136.281 38.7363 136.348 38.468 136.48C38.2024 136.613 37.9928 136.796 37.8391 137.027C37.6881 137.259 37.6139 137.526 37.6165 137.828C37.6139 138.115 37.6829 138.365 37.8235 138.578C37.9667 138.792 38.1712 138.957 38.4368 139.074C38.7024 139.191 39.0175 139.25 39.3821 139.25ZM39.3821 135.453C39.6686 135.453 39.9225 135.396 40.1438 135.281C40.3678 135.167 40.5436 135.007 40.6712 134.801C40.7988 134.595 40.8639 134.354 40.8665 134.078C40.8639 133.807 40.8001 133.572 40.6751 133.371C40.5501 133.168 40.3769 133.012 40.1555 132.902C39.9342 132.79 39.6764 132.734 39.3821 132.734C39.0826 132.734 38.8209 132.79 38.5969 132.902C38.373 133.012 38.1998 133.168 38.0774 133.371C37.955 133.572 37.8951 133.807 37.8977 134.078C37.8951 134.354 37.9563 134.595 38.0813 134.801C38.2089 135.007 38.3847 135.167 38.6087 135.281C38.8326 135.396 39.0904 135.453 39.3821 135.453ZM46.2073 140.109C45.6188 140.109 45.1175 139.949 44.7034 139.629C44.2893 139.306 43.9729 138.839 43.7542 138.227C43.5354 137.612 43.426 136.87 43.426 136C43.426 135.135 43.5354 134.397 43.7542 133.785C43.9755 133.171 44.2932 132.702 44.7073 132.379C45.124 132.053 45.624 131.891 46.2073 131.891C46.7906 131.891 47.2893 132.053 47.7034 132.379C48.1201 132.702 48.4378 133.171 48.6565 133.785C48.8779 134.397 48.9885 135.135 48.9885 136C48.9885 136.87 48.8792 137.612 48.6604 138.227C48.4417 138.839 48.1253 139.306 47.7112 139.629C47.2971 139.949 46.7958 140.109 46.2073 140.109ZM46.2073 139.25C46.7906 139.25 47.2438 138.969 47.5667 138.406C47.8896 137.844 48.051 137.042 48.051 136C48.051 135.307 47.9768 134.717 47.8284 134.23C47.6826 133.743 47.4716 133.372 47.1956 133.117C46.9221 132.862 46.5927 132.734 46.2073 132.734C45.6292 132.734 45.1773 133.02 44.8518 133.59C44.5263 134.158 44.3635 134.961 44.3635 136C44.3635 136.693 44.4365 137.281 44.5823 137.766C44.7281 138.25 44.9378 138.618 45.2112 138.871C45.4872 139.124 45.8193 139.25 46.2073 139.25Z" fill="#0F151F"/>
<path d="M39.3428 185.109C39.0147 185.104 38.6866 185.042 38.3585 184.922C38.0303 184.802 37.7309 184.6 37.46 184.316C37.1892 184.03 36.9717 183.643 36.8077 183.156C36.6436 182.667 36.5616 182.052 36.5616 181.312C36.5616 180.604 36.628 179.977 36.7608 179.43C36.8936 178.88 37.0863 178.418 37.3389 178.043C37.5915 177.665 37.8962 177.379 38.253 177.184C38.6124 176.988 39.0173 176.891 39.4678 176.891C39.9158 176.891 40.3142 176.98 40.6631 177.16C41.0147 177.337 41.3012 177.585 41.5225 177.902C41.7439 178.22 41.8871 178.586 41.9522 179H40.9991C40.9105 178.641 40.7387 178.342 40.4835 178.105C40.2283 177.868 39.8897 177.75 39.4678 177.75C38.848 177.75 38.3598 178.02 38.003 178.559C37.6488 179.098 37.4704 179.854 37.4678 180.828H37.5303C37.6762 180.607 37.8493 180.418 38.0499 180.262C38.253 180.103 38.4769 179.98 38.7217 179.895C38.9665 179.809 39.2256 179.766 39.4991 179.766C39.9574 179.766 40.3767 179.88 40.7569 180.109C41.1371 180.336 41.4418 180.65 41.671 181.051C41.9001 181.449 42.0147 181.906 42.0147 182.422C42.0147 182.917 41.904 183.37 41.6827 183.781C41.4613 184.19 41.1501 184.516 40.7491 184.758C40.3506 184.997 39.8819 185.115 39.3428 185.109ZM39.3428 184.25C39.671 184.25 39.9652 184.168 40.2256 184.004C40.4887 183.84 40.6957 183.62 40.8467 183.344C41.0004 183.068 41.0772 182.76 41.0772 182.422C41.0772 182.091 41.003 181.79 40.8546 181.52C40.7087 181.246 40.5069 181.029 40.2491 180.867C39.9939 180.706 39.7022 180.625 39.3741 180.625C39.1267 180.625 38.8962 180.674 38.6827 180.773C38.4691 180.87 38.2816 181.003 38.1202 181.172C37.9613 181.341 37.8363 181.535 37.7452 181.754C37.654 181.97 37.6085 182.198 37.6085 182.437C37.6085 182.755 37.6827 183.052 37.8311 183.328C37.9822 183.604 38.1879 183.827 38.4483 183.996C38.7113 184.165 39.0095 184.25 39.3428 184.25ZM46.1602 185.109C45.5717 185.109 45.0704 184.949 44.6563 184.629C44.2422 184.306 43.9258 183.839 43.7071 183.227C43.4883 182.612 43.379 181.87 43.379 181C43.379 180.135 43.4883 179.397 43.7071 178.785C43.9284 178.171 44.2462 177.702 44.6602 177.379C45.0769 177.053 45.5769 176.891 46.1602 176.891C46.7436 176.891 47.2422 177.053 47.6563 177.379C48.073 177.702 48.3907 178.171 48.6094 178.785C48.8308 179.397 48.9415 180.135 48.9415 181C48.9415 181.87 48.8321 182.612 48.6133 183.227C48.3946 183.839 48.0782 184.306 47.6641 184.629C47.2501 184.949 46.7488 185.109 46.1602 185.109ZM46.1602 184.25C46.7436 184.25 47.1967 183.969 47.5196 183.406C47.8425 182.844 48.004 182.042 48.004 181C48.004 180.307 47.9297 179.717 47.7813 179.23C47.6355 178.743 47.4245 178.372 47.1485 178.117C46.8751 177.862 46.5456 177.734 46.1602 177.734C45.5821 177.734 45.1303 178.02 44.8047 178.59C44.4792 179.158 44.3165 179.961 44.3165 181C44.3165 181.693 44.3894 182.281 44.5352 182.766C44.6811 183.25 44.8907 183.618 45.1641 183.871C45.4402 184.124 45.7722 184.25 46.1602 184.25Z" fill="#0F151F"/>
<path d="M36.3057 225.359V224.562L39.8214 219H40.3995V220.234H40.0089L37.3526 224.437V224.5H42.087V225.359H36.3057ZM40.0714 227V225.117V224.746V219H40.9932V227H40.0714ZM46.1602 227.109C45.5717 227.109 45.0704 226.949 44.6563 226.629C44.2422 226.306 43.9258 225.839 43.7071 225.227C43.4883 224.612 43.379 223.87 43.379 223C43.379 222.135 43.4883 221.397 43.7071 220.785C43.9284 220.171 44.2462 219.702 44.6602 219.379C45.0769 219.053 45.5769 218.891 46.1602 218.891C46.7436 218.891 47.2422 219.053 47.6563 219.379C48.073 219.702 48.3907 220.171 48.6094 220.785C48.8308 221.397 48.9415 222.135 48.9415 223C48.9415 223.87 48.8321 224.612 48.6133 225.227C48.3946 225.839 48.0782 226.306 47.6641 226.629C47.2501 226.949 46.7488 227.109 46.1602 227.109ZM46.1602 226.25C46.7436 226.25 47.1967 225.969 47.5196 225.406C47.8425 224.844 48.004 224.042 48.004 223C48.004 222.307 47.9297 221.717 47.7813 221.23C47.6355 220.743 47.4245 220.372 47.1485 220.117C46.8751 219.862 46.5456 219.734 46.1602 219.734C45.5821 219.734 45.1303 220.02 44.8047 220.59C44.4792 221.158 44.3165 221.961 44.3165 223C44.3165 223.693 44.3894 224.281 44.5352 224.766C44.6811 225.25 44.8907 225.618 45.1641 225.871C45.4402 226.124 45.7722 226.25 46.1602 226.25Z" fill="#0F151F"/>
<path d="M37.0719 272V271.297L39.7125 268.406C40.0224 268.068 40.2776 267.773 40.4781 267.523C40.6786 267.271 40.8271 267.034 40.9234 266.812C41.0224 266.589 41.0719 266.354 41.0719 266.109C41.0719 265.828 41.0041 265.585 40.8687 265.379C40.7359 265.173 40.5536 265.014 40.3219 264.902C40.0901 264.79 39.8297 264.734 39.5406 264.734C39.2333 264.734 38.9651 264.798 38.7359 264.926C38.5094 265.051 38.3336 265.227 38.2086 265.453C38.0862 265.68 38.025 265.945 38.025 266.25H37.1031C37.1031 265.781 37.2112 265.37 37.4273 265.016C37.6435 264.661 37.9377 264.385 38.3101 264.187C38.6851 263.99 39.1057 263.891 39.5719 263.891C40.0406 263.891 40.456 263.99 40.818 264.187C41.1799 264.385 41.4638 264.652 41.6695 264.988C41.8752 265.324 41.9781 265.698 41.9781 266.109C41.9781 266.404 41.9247 266.691 41.818 266.973C41.7138 267.251 41.5315 267.562 41.2711 267.906C41.0133 268.247 40.6552 268.664 40.1969 269.156L38.4 271.078V271.141H42.1187V272H37.0719ZM46.3414 272.109C45.7528 272.109 45.2515 271.949 44.8375 271.629C44.4234 271.306 44.107 270.839 43.8883 270.227C43.6695 269.612 43.5601 268.87 43.5601 268C43.5601 267.135 43.6695 266.397 43.8883 265.785C44.1096 265.171 44.4273 264.702 44.8414 264.379C45.2581 264.053 45.7581 263.891 46.3414 263.891C46.9247 263.891 47.4234 264.053 47.8375 264.379C48.2541 264.702 48.5719 265.171 48.7906 265.785C49.012 266.397 49.1226 267.135 49.1226 268C49.1226 268.87 49.0133 269.612 48.7945 270.227C48.5758 270.839 48.2594 271.306 47.8453 271.629C47.4312 271.949 46.9299 272.109 46.3414 272.109ZM46.3414 271.25C46.9247 271.25 47.3778 270.969 47.7008 270.406C48.0237 269.844 48.1851 269.042 48.1851 268C48.1851 267.307 48.1109 266.717 47.9625 266.23C47.8166 265.743 47.6057 265.372 47.3297 265.117C47.0562 264.862 46.7268 264.734 46.3414 264.734C45.7633 264.734 45.3114 265.02 44.9859 265.59C44.6604 266.158 44.4976 266.961 44.4976 268C44.4976 268.693 44.5706 269.281 44.7164 269.766C44.8622 270.25 45.0719 270.618 45.3453 270.871C45.6213 271.124 45.9534 271.25 46.3414 271.25Z" fill="#0F151F"/>
<path d="M45.6222 316.129C44.9267 316.129 44.3342 315.94 43.8449 315.561C43.3555 315.18 42.9816 314.627 42.7231 313.904C42.4646 313.178 42.3353 312.301 42.3353 311.273C42.3353 310.251 42.4646 309.378 42.7231 308.655C42.9847 307.929 43.3602 307.375 43.8495 306.993C44.3419 306.609 44.9328 306.416 45.6222 306.416C46.3116 306.416 46.901 306.609 47.3903 306.993C47.8828 307.375 48.2582 307.929 48.5168 308.655C48.7784 309.378 48.9092 310.251 48.9092 311.273C48.9092 312.301 48.7799 313.178 48.5214 313.904C48.2629 314.627 47.8889 315.18 47.3996 315.561C46.9102 315.94 46.3178 316.129 45.6222 316.129ZM45.6222 315.114C46.3116 315.114 46.8471 314.781 47.2288 314.116C47.6104 313.452 47.8012 312.504 47.8012 311.273C47.8012 310.454 47.7135 309.757 47.5381 309.181C47.3657 308.606 47.1164 308.167 46.7902 307.866C46.4671 307.564 46.0777 307.413 45.6222 307.413C44.939 307.413 44.405 307.75 44.0203 308.424C43.6356 309.095 43.4433 310.045 43.4433 311.273C43.4433 312.091 43.5294 312.787 43.7018 313.359C43.8741 313.932 44.1219 314.367 44.445 314.666C44.7713 314.964 45.1637 315.114 45.6222 315.114Z" fill="#0F151F"/>
<path d="M76.8064 324.727H77.6871V329.926C77.6871 330.39 77.6018 330.784 77.4314 331.109C77.2609 331.433 77.0206 331.679 76.7105 331.847C76.4004 332.015 76.0346 332.099 75.6132 332.099C75.2155 332.099 74.8615 332.027 74.5514 331.883C74.2413 331.736 73.9974 331.528 73.8199 331.258C73.6423 330.988 73.5535 330.667 73.5535 330.295H74.42C74.42 330.501 74.4709 330.681 74.5727 330.835C74.6769 330.987 74.8189 331.105 74.9988 331.19C75.1788 331.276 75.3836 331.318 75.6132 331.318C75.8665 331.318 76.0819 331.265 76.2595 331.158C76.4371 331.052 76.572 330.896 76.6643 330.69C76.759 330.481 76.8064 330.227 76.8064 329.926V324.727ZM79.7503 332H78.827L81.4974 324.727H82.4065L85.077 332H84.1537L81.9804 325.878H81.9236L79.7503 332ZM80.0912 329.159H83.8128V329.94H80.0912V329.159ZM91.9768 324.727V332H91.1246L87.1615 326.29H87.0905V332H86.2098V324.727H87.0621L91.0393 330.452H91.1104V324.727H91.9768Z" fill="#0F151F"/>
<path d="M153.206 332V324.727H157.567V325.509H154.087V327.966H157.24V328.747H154.087V332H153.206ZM159.075 332V324.727H163.464V325.509H159.956V327.966H163.237V328.747H159.956V331.219H163.521V332H159.075ZM165.052 332V324.727H167.594C168.101 324.727 168.519 324.815 168.848 324.99C169.177 325.163 169.422 325.396 169.583 325.69C169.744 325.981 169.824 326.304 169.824 326.659C169.824 326.972 169.769 327.23 169.657 327.433C169.549 327.637 169.404 327.798 169.224 327.916C169.047 328.035 168.854 328.122 168.645 328.179V328.25C168.868 328.264 169.092 328.342 169.316 328.484C169.541 328.626 169.73 328.83 169.881 329.095C170.033 329.36 170.108 329.685 170.108 330.068C170.108 330.433 170.026 330.761 169.86 331.052C169.694 331.343 169.432 331.574 169.075 331.744C168.718 331.915 168.252 332 167.679 332H165.052ZM165.932 331.219H167.679C168.255 331.219 168.663 331.107 168.905 330.885C169.148 330.66 169.27 330.388 169.27 330.068C169.27 329.822 169.208 329.595 169.082 329.386C168.957 329.176 168.778 329.008 168.546 328.882C168.314 328.754 168.039 328.69 167.722 328.69H165.932V331.219ZM165.932 327.923H167.566C167.831 327.923 168.07 327.871 168.283 327.767C168.499 327.663 168.669 327.516 168.794 327.327C168.922 327.137 168.986 326.915 168.986 326.659C168.986 326.339 168.875 326.068 168.652 325.846C168.43 325.621 168.077 325.509 167.594 325.509H165.932V327.923Z" fill="#0F151F"/>
<path d="M234.355 324.727H235.406L237.878 330.764H237.963L240.435 324.727H241.486V332H240.662V326.474H240.591L238.318 332H237.523L235.25 326.474H235.179V332H234.355V324.727ZM243.55 332H242.627L245.297 324.727H246.206L248.877 332H247.953L245.78 325.878H245.723L243.55 332ZM243.891 329.159H247.613V329.94H243.891V329.159ZM250.01 332V324.727H252.467C253.035 324.727 253.502 324.824 253.866 325.018C254.231 325.21 254.501 325.474 254.676 325.81C254.851 326.147 254.939 326.529 254.939 326.957C254.939 327.386 254.851 327.766 254.676 328.097C254.501 328.429 254.232 328.689 253.87 328.879C253.507 329.066 253.045 329.159 252.481 329.159H250.493V328.364H252.453C252.841 328.364 253.154 328.307 253.39 328.193C253.629 328.08 253.802 327.919 253.909 327.71C254.018 327.5 254.072 327.249 254.072 326.957C254.072 326.666 254.018 326.412 253.909 326.194C253.8 325.976 253.626 325.808 253.387 325.69C253.148 325.569 252.832 325.509 252.439 325.509H250.89V332H250.01ZM253.433 328.733L255.223 332H254.2L252.439 328.733H253.433Z" fill="#0F151F"/>
<path d="M315.428 332H314.505L317.175 324.727H318.084L320.755 332H319.831L317.658 325.878H317.601L315.428 332ZM315.769 329.159H319.491V329.94H315.769V329.159ZM321.888 332V324.727H324.345C324.915 324.727 325.382 324.83 325.744 325.036C326.109 325.24 326.379 325.516 326.554 325.864C326.729 326.212 326.816 326.6 326.816 327.028C326.816 327.457 326.729 327.846 326.554 328.197C326.381 328.547 326.113 328.826 325.751 329.035C325.389 329.241 324.925 329.344 324.359 329.344H322.598V328.562H324.331C324.721 328.562 325.035 328.495 325.272 328.36C325.508 328.225 325.68 328.043 325.787 327.813C325.896 327.581 325.95 327.32 325.95 327.028C325.95 326.737 325.896 326.477 325.787 326.247C325.68 326.018 325.507 325.838 325.268 325.707C325.029 325.575 324.712 325.509 324.316 325.509H322.768V332H321.888ZM328.235 332V324.727H330.693C331.261 324.727 331.727 324.824 332.092 325.018C332.456 325.21 332.726 325.474 332.901 325.81C333.077 326.147 333.164 326.529 333.164 326.957C333.164 327.386 333.077 327.766 332.901 328.097C332.726 328.429 332.457 328.689 332.095 328.879C331.733 329.066 331.27 329.159 330.707 329.159H328.718V328.364H330.678C331.067 328.364 331.379 328.307 331.616 328.193C331.855 328.08 332.028 327.919 332.134 327.71C332.243 327.5 332.298 327.249 332.298 326.957C332.298 326.666 332.243 326.412 332.134 326.194C332.025 325.976 331.851 325.808 331.612 325.69C331.373 325.569 331.057 325.509 330.664 325.509H329.116V332H328.235ZM331.658 328.733L333.448 332H332.426L330.664 328.733H331.658Z" fill="#0F151F"/>
<path d="M396.099 324.727H397.151L399.622 330.764H399.707L402.179 324.727H403.23V332H402.406V326.474H402.335L400.062 332H399.267L396.994 326.474H396.923V332H396.099V324.727ZM405.294 332H404.371L407.041 324.727H407.95L410.621 332H409.698L407.524 325.878H407.468L405.294 332ZM405.635 329.159H409.357V329.94H405.635V329.159ZM410.387 324.727H411.395L413.412 328.122H413.497L415.514 324.727H416.523L413.895 329.003V332H413.014V329.003L410.387 324.727Z" fill="#0F151F"/>
<path d="M477.979 324.727H478.86V329.926C478.86 330.39 478.775 330.784 478.604 331.109C478.434 331.433 478.193 331.679 477.883 331.847C477.573 332.015 477.207 332.099 476.786 332.099C476.388 332.099 476.034 332.027 475.724 331.883C475.414 331.736 475.17 331.528 474.993 331.258C474.815 330.988 474.726 330.667 474.726 330.295H475.593C475.593 330.501 475.644 330.681 475.746 330.835C475.85 330.987 475.992 331.105 476.172 331.19C476.352 331.276 476.556 331.318 476.786 331.318C477.039 331.318 477.255 331.265 477.432 331.158C477.61 331.052 477.745 330.896 477.837 330.69C477.932 330.481 477.979 330.227 477.979 329.926V324.727ZM485.398 324.727H486.278V329.543C486.278 330.04 486.161 330.484 485.927 330.874C485.695 331.263 485.367 331.569 484.943 331.794C484.519 332.017 484.022 332.128 483.452 332.128C482.881 332.128 482.384 332.017 481.96 331.794C481.536 331.569 481.207 331.263 480.973 330.874C480.741 330.484 480.625 330.04 480.625 329.543V324.727H481.506V329.472C481.506 329.827 481.584 330.143 481.74 330.42C481.896 330.694 482.119 330.911 482.407 331.07C482.699 331.226 483.047 331.304 483.452 331.304C483.856 331.304 484.204 331.226 484.496 331.07C484.787 330.911 485.009 330.694 485.163 330.42C485.319 330.143 485.398 329.827 485.398 329.472V324.727ZM493.804 324.727V332H492.952L488.989 326.29H488.918V332H488.037V324.727H488.889L492.866 330.452H492.938V324.727H493.804Z" fill="#0F151F"/>
<path d="M557.931 324.727H558.812V329.926C558.812 330.39 558.727 330.784 558.556 331.109C558.386 331.433 558.146 331.679 557.835 331.847C557.525 332.015 557.16 332.099 556.738 332.099C556.34 332.099 555.987 332.027 555.676 331.883C555.366 331.736 555.122 331.528 554.945 331.258C554.767 330.988 554.679 330.667 554.679 330.295H555.545C555.545 330.501 555.596 330.681 555.698 330.835C555.802 330.987 555.944 331.105 556.124 331.19C556.304 331.276 556.509 331.318 556.738 331.318C556.992 331.318 557.207 331.265 557.384 331.158C557.562 331.052 557.697 330.896 557.789 330.69C557.884 330.481 557.931 330.227 557.931 329.926V324.727ZM565.35 324.727H566.23V329.543C566.23 330.04 566.113 330.484 565.879 330.874C565.647 331.263 565.319 331.569 564.895 331.794C564.471 332.017 563.974 332.128 563.404 332.128C562.833 332.128 562.336 332.017 561.912 331.794C561.488 331.569 561.159 331.263 560.925 330.874C560.693 330.484 560.577 330.04 560.577 329.543V324.727H561.458V329.472C561.458 329.827 561.536 330.143 561.692 330.42C561.848 330.694 562.071 330.911 562.36 331.07C562.651 331.226 562.999 331.304 563.404 331.304C563.809 331.304 564.157 331.226 564.448 331.07C564.739 330.911 564.961 330.694 565.115 330.42C565.272 330.143 565.35 329.827 565.35 329.472V324.727ZM567.989 332V324.727H568.87V331.219H572.25V332H567.989Z" fill="#0F151F"/>
<path d="M634.378 332H633.455L636.125 324.727H637.034L639.705 332H638.782L636.608 325.878H636.551L634.378 332ZM634.719 329.159H638.441V329.94H634.719V329.159ZM645.61 324.727H646.491V329.543C646.491 330.04 646.374 330.484 646.14 330.874C645.908 331.263 645.58 331.569 645.156 331.794C644.732 332.017 644.235 332.128 643.664 332.128C643.094 332.128 642.597 332.017 642.173 331.794C641.749 331.569 641.42 331.263 641.186 330.874C640.954 330.484 640.838 330.04 640.838 329.543V324.727H641.718V329.472C641.718 329.827 641.797 330.143 641.953 330.42C642.109 330.694 642.332 330.911 642.62 331.07C642.912 331.226 643.26 331.304 643.664 331.304C644.069 331.304 644.417 331.226 644.708 331.07C645 330.911 645.222 330.694 645.376 330.42C645.532 330.143 645.61 329.827 645.61 329.472V324.727ZM653.221 327C653.143 326.761 653.04 326.547 652.912 326.357C652.787 326.165 652.637 326.002 652.461 325.867C652.289 325.732 652.092 325.629 651.872 325.558C651.652 325.487 651.41 325.452 651.148 325.452C650.717 325.452 650.325 325.563 649.972 325.786C649.619 326.008 649.339 326.336 649.131 326.769C648.922 327.202 648.818 327.734 648.818 328.364C648.818 328.993 648.923 329.525 649.134 329.958C649.345 330.391 649.63 330.719 649.99 330.942C650.35 331.164 650.755 331.276 651.204 331.276C651.621 331.276 651.988 331.187 652.305 331.009C652.625 330.829 652.873 330.576 653.051 330.249C653.231 329.92 653.321 329.533 653.321 329.088L653.591 329.145H651.403V328.364H654.173V329.145C654.173 329.744 654.045 330.265 653.79 330.707C653.536 331.15 653.186 331.493 652.738 331.737C652.293 331.979 651.782 332.099 651.204 332.099C650.56 332.099 649.995 331.948 649.507 331.645C649.022 331.342 648.643 330.911 648.371 330.352C648.101 329.794 647.966 329.131 647.966 328.364C647.966 327.788 648.043 327.271 648.197 326.812C648.353 326.35 648.573 325.957 648.857 325.633C649.141 325.308 649.477 325.06 649.866 324.887C650.254 324.714 650.681 324.628 651.148 324.628C651.531 324.628 651.889 324.686 652.22 324.802C652.554 324.915 652.851 325.078 653.111 325.288C653.374 325.497 653.593 325.746 653.768 326.038C653.943 326.326 654.064 326.647 654.131 327H653.221Z" fill="#0F151F"/>
<path d="M719.007 326.545C718.965 326.186 718.792 325.906 718.489 325.707C718.186 325.509 717.814 325.409 717.374 325.409C717.052 325.409 716.77 325.461 716.529 325.565C716.29 325.67 716.103 325.813 715.968 325.995C715.835 326.177 715.769 326.384 715.769 326.616C715.769 326.811 715.815 326.978 715.907 327.117C716.002 327.254 716.123 327.369 716.269 327.462C716.416 327.552 716.57 327.626 716.731 327.685C716.892 327.742 717.04 327.788 717.175 327.824L717.914 328.023C718.103 328.072 718.314 328.141 718.546 328.229C718.78 328.316 719.004 328.436 719.217 328.587C719.432 328.737 719.61 328.928 719.75 329.163C719.889 329.397 719.959 329.685 719.959 330.026C719.959 330.419 719.856 330.774 719.65 331.091C719.447 331.408 719.148 331.66 718.755 331.847C718.365 332.034 717.89 332.128 717.331 332.128C716.81 332.128 716.359 332.044 715.978 331.876C715.599 331.708 715.301 331.473 715.083 331.173C714.868 330.872 714.746 330.523 714.718 330.125H715.627C715.65 330.4 715.743 330.627 715.904 330.807C716.067 330.984 716.273 331.117 716.522 331.205C716.773 331.29 717.042 331.332 717.331 331.332C717.667 331.332 717.969 331.278 718.237 331.169C718.504 331.058 718.716 330.904 718.872 330.707C719.029 330.509 719.107 330.277 719.107 330.011C719.107 329.77 719.039 329.573 718.904 329.422C718.769 329.27 718.592 329.147 718.372 329.053C718.152 328.958 717.914 328.875 717.658 328.804L716.763 328.548C716.195 328.385 715.745 328.152 715.414 327.849C715.082 327.546 714.916 327.149 714.916 326.659C714.916 326.252 715.027 325.897 715.247 325.594C715.469 325.288 715.768 325.052 716.142 324.884C716.518 324.713 716.938 324.628 717.402 324.628C717.871 324.628 718.288 324.712 718.652 324.88C719.017 325.046 719.306 325.273 719.519 325.562C719.734 325.851 719.848 326.179 719.86 326.545H719.007ZM721.407 332V324.727H725.796V325.509H722.288V327.966H725.569V328.747H722.288V331.219H725.853V332H721.407ZM727.384 332V324.727H729.841C730.412 324.727 730.878 324.83 731.24 325.036C731.605 325.24 731.875 325.516 732.05 325.864C732.225 326.212 732.313 326.6 732.313 327.028C732.313 327.457 732.225 327.846 732.05 328.197C731.877 328.547 731.609 328.826 731.247 329.035C730.885 329.241 730.421 329.344 729.855 329.344H728.094V328.562H729.827C730.217 328.562 730.531 328.495 730.768 328.36C731.005 328.225 731.176 328.043 731.283 327.813C731.392 327.581 731.446 327.32 731.446 327.028C731.446 326.737 731.392 326.477 731.283 326.247C731.176 326.018 731.003 325.838 730.764 325.707C730.525 325.575 730.208 325.509 729.813 325.509H728.264V332H727.384Z" fill="#0F151F"/>
<path d="M800.363 328.364C800.363 329.131 800.224 329.794 799.947 330.352C799.67 330.911 799.29 331.342 798.807 331.645C798.324 331.948 797.773 332.099 797.153 332.099C796.532 332.099 795.981 331.948 795.498 331.645C795.015 331.342 794.635 330.911 794.358 330.352C794.081 329.794 793.942 329.131 793.942 328.364C793.942 327.597 794.081 326.934 794.358 326.375C794.635 325.816 795.015 325.385 795.498 325.082C795.981 324.779 796.532 324.628 797.153 324.628C797.773 324.628 798.324 324.779 798.807 325.082C799.29 325.385 799.67 325.816 799.947 326.375C800.224 326.934 800.363 327.597 800.363 328.364ZM799.51 328.364C799.51 327.734 799.405 327.202 799.194 326.769C798.986 326.336 798.703 326.008 798.346 325.786C797.991 325.563 797.593 325.452 797.153 325.452C796.712 325.452 796.313 325.563 795.956 325.786C795.601 326.008 795.318 326.336 795.107 326.769C794.899 327.202 794.795 327.734 794.795 328.364C794.795 328.993 794.899 329.525 795.107 329.958C795.318 330.391 795.601 330.719 795.956 330.942C796.313 331.164 796.712 331.276 797.153 331.276C797.593 331.276 797.991 331.164 798.346 330.942C798.703 330.719 798.986 330.391 799.194 329.958C799.405 329.525 799.51 328.993 799.51 328.364ZM807.696 327H806.815C806.763 326.747 806.672 326.524 806.542 326.332C806.414 326.141 806.258 325.98 806.073 325.849C805.891 325.717 805.688 325.617 805.466 325.551C805.243 325.485 805.011 325.452 804.77 325.452C804.329 325.452 803.93 325.563 803.573 325.786C803.218 326.008 802.935 326.336 802.724 326.769C802.516 327.202 802.412 327.734 802.412 328.364C802.412 328.993 802.516 329.525 802.724 329.958C802.935 330.391 803.218 330.719 803.573 330.942C803.93 331.164 804.329 331.276 804.77 331.276C805.011 331.276 805.243 331.242 805.466 331.176C805.688 331.11 805.891 331.012 806.073 330.881C806.258 330.749 806.414 330.587 806.542 330.395C806.672 330.201 806.763 329.978 806.815 329.727H807.696C807.63 330.099 807.509 330.432 807.334 330.725C807.158 331.019 806.941 331.268 806.68 331.474C806.42 331.678 806.127 331.833 805.803 331.94C805.481 332.046 805.137 332.099 804.77 332.099C804.149 332.099 803.598 331.948 803.115 331.645C802.632 331.342 802.252 330.911 801.975 330.352C801.698 329.794 801.559 329.131 801.559 328.364C801.559 327.597 801.698 326.934 801.975 326.375C802.252 325.816 802.632 325.385 803.115 325.082C803.598 324.779 804.149 324.628 804.77 324.628C805.137 324.628 805.481 324.681 805.803 324.788C806.127 324.894 806.42 325.05 806.68 325.256C806.941 325.46 807.158 325.709 807.334 326.002C807.509 326.293 807.63 326.626 807.696 327ZM808.721 325.509V324.727H814.176V325.509H811.889V332H811.008V325.509H808.721Z" fill="#0F151F"/>
<path d="M880.866 324.727V332H880.014L876.051 326.29H875.98V332H875.099V324.727H875.952L879.929 330.452H880V324.727H880.866ZM888.765 328.364C888.765 329.131 888.627 329.794 888.35 330.352C888.073 330.911 887.693 331.342 887.21 331.645C886.727 331.948 886.175 332.099 885.555 332.099C884.935 332.099 884.383 331.948 883.9 331.645C883.417 331.342 883.037 330.911 882.76 330.352C882.483 329.794 882.345 329.131 882.345 328.364C882.345 327.597 882.483 326.934 882.76 326.375C883.037 325.816 883.417 325.385 883.9 325.082C884.383 324.779 884.935 324.628 885.555 324.628C886.175 324.628 886.727 324.779 887.21 325.082C887.693 325.385 888.073 325.816 888.35 326.375C888.627 326.934 888.765 327.597 888.765 328.364ZM887.913 328.364C887.913 327.734 887.807 327.202 887.597 326.769C887.388 326.336 887.106 326.008 886.748 325.786C886.393 325.563 885.995 325.452 885.555 325.452C885.115 325.452 884.716 325.563 884.358 325.786C884.003 326.008 883.72 326.336 883.509 326.769C883.301 327.202 883.197 327.734 883.197 328.364C883.197 328.993 883.301 329.525 883.509 329.958C883.72 330.391 884.003 330.719 884.358 330.942C884.716 331.164 885.115 331.276 885.555 331.276C885.995 331.276 886.393 331.164 886.748 330.942C887.106 330.719 887.388 330.391 887.597 329.958C887.807 329.525 887.913 328.993 887.913 328.364ZM890.202 324.727L892.362 330.849H892.447L894.606 324.727H895.529L892.859 332H891.95L889.279 324.727H890.202Z" fill="#0F151F"/>
<path d="M956.405 332H954.161V324.727H956.505C957.21 324.727 957.814 324.873 958.316 325.164C958.818 325.453 959.202 325.868 959.47 326.411C959.737 326.95 959.871 327.597 959.871 328.349C959.871 329.107 959.736 329.759 959.466 330.306C959.196 330.851 958.803 331.27 958.287 331.563C957.771 331.854 957.144 332 956.405 332ZM955.042 331.219H956.348C956.95 331.219 957.448 331.103 957.843 330.871C958.239 330.639 958.534 330.308 958.728 329.88C958.922 329.451 959.019 328.941 959.019 328.349C959.019 327.762 958.923 327.257 958.731 326.833C958.54 326.407 958.253 326.08 957.872 325.853C957.491 325.623 957.016 325.509 956.448 325.509H955.042V331.219ZM961.348 332V324.727H965.738V325.509H962.229V327.966H965.51V328.747H962.229V331.219H965.794V332H961.348ZM973.177 327H972.297C972.245 326.747 972.153 326.524 972.023 326.332C971.895 326.141 971.739 325.98 971.554 325.849C971.372 325.717 971.17 325.617 970.947 325.551C970.725 325.485 970.493 325.452 970.251 325.452C969.811 325.452 969.412 325.563 969.054 325.786C968.699 326.008 968.416 326.336 968.206 326.769C967.997 327.202 967.893 327.734 967.893 328.364C967.893 328.993 967.997 329.525 968.206 329.958C968.416 330.391 968.699 330.719 969.054 330.942C969.412 331.164 969.811 331.276 970.251 331.276C970.493 331.276 970.725 331.242 970.947 331.176C971.17 331.11 971.372 331.012 971.554 330.881C971.739 330.749 971.895 330.587 972.023 330.395C972.153 330.201 972.245 329.978 972.297 329.727H973.177C973.111 330.099 972.99 330.432 972.815 330.725C972.64 331.019 972.422 331.268 972.162 331.474C971.901 331.678 971.609 331.833 971.285 331.94C970.963 332.046 970.618 332.099 970.251 332.099C969.631 332.099 969.079 331.948 968.596 331.645C968.113 331.342 967.733 330.911 967.456 330.352C967.179 329.794 967.041 329.131 967.041 328.364C967.041 327.597 967.179 326.934 967.456 326.375C967.733 325.816 968.113 325.385 968.596 325.082C969.079 324.779 969.631 324.628 970.251 324.628C970.618 324.628 970.963 324.681 971.285 324.788C971.609 324.894 971.901 325.05 972.162 325.256C972.422 325.46 972.64 325.709 972.815 326.002C972.99 326.293 973.111 326.626 973.177 327Z" fill="#0F151F"/>
</g>
<rect x="60" y="92" width="15" height="221" fill="#009B2B"/>
<rect x="75" y="181" width="15" height="132" fill="#D50036"/>
<rect x="90" y="225" width="15" height="88" fill="#E37762"/>
<rect x="141" y="164" width="15" height="149" fill="#009B2B"/>
<rect x="156" y="225" width="15" height="88" fill="#D50036"/>
<rect x="171" y="248" width="15" height="65" fill="#E37762"/>
<rect x="221" y="200" width="15" height="113" fill="#009B2B"/>
<rect x="236" y="200" width="15" height="113" fill="#D50036"/>
<rect x="251" y="312" width="15" height="1" fill="#E37762"/>
<rect x="300" y="312" width="48" height="1" fill="#D50036"/>
<rect x="382" y="312" width="48" height="1" fill="#D50036"/>
<rect x="462" y="312" width="47" height="1" fill="#D50036"/>
<rect x="541" y="312" width="48" height="1" fill="#D50036"/>
<rect x="621" y="312" width="48" height="1" fill="#D50036"/>
<rect x="700" y="313" width="48" height="1" fill="#D50036"/>
<rect x="779" y="313" width="49" height="1" fill="#D50036"/>
<rect x="859" y="313" width="49" height="1" fill="#D50036"/>
<rect x="939" y="313" width="49" height="1" fill="#D50036"/>
<defs>
<clipPath id="clip0_325_27226">
<rect width="988" height="352" fill="white"/>
</clipPath>
</defs>
</svg>
