<svg width="746" height="282" viewBox="0 0 746 282" fill="none" xmlns="http://www.w3.org/2000/svg">
<rect x="45.1641" y="39" width="700.837" height="1" fill="#E7E8F2"/>
<rect x="45.1641" y="74" width="700.837" height="2" fill="#E7E8F2"/>
<rect x="45.1641" y="4" width="700.837" height="1" fill="#E7E8F2"/>
<rect x="45.1641" y="110" width="700.837" height="1" fill="#E7E8F2"/>
<rect x="45.1641" y="145" width="700.837" height="1" fill="#E7E8F2"/>
<rect x="45.1641" y="180" width="700.837" height="1" fill="#E7E8F2"/>
<rect x="45.1641" y="215" width="700.837" height="2" fill="#E7E8F2"/>
<rect x="45.1641" y="251" width="700.837" height="1" fill="#E7E8F2"/>
<path d="M11.1285 51.2031C10.6702 51.2031 10.2574 51.112 9.89021 50.9297C9.52302 50.7474 9.22875 50.4974 9.00739 50.1797C8.78604 49.862 8.66494 49.5 8.64411 49.0937H9.58161C9.61807 49.4557 9.78213 49.7552 10.0738 49.9922C10.3681 50.2266 10.7196 50.3437 11.1285 50.3437C11.4566 50.3437 11.7483 50.2669 12.0035 50.1133C12.2613 49.9596 12.4631 49.7487 12.609 49.4805C12.7574 49.2096 12.8316 48.9036 12.8316 48.5625C12.8316 48.2135 12.7548 47.9023 12.6011 47.6289C12.4501 47.3529 12.2418 47.1354 11.9761 46.9766C11.7105 46.8177 11.4071 46.737 11.066 46.7344C10.8212 46.7318 10.5699 46.7695 10.3121 46.8477C10.0543 46.9232 9.84203 47.0208 9.67536 47.1406L8.76911 47.0312L9.25349 43.0937H13.4097V43.9531H10.066L9.78474 46.3125H9.83161C9.99567 46.1823 10.2014 46.0742 10.4488 45.9883C10.6962 45.9023 10.954 45.8594 11.2222 45.8594C11.7118 45.8594 12.148 45.9766 12.5308 46.2109C12.9162 46.4427 13.2183 46.7604 13.4371 47.1641C13.6584 47.5677 13.7691 48.0286 13.7691 48.5469C13.7691 49.0573 13.6545 49.513 13.4254 49.9141C13.1988 50.3125 12.8863 50.6276 12.4879 50.8594C12.0894 51.0885 11.6363 51.2031 11.1285 51.2031ZM17.9302 51.2031C17.3417 51.2031 16.8404 51.043 16.4263 50.7227C16.0123 50.3997 15.6959 49.9323 15.4771 49.3203C15.2584 48.7057 15.149 47.9635 15.149 47.0937C15.149 46.2292 15.2584 45.4909 15.4771 44.8789C15.6985 44.2643 16.0162 43.7956 16.4302 43.4727C16.8469 43.1471 17.3469 42.9844 17.9302 42.9844C18.5136 42.9844 19.0123 43.1471 19.4263 43.4727C19.843 43.7956 20.1607 44.2643 20.3795 44.8789C20.6008 45.4909 20.7115 46.2292 20.7115 47.0937C20.7115 47.9635 20.6021 48.7057 20.3834 49.3203C20.1646 49.9323 19.8482 50.3997 19.4342 50.7227C19.0201 51.043 18.5188 51.2031 17.9302 51.2031ZM17.9302 50.3437C18.5136 50.3437 18.9667 50.0625 19.2896 49.5C19.6125 48.9375 19.774 48.1354 19.774 47.0937C19.774 46.401 19.6998 45.8112 19.5513 45.3242C19.4055 44.8372 19.1946 44.4661 18.9185 44.2109C18.6451 43.9557 18.3157 43.8281 17.9302 43.8281C17.3521 43.8281 16.9003 44.1133 16.5748 44.6836C16.2493 45.2513 16.0865 46.0547 16.0865 47.0937C16.0865 47.7865 16.1594 48.375 16.3052 48.8594C16.4511 49.3437 16.6607 49.7122 16.9342 49.9648C17.2102 50.2174 17.5422 50.3437 17.9302 50.3437ZM24.8052 51.2031C24.2167 51.2031 23.7154 51.043 23.3013 50.7227C22.8873 50.3997 22.5709 49.9323 22.3521 49.3203C22.1334 48.7057 22.024 47.9635 22.024 47.0937C22.024 46.2292 22.1334 45.4909 22.3521 44.8789C22.5735 44.2643 22.8912 43.7956 23.3052 43.4727C23.7219 43.1471 24.2219 42.9844 24.8052 42.9844C25.3886 42.9844 25.8873 43.1471 26.3013 43.4727C26.718 43.7956 27.0357 44.2643 27.2545 44.8789C27.4758 45.4909 27.5865 46.2292 27.5865 47.0937C27.5865 47.9635 27.4771 48.7057 27.2584 49.3203C27.0396 49.9323 26.7232 50.3997 26.3092 50.7227C25.8951 51.043 25.3938 51.2031 24.8052 51.2031ZM24.8052 50.3437C25.3886 50.3437 25.8417 50.0625 26.1646 49.5C26.4875 48.9375 26.649 48.1354 26.649 47.0937C26.649 46.401 26.5748 45.8112 26.4263 45.3242C26.2805 44.8372 26.0696 44.4661 25.7935 44.2109C25.5201 43.9557 25.1907 43.8281 24.8052 43.8281C24.2271 43.8281 23.7753 44.1133 23.4498 44.6836C23.1243 45.2513 22.9615 46.0547 22.9615 47.0937C22.9615 47.7865 23.0344 48.375 23.1802 48.8594C23.3261 49.3437 23.5357 49.7122 23.8092 49.9648C24.0852 50.2174 24.4172 50.3437 24.8052 50.3437ZM31.6802 51.2031C31.0917 51.2031 30.5904 51.043 30.1763 50.7227C29.7623 50.3997 29.4459 49.9323 29.2271 49.3203C29.0084 48.7057 28.899 47.9635 28.899 47.0937C28.899 46.2292 29.0084 45.4909 29.2271 44.8789C29.4485 44.2643 29.7662 43.7956 30.1802 43.4727C30.5969 43.1471 31.0969 42.9844 31.6802 42.9844C32.2636 42.9844 32.7623 43.1471 33.1763 43.4727C33.593 43.7956 33.9107 44.2643 34.1295 44.8789C34.3508 45.4909 34.4615 46.2292 34.4615 47.0937C34.4615 47.9635 34.3521 48.7057 34.1334 49.3203C33.9146 49.9323 33.5982 50.3997 33.1842 50.7227C32.7701 51.043 32.2688 51.2031 31.6802 51.2031ZM31.6802 50.3437C32.2636 50.3437 32.7167 50.0625 33.0396 49.5C33.3625 48.9375 33.524 48.1354 33.524 47.0937C33.524 46.401 33.4498 45.8112 33.3013 45.3242C33.1555 44.8372 32.9446 44.4661 32.6685 44.2109C32.3951 43.9557 32.0657 43.8281 31.6802 43.8281C31.1021 43.8281 30.6503 44.1133 30.3248 44.6836C29.9993 45.2513 29.8365 46.0547 29.8365 47.0937C29.8365 47.7865 29.9094 48.375 30.0552 48.8594C30.2011 49.3437 30.4107 49.7122 30.6842 49.9648C30.9602 50.2174 31.2922 50.3437 31.6802 50.3437Z" fill="#0F151F"/>
<path d="M6.14574 3V11H5.17699V4.01562H5.13012L3.17699 5.3125V4.32812L5.17699 3H6.14574ZM11.0559 11.1094C10.4674 11.1094 9.96606 10.9492 9.55199 10.6289C9.13793 10.306 8.82153 9.83854 8.60278 9.22656C8.38403 8.61198 8.27465 7.86979 8.27465 7C8.27465 6.13542 8.38403 5.39714 8.60278 4.78516C8.82413 4.17057 9.14184 3.70182 9.5559 3.37891C9.97257 3.05339 10.4726 2.89062 11.0559 2.89062C11.6392 2.89062 12.1379 3.05339 12.552 3.37891C12.9687 3.70182 13.2864 4.17057 13.5051 4.78516C13.7265 5.39714 13.8372 6.13542 13.8372 7C13.8372 7.86979 13.7278 8.61198 13.509 9.22656C13.2903 9.83854 12.9739 10.306 12.5598 10.6289C12.1457 10.9492 11.6444 11.1094 11.0559 11.1094ZM11.0559 10.25C11.6392 10.25 12.0924 9.96875 12.4153 9.40625C12.7382 8.84375 12.8997 8.04167 12.8997 7C12.8997 6.30729 12.8254 5.71745 12.677 5.23047C12.5312 4.74349 12.3202 4.3724 12.0442 4.11719C11.7707 3.86198 11.4413 3.73437 11.0559 3.73437C10.4778 3.73437 10.026 4.01953 9.70043 4.58984C9.37491 5.15755 9.21215 5.96094 9.21215 7C9.21215 7.69271 9.28507 8.28125 9.4309 8.76562C9.57673 9.25 9.78637 9.61849 10.0598 9.87109C10.3358 10.1237 10.6679 10.25 11.0559 10.25ZM17.9309 11.1094C17.3424 11.1094 16.8411 10.9492 16.427 10.6289C16.0129 10.306 15.6965 9.83854 15.4778 9.22656C15.259 8.61198 15.1497 7.86979 15.1497 7C15.1497 6.13542 15.259 5.39714 15.4778 4.78516C15.6991 4.17057 16.0168 3.70182 16.4309 3.37891C16.8476 3.05339 17.3476 2.89062 17.9309 2.89062C18.5142 2.89062 19.0129 3.05339 19.427 3.37891C19.8437 3.70182 20.1614 4.17057 20.3801 4.78516C20.6015 5.39714 20.7122 6.13542 20.7122 7C20.7122 7.86979 20.6028 8.61198 20.384 9.22656C20.1653 9.83854 19.8489 10.306 19.4348 10.6289C19.0207 10.9492 18.5194 11.1094 17.9309 11.1094ZM17.9309 10.25C18.5142 10.25 18.9674 9.96875 19.2903 9.40625C19.6132 8.84375 19.7747 8.04167 19.7747 7C19.7747 6.30729 19.7004 5.71745 19.552 5.23047C19.4062 4.74349 19.1952 4.3724 18.9192 4.11719C18.6457 3.86198 18.3163 3.73437 17.9309 3.73437C17.3528 3.73437 16.901 4.01953 16.5754 4.58984C16.2499 5.15755 16.0872 5.96094 16.0872 7C16.0872 7.69271 16.1601 8.28125 16.3059 8.76562C16.4517 9.25 16.6614 9.61849 16.9348 9.87109C17.2108 10.1237 17.5429 10.25 17.9309 10.25ZM24.8059 11.1094C24.2174 11.1094 23.7161 10.9492 23.302 10.6289C22.8879 10.306 22.5715 9.83854 22.3528 9.22656C22.134 8.61198 22.0247 7.86979 22.0247 7C22.0247 6.13542 22.134 5.39714 22.3528 4.78516C22.5741 4.17057 22.8918 3.70182 23.3059 3.37891C23.7226 3.05339 24.2226 2.89062 24.8059 2.89062C25.3892 2.89062 25.8879 3.05339 26.302 3.37891C26.7187 3.70182 27.0364 4.17057 27.2551 4.78516C27.4765 5.39714 27.5872 6.13542 27.5872 7C27.5872 7.86979 27.4778 8.61198 27.259 9.22656C27.0403 9.83854 26.7239 10.306 26.3098 10.6289C25.8957 10.9492 25.3944 11.1094 24.8059 11.1094ZM24.8059 10.25C25.3892 10.25 25.8424 9.96875 26.1653 9.40625C26.4882 8.84375 26.6497 8.04167 26.6497 7C26.6497 6.30729 26.5754 5.71745 26.427 5.23047C26.2812 4.74349 26.0702 4.3724 25.7942 4.11719C25.5207 3.86198 25.1913 3.73437 24.8059 3.73437C24.2278 3.73437 23.776 4.01953 23.4504 4.58984C23.1249 5.15755 22.9622 5.96094 22.9622 7C22.9622 7.69271 23.0351 8.28125 23.1809 8.76562C23.3267 9.25 23.5364 9.61849 23.8098 9.87109C24.0858 10.1237 24.4179 10.25 24.8059 10.25ZM31.6809 11.1094C31.0924 11.1094 30.5911 10.9492 30.177 10.6289C29.7629 10.306 29.4465 9.83854 29.2278 9.22656C29.009 8.61198 28.8997 7.86979 28.8997 7C28.8997 6.13542 29.009 5.39714 29.2278 4.78516C29.4491 4.17057 29.7668 3.70182 30.1809 3.37891C30.5976 3.05339 31.0976 2.89062 31.6809 2.89062C32.2642 2.89062 32.7629 3.05339 33.177 3.37891C33.5937 3.70182 33.9114 4.17057 34.1301 4.78516C34.3515 5.39714 34.4622 6.13542 34.4622 7C34.4622 7.86979 34.3528 8.61198 34.134 9.22656C33.9153 9.83854 33.5989 10.306 33.1848 10.6289C32.7707 10.9492 32.2694 11.1094 31.6809 11.1094ZM31.6809 10.25C32.2642 10.25 32.7174 9.96875 33.0403 9.40625C33.3632 8.84375 33.5247 8.04167 33.5247 7C33.5247 6.30729 33.4504 5.71745 33.302 5.23047C33.1562 4.74349 32.9452 4.3724 32.6692 4.11719C32.3957 3.86198 32.0663 3.73437 31.6809 3.73437C31.1028 3.73437 30.651 4.01953 30.3254 4.58984C29.9999 5.15755 29.8372 5.96094 29.8372 7C29.8372 7.69271 29.9101 8.28125 30.0559 8.76562C30.2017 9.25 30.4114 9.61849 30.6848 9.87109C30.9608 10.1237 31.2929 10.25 31.6809 10.25Z" fill="#0F151F"/>
<path d="M13.0245 83.1875V91.1875H12.0558V84.2031H12.0089L10.0558 85.5V84.5156L12.0558 83.1875H13.0245ZM17.9347 91.2969C17.3461 91.2969 16.8448 91.1367 16.4308 90.8164C16.0167 90.4935 15.7003 90.026 15.4815 89.4141C15.2628 88.7995 15.1534 88.0573 15.1534 87.1875C15.1534 86.3229 15.2628 85.5846 15.4815 84.9727C15.7029 84.3581 16.0206 83.8893 16.4347 83.5664C16.8513 83.2409 17.3513 83.0781 17.9347 83.0781C18.518 83.0781 19.0167 83.2409 19.4308 83.5664C19.8474 83.8893 20.1651 84.3581 20.3839 84.9727C20.6052 85.5846 20.7159 86.3229 20.7159 87.1875C20.7159 88.0573 20.6065 88.7995 20.3878 89.4141C20.169 90.026 19.8526 90.4935 19.4386 90.8164C19.0245 91.1367 18.5232 91.2969 17.9347 91.2969ZM17.9347 90.4375C18.518 90.4375 18.9711 90.1562 19.294 89.5937C19.617 89.0312 19.7784 88.2292 19.7784 87.1875C19.7784 86.4948 19.7042 85.9049 19.5558 85.418C19.4099 84.931 19.199 84.5599 18.923 84.3047C18.6495 84.0495 18.3201 83.9219 17.9347 83.9219C17.3565 83.9219 16.9047 84.207 16.5792 84.7773C16.2537 85.3451 16.0909 86.1484 16.0909 87.1875C16.0909 87.8802 16.1638 88.4687 16.3097 88.9531C16.4555 89.4375 16.6651 89.806 16.9386 90.0586C17.2146 90.3112 17.5467 90.4375 17.9347 90.4375ZM24.8097 91.2969C24.2211 91.2969 23.7198 91.1367 23.3058 90.8164C22.8917 90.4935 22.5753 90.026 22.3565 89.4141C22.1378 88.7995 22.0284 88.0573 22.0284 87.1875C22.0284 86.3229 22.1378 85.5846 22.3565 84.9727C22.5779 84.3581 22.8956 83.8893 23.3097 83.5664C23.7263 83.2409 24.2263 83.0781 24.8097 83.0781C25.393 83.0781 25.8917 83.2409 26.3058 83.5664C26.7224 83.8893 27.0401 84.3581 27.2589 84.9727C27.4802 85.5846 27.5909 86.3229 27.5909 87.1875C27.5909 88.0573 27.4815 88.7995 27.2628 89.4141C27.044 90.026 26.7276 90.4935 26.3136 90.8164C25.8995 91.1367 25.3982 91.2969 24.8097 91.2969ZM24.8097 90.4375C25.393 90.4375 25.8461 90.1562 26.169 89.5937C26.492 89.0312 26.6534 88.2292 26.6534 87.1875C26.6534 86.4948 26.5792 85.9049 26.4308 85.418C26.2849 84.931 26.074 84.5599 25.798 84.3047C25.5245 84.0495 25.1951 83.9219 24.8097 83.9219C24.2315 83.9219 23.7797 84.207 23.4542 84.7773C23.1287 85.3451 22.9659 86.1484 22.9659 87.1875C22.9659 87.8802 23.0388 88.4687 23.1847 88.9531C23.3305 89.4375 23.5401 89.806 23.8136 90.0586C24.0896 90.3112 24.4217 90.4375 24.8097 90.4375ZM31.6847 91.2969C31.0961 91.2969 30.5948 91.1367 30.1808 90.8164C29.7667 90.4935 29.4503 90.026 29.2315 89.4141C29.0128 88.7995 28.9034 88.0573 28.9034 87.1875C28.9034 86.3229 29.0128 85.5846 29.2315 84.9727C29.4529 84.3581 29.7706 83.8893 30.1847 83.5664C30.6013 83.2409 31.1013 83.0781 31.6847 83.0781C32.268 83.0781 32.7667 83.2409 33.1808 83.5664C33.5974 83.8893 33.9151 84.3581 34.1339 84.9727C34.3552 85.5846 34.4659 86.3229 34.4659 87.1875C34.4659 88.0573 34.3565 88.7995 34.1378 89.4141C33.919 90.026 33.6026 90.4935 33.1886 90.8164C32.7745 91.1367 32.2732 91.2969 31.6847 91.2969ZM31.6847 90.4375C32.268 90.4375 32.7211 90.1562 33.044 89.5937C33.367 89.0312 33.5284 88.2292 33.5284 87.1875C33.5284 86.4948 33.4542 85.9049 33.3058 85.418C33.1599 84.931 32.949 84.5599 32.673 84.3047C32.3995 84.0495 32.0701 83.9219 31.6847 83.9219C31.1065 83.9219 30.6547 84.207 30.3292 84.7773C30.0037 85.3451 29.8409 86.1484 29.8409 87.1875C29.8409 87.8802 29.9138 88.4687 30.0597 88.9531C30.2055 89.4375 30.4151 89.806 30.6886 90.0586C30.9646 90.3112 31.2967 90.4375 31.6847 90.4375Z" fill="#0F151F"/>
<path d="M18.0073 131.391C17.5489 131.391 17.1362 131.299 16.769 131.117C16.4018 130.935 16.1075 130.685 15.8862 130.367C15.6648 130.049 15.5437 129.687 15.5229 129.281H16.4604C16.4968 129.643 16.6609 129.943 16.9526 130.18C17.2468 130.414 17.5984 130.531 18.0073 130.531C18.3354 130.531 18.627 130.454 18.8823 130.301C19.1401 130.147 19.3419 129.936 19.4877 129.668C19.6362 129.397 19.7104 129.091 19.7104 128.75C19.7104 128.401 19.6336 128.09 19.4799 127.816C19.3289 127.54 19.1205 127.323 18.8549 127.164C18.5893 127.005 18.2859 126.924 17.9448 126.922C17.7 126.919 17.4487 126.957 17.1908 127.035C16.933 127.111 16.7208 127.208 16.5541 127.328L15.6479 127.219L16.1323 123.281H20.2885V124.141H16.9448L16.6635 126.5H16.7104C16.8744 126.37 17.0802 126.262 17.3276 126.176C17.575 126.09 17.8328 126.047 18.101 126.047C18.5906 126.047 19.0268 126.164 19.4096 126.398C19.795 126.63 20.0971 126.948 20.3158 127.352C20.5372 127.755 20.6479 128.216 20.6479 128.734C20.6479 129.245 20.5333 129.701 20.3041 130.102C20.0776 130.5 19.7651 130.815 19.3666 131.047C18.9682 131.276 18.5151 131.391 18.0073 131.391ZM24.809 131.391C24.2205 131.391 23.7192 131.23 23.3051 130.91C22.891 130.587 22.5746 130.12 22.3559 129.508C22.1371 128.893 22.0278 128.151 22.0278 127.281C22.0278 126.417 22.1371 125.678 22.3559 125.066C22.5772 124.452 22.8949 123.983 23.309 123.66C23.7257 123.335 24.2257 123.172 24.809 123.172C25.3923 123.172 25.891 123.335 26.3051 123.66C26.7218 123.983 27.0395 124.452 27.2582 125.066C27.4796 125.678 27.5903 126.417 27.5903 127.281C27.5903 128.151 27.4809 128.893 27.2621 129.508C27.0434 130.12 26.727 130.587 26.3129 130.91C25.8989 131.23 25.3976 131.391 24.809 131.391ZM24.809 130.531C25.3923 130.531 25.8455 130.25 26.1684 129.687C26.4913 129.125 26.6528 128.323 26.6528 127.281C26.6528 126.589 26.5785 125.999 26.4301 125.512C26.2843 125.025 26.0733 124.654 25.7973 124.398C25.5239 124.143 25.1944 124.016 24.809 124.016C24.2309 124.016 23.7791 124.301 23.4535 124.871C23.128 125.439 22.9653 126.242 22.9653 127.281C22.9653 127.974 23.0382 128.562 23.184 129.047C23.3298 129.531 23.5395 129.9 23.8129 130.152C24.089 130.405 24.421 130.531 24.809 130.531ZM31.684 131.391C31.0955 131.391 30.5942 131.23 30.1801 130.91C29.766 130.587 29.4496 130.12 29.2309 129.508C29.0121 128.893 28.9028 128.151 28.9028 127.281C28.9028 126.417 29.0121 125.678 29.2309 125.066C29.4522 124.452 29.7699 123.983 30.184 123.66C30.6007 123.335 31.1007 123.172 31.684 123.172C32.2673 123.172 32.766 123.335 33.1801 123.66C33.5968 123.983 33.9145 124.452 34.1332 125.066C34.3546 125.678 34.4653 126.417 34.4653 127.281C34.4653 128.151 34.3559 128.893 34.1371 129.508C33.9184 130.12 33.602 130.587 33.1879 130.91C32.7739 131.23 32.2726 131.391 31.684 131.391ZM31.684 130.531C32.2673 130.531 32.7205 130.25 33.0434 129.687C33.3663 129.125 33.5278 128.323 33.5278 127.281C33.5278 126.589 33.4535 125.999 33.3051 125.512C33.1593 125.025 32.9483 124.654 32.6723 124.398C32.3989 124.143 32.0694 124.016 31.684 124.016C31.1059 124.016 30.6541 124.301 30.3285 124.871C30.003 125.439 29.8403 126.242 29.8403 127.281C29.8403 127.974 29.9132 128.562 30.059 129.047C30.2048 129.531 30.4145 129.9 30.6879 130.152C30.964 130.405 31.296 130.531 31.684 130.531Z" fill="#0F151F"/>
<path d="M15.7221 171.367V170.664L18.3627 167.773C18.6726 167.435 18.9278 167.141 19.1283 166.891C19.3289 166.638 19.4773 166.401 19.5737 166.18C19.6726 165.956 19.7221 165.721 19.7221 165.477C19.7221 165.195 19.6544 164.952 19.519 164.746C19.3862 164.54 19.2039 164.382 18.9721 164.27C18.7403 164.158 18.4799 164.102 18.1908 164.102C17.8836 164.102 17.6153 164.165 17.3862 164.293C17.1596 164.418 16.9838 164.594 16.8588 164.82C16.7364 165.047 16.6752 165.312 16.6752 165.617H15.7533C15.7533 165.148 15.8614 164.737 16.0776 164.383C16.2937 164.029 16.588 163.753 16.9604 163.555C17.3354 163.357 17.756 163.258 18.2221 163.258C18.6908 163.258 19.1062 163.357 19.4682 163.555C19.8302 163.753 20.114 164.02 20.3198 164.355C20.5255 164.691 20.6283 165.065 20.6283 165.477C20.6283 165.771 20.575 166.059 20.4682 166.34C20.364 166.618 20.1817 166.93 19.9213 167.273C19.6635 167.615 19.3054 168.031 18.8471 168.523L17.0502 170.445V170.508H20.769V171.367H15.7221ZM24.8823 171.477C24.4239 171.477 24.0112 171.385 23.644 171.203C23.2768 171.021 22.9825 170.771 22.7612 170.453C22.5398 170.135 22.4187 169.773 22.3979 169.367H23.3354C23.3718 169.729 23.5359 170.029 23.8276 170.266C24.1218 170.5 24.4734 170.617 24.8823 170.617C25.2104 170.617 25.502 170.54 25.7573 170.387C26.0151 170.233 26.2169 170.022 26.3627 169.754C26.5112 169.483 26.5854 169.177 26.5854 168.836C26.5854 168.487 26.5086 168.176 26.3549 167.902C26.2039 167.626 25.9955 167.409 25.7299 167.25C25.4643 167.091 25.1609 167.01 24.8198 167.008C24.575 167.005 24.3237 167.043 24.0658 167.121C23.808 167.197 23.5958 167.294 23.4291 167.414L22.5229 167.305L23.0073 163.367H27.1635V164.227H23.8198L23.5385 166.586H23.5854C23.7494 166.456 23.9552 166.348 24.2026 166.262C24.45 166.176 24.7078 166.133 24.976 166.133C25.4656 166.133 25.9018 166.25 26.2846 166.484C26.67 166.716 26.9721 167.034 27.1908 167.437C27.4122 167.841 27.5229 168.302 27.5229 168.82C27.5229 169.331 27.4083 169.786 27.1791 170.187C26.9526 170.586 26.6401 170.901 26.2416 171.133C25.8432 171.362 25.3901 171.477 24.8823 171.477ZM31.684 171.477C31.0955 171.477 30.5942 171.316 30.1801 170.996C29.766 170.673 29.4496 170.206 29.2309 169.594C29.0121 168.979 28.9028 168.237 28.9028 167.367C28.9028 166.503 29.0121 165.764 29.2309 165.152C29.4522 164.538 29.7699 164.069 30.184 163.746C30.6007 163.421 31.1007 163.258 31.684 163.258C32.2673 163.258 32.766 163.421 33.1801 163.746C33.5968 164.069 33.9145 164.538 34.1332 165.152C34.3546 165.764 34.4653 166.503 34.4653 167.367C34.4653 168.237 34.3559 168.979 34.1371 169.594C33.9184 170.206 33.602 170.673 33.1879 170.996C32.7739 171.316 32.2726 171.477 31.684 171.477ZM31.684 170.617C32.2673 170.617 32.7205 170.336 33.0434 169.773C33.3663 169.211 33.5278 168.409 33.5278 167.367C33.5278 166.674 33.4535 166.085 33.3051 165.598C33.1593 165.111 32.9483 164.74 32.6723 164.484C32.3989 164.229 32.0694 164.102 31.684 164.102C31.1059 164.102 30.6541 164.387 30.3285 164.957C30.003 165.525 29.8403 166.328 29.8403 167.367C29.8403 168.06 29.9132 168.648 30.059 169.133C30.2048 169.617 30.4145 169.986 30.6879 170.238C30.964 170.491 31.296 170.617 31.684 170.617Z" fill="#0F151F"/>
<path d="M18.0595 203.461V211.461H17.0908V204.477H17.0439L15.0908 205.773V204.789L17.0908 203.461H18.0595ZM22.9697 211.57C22.3811 211.57 21.8798 211.41 21.4658 211.09C21.0517 210.767 20.7353 210.299 20.5166 209.687C20.2978 209.073 20.1884 208.331 20.1884 207.461C20.1884 206.596 20.2978 205.858 20.5166 205.246C20.7379 204.632 21.0556 204.163 21.4697 203.84C21.8864 203.514 22.3864 203.352 22.9697 203.352C23.553 203.352 24.0517 203.514 24.4658 203.84C24.8824 204.163 25.2002 204.632 25.4189 205.246C25.6403 205.858 25.7509 206.596 25.7509 207.461C25.7509 208.331 25.6416 209.073 25.4228 209.687C25.2041 210.299 24.8877 210.767 24.4736 211.09C24.0595 211.41 23.5582 211.57 22.9697 211.57ZM22.9697 210.711C23.553 210.711 24.0061 210.43 24.3291 209.867C24.652 209.305 24.8134 208.503 24.8134 207.461C24.8134 206.768 24.7392 206.178 24.5908 205.691C24.4449 205.204 24.234 204.833 23.958 204.578C23.6845 204.323 23.3551 204.195 22.9697 204.195C22.3916 204.195 21.9397 204.48 21.6142 205.051C21.2887 205.618 21.1259 206.422 21.1259 207.461C21.1259 208.154 21.1989 208.742 21.3447 209.227C21.4905 209.711 21.7002 210.079 21.9736 210.332C22.2496 210.585 22.5817 210.711 22.9697 210.711ZM29.8447 211.57C29.2561 211.57 28.7548 211.41 28.3408 211.09C27.9267 210.767 27.6103 210.299 27.3916 209.687C27.1728 209.073 27.0634 208.331 27.0634 207.461C27.0634 206.596 27.1728 205.858 27.3916 205.246C27.6129 204.632 27.9306 204.163 28.3447 203.84C28.7614 203.514 29.2614 203.352 29.8447 203.352C30.428 203.352 30.9267 203.514 31.3408 203.84C31.7574 204.163 32.0752 204.632 32.2939 205.246C32.5153 205.858 32.6259 206.596 32.6259 207.461C32.6259 208.331 32.5166 209.073 32.2978 209.687C32.0791 210.299 31.7627 210.767 31.3486 211.09C30.9345 211.41 30.4332 211.57 29.8447 211.57ZM29.8447 210.711C30.428 210.711 30.8811 210.43 31.2041 209.867C31.527 209.305 31.6884 208.503 31.6884 207.461C31.6884 206.768 31.6142 206.178 31.4658 205.691C31.3199 205.204 31.109 204.833 30.833 204.578C30.5595 204.323 30.2301 204.195 29.8447 204.195C29.2666 204.195 28.8147 204.48 28.4892 205.051C28.1637 205.618 28.0009 206.422 28.0009 207.461C28.0009 208.154 28.0739 208.742 28.2197 209.227C28.3655 209.711 28.5752 210.079 28.8486 210.332C29.1246 210.585 29.4567 210.711 29.8447 210.711Z" fill="#0F151F"/>
<path d="M33.3512 253.684C32.6556 253.684 32.0632 253.495 31.5738 253.116C31.0845 252.734 30.7106 252.182 30.452 251.459C30.1935 250.732 30.0643 249.855 30.0643 248.827C30.0643 247.806 30.1935 246.933 30.452 246.21C30.7136 245.484 31.0891 244.93 31.5785 244.548C32.0709 244.163 32.6618 243.971 33.3512 243.971C34.0406 243.971 34.6299 244.163 35.1193 244.548C35.6117 244.93 35.9872 245.484 36.2457 246.21C36.5073 246.933 36.6381 247.806 36.6381 248.827C36.6381 249.855 36.5089 250.732 36.2503 251.459C35.9918 252.182 35.6179 252.734 35.1285 253.116C34.6392 253.495 34.0467 253.684 33.3512 253.684ZM33.3512 252.668C34.0406 252.668 34.5761 252.336 34.9577 251.671C35.3393 251.006 35.5302 250.058 35.5302 248.827C35.5302 248.009 35.4424 247.312 35.267 246.736C35.0947 246.161 34.8454 245.722 34.5192 245.42C34.196 245.119 33.8067 244.968 33.3512 244.968C32.6679 244.968 32.134 245.305 31.7493 245.979C31.3646 246.65 31.1722 247.599 31.1722 248.827C31.1722 249.646 31.2584 250.342 31.4307 250.914C31.6031 251.487 31.8508 251.922 32.174 252.221C32.5002 252.519 32.8926 252.668 33.3512 252.668Z" fill="#0F151F"/>
<path d="M84.856 268.897H86.0009V275.656C86.0009 276.259 85.8901 276.771 85.6685 277.193C85.4469 277.614 85.1345 277.935 84.7314 278.153C84.3282 278.372 83.8527 278.481 83.3049 278.481C82.7878 278.481 82.3277 278.387 81.9245 278.199C81.5214 278.008 81.2044 277.738 80.9735 277.387C80.7427 277.036 80.6273 276.619 80.6273 276.136H81.7537C81.7537 276.403 81.8199 276.637 81.9522 276.837C82.0877 277.034 82.2723 277.188 82.5062 277.299C82.7401 277.41 83.0063 277.465 83.3049 277.465C83.6342 277.465 83.9142 277.396 84.1451 277.257C84.3759 277.119 84.5513 276.916 84.6713 276.648C84.7944 276.377 84.856 276.046 84.856 275.656V268.897ZM90.2342 278.518C89.7849 278.518 89.3771 278.433 89.0108 278.264C88.6446 278.092 88.3538 277.844 88.1383 277.521C87.9229 277.194 87.8152 276.8 87.8152 276.339C87.8152 275.933 87.8952 275.603 88.0552 275.351C88.2153 275.095 88.4292 274.895 88.6969 274.751C88.9647 274.606 89.2601 274.498 89.5833 274.428C89.9095 274.354 90.2373 274.295 90.5666 274.252C90.9975 274.197 91.3468 274.155 91.6145 274.127C91.8854 274.097 92.0823 274.046 92.2054 273.975C92.3316 273.904 92.3947 273.781 92.3947 273.606V273.569C92.3947 273.113 92.2701 272.759 92.0208 272.507C91.7746 272.255 91.4006 272.129 90.899 272.129C90.3788 272.129 89.9711 272.242 89.6756 272.47C89.3801 272.698 89.1724 272.941 89.0524 273.2L88.0183 272.83C88.2029 272.399 88.4492 272.064 88.7569 271.824C89.0678 271.581 89.4063 271.411 89.7725 271.316C90.1419 271.218 90.505 271.168 90.862 271.168C91.0898 271.168 91.3514 271.196 91.6468 271.251C91.9454 271.304 92.2331 271.413 92.5101 271.579C92.7902 271.745 93.0225 271.996 93.2072 272.332C93.3919 272.667 93.4842 273.116 93.4842 273.68V278.352H92.3947V277.391H92.3393C92.2654 277.545 92.1423 277.71 91.97 277.885C91.7976 278.061 91.5684 278.21 91.2821 278.333C90.9959 278.456 90.6466 278.518 90.2342 278.518ZM90.4004 277.539C90.8313 277.539 91.1944 277.454 91.4899 277.285C91.7884 277.116 92.0131 276.897 92.1639 276.63C92.3178 276.362 92.3947 276.08 92.3947 275.785V274.788C92.3485 274.843 92.247 274.894 92.09 274.94C91.9361 274.983 91.7576 275.022 91.5545 275.055C91.3545 275.086 91.159 275.114 90.9682 275.138C90.7805 275.16 90.6281 275.179 90.5112 275.194C90.228 275.231 89.9634 275.291 89.7172 275.374C89.474 275.454 89.277 275.576 89.1262 275.739C88.9785 275.899 88.9047 276.117 88.9047 276.394C88.9047 276.773 89.0447 277.059 89.3248 277.253C89.6079 277.444 89.9664 277.539 90.4004 277.539ZM96.5622 274.086V278.352H95.4727V271.261H96.5253V272.369H96.6176C96.7838 272.009 97.0362 271.719 97.3747 271.501C97.7133 271.279 98.1503 271.168 98.6858 271.168C99.1659 271.168 99.586 271.267 99.9461 271.464C100.306 271.658 100.586 271.953 100.786 272.35C100.986 272.744 101.086 273.243 101.086 273.846V278.352H99.9969V273.92C99.9969 273.363 99.8522 272.929 99.5629 272.618C99.2736 272.304 98.8766 272.147 98.3719 272.147C98.0241 272.147 97.7133 272.222 97.4394 272.373C97.1685 272.524 96.9546 272.744 96.7977 273.033C96.6407 273.323 96.5622 273.674 96.5622 274.086Z" fill="#0F151F"/>
<path d="M134.356 278.352V268.897H140.025V269.913H135.501V273.107H139.6V274.123H135.501V278.352H134.356ZM144.29 278.499C143.607 278.499 143.018 278.348 142.522 278.047C142.03 277.742 141.65 277.317 141.382 276.773C141.117 276.225 140.985 275.588 140.985 274.862C140.985 274.135 141.117 273.495 141.382 272.941C141.65 272.384 142.022 271.95 142.499 271.639C142.979 271.325 143.54 271.168 144.18 271.168C144.549 271.168 144.914 271.23 145.274 271.353C145.634 271.476 145.962 271.676 146.257 271.953C146.553 272.227 146.788 272.59 146.963 273.043C147.139 273.495 147.227 274.052 147.227 274.714V275.175H141.761V274.234H146.119C146.119 273.834 146.039 273.477 145.879 273.163C145.722 272.849 145.497 272.601 145.205 272.419C144.915 272.238 144.574 272.147 144.18 272.147C143.746 272.147 143.37 272.255 143.053 272.47C142.739 272.683 142.498 272.96 142.328 273.301C142.159 273.643 142.075 274.009 142.075 274.4V275.028C142.075 275.563 142.167 276.017 142.352 276.39C142.539 276.759 142.799 277.04 143.132 277.234C143.464 277.425 143.85 277.521 144.29 277.521C144.577 277.521 144.835 277.481 145.066 277.401C145.3 277.317 145.502 277.194 145.671 277.031C145.84 276.865 145.971 276.659 146.063 276.413L147.116 276.708C147.005 277.065 146.819 277.379 146.557 277.65C146.296 277.918 145.972 278.127 145.588 278.278C145.203 278.425 144.771 278.499 144.29 278.499ZM149.032 278.352V268.897H150.121V272.387H150.213C150.293 272.264 150.404 272.107 150.546 271.916C150.69 271.722 150.897 271.55 151.164 271.399C151.435 271.245 151.801 271.168 152.263 271.168C152.86 271.168 153.386 271.318 153.842 271.616C154.297 271.915 154.653 272.338 154.908 272.886C155.164 273.433 155.292 274.08 155.292 274.825C155.292 275.576 155.164 276.226 154.908 276.777C154.653 277.325 154.299 277.75 153.847 278.051C153.394 278.35 152.873 278.499 152.282 278.499C151.826 278.499 151.461 278.424 151.188 278.273C150.914 278.119 150.703 277.945 150.555 277.751C150.407 277.554 150.293 277.391 150.213 277.262H150.084V278.352H149.032ZM150.103 274.806C150.103 275.342 150.181 275.814 150.338 276.223C150.495 276.63 150.724 276.948 151.026 277.179C151.328 277.407 151.697 277.521 152.134 277.521C152.589 277.521 152.969 277.401 153.274 277.161C153.582 276.917 153.813 276.591 153.967 276.182C154.124 275.769 154.202 275.311 154.202 274.806C154.202 274.308 154.125 273.858 153.971 273.458C153.82 273.055 153.591 272.736 153.283 272.502C152.979 272.266 152.596 272.147 152.134 272.147C151.691 272.147 151.318 272.259 151.017 272.484C150.715 272.706 150.487 273.016 150.333 273.417C150.18 273.814 150.103 274.277 150.103 274.806Z" fill="#0F151F"/>
<path d="M188.367 268.897H189.734L192.947 276.745H193.057L196.27 268.897H197.637V278.352H196.566V271.168H196.474L193.519 278.352H192.485L189.53 271.168H189.438V278.352H188.367V268.897ZM201.871 278.518C201.422 278.518 201.014 278.433 200.648 278.264C200.282 278.092 199.991 277.844 199.776 277.521C199.56 277.194 199.452 276.8 199.452 276.339C199.452 275.933 199.532 275.603 199.692 275.351C199.852 275.095 200.066 274.895 200.334 274.751C200.602 274.606 200.897 274.498 201.22 274.428C201.547 274.354 201.874 274.295 202.204 274.252C202.635 274.197 202.984 274.155 203.252 274.127C203.523 274.097 203.72 274.046 203.843 273.975C203.969 273.904 204.032 273.781 204.032 273.606V273.569C204.032 273.113 203.907 272.759 203.658 272.507C203.412 272.255 203.038 272.129 202.536 272.129C202.016 272.129 201.608 272.242 201.313 272.47C201.017 272.698 200.81 272.941 200.69 273.2L199.655 272.83C199.84 272.399 200.086 272.064 200.394 271.824C200.705 271.581 201.044 271.411 201.41 271.316C201.779 271.218 202.142 271.168 202.499 271.168C202.727 271.168 202.989 271.196 203.284 271.251C203.583 271.304 203.87 271.413 204.147 271.579C204.427 271.745 204.66 271.996 204.844 272.332C205.029 272.667 205.121 273.116 205.121 273.68V278.352H204.032V277.391H203.977C203.903 277.545 203.78 277.71 203.607 277.885C203.435 278.061 203.206 278.21 202.919 278.333C202.633 278.456 202.284 278.518 201.871 278.518ZM202.038 277.539C202.468 277.539 202.832 277.454 203.127 277.285C203.426 277.116 203.65 276.897 203.801 276.63C203.955 276.362 204.032 276.08 204.032 275.785V274.788C203.986 274.843 203.884 274.894 203.727 274.94C203.573 274.983 203.395 275.022 203.192 275.055C202.992 275.086 202.796 275.114 202.605 275.138C202.418 275.16 202.265 275.179 202.148 275.194C201.865 275.231 201.601 275.291 201.354 275.374C201.111 275.454 200.914 275.576 200.763 275.739C200.616 275.899 200.542 276.117 200.542 276.394C200.542 276.773 200.682 277.059 200.962 277.253C201.245 277.444 201.604 277.539 202.038 277.539ZM207.11 278.352V271.261H208.163V272.332H208.236C208.366 271.981 208.6 271.696 208.938 271.478C209.277 271.259 209.658 271.15 210.083 271.15C210.163 271.15 210.263 271.151 210.383 271.154C210.503 271.158 210.594 271.162 210.655 271.168V272.276C210.618 272.267 210.534 272.253 210.402 272.235C210.272 272.213 210.135 272.202 209.991 272.202C209.646 272.202 209.338 272.275 209.067 272.419C208.8 272.561 208.587 272.758 208.43 273.01C208.276 273.26 208.199 273.544 208.199 273.864V278.352H207.11Z" fill="#0F151F"/>
<path d="M243.847 278.352H242.646L246.118 268.897H247.3L250.771 278.352H249.571L246.746 270.393H246.672L243.847 278.352ZM244.29 274.658H249.128V275.674H244.29V274.658ZM252.096 281.011V271.261H253.149V272.387H253.278C253.358 272.264 253.469 272.107 253.61 271.916C253.755 271.722 253.961 271.55 254.229 271.399C254.5 271.245 254.866 271.168 255.328 271.168C255.925 271.168 256.451 271.318 256.907 271.616C257.362 271.915 257.718 272.338 257.973 272.886C258.229 273.433 258.356 274.08 258.356 274.825C258.356 275.576 258.229 276.226 257.973 276.777C257.718 277.325 257.364 277.75 256.911 278.051C256.459 278.35 255.937 278.499 255.346 278.499C254.891 278.499 254.526 278.424 254.252 278.273C253.978 278.119 253.767 277.945 253.62 277.751C253.472 277.554 253.358 277.391 253.278 277.262H253.186V281.011H252.096ZM253.167 274.806C253.167 275.342 253.246 275.814 253.403 276.223C253.56 276.63 253.789 276.948 254.091 277.179C254.392 277.407 254.762 277.521 255.199 277.521C255.654 277.521 256.034 277.401 256.339 277.161C256.647 276.917 256.877 276.591 257.031 276.182C257.188 275.769 257.267 275.311 257.267 274.806C257.267 274.308 257.19 273.858 257.036 273.458C256.885 273.055 256.656 272.736 256.348 272.502C256.043 272.266 255.66 272.147 255.199 272.147C254.755 272.147 254.383 272.259 254.081 272.484C253.78 272.706 253.552 273.016 253.398 273.417C253.244 273.814 253.167 274.277 253.167 274.806ZM260.018 278.352V271.261H261.071V272.332H261.145C261.274 271.981 261.508 271.696 261.846 271.478C262.185 271.259 262.566 271.15 262.991 271.15C263.071 271.15 263.171 271.151 263.291 271.154C263.411 271.158 263.502 271.162 263.564 271.168V272.276C263.527 272.267 263.442 272.253 263.31 272.235C263.18 272.213 263.043 272.202 262.899 272.202C262.554 272.202 262.246 272.275 261.976 272.419C261.708 272.561 261.495 272.758 261.338 273.01C261.185 273.26 261.108 273.544 261.108 273.864V278.352H260.018Z" fill="#0F151F"/>
<path d="M296.294 268.897H297.661L300.874 276.745H300.985L304.198 268.897H305.564V278.352H304.493V271.168H304.401L301.446 278.352H300.412L297.458 271.168H297.365V278.352H296.294V268.897ZM309.799 278.518C309.349 278.518 308.942 278.433 308.575 278.264C308.209 278.092 307.918 277.844 307.703 277.521C307.487 277.194 307.38 276.8 307.38 276.339C307.38 275.933 307.46 275.603 307.62 275.351C307.78 275.095 307.994 274.895 308.261 274.751C308.529 274.606 308.825 274.498 309.148 274.428C309.474 274.354 309.802 274.295 310.131 274.252C310.562 274.197 310.911 274.155 311.179 274.127C311.45 274.097 311.647 274.046 311.77 273.975C311.896 273.904 311.959 273.781 311.959 273.606V273.569C311.959 273.113 311.835 272.759 311.585 272.507C311.339 272.255 310.965 272.129 310.463 272.129C309.943 272.129 309.536 272.242 309.24 272.47C308.945 272.698 308.737 272.941 308.617 273.2L307.583 272.83C307.767 272.399 308.014 272.064 308.321 271.824C308.632 271.581 308.971 271.411 309.337 271.316C309.706 271.218 310.069 271.168 310.426 271.168C310.654 271.168 310.916 271.196 311.211 271.251C311.51 271.304 311.798 271.413 312.075 271.579C312.355 271.745 312.587 271.996 312.772 272.332C312.956 272.667 313.049 273.116 313.049 273.68V278.352H311.959V277.391H311.904C311.83 277.545 311.707 277.71 311.534 277.885C311.362 278.061 311.133 278.21 310.847 278.333C310.56 278.456 310.211 278.518 309.799 278.518ZM309.965 277.539C310.396 277.539 310.759 277.454 311.054 277.285C311.353 277.116 311.578 276.897 311.728 276.63C311.882 276.362 311.959 276.08 311.959 275.785V274.788C311.913 274.843 311.811 274.894 311.654 274.94C311.501 274.983 311.322 275.022 311.119 275.055C310.919 275.086 310.723 275.114 310.533 275.138C310.345 275.16 310.193 275.179 310.076 275.194C309.792 275.231 309.528 275.291 309.282 275.374C309.038 275.454 308.842 275.576 308.691 275.739C308.543 275.899 308.469 276.117 308.469 276.394C308.469 276.773 308.609 277.059 308.889 277.253C309.172 277.444 309.531 277.539 309.965 277.539ZM315.485 281.011C315.3 281.011 315.136 280.995 314.991 280.964C314.846 280.937 314.746 280.909 314.691 280.881L314.968 279.921C315.233 279.989 315.467 280.013 315.67 279.995C315.873 279.977 316.053 279.886 316.21 279.723C316.37 279.563 316.516 279.303 316.648 278.942L316.851 278.388L314.229 271.261H315.411L317.369 276.911H317.442L319.4 271.261H320.582L317.572 279.386C317.436 279.752 317.268 280.055 317.068 280.295C316.868 280.538 316.636 280.718 316.371 280.835C316.11 280.952 315.814 281.011 315.485 281.011Z" fill="#0F151F"/>
<path d="M357.242 268.897H358.387V275.656C358.387 276.259 358.276 276.771 358.054 277.193C357.833 277.614 357.52 277.935 357.117 278.153C356.714 278.372 356.238 278.481 355.691 278.481C355.174 278.481 354.713 278.387 354.31 278.199C353.907 278.008 353.59 277.738 353.359 277.387C353.128 277.036 353.013 276.619 353.013 276.136H354.139C354.139 276.403 354.206 276.637 354.338 276.837C354.473 277.034 354.658 277.188 354.892 277.299C355.126 277.41 355.392 277.465 355.691 277.465C356.02 277.465 356.3 277.396 356.531 277.257C356.762 277.119 356.937 276.916 357.057 276.648C357.18 276.377 357.242 276.046 357.242 275.656V268.897ZM365.002 275.452V271.261H366.092V278.352H365.002V277.151H364.928C364.762 277.511 364.503 277.818 364.153 278.07C363.802 278.319 363.359 278.444 362.823 278.444C362.38 278.444 361.986 278.347 361.641 278.153C361.297 277.956 361.026 277.661 360.829 277.267C360.632 276.87 360.533 276.37 360.533 275.766V271.261H361.623V275.692C361.623 276.21 361.767 276.622 362.057 276.93C362.349 277.237 362.722 277.391 363.174 277.391C363.445 277.391 363.72 277.322 364 277.184C364.283 277.045 364.52 276.833 364.711 276.547C364.905 276.26 365.002 275.896 365.002 275.452ZM369.176 274.086V278.352H368.087V271.261H369.14V272.369H369.232C369.398 272.009 369.65 271.719 369.989 271.501C370.328 271.279 370.765 271.168 371.3 271.168C371.78 271.168 372.2 271.267 372.56 271.464C372.92 271.658 373.201 271.953 373.401 272.35C373.601 272.744 373.701 273.243 373.701 273.846V278.352H372.611V273.92C372.611 273.363 372.467 272.929 372.177 272.618C371.888 272.304 371.491 272.147 370.986 272.147C370.638 272.147 370.328 272.222 370.054 272.373C369.783 272.524 369.569 272.744 369.412 273.033C369.255 273.323 369.176 273.674 369.176 274.086Z" fill="#0F151F"/>
<path d="M411.002 268.897H412.146V275.656C412.146 276.259 412.036 276.771 411.814 277.193C411.592 277.614 411.28 277.935 410.877 278.153C410.474 278.372 409.998 278.481 409.45 278.481C408.933 278.481 408.473 278.387 408.07 278.199C407.667 278.008 407.35 277.738 407.119 277.387C406.888 277.036 406.773 276.619 406.773 276.136H407.899C407.899 276.403 407.965 276.637 408.098 276.837C408.233 277.034 408.418 277.188 408.652 277.299C408.886 277.41 409.152 277.465 409.45 277.465C409.78 277.465 410.06 277.396 410.291 277.257C410.521 277.119 410.697 276.916 410.817 276.648C410.94 276.377 411.002 276.046 411.002 275.656V268.897ZM418.762 275.452V271.261H419.851V278.352H418.762V277.151H418.688C418.522 277.511 418.263 277.818 417.912 278.07C417.562 278.319 417.118 278.444 416.583 278.444C416.14 278.444 415.746 278.347 415.401 278.153C415.056 277.956 414.785 277.661 414.589 277.267C414.392 276.87 414.293 276.37 414.293 275.766V271.261H415.383V275.692C415.383 276.21 415.527 276.622 415.816 276.93C416.109 277.237 416.481 277.391 416.934 277.391C417.205 277.391 417.48 277.322 417.76 277.184C418.043 277.045 418.28 276.833 418.471 276.547C418.665 276.26 418.762 275.896 418.762 275.452ZM422.936 268.897V278.352H421.847V268.897H422.936Z" fill="#0F151F"/>
<path d="M456.988 278.352H455.788L459.26 268.897H460.441L463.913 278.352H462.713L459.887 270.393H459.814L456.988 278.352ZM457.431 274.658H462.269V275.674H457.431V274.658ZM469.707 275.452V271.261H470.796V278.352H469.707V277.151H469.633C469.467 277.511 469.208 277.818 468.857 278.07C468.506 278.319 468.063 278.444 467.528 278.444C467.084 278.444 466.691 278.347 466.346 278.153C466.001 277.956 465.73 277.661 465.533 277.267C465.336 276.87 465.238 276.37 465.238 275.766V271.261H466.327V275.692C466.327 276.21 466.472 276.622 466.761 276.93C467.054 277.237 467.426 277.391 467.879 277.391C468.149 277.391 468.425 277.322 468.705 277.184C468.988 277.045 469.225 276.833 469.416 276.547C469.61 276.26 469.707 275.896 469.707 275.452ZM475.654 281.158C475.128 281.158 474.675 281.091 474.297 280.955C473.918 280.823 473.603 280.647 473.35 280.429C473.101 280.214 472.902 279.983 472.755 279.737L473.623 279.127C473.721 279.256 473.846 279.404 473.996 279.57C474.147 279.74 474.354 279.886 474.615 280.009C474.88 280.135 475.226 280.198 475.654 280.198C476.226 280.198 476.699 280.06 477.071 279.783C477.443 279.506 477.63 279.072 477.63 278.481V277.04H477.537C477.457 277.17 477.343 277.33 477.196 277.521C477.051 277.708 476.842 277.876 476.568 278.024C476.297 278.168 475.931 278.241 475.469 278.241C474.897 278.241 474.383 278.105 473.927 277.835C473.475 277.564 473.116 277.17 472.852 276.653C472.59 276.136 472.459 275.508 472.459 274.769C472.459 274.043 472.587 273.41 472.842 272.872C473.098 272.33 473.453 271.912 473.909 271.616C474.364 271.318 474.891 271.168 475.488 271.168C475.949 271.168 476.316 271.245 476.586 271.399C476.86 271.55 477.07 271.722 477.214 271.916C477.362 272.107 477.476 272.264 477.556 272.387H477.667V271.261H478.719V278.555C478.719 279.164 478.581 279.66 478.304 280.041C478.03 280.426 477.66 280.708 477.196 280.886C476.734 281.068 476.22 281.158 475.654 281.158ZM475.617 277.262C476.054 277.262 476.423 277.162 476.725 276.962C477.026 276.762 477.256 276.474 477.413 276.099C477.57 275.723 477.648 275.274 477.648 274.751C477.648 274.24 477.571 273.789 477.417 273.398C477.263 273.007 477.036 272.701 476.734 272.479C476.432 272.258 476.06 272.147 475.617 272.147C475.155 272.147 474.771 272.264 474.463 272.498C474.158 272.732 473.929 273.046 473.775 273.44C473.624 273.834 473.549 274.271 473.549 274.751C473.549 275.243 473.626 275.679 473.78 276.057C473.936 276.433 474.167 276.728 474.472 276.944C474.78 277.156 475.161 277.262 475.617 277.262Z" fill="#0F151F"/>
<path d="M517.512 271.261C517.457 270.793 517.232 270.43 516.838 270.171C516.444 269.913 515.961 269.783 515.389 269.783C514.97 269.783 514.604 269.851 514.29 269.987C513.979 270.122 513.736 270.308 513.56 270.545C513.388 270.782 513.302 271.051 513.302 271.353C513.302 271.605 513.362 271.822 513.482 272.004C513.605 272.182 513.762 272.332 513.953 272.452C514.144 272.569 514.344 272.666 514.553 272.743C514.762 272.816 514.955 272.876 515.13 272.923L516.09 273.181C516.336 273.246 516.61 273.335 516.912 273.449C517.217 273.563 517.508 273.718 517.784 273.915C518.065 274.109 518.295 274.358 518.477 274.663C518.659 274.968 518.749 275.342 518.749 275.785C518.749 276.296 518.615 276.757 518.348 277.17C518.083 277.582 517.695 277.91 517.184 278.153C516.677 278.396 516.059 278.518 515.333 278.518C514.656 278.518 514.07 278.408 513.574 278.19C513.082 277.971 512.694 277.667 512.411 277.276C512.131 276.885 511.972 276.431 511.935 275.914H513.117C513.148 276.271 513.268 276.567 513.477 276.8C513.69 277.031 513.957 277.204 514.281 277.317C514.607 277.428 514.958 277.484 515.333 277.484C515.77 277.484 516.163 277.413 516.51 277.271C516.858 277.127 517.134 276.927 517.337 276.671C517.54 276.413 517.641 276.111 517.641 275.766C517.641 275.452 517.554 275.197 517.378 275C517.203 274.803 516.972 274.643 516.686 274.52C516.4 274.397 516.09 274.289 515.758 274.197L514.595 273.864C513.856 273.652 513.271 273.349 512.84 272.955C512.409 272.561 512.194 272.045 512.194 271.408C512.194 270.879 512.337 270.417 512.623 270.023C512.913 269.626 513.3 269.319 513.787 269.1C514.276 268.879 514.822 268.768 515.425 268.768C516.035 268.768 516.577 268.877 517.05 269.096C517.524 269.311 517.9 269.606 518.177 269.982C518.457 270.357 518.605 270.784 518.62 271.261H517.512ZM523.457 278.499C522.774 278.499 522.184 278.348 521.689 278.047C521.196 277.742 520.816 277.317 520.549 276.773C520.284 276.225 520.152 275.588 520.152 274.862C520.152 274.135 520.284 273.495 520.549 272.941C520.816 272.384 521.189 271.95 521.666 271.639C522.146 271.325 522.706 271.168 523.346 271.168C523.716 271.168 524.08 271.23 524.44 271.353C524.8 271.476 525.128 271.676 525.424 271.953C525.719 272.227 525.955 272.59 526.13 273.043C526.305 273.495 526.393 274.052 526.393 274.714V275.175H520.927V274.234H525.285C525.285 273.834 525.205 273.477 525.045 273.163C524.888 272.849 524.663 272.601 524.371 272.419C524.082 272.238 523.74 272.147 523.346 272.147C522.912 272.147 522.537 272.255 522.22 272.47C521.906 272.683 521.664 272.96 521.495 273.301C521.326 273.643 521.241 274.009 521.241 274.4V275.028C521.241 275.563 521.333 276.017 521.518 276.39C521.706 276.759 521.966 277.04 522.298 277.234C522.631 277.425 523.017 277.521 523.457 277.521C523.743 277.521 524.002 277.481 524.233 277.401C524.466 277.317 524.668 277.194 524.837 277.031C525.007 276.865 525.137 276.659 525.23 276.413L526.282 276.708C526.171 277.065 525.985 277.379 525.724 277.65C525.462 277.918 525.139 278.127 524.754 278.278C524.37 278.425 523.937 278.499 523.457 278.499ZM528.05 281.011V271.261H529.103V272.387H529.232C529.312 272.264 529.423 272.107 529.565 271.916C529.709 271.722 529.915 271.55 530.183 271.399C530.454 271.245 530.82 271.168 531.282 271.168C531.879 271.168 532.405 271.318 532.861 271.616C533.316 271.915 533.672 272.338 533.927 272.886C534.183 273.433 534.31 274.08 534.31 274.825C534.31 275.576 534.183 276.226 533.927 276.777C533.672 277.325 533.318 277.75 532.865 278.051C532.413 278.35 531.891 278.499 531.3 278.499C530.845 278.499 530.48 278.424 530.206 278.273C529.932 278.119 529.722 277.945 529.574 277.751C529.426 277.554 529.312 277.391 529.232 277.262H529.14V281.011H528.05ZM529.121 274.806C529.121 275.342 529.2 275.814 529.357 276.223C529.514 276.63 529.743 276.948 530.045 277.179C530.346 277.407 530.716 277.521 531.153 277.521C531.608 277.521 531.988 277.401 532.293 277.161C532.601 276.917 532.832 276.591 532.985 276.182C533.142 275.769 533.221 275.311 533.221 274.806C533.221 274.308 533.144 273.858 532.99 273.458C532.839 273.055 532.61 272.736 532.302 272.502C531.997 272.266 531.614 272.147 531.153 272.147C530.709 272.147 530.337 272.259 530.035 272.484C529.734 272.706 529.506 273.016 529.352 273.417C529.198 273.814 529.121 274.277 529.121 274.806Z" fill="#0F151F"/>
<path d="M575.265 273.624C575.265 274.621 575.085 275.483 574.725 276.21C574.365 276.936 573.871 277.496 573.243 277.89C572.615 278.284 571.898 278.481 571.091 278.481C570.285 278.481 569.568 278.284 568.94 277.89C568.312 277.496 567.818 276.936 567.458 276.21C567.098 275.483 566.918 274.621 566.918 273.624C566.918 272.627 567.098 271.765 567.458 271.039C567.818 270.313 568.312 269.753 568.94 269.359C569.568 268.965 570.285 268.768 571.091 268.768C571.898 268.768 572.615 268.965 573.243 269.359C573.871 269.753 574.365 270.313 574.725 271.039C575.085 271.765 575.265 272.627 575.265 273.624ZM574.157 273.624C574.157 272.806 574.02 272.115 573.746 271.551C573.475 270.988 573.107 270.562 572.643 270.273C572.181 269.983 571.664 269.839 571.091 269.839C570.519 269.839 570 269.983 569.536 270.273C569.074 270.562 568.706 270.988 568.432 271.551C568.162 272.115 568.026 272.806 568.026 273.624C568.026 274.443 568.162 275.134 568.432 275.697C568.706 276.26 569.074 276.687 569.536 276.976C570 277.265 570.519 277.41 571.091 277.41C571.664 277.41 572.181 277.265 572.643 276.976C573.107 276.687 573.475 276.26 573.746 275.697C574.02 275.134 574.157 274.443 574.157 273.624ZM579.923 278.499C579.258 278.499 578.686 278.342 578.205 278.028C577.725 277.714 577.356 277.282 577.097 276.731C576.839 276.18 576.71 275.551 576.71 274.843C576.71 274.123 576.842 273.487 577.107 272.936C577.374 272.382 577.747 271.95 578.224 271.639C578.704 271.325 579.264 271.168 579.904 271.168C580.403 271.168 580.852 271.261 581.252 271.445C581.652 271.63 581.98 271.888 582.236 272.221C582.491 272.553 582.65 272.941 582.711 273.384H581.622C581.539 273.061 581.354 272.775 581.068 272.526C580.785 272.273 580.403 272.147 579.923 272.147C579.498 272.147 579.126 272.258 578.806 272.479C578.489 272.698 578.241 273.007 578.062 273.407C577.887 273.804 577.799 274.271 577.799 274.806C577.799 275.354 577.885 275.831 578.058 276.237C578.233 276.643 578.479 276.959 578.796 277.184C579.116 277.408 579.492 277.521 579.923 277.521C580.206 277.521 580.463 277.471 580.694 277.373C580.925 277.274 581.12 277.133 581.28 276.948C581.44 276.763 581.554 276.542 581.622 276.283H582.711C582.65 276.702 582.497 277.079 582.254 277.414C582.014 277.747 581.695 278.011 581.298 278.208C580.905 278.402 580.446 278.499 579.923 278.499ZM587.388 271.261V272.184H583.713V271.261H587.388ZM584.784 269.562H585.873V276.32C585.873 276.628 585.918 276.859 586.007 277.013C586.1 277.164 586.217 277.265 586.358 277.317C586.503 277.367 586.655 277.391 586.815 277.391C586.935 277.391 587.034 277.385 587.111 277.373C587.188 277.357 587.249 277.345 587.295 277.336L587.517 278.315C587.443 278.342 587.34 278.37 587.208 278.398C587.075 278.429 586.907 278.444 586.704 278.444C586.397 278.444 586.095 278.378 585.8 278.245C585.507 278.113 585.264 277.911 585.07 277.641C584.879 277.37 584.784 277.028 584.784 276.616V269.562Z" fill="#0F151F"/>
<path d="M627.964 268.897V278.352H626.856L621.704 270.928H621.612V278.352H620.467V268.897H621.575L626.746 276.339H626.838V268.897H627.964ZM632.988 278.499C632.348 278.499 631.786 278.347 631.303 278.042C630.823 277.738 630.448 277.311 630.177 276.763C629.909 276.216 629.775 275.576 629.775 274.843C629.775 274.104 629.909 273.46 630.177 272.909C630.448 272.358 630.823 271.93 631.303 271.625C631.786 271.321 632.348 271.168 632.988 271.168C633.628 271.168 634.188 271.321 634.669 271.625C635.152 271.93 635.527 272.358 635.795 272.909C636.066 273.46 636.201 274.104 636.201 274.843C636.201 275.576 636.066 276.216 635.795 276.763C635.527 277.311 635.152 277.738 634.669 278.042C634.188 278.347 633.628 278.499 632.988 278.499ZM632.988 277.521C633.474 277.521 633.875 277.396 634.188 277.147C634.502 276.897 634.735 276.57 634.886 276.163C635.036 275.757 635.112 275.317 635.112 274.843C635.112 274.369 635.036 273.927 634.886 273.518C634.735 273.109 634.502 272.778 634.188 272.526C633.875 272.273 633.474 272.147 632.988 272.147C632.502 272.147 632.102 272.273 631.788 272.526C631.474 272.778 631.242 273.109 631.091 273.518C630.94 273.927 630.865 274.369 630.865 274.843C630.865 275.317 630.94 275.757 631.091 276.163C631.242 276.57 631.474 276.897 631.788 277.147C632.102 277.396 632.502 277.521 632.988 277.521ZM643.409 271.261L640.787 278.352H639.679L637.056 271.261H638.238L640.196 276.911H640.27L642.227 271.261H643.409Z" fill="#0F151F"/>
<path d="M679.562 278.352H676.645V268.897H679.692C680.609 268.897 681.394 269.086 682.046 269.465C682.699 269.84 683.199 270.38 683.547 271.085C683.894 271.787 684.068 272.627 684.068 273.606C684.068 274.591 683.893 275.439 683.542 276.15C683.191 276.857 682.68 277.402 682.009 277.784C681.338 278.162 680.523 278.352 679.562 278.352ZM677.79 277.336H679.489C680.27 277.336 680.918 277.185 681.432 276.884C681.946 276.582 682.329 276.153 682.582 275.596C682.834 275.038 682.96 274.375 682.96 273.606C682.96 272.843 682.836 272.185 682.586 271.635C682.337 271.081 681.965 270.656 681.469 270.36C680.974 270.062 680.357 269.913 679.618 269.913H677.79V277.336ZM688.814 278.499C688.131 278.499 687.541 278.348 687.046 278.047C686.553 277.742 686.173 277.317 685.906 276.773C685.641 276.225 685.509 275.588 685.509 274.862C685.509 274.135 685.641 273.495 685.906 272.941C686.173 272.384 686.546 271.95 687.023 271.639C687.503 271.325 688.063 271.168 688.703 271.168C689.072 271.168 689.437 271.23 689.797 271.353C690.157 271.476 690.485 271.676 690.781 271.953C691.076 272.227 691.311 272.59 691.487 273.043C691.662 273.495 691.75 274.052 691.75 274.714V275.175H686.284V274.234H690.642C690.642 273.834 690.562 273.477 690.402 273.163C690.245 272.849 690.02 272.601 689.728 272.419C689.439 272.238 689.097 272.147 688.703 272.147C688.269 272.147 687.894 272.255 687.577 272.47C687.263 272.683 687.021 272.96 686.852 273.301C686.683 273.643 686.598 274.009 686.598 274.4V275.028C686.598 275.563 686.69 276.017 686.875 276.39C687.063 276.759 687.323 277.04 687.655 277.234C687.988 277.425 688.374 277.521 688.814 277.521C689.1 277.521 689.359 277.481 689.589 277.401C689.823 277.317 690.025 277.194 690.194 277.031C690.364 276.865 690.494 276.659 690.587 276.413L691.639 276.708C691.528 277.065 691.342 277.379 691.081 277.65C690.819 277.918 690.496 278.127 690.111 278.278C689.726 278.425 689.294 278.499 688.814 278.499ZM696.288 278.499C695.623 278.499 695.051 278.342 694.571 278.028C694.091 277.714 693.721 277.282 693.463 276.731C693.204 276.18 693.075 275.551 693.075 274.843C693.075 274.123 693.207 273.487 693.472 272.936C693.74 272.382 694.112 271.95 694.589 271.639C695.069 271.325 695.629 271.168 696.27 271.168C696.768 271.168 697.217 271.261 697.618 271.445C698.018 271.63 698.345 271.888 698.601 272.221C698.856 272.553 699.015 272.941 699.076 273.384H697.987C697.904 273.061 697.719 272.775 697.433 272.526C697.15 272.273 696.768 272.147 696.288 272.147C695.863 272.147 695.491 272.258 695.171 272.479C694.854 272.698 694.606 273.007 694.428 273.407C694.252 273.804 694.164 274.271 694.164 274.806C694.164 275.354 694.251 275.831 694.423 276.237C694.598 276.643 694.845 276.959 695.162 277.184C695.482 277.408 695.857 277.521 696.288 277.521C696.571 277.521 696.828 277.471 697.059 277.373C697.29 277.274 697.485 277.133 697.645 276.948C697.805 276.763 697.919 276.542 697.987 276.283H699.076C699.015 276.702 698.862 277.079 698.619 277.414C698.379 277.747 698.061 278.011 697.664 278.208C697.27 278.402 696.811 278.499 696.288 278.499Z" fill="#0F151F"/>
<rect x="45.6719" y="76" width="24.7389" height="175" fill="#D50036"/>
<rect x="106.391" y="131" width="24.7389" height="120" fill="#D50036"/>
<rect x="167.117" y="160" width="24.7389" height="91" fill="#D50036"/>
<rect x="227.844" y="80" width="24.7389" height="171" fill="#D50036"/>
<rect x="288.562" y="200" width="24.7389" height="51" fill="#D50036"/>
<rect x="349.289" y="120" width="24.7389" height="131" fill="#D50036"/>
<rect x="410.008" y="241" width="24.7389" height="10" fill="#D50036"/>
<rect x="470.734" y="200" width="24.7389" height="51" fill="#D50036"/>
<rect x="531.453" y="217" width="23.6144" height="34" fill="#D50036"/>
<rect x="591.055" y="160" width="24.7389" height="91" fill="#D50036"/>
<rect x="651.773" y="241" width="24.7389" height="10" fill="#D50036"/>
<rect x="712.5" y="241" width="24.7389" height="10" fill="#D50036"/>
</svg>
