<svg width="6" height="10" viewBox="0 0 6 10" fill="none" xmlns="http://www.w3.org/2000/svg">
<path fill-rule="evenodd" clip-rule="evenodd" d="M5.707 0.293031C5.89447 0.480558 5.99979 0.734866 5.99979 1.00003C5.99979 1.26519 5.89447 1.5195 5.707 1.70703L2.414 5.00003L5.707 8.29303C5.88916 8.48163 5.98995 8.73423 5.98767 8.99643C5.9854 9.25863 5.88023 9.50944 5.69482 9.69485C5.50941 9.88026 5.2586 9.98543 4.9964 9.9877C4.7342 9.98998 4.4816 9.88919 4.293 9.70703L0.293 5.70703C0.105529 5.5195 0.000213623 5.26519 0.000213623 5.00003C0.000213623 4.73487 0.105529 4.48056 0.293 4.29303L4.293 0.293031C4.48053 0.10556 4.73484 0.000244141 5 0.000244141C5.26516 0.000244141 5.51947 0.10556 5.707 0.293031Z" fill="#18181B"/>
</svg>
