<svg width="20" height="20" viewBox="0 0 20 20" fill="none" xmlns="http://www.w3.org/2000/svg">
<path d="M2.14279 19.2856L17.8571 19.2856C18.6461 19.2856 19.2856 18.6461 19.2856 17.8571L19.2856 2.14279C19.2856 1.35381 18.6461 0.714214 17.8571 0.714214L2.14279 0.714214C1.35381 0.714214 0.714216 1.35381 0.714216 2.14279L0.714216 17.8571C0.714216 18.6461 1.35381 19.2856 2.14279 19.2856Z" stroke="white" stroke-width="2" stroke-linecap="round" stroke-linejoin="round"/>
<path d="M4.28564 4.28564H7.14279M4.28564 7.85707H10.7142M16.4285 7.85707L13.1501 13.321C12.5904 14.254 11.3875 14.5683 10.4429 14.0285L8.76364 13.069C7.85097 12.5475 6.69034 12.8215 6.10726 13.6961L4.28564 16.4285" stroke="white" stroke-width="2" stroke-linecap="round" stroke-linejoin="round"/>
</svg>
