<svg width="31" height="32" viewBox="0 0 31 32" fill="none" xmlns="http://www.w3.org/2000/svg">
<g clip-path="url(#clip0_1057_38655)">
<path fill-rule="evenodd" clip-rule="evenodd" d="M19.2 21.9032V17.6C19.2 13.7396 16.578 10.4876 13.026 9.5096C12.6744 8.624 11.8152 8 10.8 8C9.7848 8 8.9256 8.624 8.574 9.5096C5.022 10.4888 2.4 13.7396 2.4 17.6V21.9032L0.3516 23.9516C0.126 24.176 0 24.4808 0 24.8V27.2C0 27.8636 0.5364 28.4 1.2 28.4H20.4C21.0636 28.4 21.6 27.8636 21.6 27.2V24.8C21.6 24.4808 21.474 24.176 21.2484 23.9516L19.2 21.9032ZM19.2001 26H2.40009V25.2968L4.44849 23.2484C4.67409 23.024 4.80009 22.7192 4.80009 22.4V17.6C4.80009 14.2916 7.49169 11.6 10.8001 11.6C14.1085 11.6 16.8001 14.2916 16.8001 17.6V22.4C16.8001 22.7192 16.9261 23.024 17.1517 23.2484L19.2001 25.2968V26ZM10.8001 32C12.3733 32 13.6885 30.9992 14.1817 29.6H7.41848C7.91168 30.9992 9.22688 32 10.8001 32Z" fill="#0F151F"/>
<circle cx="21.1143" cy="11" r="9" fill="#FD4F00"/>
<path d="M21.4284 5.601H22.8259V11.4835H24.3534V12.686H22.8259V15H21.4739V12.686H17.0734V11.464L21.4284 5.601ZM18.3864 11.4835H21.4544V7.369L18.3864 11.4835Z" fill="white"/>
</g>
<defs>
<clipPath id="clip0_1057_38655">
<rect width="30.1143" height="32" fill="white"/>
</clipPath>
</defs>
</svg>
