<svg width="24" height="24" viewBox="0 0 24 24" fill="none"
    xmlns="http://www.w3.org/2000/svg">
    <path d="M16.1115 6.75011L16.1115 6.75001C16.2036 5.50409 15.8146 4.37082 15.0422 3.53682C14.2791 2.71294 13.2081 2.25 11.9999 2.25C10.7811 2.25 9.70676 2.7119 8.94981 3.52784L16.1115 6.75011ZM16.1115 6.75011C15.9217 9.32228 13.9865 11.25 11.9999 11.25C10.0128 11.25 8.07486 9.32135 7.88797 6.75029L16.1115 6.75011ZM7.88795 6.75003C7.79668 5.4869 8.18553 4.35187 8.94976 3.52789L7.88795 6.75003Z" stroke="#B3B3B3" stroke-width="1.5"/>
    <path d="M3.7499 21.7499V21.75H20.2499V22.5L20.2594 21.7501C20.364 21.7514 20.4675 21.7294 20.5624 21.6857C20.6574 21.642 20.7414 21.5777 20.8083 21.4974L20.809 21.4966C20.9592 21.3171 21.0376 21.0496 20.9828 20.7467L20.9827 20.7463C20.6251 18.7625 19.5137 17.0919 17.7341 15.9054L3.7499 21.7499ZM3.7499 21.7499L3.74015 21.7501M3.7499 21.7499L3.74015 21.7501M3.74015 21.7501C3.63564 21.7514 3.53215 21.7295 3.4372 21.6858C3.34226 21.6421 3.25824 21.5778 3.19126 21.4976L3.19078 21.497M3.74015 21.7501L3.19078 21.497M3.19078 21.497C3.04063 21.3176 2.96224 21.0501 3.017 20.7472L3.01707 20.7468M3.19078 21.497L3.01707 20.7468M3.01707 20.7468C3.37469 18.7629 4.48612 17.0923 6.26581 15.9054L3.01707 20.7468ZM6.26603 15.9052C7.85665 14.8453 9.89319 14.25 11.9999 14.25C14.1065 14.25 16.1431 14.8457 17.7339 15.9053L6.26603 15.9052Z" stroke="#B3B3B3" stroke-width="1.5"/>
</svg>
