<svg width="346" height="346" viewBox="0 0 346 346" fill="none" xmlns="http://www.w3.org/2000/svg">
<mask id="mask0_325_3964" style="mask-type:luminance" maskUnits="userSpaceOnUse" x="32" y="32" width="283" height="283">
<circle cx="173.39" cy="173.471" r="140.869" transform="rotate(-165 173.39 173.471)" fill="white"/>
</mask>
<g mask="url(#mask0_325_3964)">
<circle cx="173.39" cy="173.471" r="140.869" transform="rotate(-165 173.39 173.471)" fill="#575757"/>
<path fill-rule="evenodd" clip-rule="evenodd" d="M299.331 283.852L173.394 173.468L166.646 25.8218L280.034 43.5745L336.53 168.107L299.331 283.852Z" fill="#00A676" stroke="white" stroke-width="2"/>
<path d="M93.2959 175.992V186H92.0312V177.571L89.4814 178.501V177.359L93.0977 175.992H93.2959ZM103.536 184.961V186H97.0215V185.091L100.282 181.461C100.683 181.014 100.993 180.636 101.212 180.326C101.435 180.012 101.59 179.731 101.677 179.485C101.768 179.235 101.813 178.979 101.813 178.72C101.813 178.392 101.745 178.095 101.608 177.831C101.476 177.562 101.28 177.348 101.021 177.188C100.761 177.029 100.446 176.949 100.077 176.949C99.6351 176.949 99.266 177.036 98.9697 177.209C98.6781 177.378 98.4593 177.615 98.3135 177.92C98.1676 178.225 98.0947 178.576 98.0947 178.973H96.8301C96.8301 178.412 96.9531 177.899 97.1992 177.435C97.4453 176.97 97.8099 176.601 98.293 176.327C98.776 176.049 99.3708 175.91 100.077 175.91C100.706 175.91 101.244 176.022 101.69 176.245C102.137 176.464 102.479 176.774 102.716 177.175C102.957 177.571 103.078 178.036 103.078 178.569C103.078 178.861 103.028 179.157 102.928 179.458C102.832 179.754 102.698 180.05 102.524 180.347C102.356 180.643 102.158 180.935 101.93 181.222C101.706 181.509 101.467 181.791 101.212 182.069L98.5459 184.961H103.536ZM111.616 182.65V183.689H104.425V182.944L108.882 176.047H109.914L108.807 178.043L105.86 182.65H111.616ZM110.229 176.047V186H108.964V176.047H110.229ZM114.364 181.263L113.353 181.003L113.852 176.047H118.958V177.216H114.925L114.624 179.923C114.806 179.818 115.036 179.72 115.314 179.629C115.597 179.538 115.921 179.492 116.285 179.492C116.745 179.492 117.158 179.572 117.522 179.731C117.887 179.886 118.197 180.11 118.452 180.401C118.712 180.693 118.91 181.044 119.047 181.454C119.184 181.864 119.252 182.322 119.252 182.828C119.252 183.307 119.186 183.746 119.054 184.147C118.926 184.549 118.732 184.899 118.473 185.2C118.213 185.496 117.885 185.727 117.488 185.891C117.096 186.055 116.634 186.137 116.101 186.137C115.7 186.137 115.319 186.082 114.959 185.973C114.604 185.859 114.285 185.688 114.002 185.46C113.724 185.228 113.496 184.94 113.318 184.599C113.145 184.252 113.036 183.847 112.99 183.382H114.193C114.248 183.756 114.357 184.07 114.521 184.325C114.686 184.58 114.9 184.774 115.164 184.906C115.433 185.034 115.745 185.098 116.101 185.098C116.401 185.098 116.668 185.045 116.9 184.94C117.133 184.836 117.329 184.685 117.488 184.489C117.648 184.293 117.769 184.056 117.851 183.778C117.937 183.5 117.98 183.188 117.98 182.842C117.98 182.527 117.937 182.236 117.851 181.967C117.764 181.698 117.634 181.463 117.461 181.263C117.292 181.062 117.085 180.907 116.839 180.798C116.593 180.684 116.31 180.627 115.991 180.627C115.567 180.627 115.246 180.684 115.027 180.798C114.813 180.912 114.592 181.067 114.364 181.263ZM126.888 180.23V181.748C126.888 182.564 126.815 183.252 126.669 183.812C126.523 184.373 126.313 184.824 126.04 185.166C125.767 185.508 125.436 185.756 125.049 185.911C124.666 186.062 124.233 186.137 123.75 186.137C123.367 186.137 123.014 186.089 122.69 185.993C122.367 185.897 122.075 185.745 121.815 185.535C121.56 185.321 121.341 185.043 121.159 184.701C120.977 184.359 120.838 183.945 120.742 183.457C120.646 182.969 120.599 182.4 120.599 181.748V180.23C120.599 179.415 120.672 178.731 120.817 178.18C120.968 177.628 121.18 177.186 121.453 176.854C121.727 176.516 122.055 176.275 122.438 176.129C122.825 175.983 123.258 175.91 123.736 175.91C124.124 175.91 124.479 175.958 124.803 176.054C125.131 176.145 125.423 176.293 125.678 176.498C125.933 176.699 126.149 176.967 126.327 177.305C126.509 177.637 126.648 178.045 126.744 178.528C126.84 179.011 126.888 179.579 126.888 180.23ZM125.616 181.953V180.019C125.616 179.572 125.589 179.18 125.534 178.843C125.484 178.501 125.409 178.209 125.309 177.968C125.208 177.726 125.081 177.53 124.926 177.38C124.775 177.229 124.6 177.12 124.399 177.052C124.203 176.979 123.982 176.942 123.736 176.942C123.436 176.942 123.169 176.999 122.937 177.113C122.704 177.223 122.508 177.398 122.349 177.64C122.194 177.881 122.075 178.198 121.993 178.59C121.911 178.982 121.87 179.458 121.87 180.019V181.953C121.87 182.4 121.895 182.794 121.945 183.136C122 183.478 122.08 183.774 122.185 184.024C122.289 184.271 122.417 184.473 122.567 184.633C122.718 184.792 122.891 184.911 123.087 184.988C123.287 185.061 123.508 185.098 123.75 185.098C124.06 185.098 124.331 185.038 124.563 184.92C124.796 184.801 124.99 184.617 125.145 184.366C125.304 184.111 125.423 183.785 125.5 183.389C125.577 182.988 125.616 182.509 125.616 181.953Z" fill="white"/>
<path d="M230.614 143.263L229.603 143.003L230.102 138.047H235.208V139.216H231.175L230.874 141.923C231.056 141.818 231.286 141.72 231.564 141.629C231.847 141.538 232.171 141.492 232.535 141.492C232.995 141.492 233.408 141.572 233.772 141.731C234.137 141.886 234.447 142.11 234.702 142.401C234.962 142.693 235.16 143.044 235.297 143.454C235.434 143.864 235.502 144.322 235.502 144.828C235.502 145.307 235.436 145.746 235.304 146.147C235.176 146.549 234.982 146.899 234.723 147.2C234.463 147.496 234.135 147.727 233.738 147.891C233.346 148.055 232.884 148.137 232.351 148.137C231.95 148.137 231.569 148.082 231.209 147.973C230.854 147.859 230.535 147.688 230.252 147.46C229.974 147.228 229.746 146.94 229.568 146.599C229.395 146.252 229.286 145.847 229.24 145.382H230.443C230.498 145.756 230.607 146.07 230.771 146.325C230.936 146.58 231.15 146.774 231.414 146.906C231.683 147.034 231.995 147.098 232.351 147.098C232.651 147.098 232.918 147.045 233.15 146.94C233.383 146.836 233.579 146.685 233.738 146.489C233.898 146.293 234.019 146.056 234.101 145.778C234.187 145.5 234.23 145.188 234.23 144.842C234.23 144.527 234.187 144.236 234.101 143.967C234.014 143.698 233.884 143.463 233.711 143.263C233.542 143.062 233.335 142.907 233.089 142.798C232.843 142.684 232.56 142.627 232.241 142.627C231.817 142.627 231.496 142.684 231.277 142.798C231.063 142.912 230.842 143.067 230.614 143.263ZM238.489 143.263L237.478 143.003L237.977 138.047H243.083V139.216H239.05L238.749 141.923C238.931 141.818 239.161 141.72 239.439 141.629C239.722 141.538 240.046 141.492 240.41 141.492C240.87 141.492 241.283 141.572 241.647 141.731C242.012 141.886 242.322 142.11 242.577 142.401C242.837 142.693 243.035 143.044 243.172 143.454C243.309 143.864 243.377 144.322 243.377 144.828C243.377 145.307 243.311 145.746 243.179 146.147C243.051 146.549 242.857 146.899 242.598 147.2C242.338 147.496 242.01 147.727 241.613 147.891C241.221 148.055 240.759 148.137 240.226 148.137C239.825 148.137 239.444 148.082 239.084 147.973C238.729 147.859 238.41 147.688 238.127 147.46C237.849 147.228 237.621 146.94 237.443 146.599C237.27 146.252 237.161 145.847 237.115 145.382H238.318C238.373 145.756 238.482 146.07 238.646 146.325C238.811 146.58 239.025 146.774 239.289 146.906C239.558 147.034 239.87 147.098 240.226 147.098C240.526 147.098 240.793 147.045 241.025 146.94C241.258 146.836 241.454 146.685 241.613 146.489C241.773 146.293 241.894 146.056 241.976 145.778C242.062 145.5 242.105 145.188 242.105 144.842C242.105 144.527 242.062 144.236 241.976 143.967C241.889 143.698 241.759 143.463 241.586 143.263C241.417 143.062 241.21 142.907 240.964 142.798C240.718 142.684 240.435 142.627 240.116 142.627C239.692 142.627 239.371 142.684 239.152 142.798C238.938 142.912 238.717 143.067 238.489 143.263ZM251.013 142.23V143.748C251.013 144.564 250.94 145.252 250.794 145.812C250.648 146.373 250.438 146.824 250.165 147.166C249.892 147.508 249.561 147.756 249.174 147.911C248.791 148.062 248.358 148.137 247.875 148.137C247.492 148.137 247.139 148.089 246.815 147.993C246.492 147.897 246.2 147.745 245.94 147.535C245.685 147.321 245.466 147.043 245.284 146.701C245.102 146.359 244.963 145.945 244.867 145.457C244.771 144.969 244.724 144.4 244.724 143.748V142.23C244.724 141.415 244.797 140.731 244.942 140.18C245.093 139.628 245.305 139.186 245.578 138.854C245.852 138.516 246.18 138.275 246.562 138.129C246.95 137.983 247.383 137.91 247.861 137.91C248.249 137.91 248.604 137.958 248.928 138.054C249.256 138.145 249.548 138.293 249.803 138.498C250.058 138.699 250.274 138.967 250.452 139.305C250.634 139.637 250.773 140.045 250.869 140.528C250.965 141.011 251.013 141.579 251.013 142.23ZM249.741 143.953V142.019C249.741 141.572 249.714 141.18 249.659 140.843C249.609 140.501 249.534 140.209 249.434 139.968C249.333 139.726 249.206 139.53 249.051 139.38C248.9 139.229 248.725 139.12 248.524 139.052C248.328 138.979 248.107 138.942 247.861 138.942C247.561 138.942 247.294 138.999 247.062 139.113C246.829 139.223 246.633 139.398 246.474 139.64C246.319 139.881 246.2 140.198 246.118 140.59C246.036 140.982 245.995 141.458 245.995 142.019V143.953C245.995 144.4 246.02 144.794 246.07 145.136C246.125 145.478 246.205 145.774 246.31 146.024C246.414 146.271 246.542 146.473 246.692 146.633C246.843 146.792 247.016 146.911 247.212 146.988C247.412 147.061 247.633 147.098 247.875 147.098C248.185 147.098 248.456 147.038 248.688 146.92C248.921 146.801 249.115 146.617 249.27 146.366C249.429 146.111 249.548 145.785 249.625 145.389C249.702 144.988 249.741 144.509 249.741 143.953Z" fill="white"/>
</g>
</svg>
