<svg width="6" height="10" viewBox="0 0 6 10" fill="none" xmlns="http://www.w3.org/2000/svg">
<path fill-rule="evenodd" clip-rule="evenodd" d="M0.293 9.70698C0.105529 9.51945 0.000213623 9.26514 0.000213623 8.99998C0.000213623 8.73482 0.105529 8.48051 0.293 8.29298L3.586 4.99998L0.293 1.70698C0.110842 1.51838 0.0100473 1.26578 0.0123258 1.00358C0.0146042 0.741382 0.119773 0.49057 0.305182 0.305162C0.49059 0.119753 0.741402 0.0145843 1.0036 0.0123059C1.2658 0.0100274 1.5184 0.110822 1.707 0.29298L5.707 4.29298C5.89447 4.48051 5.99979 4.73482 5.99979 4.99998C5.99979 5.26514 5.89447 5.51945 5.707 5.70698L1.707 9.70698C1.51947 9.89445 1.26516 9.99977 1 9.99977C0.734836 9.99977 0.480528 9.89445 0.293 9.70698Z" fill="#18181B"/>
</svg>
