<svg width="1077" height="425" viewBox="0 0 1077 425" fill="none" xmlns="http://www.w3.org/2000/svg">
<path d="M16.5586 17.5703C16.5586 17.2422 16.5078 16.9492 16.4062 16.6914C16.3125 16.4258 16.1367 16.1875 15.8789 15.9766C15.6289 15.7578 15.2734 15.5469 14.8125 15.3438C14.3594 15.1328 13.7734 14.9141 13.0547 14.6875C12.2578 14.4375 11.5156 14.1562 10.8281 13.8438C10.1406 13.5312 9.53516 13.168 9.01172 12.7539C8.49609 12.3398 8.09375 11.8633 7.80469 11.3242C7.51562 10.7773 7.37109 10.1445 7.37109 9.42578C7.37109 8.72266 7.51953 8.08203 7.81641 7.50391C8.12109 6.92578 8.55078 6.42969 9.10547 6.01562C9.66016 5.59375 10.3125 5.26953 11.0625 5.04297C11.8203 4.81641 12.6562 4.70312 13.5703 4.70312C14.8359 4.70312 15.9297 4.93359 16.8516 5.39453C17.7812 5.85547 18.5 6.48047 19.0078 7.26953C19.5156 8.05859 19.7695 8.94531 19.7695 9.92969H16.5586C16.5586 9.39844 16.4453 8.92969 16.2188 8.52344C16 8.11719 15.6641 7.79688 15.2109 7.5625C14.7656 7.32812 14.2031 7.21094 13.5234 7.21094C12.8672 7.21094 12.3203 7.30859 11.8828 7.50391C11.4531 7.69922 11.1289 7.96484 10.9102 8.30078C10.6992 8.63672 10.5938 9.01172 10.5938 9.42578C10.5938 9.73828 10.668 10.0195 10.8164 10.2695C10.9648 10.5117 11.1875 10.7422 11.4844 10.9609C11.7812 11.1719 12.1484 11.3711 12.5859 11.5586C13.0312 11.7383 13.5469 11.918 14.1328 12.0977C15.0703 12.3789 15.8906 12.6914 16.5938 13.0352C17.3047 13.3789 17.8945 13.7695 18.3633 14.207C18.8398 14.6445 19.1953 15.1367 19.4297 15.6836C19.6719 16.2305 19.793 16.8516 19.793 17.5469C19.793 18.2812 19.6484 18.9375 19.3594 19.5156C19.0703 20.0938 18.6562 20.5859 18.1172 20.9922C17.5781 21.3984 16.9297 21.707 16.1719 21.918C15.4219 22.1289 14.582 22.2344 13.6523 22.2344C12.8242 22.2344 12.0039 22.125 11.1914 21.9062C10.3867 21.6797 9.65625 21.3438 9 20.8984C8.34375 20.4453 7.82031 19.875 7.42969 19.1875C7.03906 18.4922 6.84375 17.6797 6.84375 16.75H10.0781C10.0781 17.2891 10.1641 17.75 10.3359 18.1328C10.5156 18.5078 10.7656 18.8164 11.0859 19.0586C11.4141 19.293 11.7969 19.4648 12.2344 19.5742C12.6719 19.6836 13.1445 19.7383 13.6523 19.7383C14.3086 19.7383 14.8477 19.6484 15.2695 19.4688C15.6992 19.2812 16.0195 19.0234 16.2305 18.6953C16.4492 18.3672 16.5586 17.9922 16.5586 17.5703ZM28.5473 19.3047V13.457C28.5473 13.0273 28.4731 12.6562 28.3247 12.3438C28.1763 12.0312 27.9497 11.7891 27.645 11.6172C27.3403 11.4453 26.9536 11.3594 26.4848 11.3594C26.0708 11.3594 25.7075 11.4297 25.395 11.5703C25.0903 11.7109 24.8559 11.9102 24.6919 12.168C24.5278 12.418 24.4458 12.707 24.4458 13.0352H21.3403C21.3403 12.5117 21.4653 12.0156 21.7153 11.5469C21.9653 11.0703 22.3208 10.6484 22.7817 10.2812C23.2505 9.90625 23.8091 9.61328 24.4575 9.40234C25.1138 9.19141 25.8481 9.08594 26.6606 9.08594C27.6216 9.08594 28.477 9.25 29.227 9.57812C29.9848 9.89844 30.5786 10.3828 31.0083 11.0312C31.4458 11.6797 31.6645 12.4961 31.6645 13.4805V19.0117C31.6645 19.6445 31.7036 20.1875 31.7817 20.6406C31.8677 21.0859 31.9927 21.4727 32.1567 21.8008V22H29.0044C28.8559 21.6797 28.7427 21.2734 28.6645 20.7812C28.5864 20.2812 28.5473 19.7891 28.5473 19.3047ZM28.9809 14.2773L29.0044 16.1172H27.0473C26.563 16.1172 26.1372 16.168 25.77 16.2695C25.4028 16.3633 25.102 16.5039 24.8677 16.6914C24.6333 16.8711 24.4575 17.0898 24.3403 17.3477C24.2231 17.5977 24.1645 17.8828 24.1645 18.2031C24.1645 18.5156 24.2348 18.7969 24.3755 19.0469C24.5239 19.2969 24.7348 19.4961 25.0083 19.6445C25.2895 19.7852 25.6177 19.8555 25.9927 19.8555C26.5395 19.8555 27.0161 19.7461 27.4223 19.5273C27.8286 19.3008 28.145 19.0273 28.3716 18.707C28.5981 18.3867 28.7192 18.082 28.7348 17.793L29.6255 19.1289C29.5161 19.4492 29.352 19.7891 29.1333 20.1484C28.9145 20.5078 28.6333 20.8438 28.2895 21.1562C27.9458 21.4688 27.5317 21.7266 27.0473 21.9297C26.563 22.1328 26.0005 22.2344 25.3598 22.2344C24.5395 22.2344 23.8052 22.0703 23.1567 21.7422C22.5083 21.4141 21.9966 20.9648 21.6216 20.3945C21.2466 19.8242 21.0591 19.1758 21.0591 18.4492C21.0591 17.7773 21.1841 17.1836 21.4341 16.668C21.6841 16.1523 22.0552 15.7188 22.5473 15.3672C23.0395 15.0078 23.6489 14.7383 24.3755 14.5586C25.1098 14.3711 25.9497 14.2773 26.895 14.2773H28.9809ZM37.2548 4V22H34.1494V4H37.2548ZM45.4233 22.2344C44.4623 22.2344 43.5991 22.0781 42.8334 21.7656C42.0678 21.4531 41.4155 21.0195 40.8764 20.4648C40.3452 19.9023 39.935 19.25 39.6459 18.5078C39.3647 17.7578 39.2241 16.9531 39.2241 16.0938V15.625C39.2241 14.6484 39.3647 13.7617 39.6459 12.9648C39.9272 12.1602 40.3256 11.4688 40.8413 10.8906C41.3569 10.3125 41.9741 9.86719 42.6928 9.55469C43.4116 9.24219 44.2045 9.08594 45.0717 9.08594C45.9702 9.08594 46.7631 9.23828 47.4506 9.54297C48.1381 9.83984 48.7123 10.2617 49.1733 10.8086C49.6342 11.3555 49.9819 12.0117 50.2163 12.7773C50.4506 13.5352 50.5678 14.375 50.5678 15.2969V16.5977H40.6303V14.4648H47.5209V14.2305C47.5053 13.7383 47.4116 13.2891 47.2397 12.8828C47.0678 12.4688 46.8022 12.1406 46.4428 11.8984C46.0834 11.6484 45.6186 11.5234 45.0483 11.5234C44.5873 11.5234 44.185 11.625 43.8413 11.8281C43.5053 12.0234 43.2241 12.3047 42.9975 12.6719C42.7788 13.0312 42.6147 13.4609 42.5053 13.9609C42.3959 14.4609 42.3413 15.0156 42.3413 15.625V16.0938C42.3413 16.625 42.4116 17.1172 42.5522 17.5703C42.7006 18.0234 42.9155 18.418 43.1967 18.7539C43.4858 19.082 43.8295 19.3398 44.228 19.5273C44.6342 19.707 45.0952 19.7969 45.6108 19.7969C46.2592 19.7969 46.8452 19.6719 47.3686 19.4219C47.8998 19.1641 48.3608 18.7852 48.7514 18.2852L50.31 19.9023C50.0444 20.293 49.685 20.668 49.2319 21.0273C48.7866 21.3867 48.2475 21.6797 47.6147 21.9062C46.9819 22.125 46.2514 22.2344 45.4233 22.2344ZM59.1347 18.5312C59.1347 18.2656 59.0644 18.0273 58.9238 17.8164C58.7831 17.6055 58.5175 17.4141 58.1269 17.2422C57.7441 17.0625 57.1816 16.8945 56.4394 16.7383C55.7831 16.5977 55.1777 16.4219 54.623 16.2109C54.0683 16 53.5917 15.7461 53.1933 15.4492C52.7948 15.1445 52.4823 14.7891 52.2558 14.3828C52.037 13.9688 51.9277 13.4922 51.9277 12.9531C51.9277 12.4297 52.0409 11.9375 52.2675 11.4766C52.4941 11.0078 52.8222 10.5977 53.2519 10.2461C53.6816 9.88672 54.205 9.60547 54.8222 9.40234C55.4394 9.19141 56.1347 9.08594 56.9081 9.08594C57.9863 9.08594 58.912 9.26172 59.6855 9.61328C60.4667 9.96484 61.0644 10.4492 61.4784 11.0664C61.8925 11.6758 62.0995 12.3633 62.0995 13.1289H59.0058C59.0058 12.793 58.9277 12.4883 58.7714 12.2148C58.623 11.9414 58.3925 11.7227 58.08 11.5586C57.7675 11.3867 57.373 11.3008 56.8964 11.3008C56.4667 11.3008 56.1034 11.3711 55.8066 11.5117C55.5175 11.6523 55.2988 11.8359 55.1503 12.0625C55.0019 12.2891 54.9277 12.5391 54.9277 12.8125C54.9277 13.0156 54.9667 13.1992 55.0448 13.3633C55.1308 13.5195 55.2675 13.6641 55.455 13.7969C55.6425 13.9297 55.8964 14.0508 56.2167 14.1602C56.5448 14.2695 56.9472 14.375 57.4238 14.4766C58.3691 14.6641 59.1933 14.9141 59.8964 15.2266C60.6073 15.5312 61.162 15.9375 61.5605 16.4453C61.9589 16.9531 62.1581 17.6016 62.1581 18.3906C62.1581 18.9531 62.037 19.4688 61.7948 19.9375C61.5527 20.3984 61.2011 20.8008 60.7402 21.1445C60.2792 21.4883 59.7284 21.7578 59.0878 21.9531C58.4472 22.1406 57.7245 22.2344 56.9198 22.2344C55.7558 22.2344 54.7714 22.0273 53.9667 21.6133C53.162 21.1914 52.5527 20.6602 52.1386 20.0195C51.7245 19.3711 51.5175 18.6992 51.5175 18.0039H54.4823C54.5058 18.4961 54.6386 18.8906 54.8808 19.1875C55.123 19.4844 55.4277 19.6992 55.7948 19.832C56.1698 19.957 56.5644 20.0195 56.9784 20.0195C57.4472 20.0195 57.8417 19.957 58.162 19.832C58.4823 19.6992 58.7245 19.5234 58.8886 19.3047C59.0527 19.0781 59.1347 18.8203 59.1347 18.5312ZM69.7645 4.9375H75.9637C77.2606 4.9375 78.3739 5.13281 79.3036 5.52344C80.2333 5.91406 80.9481 6.49219 81.4481 7.25781C81.9481 8.02344 82.1981 8.96484 82.1981 10.082C82.1981 10.9648 82.0419 11.7305 81.7294 12.3789C81.4169 13.0273 80.9755 13.5703 80.4052 14.0078C79.8427 14.4453 79.1786 14.7891 78.413 15.0391L77.4052 15.5547H71.9325L71.9091 13.0117H75.9989C76.663 13.0117 77.2137 12.8945 77.6512 12.6602C78.0887 12.4258 78.4169 12.1016 78.6356 11.6875C78.8622 11.2734 78.9755 10.8008 78.9755 10.2695C78.9755 9.69922 78.8661 9.20703 78.6473 8.79297C78.4286 8.37109 78.0966 8.04688 77.6512 7.82031C77.2059 7.59375 76.6434 7.48047 75.9637 7.48047H72.9872V22H69.7645V4.9375ZM79.3973 22L75.4481 14.3594L78.8583 14.3477L82.8544 21.8359V22H79.3973ZM90.0033 22.2344C89.0423 22.2344 88.1791 22.0781 87.4134 21.7656C86.6478 21.4531 85.9955 21.0195 85.4564 20.4648C84.9252 19.9023 84.515 19.25 84.2259 18.5078C83.9447 17.7578 83.8041 16.9531 83.8041 16.0938V15.625C83.8041 14.6484 83.9447 13.7617 84.2259 12.9648C84.5072 12.1602 84.9056 11.4688 85.4212 10.8906C85.9369 10.3125 86.5541 9.86719 87.2728 9.55469C87.9916 9.24219 88.7845 9.08594 89.6517 9.08594C90.5502 9.08594 91.3431 9.23828 92.0306 9.54297C92.7181 9.83984 93.2923 10.2617 93.7533 10.8086C94.2142 11.3555 94.5619 12.0117 94.7962 12.7773C95.0306 13.5352 95.1478 14.375 95.1478 15.2969V16.5977H85.2103V14.4648H92.1009V14.2305C92.0853 13.7383 91.9916 13.2891 91.8197 12.8828C91.6478 12.4688 91.3822 12.1406 91.0228 11.8984C90.6634 11.6484 90.1986 11.5234 89.6283 11.5234C89.1673 11.5234 88.765 11.625 88.4212 11.8281C88.0853 12.0234 87.8041 12.3047 87.5775 12.6719C87.3587 13.0312 87.1947 13.4609 87.0853 13.9609C86.9759 14.4609 86.9212 15.0156 86.9212 15.625V16.0938C86.9212 16.625 86.9916 17.1172 87.1322 17.5703C87.2806 18.0234 87.4955 18.418 87.7767 18.7539C88.0658 19.082 88.4095 19.3398 88.808 19.5273C89.2142 19.707 89.6752 19.7969 90.1908 19.7969C90.8392 19.7969 91.4252 19.6719 91.9486 19.4219C92.4798 19.1641 92.9408 18.7852 93.3314 18.2852L94.89 19.9023C94.6244 20.293 94.265 20.668 93.8119 21.0273C93.3666 21.3867 92.8275 21.6797 92.1947 21.9062C91.5619 22.125 90.8314 22.2344 90.0033 22.2344ZM100.785 19.6562L103.738 9.32031H106.973L102.625 22H100.656L100.785 19.6562ZM98.6288 9.32031L101.617 19.6797L101.723 22H99.742L95.3827 9.32031H98.6288ZM113.653 22.2344C112.692 22.2344 111.828 22.0781 111.063 21.7656C110.297 21.4531 109.645 21.0195 109.106 20.4648C108.575 19.9023 108.164 19.25 107.875 18.5078C107.594 17.7578 107.453 16.9531 107.453 16.0938V15.625C107.453 14.6484 107.594 13.7617 107.875 12.9648C108.157 12.1602 108.555 11.4688 109.071 10.8906C109.586 10.3125 110.203 9.86719 110.922 9.55469C111.641 9.24219 112.434 9.08594 113.301 9.08594C114.2 9.08594 114.993 9.23828 115.68 9.54297C116.368 9.83984 116.942 10.2617 117.403 10.8086C117.864 11.3555 118.211 12.0117 118.446 12.7773C118.68 13.5352 118.797 14.375 118.797 15.2969V16.5977H108.86V14.4648H115.75V14.2305C115.735 13.7383 115.641 13.2891 115.469 12.8828C115.297 12.4688 115.032 12.1406 114.672 11.8984C114.313 11.6484 113.848 11.5234 113.278 11.5234C112.817 11.5234 112.414 11.625 112.071 11.8281C111.735 12.0234 111.453 12.3047 111.227 12.6719C111.008 13.0312 110.844 13.4609 110.735 13.9609C110.625 14.4609 110.571 15.0156 110.571 15.625V16.0938C110.571 16.625 110.641 17.1172 110.782 17.5703C110.93 18.0234 111.145 18.418 111.426 18.7539C111.715 19.082 112.059 19.3398 112.457 19.5273C112.864 19.707 113.325 19.7969 113.84 19.7969C114.489 19.7969 115.075 19.6719 115.598 19.4219C116.129 19.1641 116.59 18.7852 116.981 18.2852L118.539 19.9023C118.274 20.293 117.914 20.668 117.461 21.0273C117.016 21.3867 116.477 21.6797 115.844 21.9062C115.211 22.125 114.481 22.2344 113.653 22.2344ZM123.427 12.0273V22H120.333V9.32031H123.239L123.427 12.0273ZM122.934 15.2031H122.02C122.028 14.2812 122.153 13.4453 122.395 12.6953C122.637 11.9453 122.977 11.3008 123.415 10.7617C123.86 10.2227 124.387 9.80859 124.997 9.51953C125.606 9.23047 126.286 9.08594 127.036 9.08594C127.645 9.08594 128.196 9.17188 128.688 9.34375C129.18 9.51562 129.602 9.78906 129.954 10.1641C130.313 10.5391 130.587 11.0312 130.774 11.6406C130.97 12.2422 131.067 12.9844 131.067 13.8672V22H127.95V13.8438C127.95 13.2656 127.864 12.8086 127.692 12.4727C127.528 12.1367 127.286 11.8984 126.966 11.7578C126.653 11.6172 126.266 11.5469 125.805 11.5469C125.329 11.5469 124.911 11.6445 124.552 11.8398C124.2 12.0273 123.903 12.2891 123.661 12.625C123.427 12.9609 123.247 13.3477 123.122 13.7852C122.997 14.2227 122.934 14.6953 122.934 15.2031ZM140.865 18.9883V9.32031H143.982V22H141.052L140.865 18.9883ZM141.263 16.3633L142.224 16.3398C142.224 17.1914 142.13 17.9766 141.943 18.6953C141.755 19.4141 141.462 20.0391 141.064 20.5703C140.673 21.0938 140.177 21.5039 139.575 21.8008C138.974 22.0898 138.263 22.2344 137.443 22.2344C136.818 22.2344 136.247 22.1484 135.732 21.9766C135.216 21.7969 134.771 21.5195 134.396 21.1445C134.029 20.7617 133.743 20.2734 133.54 19.6797C133.337 19.0781 133.236 18.3555 133.236 17.5117V9.32031H136.329V17.5352C136.329 17.957 136.376 18.3086 136.47 18.5898C136.572 18.8711 136.708 19.1016 136.88 19.2812C137.06 19.4531 137.267 19.5781 137.501 19.6562C137.743 19.7266 138.001 19.7617 138.275 19.7617C139.025 19.7617 139.615 19.6133 140.044 19.3164C140.482 19.0117 140.794 18.6055 140.982 18.0977C141.169 17.582 141.263 17.0039 141.263 16.3633ZM151.939 22.2344C150.978 22.2344 150.115 22.0781 149.349 21.7656C148.584 21.4531 147.931 21.0195 147.392 20.4648C146.861 19.9023 146.451 19.25 146.162 18.5078C145.881 17.7578 145.74 16.9531 145.74 16.0938V15.625C145.74 14.6484 145.881 13.7617 146.162 12.9648C146.443 12.1602 146.842 11.4688 147.357 10.8906C147.873 10.3125 148.49 9.86719 149.209 9.55469C149.928 9.24219 150.72 9.08594 151.588 9.08594C152.486 9.08594 153.279 9.23828 153.967 9.54297C154.654 9.83984 155.228 10.2617 155.689 10.8086C156.15 11.3555 156.498 12.0117 156.732 12.7773C156.967 13.5352 157.084 14.375 157.084 15.2969V16.5977H147.146V14.4648H154.037V14.2305C154.021 13.7383 153.928 13.2891 153.756 12.8828C153.584 12.4688 153.318 12.1406 152.959 11.8984C152.599 11.6484 152.135 11.5234 151.564 11.5234C151.103 11.5234 150.701 11.625 150.357 11.8281C150.021 12.0234 149.74 12.3047 149.513 12.6719C149.295 13.0312 149.131 13.4609 149.021 13.9609C148.912 14.4609 148.857 15.0156 148.857 15.625V16.0938C148.857 16.625 148.928 17.1172 149.068 17.5703C149.217 18.0234 149.431 18.418 149.713 18.7539C150.002 19.082 150.345 19.3398 150.744 19.5273C151.15 19.707 151.611 19.7969 152.127 19.7969C152.775 19.7969 153.361 19.6719 153.885 19.4219C154.416 19.1641 154.877 18.7852 155.267 18.2852L156.826 19.9023C156.56 20.293 156.201 20.668 155.748 21.0273C155.303 21.3867 154.763 21.6797 154.131 21.9062C153.498 22.125 152.767 22.2344 151.939 22.2344Z" fill="black"/>
<g filter="url(#filter0_d_325_3178)">
<rect x="6" y="42" width="1057" height="369" rx="6" fill="white"/>
<rect x="6.5" y="42.5" width="1056" height="368" rx="5.5" stroke="#6D7D93" stroke-opacity="0.15"/>
</g>
<path d="M110.548 291.839L88.7188 305.054V339.82H1007.85L1007.27 130.117L983.722 162.369C961.893 195.029 918.234 260.348 874.575 268.673C830.917 276.997 787.258 228.327 743.599 203.556C699.94 178.785 656.282 177.912 612.623 209.241C568.964 240.571 525.306 304.103 481.647 305.917C437.988 307.731 394.33 247.828 350.671 224.182C307.012 200.536 263.354 213.149 219.695 232.671C176.036 252.192 132.377 278.623 110.548 291.839Z" fill="url(#paint0_linear_325_3178)" fill-opacity="0.1"/>
<path opacity="0.8" d="M91.0156 305.048L112.79 291.833C134.565 278.617 178.114 252.186 221.663 232.665C265.213 213.143 308.762 200.53 352.311 224.176C395.861 247.821 439.41 307.725 482.959 305.911C526.508 304.097 570.058 240.565 613.607 209.235C657.156 177.906 700.706 178.779 744.255 203.55C787.804 228.321 831.353 276.991 874.903 268.667C918.452 260.342 962.001 195.022 983.776 162.363L1005.55 129.703" stroke="url(#paint1_linear_325_3178)" stroke-width="3" stroke-linecap="round"/>
<path d="M114.715 364.613C113.899 364.613 113.243 364.385 112.747 363.929C112.259 363.465 112.015 362.809 112.015 361.961H113.551C113.559 362.353 113.651 362.665 113.827 362.897C114.003 363.129 114.287 363.245 114.679 363.245C115.047 363.245 115.315 363.137 115.483 362.921C115.651 362.697 115.735 362.405 115.735 362.045V356.069H117.271V362.045C117.271 362.869 117.039 363.505 116.575 363.953C116.119 364.393 115.499 364.613 114.715 364.613ZM120.922 364.613C120.41 364.613 119.99 364.533 119.662 364.373C119.334 364.205 119.09 363.985 118.93 363.713C118.77 363.441 118.69 363.141 118.69 362.813C118.69 362.261 118.906 361.813 119.338 361.469C119.77 361.125 120.418 360.953 121.282 360.953H122.794V360.809C122.794 360.401 122.678 360.101 122.446 359.909C122.214 359.717 121.926 359.621 121.582 359.621C121.27 359.621 120.998 359.697 120.766 359.849C120.534 359.993 120.39 360.209 120.334 360.497H118.834C118.874 360.065 119.018 359.689 119.266 359.369C119.522 359.049 119.85 358.805 120.25 358.637C120.65 358.461 121.098 358.373 121.594 358.373C122.442 358.373 123.11 358.585 123.598 359.009C124.086 359.433 124.33 360.033 124.33 360.809V364.469H123.022L122.878 363.509C122.702 363.829 122.454 364.093 122.134 364.301C121.822 364.509 121.418 364.613 120.922 364.613ZM121.27 363.413C121.71 363.413 122.05 363.269 122.29 362.981C122.538 362.693 122.694 362.337 122.758 361.913H121.45C121.042 361.913 120.75 361.989 120.574 362.141C120.398 362.285 120.31 362.465 120.31 362.681C120.31 362.913 120.398 363.093 120.574 363.221C120.75 363.349 120.982 363.413 121.27 363.413ZM125.796 364.469V358.517H127.152L127.272 359.525C127.456 359.173 127.72 358.893 128.064 358.685C128.416 358.477 128.828 358.373 129.3 358.373C130.036 358.373 130.608 358.605 131.016 359.069C131.424 359.533 131.628 360.213 131.628 361.109V364.469H130.092V361.253C130.092 360.741 129.988 360.349 129.78 360.077C129.572 359.805 129.248 359.669 128.808 359.669C128.376 359.669 128.02 359.821 127.74 360.125C127.468 360.429 127.332 360.853 127.332 361.397V364.469H125.796Z" fill="#6D7D93"/>
<path d="M189.519 364.469V356.069H194.943V357.305H191.055V359.657H194.199V360.869H191.055V364.469H189.519ZM198.668 364.613C198.068 364.613 197.536 364.485 197.072 364.229C196.608 363.973 196.244 363.613 195.98 363.149C195.716 362.685 195.584 362.149 195.584 361.541C195.584 360.925 195.712 360.377 195.968 359.897C196.232 359.417 196.592 359.045 197.048 358.781C197.512 358.509 198.056 358.373 198.68 358.373C199.264 358.373 199.78 358.501 200.228 358.757C200.676 359.013 201.024 359.365 201.272 359.813C201.528 360.253 201.656 360.745 201.656 361.289C201.656 361.377 201.652 361.469 201.644 361.565C201.644 361.661 201.64 361.761 201.632 361.865H197.108C197.14 362.329 197.3 362.693 197.588 362.957C197.884 363.221 198.24 363.353 198.656 363.353C198.968 363.353 199.228 363.285 199.436 363.149C199.652 363.005 199.812 362.821 199.916 362.597H201.476C201.364 362.973 201.176 363.317 200.912 363.629C200.656 363.933 200.336 364.173 199.952 364.349C199.576 364.525 199.148 364.613 198.668 364.613ZM198.68 359.621C198.304 359.621 197.972 359.729 197.684 359.945C197.396 360.153 197.212 360.473 197.132 360.905H200.096C200.072 360.513 199.928 360.201 199.664 359.969C199.4 359.737 199.072 359.621 198.68 359.621ZM206.476 364.613C206.028 364.613 205.636 364.529 205.3 364.361C204.964 364.193 204.692 363.957 204.484 363.653L204.316 364.469H202.948V355.829H204.484V359.369C204.676 359.105 204.928 358.873 205.24 358.673C205.56 358.473 205.972 358.373 206.476 358.373C207.036 358.373 207.536 358.509 207.976 358.781C208.416 359.053 208.764 359.425 209.02 359.897C209.276 360.369 209.404 360.905 209.404 361.505C209.404 362.105 209.276 362.641 209.02 363.113C208.764 363.577 208.416 363.945 207.976 364.217C207.536 364.481 207.036 364.613 206.476 364.613ZM206.152 363.269C206.64 363.269 207.044 363.105 207.364 362.777C207.684 362.449 207.844 362.025 207.844 361.505C207.844 360.985 207.684 360.557 207.364 360.221C207.044 359.885 206.64 359.717 206.152 359.717C205.656 359.717 205.248 359.885 204.928 360.221C204.616 360.549 204.46 360.973 204.46 361.493C204.46 362.013 204.616 362.441 204.928 362.777C205.248 363.105 205.656 363.269 206.152 363.269Z" fill="#6D7D93"/>
<path d="M267.519 364.469V356.069H269.343L272.019 361.397L274.659 356.069H276.483V364.469H274.947V358.673L272.607 363.269H271.395L269.055 358.673V364.469H267.519ZM280.129 364.613C279.617 364.613 279.197 364.533 278.869 364.373C278.541 364.205 278.297 363.985 278.137 363.713C277.977 363.441 277.897 363.141 277.897 362.813C277.897 362.261 278.113 361.813 278.545 361.469C278.977 361.125 279.625 360.953 280.489 360.953H282.001V360.809C282.001 360.401 281.885 360.101 281.653 359.909C281.421 359.717 281.133 359.621 280.789 359.621C280.477 359.621 280.205 359.697 279.973 359.849C279.741 359.993 279.597 360.209 279.541 360.497H278.041C278.081 360.065 278.225 359.689 278.473 359.369C278.729 359.049 279.057 358.805 279.457 358.637C279.857 358.461 280.305 358.373 280.801 358.373C281.649 358.373 282.317 358.585 282.805 359.009C283.293 359.433 283.537 360.033 283.537 360.809V364.469H282.229L282.085 363.509C281.909 363.829 281.661 364.093 281.341 364.301C281.029 364.509 280.625 364.613 280.129 364.613ZM280.477 363.413C280.917 363.413 281.257 363.269 281.497 362.981C281.745 362.693 281.901 362.337 281.965 361.913H280.657C280.249 361.913 279.957 361.989 279.781 362.141C279.605 362.285 279.517 362.465 279.517 362.681C279.517 362.913 279.605 363.093 279.781 363.221C279.957 363.349 280.189 363.413 280.477 363.413ZM285.003 364.469V358.517H286.371L286.515 359.633C286.731 359.249 287.023 358.945 287.391 358.721C287.767 358.489 288.207 358.373 288.711 358.373V359.993H288.279C287.943 359.993 287.643 360.045 287.379 360.149C287.115 360.253 286.907 360.433 286.755 360.689C286.611 360.945 286.539 361.301 286.539 361.757V364.469H285.003Z" fill="#6D7D93"/>
<path d="M345.979 364.469L349.051 356.069H350.779L353.851 364.469H352.219L351.547 362.525H348.271L347.587 364.469H345.979ZM348.691 361.325H351.127L349.903 357.833L348.691 361.325ZM354.897 367.109V358.517H356.265L356.433 359.369C356.625 359.105 356.877 358.873 357.189 358.673C357.509 358.473 357.921 358.373 358.425 358.373C358.985 358.373 359.485 358.509 359.925 358.781C360.365 359.053 360.713 359.425 360.969 359.897C361.225 360.369 361.353 360.905 361.353 361.505C361.353 362.105 361.225 362.641 360.969 363.113C360.713 363.577 360.365 363.945 359.925 364.217C359.485 364.481 358.985 364.613 358.425 364.613C357.977 364.613 357.585 364.529 357.249 364.361C356.913 364.193 356.641 363.957 356.433 363.653V367.109H354.897ZM358.101 363.269C358.589 363.269 358.993 363.105 359.313 362.777C359.633 362.449 359.793 362.025 359.793 361.505C359.793 360.985 359.633 360.557 359.313 360.221C358.993 359.885 358.589 359.717 358.101 359.717C357.605 359.717 357.197 359.885 356.877 360.221C356.565 360.549 356.409 360.973 356.409 361.493C356.409 362.013 356.565 362.441 356.877 362.777C357.197 363.105 357.605 363.269 358.101 363.269ZM362.725 364.469V358.517H364.093L364.237 359.633C364.453 359.249 364.745 358.945 365.113 358.721C365.489 358.489 365.929 358.373 366.433 358.373V359.993H366.001C365.665 359.993 365.365 360.045 365.101 360.149C364.837 360.253 364.629 360.433 364.477 360.689C364.333 360.945 364.261 361.301 364.261 361.757V364.469H362.725Z" fill="#6D7D93"/>
<path d="M423.519 364.469V356.069H425.343L428.019 361.397L430.659 356.069H432.483V364.469H430.947V358.673L428.607 363.269H427.395L425.055 358.673V364.469H423.519ZM436.129 364.613C435.617 364.613 435.197 364.533 434.869 364.373C434.541 364.205 434.297 363.985 434.137 363.713C433.977 363.441 433.897 363.141 433.897 362.813C433.897 362.261 434.113 361.813 434.545 361.469C434.977 361.125 435.625 360.953 436.489 360.953H438.001V360.809C438.001 360.401 437.885 360.101 437.653 359.909C437.421 359.717 437.133 359.621 436.789 359.621C436.477 359.621 436.205 359.697 435.973 359.849C435.741 359.993 435.597 360.209 435.541 360.497H434.041C434.081 360.065 434.225 359.689 434.473 359.369C434.729 359.049 435.057 358.805 435.457 358.637C435.857 358.461 436.305 358.373 436.801 358.373C437.649 358.373 438.317 358.585 438.805 359.009C439.293 359.433 439.537 360.033 439.537 360.809V364.469H438.229L438.085 363.509C437.909 363.829 437.661 364.093 437.341 364.301C437.029 364.509 436.625 364.613 436.129 364.613ZM436.477 363.413C436.917 363.413 437.257 363.269 437.497 362.981C437.745 362.693 437.901 362.337 437.965 361.913H436.657C436.249 361.913 435.957 361.989 435.781 362.141C435.605 362.285 435.517 362.465 435.517 362.681C435.517 362.913 435.605 363.093 435.781 363.221C435.957 363.349 436.189 363.413 436.477 363.413ZM441.547 367.109L442.927 364.073H442.567L440.251 358.517H441.919L443.587 362.705L445.327 358.517H446.959L443.179 367.109H441.547Z" fill="#6D7D93"/>
<path d="M506.715 364.613C505.899 364.613 505.243 364.385 504.747 363.929C504.259 363.465 504.015 362.809 504.015 361.961H505.551C505.559 362.353 505.651 362.665 505.827 362.897C506.003 363.129 506.287 363.245 506.679 363.245C507.047 363.245 507.315 363.137 507.483 362.921C507.651 362.697 507.735 362.405 507.735 362.045V356.069H509.271V362.045C509.271 362.869 509.039 363.505 508.575 363.953C508.119 364.393 507.499 364.613 506.715 364.613ZM513.102 364.613C512.358 364.613 511.782 364.381 511.374 363.917C510.974 363.453 510.774 362.773 510.774 361.877V358.517H512.298V361.733C512.298 362.245 512.402 362.637 512.61 362.909C512.818 363.181 513.146 363.317 513.594 363.317C514.018 363.317 514.366 363.165 514.638 362.861C514.918 362.557 515.058 362.133 515.058 361.589V358.517H516.594V364.469H515.238L515.118 363.461C514.934 363.813 514.666 364.093 514.314 364.301C513.97 364.509 513.566 364.613 513.102 364.613ZM518.171 364.469V358.517H519.527L519.647 359.525C519.831 359.173 520.095 358.893 520.439 358.685C520.791 358.477 521.203 358.373 521.675 358.373C522.411 358.373 522.983 358.605 523.391 359.069C523.799 359.533 524.003 360.213 524.003 361.109V364.469H522.467V361.253C522.467 360.741 522.363 360.349 522.155 360.077C521.947 359.805 521.623 359.669 521.183 359.669C520.751 359.669 520.395 359.821 520.115 360.125C519.843 360.429 519.707 360.853 519.707 361.397V364.469H518.171Z" fill="#6D7D93"/>
<path d="M583.715 364.613C582.899 364.613 582.243 364.385 581.747 363.929C581.259 363.465 581.015 362.809 581.015 361.961H582.551C582.559 362.353 582.651 362.665 582.827 362.897C583.003 363.129 583.287 363.245 583.679 363.245C584.047 363.245 584.315 363.137 584.483 362.921C584.651 362.697 584.735 362.405 584.735 362.045V356.069H586.271V362.045C586.271 362.869 586.039 363.505 585.575 363.953C585.119 364.393 584.499 364.613 583.715 364.613ZM590.102 364.613C589.358 364.613 588.782 364.381 588.374 363.917C587.974 363.453 587.774 362.773 587.774 361.877V358.517H589.298V361.733C589.298 362.245 589.402 362.637 589.61 362.909C589.818 363.181 590.146 363.317 590.594 363.317C591.018 363.317 591.366 363.165 591.638 362.861C591.918 362.557 592.058 362.133 592.058 361.589V358.517H593.594V364.469H592.238L592.118 363.461C591.934 363.813 591.666 364.093 591.314 364.301C590.97 364.509 590.566 364.613 590.102 364.613ZM595.171 364.469V355.829H596.707V364.469H595.171Z" fill="#6D7D93"/>
<path d="M653.979 364.469L657.051 356.069H658.779L661.851 364.469H660.219L659.547 362.525H656.271L655.587 364.469H653.979ZM656.691 361.325H659.127L657.903 357.833L656.691 361.325ZM665.012 364.613C664.268 364.613 663.692 364.381 663.284 363.917C662.884 363.453 662.684 362.773 662.684 361.877V358.517H664.208V361.733C664.208 362.245 664.312 362.637 664.52 362.909C664.728 363.181 665.056 363.317 665.504 363.317C665.928 363.317 666.276 363.165 666.548 362.861C666.828 362.557 666.968 362.133 666.968 361.589V358.517H668.504V364.469H667.148L667.028 363.461C666.844 363.813 666.576 364.093 666.224 364.301C665.88 364.509 665.476 364.613 665.012 364.613ZM672.601 362.693C672.313 362.693 672.045 362.661 671.797 362.597L671.353 363.041C671.489 363.113 671.673 363.173 671.905 363.221C672.137 363.269 672.513 363.317 673.033 363.365C673.825 363.437 674.401 363.625 674.761 363.929C675.121 364.233 675.301 364.653 675.301 365.189C675.301 365.541 675.205 365.873 675.013 366.185C674.821 366.505 674.525 366.761 674.125 366.953C673.725 367.153 673.213 367.253 672.589 367.253C671.741 367.253 671.057 367.093 670.537 366.773C670.017 366.461 669.757 365.989 669.757 365.357C669.757 364.821 670.017 364.357 670.537 363.965C670.377 363.893 670.237 363.817 670.117 363.737C670.005 363.657 669.905 363.573 669.817 363.485V363.209L670.861 362.105C670.397 361.697 670.165 361.173 670.165 360.533C670.165 360.133 670.261 359.769 670.453 359.441C670.653 359.113 670.933 358.853 671.293 358.661C671.653 358.469 672.089 358.373 672.601 358.373C672.937 358.373 673.249 358.421 673.537 358.517H675.793V359.453L674.773 359.525C674.933 359.829 675.013 360.165 675.013 360.533C675.013 360.933 674.917 361.297 674.725 361.625C674.533 361.953 674.253 362.213 673.885 362.405C673.525 362.597 673.097 362.693 672.601 362.693ZM672.601 361.517C672.913 361.517 673.169 361.433 673.369 361.265C673.577 361.097 673.681 360.857 673.681 360.545C673.681 360.233 673.577 359.993 673.369 359.825C673.169 359.657 672.913 359.573 672.601 359.573C672.273 359.573 672.009 359.657 671.809 359.825C671.609 359.993 671.509 360.233 671.509 360.545C671.509 360.857 671.609 361.097 671.809 361.265C672.009 361.433 672.273 361.517 672.601 361.517ZM671.161 365.201C671.161 365.497 671.297 365.717 671.569 365.861C671.849 366.013 672.189 366.089 672.589 366.089C672.973 366.089 673.285 366.009 673.525 365.849C673.765 365.697 673.885 365.489 673.885 365.225C673.885 365.009 673.805 364.829 673.645 364.685C673.493 364.541 673.185 364.453 672.721 364.421C672.393 364.397 672.089 364.361 671.809 364.313C671.577 364.441 671.409 364.581 671.305 364.733C671.209 364.885 671.161 365.041 671.161 365.201Z" fill="#6D7D93"/>
<path d="M736.387 364.613C735.771 364.613 735.227 364.509 734.755 364.301C734.283 364.085 733.911 363.781 733.639 363.389C733.367 362.989 733.227 362.505 733.219 361.937H734.839C734.855 362.329 734.995 362.661 735.259 362.933C735.531 363.197 735.903 363.329 736.375 363.329C736.783 363.329 737.107 363.233 737.347 363.041C737.587 362.841 737.707 362.577 737.707 362.249C737.707 361.905 737.599 361.637 737.383 361.445C737.175 361.253 736.895 361.097 736.543 360.977C736.191 360.857 735.815 360.729 735.415 360.593C734.767 360.369 734.271 360.081 733.927 359.729C733.591 359.377 733.423 358.909 733.423 358.325C733.415 357.829 733.531 357.405 733.771 357.053C734.019 356.693 734.355 356.417 734.779 356.225C735.203 356.025 735.691 355.925 736.243 355.925C736.803 355.925 737.295 356.025 737.719 356.225C738.151 356.425 738.487 356.705 738.727 357.065C738.975 357.425 739.107 357.853 739.123 358.349H737.479C737.471 358.053 737.355 357.793 737.131 357.569C736.915 357.337 736.611 357.221 736.219 357.221C735.883 357.213 735.599 357.297 735.367 357.473C735.143 357.641 735.031 357.889 735.031 358.217C735.031 358.497 735.119 358.721 735.295 358.889C735.471 359.049 735.711 359.185 736.015 359.297C736.319 359.409 736.667 359.529 737.059 359.657C737.475 359.801 737.855 359.969 738.199 360.161C738.543 360.353 738.819 360.609 739.027 360.929C739.235 361.241 739.339 361.645 739.339 362.141C739.339 362.581 739.227 362.989 739.003 363.365C738.779 363.741 738.447 364.045 738.007 364.277C737.567 364.501 737.027 364.613 736.387 364.613ZM743.535 364.613C742.935 364.613 742.403 364.485 741.939 364.229C741.475 363.973 741.111 363.613 740.847 363.149C740.583 362.685 740.451 362.149 740.451 361.541C740.451 360.925 740.579 360.377 740.835 359.897C741.099 359.417 741.459 359.045 741.915 358.781C742.379 358.509 742.923 358.373 743.547 358.373C744.131 358.373 744.647 358.501 745.095 358.757C745.543 359.013 745.891 359.365 746.139 359.813C746.395 360.253 746.523 360.745 746.523 361.289C746.523 361.377 746.519 361.469 746.511 361.565C746.511 361.661 746.507 361.761 746.499 361.865H741.975C742.007 362.329 742.167 362.693 742.455 362.957C742.751 363.221 743.107 363.353 743.523 363.353C743.835 363.353 744.095 363.285 744.303 363.149C744.519 363.005 744.679 362.821 744.783 362.597H746.343C746.231 362.973 746.043 363.317 745.779 363.629C745.523 363.933 745.203 364.173 744.819 364.349C744.443 364.525 744.015 364.613 743.535 364.613ZM743.547 359.621C743.171 359.621 742.839 359.729 742.551 359.945C742.263 360.153 742.079 360.473 741.999 360.905H744.963C744.939 360.513 744.795 360.201 744.531 359.969C744.267 359.737 743.939 359.621 743.547 359.621ZM747.815 367.109V358.517H749.183L749.351 359.369C749.543 359.105 749.795 358.873 750.107 358.673C750.427 358.473 750.839 358.373 751.343 358.373C751.903 358.373 752.403 358.509 752.843 358.781C753.283 359.053 753.631 359.425 753.887 359.897C754.143 360.369 754.271 360.905 754.271 361.505C754.271 362.105 754.143 362.641 753.887 363.113C753.631 363.577 753.283 363.945 752.843 364.217C752.403 364.481 751.903 364.613 751.343 364.613C750.895 364.613 750.503 364.529 750.167 364.361C749.831 364.193 749.559 363.957 749.351 363.653V367.109H747.815ZM751.019 363.269C751.507 363.269 751.911 363.105 752.231 362.777C752.551 362.449 752.711 362.025 752.711 361.505C752.711 360.985 752.551 360.557 752.231 360.221C751.911 359.885 751.507 359.717 751.019 359.717C750.523 359.717 750.115 359.885 749.795 360.221C749.483 360.549 749.327 360.973 749.327 361.493C749.327 362.013 749.483 362.441 749.795 362.777C750.115 363.105 750.523 363.269 751.019 363.269ZM758.061 364.469C757.437 364.469 756.937 364.317 756.561 364.013C756.185 363.709 755.997 363.169 755.997 362.393V359.801H754.977V358.517H755.997L756.177 356.921H757.533V358.517H759.141V359.801H757.533V362.405C757.533 362.693 757.593 362.893 757.713 363.005C757.841 363.109 758.057 363.161 758.361 363.161H759.105V364.469H758.061Z" fill="#6D7D93"/>
<path d="M820.455 364.613C819.615 364.613 818.879 364.429 818.247 364.061C817.623 363.693 817.131 363.185 816.771 362.537C816.419 361.881 816.243 361.125 816.243 360.269C816.243 359.413 816.419 358.661 816.771 358.013C817.131 357.357 817.623 356.845 818.247 356.477C818.879 356.109 819.615 355.925 820.455 355.925C821.287 355.925 822.019 356.109 822.651 356.477C823.283 356.845 823.775 357.357 824.127 358.013C824.479 358.661 824.655 359.413 824.655 360.269C824.655 361.125 824.479 361.881 824.127 362.537C823.775 363.185 823.283 363.693 822.651 364.061C822.019 364.429 821.287 364.613 820.455 364.613ZM820.455 363.233C821.255 363.233 821.891 362.969 822.363 362.441C822.843 361.913 823.083 361.189 823.083 360.269C823.083 359.349 822.843 358.625 822.363 358.097C821.891 357.569 821.255 357.305 820.455 357.305C819.655 357.305 819.015 357.569 818.535 358.097C818.055 358.625 817.815 359.349 817.815 360.269C817.815 361.189 818.055 361.913 818.535 362.441C819.015 362.969 819.655 363.233 820.455 363.233ZM828.891 364.613C828.283 364.613 827.747 364.481 827.283 364.217C826.819 363.953 826.451 363.585 826.179 363.113C825.915 362.641 825.783 362.101 825.783 361.493C825.783 360.885 825.915 360.345 826.179 359.873C826.451 359.401 826.819 359.033 827.283 358.769C827.747 358.505 828.283 358.373 828.891 358.373C829.651 358.373 830.291 358.573 830.811 358.973C831.331 359.365 831.663 359.909 831.807 360.605H830.187C830.107 360.317 829.947 360.093 829.707 359.933C829.475 359.765 829.199 359.681 828.879 359.681C828.455 359.681 828.095 359.841 827.799 360.161C827.503 360.481 827.355 360.925 827.355 361.493C827.355 362.061 827.503 362.505 827.799 362.825C828.095 363.145 828.455 363.305 828.879 363.305C829.199 363.305 829.475 363.225 829.707 363.065C829.947 362.905 830.107 362.677 830.187 362.381H831.807C831.663 363.053 831.331 363.593 830.811 364.001C830.291 364.409 829.651 364.613 828.891 364.613ZM835.741 364.469C835.117 364.469 834.617 364.317 834.241 364.013C833.865 363.709 833.677 363.169 833.677 362.393V359.801H832.657V358.517H833.677L833.857 356.921H835.213V358.517H836.821V359.801H835.213V362.405C835.213 362.693 835.273 362.893 835.393 363.005C835.521 363.109 835.737 363.161 836.041 363.161H836.785V364.469H835.741Z" fill="#6D7D93"/>
<path d="M894.519 364.469V356.069H896.055L900.003 361.985V356.069H901.539V364.469H900.003L896.055 358.565V364.469H894.519ZM905.988 364.613C905.412 364.613 904.892 364.481 904.428 364.217C903.972 363.953 903.608 363.589 903.336 363.125C903.072 362.653 902.94 362.109 902.94 361.493C902.94 360.877 903.076 360.337 903.348 359.873C903.62 359.401 903.984 359.033 904.44 358.769C904.904 358.505 905.424 358.373 906 358.373C906.568 358.373 907.08 358.505 907.536 358.769C908 359.033 908.364 359.401 908.628 359.873C908.9 360.337 909.036 360.877 909.036 361.493C909.036 362.109 908.9 362.653 908.628 363.125C908.364 363.589 908 363.953 907.536 364.217C907.072 364.481 906.556 364.613 905.988 364.613ZM905.988 363.281C906.388 363.281 906.736 363.133 907.032 362.837C907.328 362.533 907.476 362.085 907.476 361.493C907.476 360.901 907.328 360.457 907.032 360.161C906.736 359.857 906.392 359.705 906 359.705C905.592 359.705 905.24 359.857 904.944 360.161C904.656 360.457 904.512 360.901 904.512 361.493C904.512 362.085 904.656 362.533 904.944 362.837C905.24 363.133 905.588 363.281 905.988 363.281ZM911.724 364.469L909.54 358.517H911.148L912.66 363.017L914.172 358.517H915.78L913.584 364.469H911.724Z" fill="#6D7D93"/>
<path d="M973.519 364.469V356.069H976.387C977.371 356.069 978.179 356.245 978.811 356.597C979.451 356.941 979.923 357.429 980.227 358.061C980.539 358.685 980.695 359.421 980.695 360.269C980.695 361.117 980.539 361.857 980.227 362.489C979.923 363.113 979.451 363.601 978.811 363.953C978.179 364.297 977.371 364.469 976.387 364.469H973.519ZM975.055 363.149H976.315C977.019 363.149 977.575 363.037 977.983 362.813C978.391 362.581 978.683 362.253 978.859 361.829C979.035 361.397 979.123 360.877 979.123 360.269C979.123 359.669 979.035 359.153 978.859 358.721C978.683 358.289 978.391 357.957 977.983 357.725C977.575 357.493 977.019 357.377 976.315 357.377H975.055V363.149ZM984.906 364.613C984.306 364.613 983.774 364.485 983.31 364.229C982.846 363.973 982.482 363.613 982.218 363.149C981.954 362.685 981.822 362.149 981.822 361.541C981.822 360.925 981.95 360.377 982.206 359.897C982.47 359.417 982.83 359.045 983.286 358.781C983.75 358.509 984.294 358.373 984.918 358.373C985.502 358.373 986.018 358.501 986.466 358.757C986.914 359.013 987.262 359.365 987.51 359.813C987.766 360.253 987.894 360.745 987.894 361.289C987.894 361.377 987.89 361.469 987.882 361.565C987.882 361.661 987.878 361.761 987.87 361.865H983.346C983.378 362.329 983.538 362.693 983.826 362.957C984.122 363.221 984.478 363.353 984.894 363.353C985.206 363.353 985.466 363.285 985.674 363.149C985.89 363.005 986.05 362.821 986.154 362.597H987.714C987.602 362.973 987.414 363.317 987.15 363.629C986.894 363.933 986.574 364.173 986.19 364.349C985.814 364.525 985.386 364.613 984.906 364.613ZM984.918 359.621C984.542 359.621 984.21 359.729 983.922 359.945C983.634 360.153 983.45 360.473 983.37 360.905H986.334C986.31 360.513 986.166 360.201 985.902 359.969C985.638 359.737 985.31 359.621 984.918 359.621ZM992.102 364.613C991.494 364.613 990.958 364.481 990.494 364.217C990.03 363.953 989.662 363.585 989.39 363.113C989.126 362.641 988.994 362.101 988.994 361.493C988.994 360.885 989.126 360.345 989.39 359.873C989.662 359.401 990.03 359.033 990.494 358.769C990.958 358.505 991.494 358.373 992.102 358.373C992.862 358.373 993.502 358.573 994.022 358.973C994.542 359.365 994.874 359.909 995.018 360.605H993.398C993.318 360.317 993.158 360.093 992.918 359.933C992.686 359.765 992.41 359.681 992.09 359.681C991.666 359.681 991.306 359.841 991.01 360.161C990.714 360.481 990.566 360.925 990.566 361.493C990.566 362.061 990.714 362.505 991.01 362.825C991.306 363.145 991.666 363.305 992.09 363.305C992.41 363.305 992.686 363.225 992.918 363.065C993.158 362.905 993.318 362.677 993.398 362.381H995.018C994.874 363.053 994.542 363.593 994.022 364.001C993.502 364.409 992.862 364.613 992.102 364.613Z" fill="#6D7D93"/>
<path d="M42.1968 99.2812V92.6332L40.8168 92.9572V91.7812L42.8448 90.8812H43.7928V99.2812H42.1968ZM49.2615 99.2812V97.7212H45.1215V96.4972L49.0575 90.8812H50.7975V96.3892H51.9015V97.7212H50.7975V99.2812H49.2615ZM46.7655 96.3892H49.3575V92.5732L46.7655 96.3892ZM56.553 99.4253C55.777 99.4253 55.113 99.2453 54.561 98.8853C54.009 98.5172 53.581 98.0092 53.277 97.3612C52.981 96.7052 52.833 95.9452 52.833 95.0812C52.833 94.2252 52.981 93.4692 53.277 92.8132C53.581 92.1572 54.009 91.6492 54.561 91.2892C55.113 90.9212 55.777 90.7372 56.553 90.7372C57.329 90.7372 57.993 90.9212 58.545 91.2892C59.097 91.6492 59.521 92.1572 59.817 92.8132C60.121 93.4692 60.273 94.2252 60.273 95.0812C60.273 95.9452 60.121 96.7052 59.817 97.3612C59.521 98.0092 59.097 98.5172 58.545 98.8853C57.993 99.2453 57.329 99.4253 56.553 99.4253ZM56.553 98.0452C57.185 98.0452 57.701 97.7812 58.101 97.2532C58.501 96.7252 58.701 96.0012 58.701 95.0812C58.701 94.1612 58.501 93.4372 58.101 92.9092C57.701 92.3812 57.185 92.1172 56.553 92.1172C55.913 92.1172 55.393 92.3812 54.993 92.9092C54.601 93.4372 54.405 94.1612 54.405 95.0812C54.405 96.0012 54.601 96.7252 54.993 97.2532C55.393 97.7812 55.913 98.0452 56.553 98.0452ZM61.5925 99.2812V90.6412H63.1285V95.7412L65.2405 93.3292H67.0645L64.6285 96.0412L67.4605 99.2812H65.5405L63.1285 96.2932V99.2812H61.5925Z" fill="#6D7D93"/>
<path d="M42.1968 139.281V132.633L40.8168 132.957V131.781L42.8448 130.881H43.7928V139.281H42.1968ZM45.2175 139.281V138.165C45.7295 137.741 46.2255 137.321 46.7055 136.905C47.1935 136.489 47.6255 136.077 48.0015 135.669C48.3855 135.261 48.6895 134.865 48.9135 134.481C49.1455 134.089 49.2615 133.709 49.2615 133.341C49.2615 132.997 49.1655 132.693 48.9735 132.429C48.7895 132.165 48.4815 132.033 48.0495 132.033C47.6095 132.033 47.2775 132.177 47.0535 132.465C46.8295 132.753 46.7175 133.101 46.7175 133.509H45.2295C45.2455 132.893 45.3815 132.381 45.6375 131.973C45.8935 131.557 46.2335 131.249 46.6575 131.049C47.0815 130.841 47.5575 130.737 48.0855 130.737C48.9415 130.737 49.6055 130.973 50.0775 131.445C50.5575 131.909 50.7975 132.513 50.7975 133.257C50.7975 133.721 50.6895 134.173 50.4735 134.613C50.2655 135.053 49.9895 135.477 49.6455 135.885C49.3015 136.293 48.9295 136.677 48.5295 137.037C48.1295 137.389 47.7415 137.717 47.3655 138.021H51.0015V139.281H45.2175ZM55.6623 139.425C54.8863 139.425 54.2223 139.245 53.6703 138.885C53.1183 138.517 52.6903 138.009 52.3863 137.361C52.0903 136.705 51.9423 135.945 51.9423 135.081C51.9423 134.225 52.0903 133.469 52.3863 132.813C52.6903 132.157 53.1183 131.649 53.6703 131.289C54.2223 130.921 54.8863 130.737 55.6623 130.737C56.4383 130.737 57.1023 130.921 57.6543 131.289C58.2063 131.649 58.6303 132.157 58.9263 132.813C59.2303 133.469 59.3823 134.225 59.3823 135.081C59.3823 135.945 59.2303 136.705 58.9263 137.361C58.6303 138.009 58.2063 138.517 57.6543 138.885C57.1023 139.245 56.4383 139.425 55.6623 139.425ZM55.6623 138.045C56.2943 138.045 56.8103 137.781 57.2103 137.253C57.6103 136.725 57.8103 136.001 57.8103 135.081C57.8103 134.161 57.6103 133.437 57.2103 132.909C56.8103 132.381 56.2943 132.117 55.6623 132.117C55.0223 132.117 54.5023 132.381 54.1023 132.909C53.7103 133.437 53.5143 134.161 53.5143 135.081C53.5143 136.001 53.7103 136.725 54.1023 137.253C54.5023 137.781 55.0223 138.045 55.6623 138.045ZM60.7019 139.281V130.641H62.2379V135.741L64.3499 133.329H66.1739L63.7379 136.041L66.5699 139.281H64.6499L62.2379 136.293V139.281H60.7019Z" fill="#6D7D93"/>
<path d="M42.1968 179.281V172.633L40.8168 172.957V171.781L42.8448 170.881H43.7928V179.281H42.1968ZM48.8655 179.425C48.0895 179.425 47.4255 179.245 46.8735 178.885C46.3215 178.517 45.8935 178.009 45.5895 177.361C45.2935 176.705 45.1455 175.945 45.1455 175.081C45.1455 174.225 45.2935 173.469 45.5895 172.813C45.8935 172.157 46.3215 171.649 46.8735 171.289C47.4255 170.921 48.0895 170.737 48.8655 170.737C49.6415 170.737 50.3055 170.921 50.8575 171.289C51.4095 171.649 51.8335 172.157 52.1295 172.813C52.4335 173.469 52.5855 174.225 52.5855 175.081C52.5855 175.945 52.4335 176.705 52.1295 177.361C51.8335 178.009 51.4095 178.517 50.8575 178.885C50.3055 179.245 49.6415 179.425 48.8655 179.425ZM48.8655 178.045C49.4975 178.045 50.0135 177.781 50.4135 177.253C50.8135 176.725 51.0135 176.001 51.0135 175.081C51.0135 174.161 50.8135 173.437 50.4135 172.909C50.0135 172.381 49.4975 172.117 48.8655 172.117C48.2255 172.117 47.7055 172.381 47.3055 172.909C46.9135 173.437 46.7175 174.161 46.7175 175.081C46.7175 176.001 46.9135 176.725 47.3055 177.253C47.7055 177.781 48.2255 178.045 48.8655 178.045ZM57.385 179.425C56.609 179.425 55.945 179.245 55.393 178.885C54.841 178.517 54.413 178.009 54.109 177.361C53.813 176.705 53.665 175.945 53.665 175.081C53.665 174.225 53.813 173.469 54.109 172.813C54.413 172.157 54.841 171.649 55.393 171.289C55.945 170.921 56.609 170.737 57.385 170.737C58.161 170.737 58.825 170.921 59.377 171.289C59.929 171.649 60.353 172.157 60.649 172.813C60.953 173.469 61.105 174.225 61.105 175.081C61.105 175.945 60.953 176.705 60.649 177.361C60.353 178.009 59.929 178.517 59.377 178.885C58.825 179.245 58.161 179.425 57.385 179.425ZM57.385 178.045C58.017 178.045 58.533 177.781 58.933 177.253C59.333 176.725 59.533 176.001 59.533 175.081C59.533 174.161 59.333 173.437 58.933 172.909C58.533 172.381 58.017 172.117 57.385 172.117C56.745 172.117 56.225 172.381 55.825 172.909C55.433 173.437 55.237 174.161 55.237 175.081C55.237 176.001 55.433 176.725 55.825 177.253C56.225 177.781 56.745 178.045 57.385 178.045ZM62.4245 179.281V170.641H63.9605V175.741L66.0725 173.329H67.8965L65.4605 176.041L68.2925 179.281H66.3725L63.9605 176.293V179.281H62.4245Z" fill="#6D7D93"/>
<path d="M44.2488 219.425C43.6728 219.425 43.1528 219.325 42.6888 219.125C42.2248 218.917 41.8528 218.625 41.5728 218.249C41.3008 217.873 41.1648 217.437 41.1648 216.941C41.1648 216.429 41.2968 215.981 41.5608 215.597C41.8328 215.213 42.1888 214.937 42.6288 214.769C42.2448 214.601 41.9408 214.361 41.7168 214.049C41.4928 213.729 41.3808 213.373 41.3808 212.981C41.3808 212.581 41.4888 212.213 41.7048 211.877C41.9208 211.533 42.2408 211.257 42.6648 211.049C43.0968 210.841 43.6248 210.737 44.2488 210.737C44.8728 210.737 45.3968 210.841 45.8208 211.049C46.2448 211.257 46.5648 211.533 46.7808 211.877C46.9968 212.213 47.1048 212.581 47.1048 212.981C47.1048 213.365 46.9888 213.721 46.7568 214.049C46.5328 214.369 46.2328 214.609 45.8568 214.769C46.3048 214.937 46.6608 215.213 46.9248 215.597C47.1888 215.981 47.3208 216.429 47.3208 216.941C47.3208 217.437 47.1848 217.873 46.9128 218.249C46.6408 218.625 46.2688 218.917 45.7968 219.125C45.3328 219.325 44.8168 219.425 44.2488 219.425ZM44.2488 214.313C44.6648 214.313 44.9928 214.205 45.2328 213.989C45.4728 213.773 45.5928 213.497 45.5928 213.161C45.5928 212.793 45.4728 212.505 45.2328 212.297C45.0008 212.089 44.6728 211.985 44.2488 211.985C43.8168 211.985 43.4848 212.089 43.2528 212.297C43.0208 212.505 42.9048 212.793 42.9048 213.161C42.9048 213.505 43.0208 213.785 43.2528 214.001C43.4928 214.209 43.8248 214.313 44.2488 214.313ZM44.2488 218.141C44.7608 218.141 45.1488 218.017 45.4128 217.769C45.6768 217.513 45.8088 217.193 45.8088 216.809C45.8088 216.385 45.6688 216.053 45.3888 215.813C45.1168 215.573 44.7368 215.453 44.2488 215.453C43.7608 215.453 43.3728 215.573 43.0848 215.813C42.8048 216.053 42.6648 216.385 42.6648 216.809C42.6648 217.193 42.7968 217.513 43.0608 217.769C43.3328 218.017 43.7288 218.141 44.2488 218.141ZM52.2756 219.425C51.4996 219.425 50.8356 219.245 50.2836 218.885C49.7316 218.517 49.3036 218.009 48.9996 217.361C48.7036 216.705 48.5556 215.945 48.5556 215.081C48.5556 214.225 48.7036 213.469 48.9996 212.813C49.3036 212.157 49.7316 211.649 50.2836 211.289C50.8356 210.921 51.4996 210.737 52.2756 210.737C53.0516 210.737 53.7156 210.921 54.2676 211.289C54.8196 211.649 55.2436 212.157 55.5396 212.813C55.8436 213.469 55.9956 214.225 55.9956 215.081C55.9956 215.945 55.8436 216.705 55.5396 217.361C55.2436 218.009 54.8196 218.517 54.2676 218.885C53.7156 219.245 53.0516 219.425 52.2756 219.425ZM52.2756 218.045C52.9076 218.045 53.4236 217.781 53.8236 217.253C54.2236 216.725 54.4236 216.001 54.4236 215.081C54.4236 214.161 54.2236 213.437 53.8236 212.909C53.4236 212.381 52.9076 212.117 52.2756 212.117C51.6356 212.117 51.1156 212.381 50.7156 212.909C50.3236 213.437 50.1276 214.161 50.1276 215.081C50.1276 216.001 50.3236 216.725 50.7156 217.253C51.1156 217.781 51.6356 218.045 52.2756 218.045ZM57.3152 219.281V210.641H58.8512V215.741L60.9632 213.329H62.7872L60.3512 216.041L63.1832 219.281H61.2632L58.8512 216.293V219.281H57.3152Z" fill="#6D7D93"/>
<path d="M44.4408 259.425C43.8088 259.425 43.2768 259.309 42.8448 259.077C42.4128 258.845 42.0648 258.533 41.8008 258.141C41.5368 257.749 41.3448 257.313 41.2248 256.833C41.1128 256.353 41.0568 255.861 41.0568 255.357C41.0568 254.421 41.1888 253.609 41.4528 252.921C41.7168 252.225 42.0968 251.689 42.5928 251.313C43.0888 250.929 43.6888 250.737 44.3928 250.737C44.9688 250.737 45.4568 250.853 45.8568 251.085C46.2648 251.309 46.5807 251.605 46.8047 251.973C47.0288 252.341 47.1608 252.737 47.2008 253.161H45.7728C45.7008 252.793 45.5448 252.509 45.3048 252.309C45.0648 252.109 44.7568 252.009 44.3808 252.009C43.8448 252.009 43.4128 252.257 43.0848 252.753C42.7568 253.241 42.5808 253.989 42.5568 254.997C42.7488 254.669 43.0368 254.397 43.4208 254.181C43.8048 253.965 44.2328 253.857 44.7048 253.857C45.1688 253.857 45.6048 253.969 46.0128 254.193C46.4208 254.417 46.7488 254.733 46.9968 255.141C47.2528 255.549 47.3808 256.029 47.3808 256.581C47.3808 257.085 47.2568 257.553 47.0088 257.985C46.7688 258.417 46.4248 258.765 45.9768 259.029C45.5368 259.293 45.0248 259.425 44.4408 259.425ZM44.3568 258.105C44.8048 258.105 45.1728 257.969 45.4608 257.697C45.7568 257.417 45.9048 257.065 45.9048 256.641C45.9048 256.193 45.7568 255.833 45.4608 255.561C45.1648 255.289 44.7888 255.153 44.3328 255.153C44.0368 255.153 43.7688 255.221 43.5288 255.357C43.2968 255.485 43.1128 255.661 42.9768 255.885C42.8408 256.101 42.7728 256.345 42.7728 256.617C42.7728 257.049 42.9208 257.405 43.2168 257.685C43.5208 257.965 43.9008 258.105 44.3568 258.105ZM52.3342 259.425C51.5582 259.425 50.8942 259.245 50.3422 258.885C49.7902 258.517 49.3622 258.009 49.0582 257.361C48.7622 256.705 48.6142 255.945 48.6142 255.081C48.6142 254.225 48.7622 253.469 49.0582 252.813C49.3622 252.157 49.7902 251.649 50.3422 251.289C50.8942 250.921 51.5582 250.737 52.3342 250.737C53.1102 250.737 53.7742 250.921 54.3262 251.289C54.8782 251.649 55.3022 252.157 55.5982 252.813C55.9022 253.469 56.0542 254.225 56.0542 255.081C56.0542 255.945 55.9022 256.705 55.5982 257.361C55.3022 258.009 54.8782 258.517 54.3262 258.885C53.7742 259.245 53.1102 259.425 52.3342 259.425ZM52.3342 258.045C52.9662 258.045 53.4822 257.781 53.8822 257.253C54.2822 256.725 54.4822 256.001 54.4822 255.081C54.4822 254.161 54.2822 253.437 53.8822 252.909C53.4822 252.381 52.9662 252.117 52.3342 252.117C51.6942 252.117 51.1742 252.381 50.7742 252.909C50.3822 253.437 50.1862 254.161 50.1862 255.081C50.1862 256.001 50.3822 256.725 50.7742 257.253C51.1742 257.781 51.6942 258.045 52.3342 258.045ZM57.3738 259.281V250.641H58.9098V255.741L61.0218 253.329H62.8458L60.4098 256.041L63.2418 259.281H61.3218L58.9098 256.293V259.281H57.3738Z" fill="#6D7D93"/>
<path d="M45.1248 299.281V297.721H40.9848V296.497L44.9208 290.881H46.6608V296.389H47.7648V297.721H46.6608V299.281H45.1248ZM42.6288 296.389H45.2208V292.573L42.6288 296.389ZM52.4163 299.425C51.6403 299.425 50.9763 299.245 50.4243 298.885C49.8723 298.517 49.4443 298.009 49.1403 297.361C48.8443 296.705 48.6963 295.945 48.6963 295.081C48.6963 294.225 48.8443 293.469 49.1403 292.813C49.4443 292.157 49.8723 291.649 50.4243 291.289C50.9763 290.921 51.6403 290.737 52.4163 290.737C53.1923 290.737 53.8563 290.921 54.4083 291.289C54.9603 291.649 55.3843 292.157 55.6803 292.813C55.9843 293.469 56.1363 294.225 56.1363 295.081C56.1363 295.945 55.9843 296.705 55.6803 297.361C55.3843 298.009 54.9603 298.517 54.4083 298.885C53.8563 299.245 53.1923 299.425 52.4163 299.425ZM52.4163 298.045C53.0483 298.045 53.5643 297.781 53.9643 297.253C54.3643 296.725 54.5643 296.001 54.5643 295.081C54.5643 294.161 54.3643 293.437 53.9643 292.909C53.5643 292.381 53.0483 292.117 52.4163 292.117C51.7763 292.117 51.2563 292.381 50.8563 292.909C50.4643 293.437 50.2683 294.161 50.2683 295.081C50.2683 296.001 50.4643 296.725 50.8563 297.253C51.2563 297.781 51.7763 298.045 52.4163 298.045ZM57.4558 299.281V290.641H58.9918V295.741L61.1038 293.329H62.9278L60.4918 296.041L63.3238 299.281H61.4038L58.9918 296.293V299.281H57.4558Z" fill="#6D7D93"/>
<path d="M41.0808 339.281V338.165C41.5928 337.741 42.0888 337.321 42.5688 336.905C43.0568 336.489 43.4888 336.077 43.8648 335.669C44.2488 335.261 44.5528 334.865 44.7768 334.481C45.0088 334.089 45.1248 333.709 45.1248 333.341C45.1248 332.997 45.0288 332.693 44.8368 332.429C44.6528 332.165 44.3448 332.033 43.9128 332.033C43.4728 332.033 43.1408 332.177 42.9168 332.465C42.6928 332.753 42.5808 333.101 42.5808 333.509H41.0928C41.1088 332.893 41.2448 332.381 41.5008 331.973C41.7568 331.557 42.0968 331.249 42.5208 331.049C42.9448 330.841 43.4208 330.737 43.9488 330.737C44.8048 330.737 45.4688 330.973 45.9408 331.445C46.4208 331.909 46.6608 332.513 46.6608 333.257C46.6608 333.721 46.5528 334.173 46.3368 334.613C46.1288 335.053 45.8528 335.477 45.5088 335.885C45.1648 336.293 44.7928 336.677 44.3928 337.037C43.9928 337.389 43.6048 337.717 43.2288 338.021H46.8648V339.281H41.0808ZM51.5256 339.425C50.7496 339.425 50.0856 339.245 49.5336 338.885C48.9816 338.517 48.5536 338.009 48.2496 337.361C47.9536 336.705 47.8056 335.945 47.8056 335.081C47.8056 334.225 47.9536 333.469 48.2496 332.813C48.5536 332.157 48.9816 331.649 49.5336 331.289C50.0856 330.921 50.7496 330.737 51.5256 330.737C52.3016 330.737 52.9656 330.921 53.5176 331.289C54.0696 331.649 54.4936 332.157 54.7896 332.813C55.0936 333.469 55.2456 334.225 55.2456 335.081C55.2456 335.945 55.0936 336.705 54.7896 337.361C54.4936 338.009 54.0696 338.517 53.5176 338.885C52.9656 339.245 52.3016 339.425 51.5256 339.425ZM51.5256 338.045C52.1576 338.045 52.6736 337.781 53.0736 337.253C53.4736 336.725 53.6736 336.001 53.6736 335.081C53.6736 334.161 53.4736 333.437 53.0736 332.909C52.6736 332.381 52.1576 332.117 51.5256 332.117C50.8856 332.117 50.3656 332.381 49.9656 332.909C49.5736 333.437 49.3776 334.161 49.3776 335.081C49.3776 336.001 49.5736 336.725 49.9656 337.253C50.3656 337.781 50.8856 338.045 51.5256 338.045ZM56.5652 339.281V330.641H58.1012V335.741L60.2132 333.329H62.0372L59.6012 336.041L62.4332 339.281H60.5132L58.1012 336.293V339.281H56.5652Z" fill="#6D7D93"/>
<path d="M44.7288 379.425C43.9528 379.425 43.2888 379.245 42.7368 378.885C42.1848 378.517 41.7568 378.009 41.4528 377.361C41.1568 376.705 41.0088 375.945 41.0088 375.081C41.0088 374.225 41.1568 373.469 41.4528 372.813C41.7568 372.157 42.1848 371.649 42.7368 371.289C43.2888 370.921 43.9528 370.737 44.7288 370.737C45.5048 370.737 46.1688 370.921 46.7208 371.289C47.2728 371.649 47.6968 372.157 47.9928 372.813C48.2968 373.469 48.4488 374.225 48.4488 375.081C48.4488 375.945 48.2968 376.705 47.9928 377.361C47.6968 378.009 47.2728 378.517 46.7208 378.885C46.1688 379.245 45.5048 379.425 44.7288 379.425ZM44.7288 378.045C45.3608 378.045 45.8768 377.781 46.2768 377.253C46.6768 376.725 46.8768 376.001 46.8768 375.081C46.8768 374.161 46.6768 373.437 46.2768 372.909C45.8768 372.381 45.3608 372.117 44.7288 372.117C44.0888 372.117 43.5688 372.381 43.1688 372.909C42.7768 373.437 42.5808 374.161 42.5808 375.081C42.5808 376.001 42.7768 376.725 43.1688 377.253C43.5688 377.781 44.0888 378.045 44.7288 378.045ZM49.7683 379.281V370.641H51.3043V375.741L53.4163 373.329H55.2403L52.8043 376.041L55.6363 379.281H53.7163L51.3043 376.293V379.281H49.7683Z" fill="#6D7D93"/>
<line x1="88.9688" y1="88.0938" x2="88.9687" y2="340.227" stroke="#6D7D93" stroke-opacity="0.5" stroke-width="0.5"/>
<line x1="89.875" y1="339.977" x2="1009.01" y2="339.977" stroke="#6D7D93" stroke-opacity="0.5" stroke-width="0.5"/>
<circle cx="667.648" cy="187.109" r="6" fill="#D50036"/>
<ellipse cx="667.989" cy="187.229" rx="2.45" ry="2.44789" fill="white"/>
<g filter="url(#filter1_b_325_3178)">
<path d="M587 140C587 138.343 588.343 137 590 137H664C665.657 137 667 138.343 667 140V171.146C667 173.376 664.653 174.827 662.658 173.829L659.633 172.317C659.217 172.108 658.758 172 658.292 172H590C588.343 172 587 170.657 587 169V140Z" fill="black" fill-opacity="0.5"/>
</g>
<path d="M595.816 163V160.036H595.12V159.148H595.816V158.284H595.12V157.396H595.816V154.432H597.7L598.636 157.396H599.728V154.432H601.06V157.396H601.744V158.284H601.06V159.148H601.744V160.036H601.06V163H599.164L598.204 160.036H597.148V163H595.816ZM597.1 157.396H597.436L597.088 156.244H597.04L597.1 157.396ZM597.148 159.148H597.94L597.676 158.284H597.124L597.148 159.148ZM599.2 159.148H599.752L599.728 158.284H598.924L599.2 159.148ZM599.764 161.128H599.824L599.776 160.036H599.452L599.764 161.128ZM606.023 163L609.191 155.908H605.051V154.6H610.775V155.692L607.619 163H606.023ZM614.811 163.144C614.235 163.144 613.715 163.044 613.251 162.844C612.787 162.636 612.415 162.344 612.135 161.968C611.863 161.592 611.727 161.156 611.727 160.66C611.727 160.148 611.859 159.7 612.123 159.316C612.395 158.932 612.751 158.656 613.191 158.488C612.807 158.32 612.503 158.08 612.279 157.768C612.055 157.448 611.943 157.092 611.943 156.7C611.943 156.3 612.051 155.932 612.267 155.596C612.483 155.252 612.803 154.976 613.227 154.768C613.659 154.56 614.187 154.456 614.811 154.456C615.435 154.456 615.959 154.56 616.383 154.768C616.807 154.976 617.127 155.252 617.343 155.596C617.559 155.932 617.667 156.3 617.667 156.7C617.667 157.084 617.551 157.44 617.319 157.768C617.095 158.088 616.795 158.328 616.419 158.488C616.867 158.656 617.223 158.932 617.487 159.316C617.751 159.7 617.883 160.148 617.883 160.66C617.883 161.156 617.747 161.592 617.475 161.968C617.203 162.344 616.831 162.636 616.359 162.844C615.895 163.044 615.379 163.144 614.811 163.144ZM614.811 158.032C615.227 158.032 615.555 157.924 615.795 157.708C616.035 157.492 616.155 157.216 616.155 156.88C616.155 156.512 616.035 156.224 615.795 156.016C615.563 155.808 615.235 155.704 614.811 155.704C614.379 155.704 614.047 155.808 613.815 156.016C613.583 156.224 613.467 156.512 613.467 156.88C613.467 157.224 613.583 157.504 613.815 157.72C614.055 157.928 614.387 158.032 614.811 158.032ZM614.811 161.86C615.323 161.86 615.711 161.736 615.975 161.488C616.239 161.232 616.371 160.912 616.371 160.528C616.371 160.104 616.231 159.772 615.951 159.532C615.679 159.292 615.299 159.172 614.811 159.172C614.323 159.172 613.935 159.292 613.647 159.532C613.367 159.772 613.227 160.104 613.227 160.528C613.227 160.912 613.359 161.232 613.623 161.488C613.895 161.736 614.291 161.86 614.811 161.86ZM618.746 164.392L619.43 161.404H620.918L619.754 164.392H618.746ZM625.183 163.144C624.567 163.144 624.035 163.036 623.587 162.82C623.147 162.604 622.799 162.308 622.543 161.932C622.295 161.548 622.151 161.116 622.111 160.636H623.611C623.683 160.98 623.859 161.268 624.139 161.5C624.419 161.724 624.767 161.836 625.183 161.836C625.631 161.836 625.995 161.672 626.275 161.344C626.563 161.016 626.707 160.608 626.707 160.12C626.707 159.616 626.563 159.216 626.275 158.92C625.995 158.624 625.639 158.476 625.207 158.476C624.847 158.476 624.535 158.564 624.271 158.74C624.007 158.916 623.819 159.136 623.707 159.4H622.231L622.951 154.6H627.607V155.944H624.103L623.719 157.888C623.895 157.696 624.135 157.54 624.439 157.42C624.743 157.292 625.083 157.228 625.459 157.228C626.059 157.228 626.559 157.364 626.959 157.636C627.359 157.9 627.663 158.252 627.871 158.692C628.079 159.124 628.183 159.596 628.183 160.108C628.183 160.692 628.055 161.212 627.799 161.668C627.551 162.124 627.199 162.484 626.743 162.748C626.295 163.012 625.775 163.144 625.183 163.144ZM632.769 163.144C632.137 163.144 631.605 163.028 631.173 162.796C630.741 162.564 630.393 162.252 630.129 161.86C629.865 161.468 629.673 161.032 629.553 160.552C629.441 160.072 629.385 159.58 629.385 159.076C629.385 158.14 629.517 157.328 629.781 156.64C630.045 155.944 630.425 155.408 630.921 155.032C631.417 154.648 632.017 154.456 632.721 154.456C633.297 154.456 633.785 154.572 634.185 154.804C634.593 155.028 634.909 155.324 635.133 155.692C635.357 156.06 635.489 156.456 635.529 156.88H634.101C634.029 156.512 633.873 156.228 633.633 156.028C633.393 155.828 633.085 155.728 632.709 155.728C632.173 155.728 631.741 155.976 631.413 156.472C631.085 156.96 630.909 157.708 630.885 158.716C631.077 158.388 631.365 158.116 631.749 157.9C632.133 157.684 632.561 157.576 633.033 157.576C633.497 157.576 633.933 157.688 634.341 157.912C634.749 158.136 635.077 158.452 635.325 158.86C635.581 159.268 635.709 159.748 635.709 160.3C635.709 160.804 635.585 161.272 635.337 161.704C635.097 162.136 634.753 162.484 634.305 162.748C633.865 163.012 633.353 163.144 632.769 163.144ZM632.685 161.824C633.133 161.824 633.501 161.688 633.789 161.416C634.085 161.136 634.233 160.784 634.233 160.36C634.233 159.912 634.085 159.552 633.789 159.28C633.493 159.008 633.117 158.872 632.661 158.872C632.365 158.872 632.097 158.94 631.857 159.076C631.625 159.204 631.441 159.38 631.305 159.604C631.169 159.82 631.101 160.064 631.101 160.336C631.101 160.768 631.249 161.124 631.545 161.404C631.849 161.684 632.229 161.824 632.685 161.824ZM640.662 163.144C639.886 163.144 639.222 162.964 638.67 162.604C638.118 162.236 637.69 161.728 637.386 161.08C637.09 160.424 636.942 159.664 636.942 158.8C636.942 157.944 637.09 157.188 637.386 156.532C637.69 155.876 638.118 155.368 638.67 155.008C639.222 154.64 639.886 154.456 640.662 154.456C641.438 154.456 642.102 154.64 642.654 155.008C643.206 155.368 643.63 155.876 643.926 156.532C644.23 157.188 644.382 157.944 644.382 158.8C644.382 159.664 644.23 160.424 643.926 161.08C643.63 161.728 643.206 162.236 642.654 162.604C642.102 162.964 641.438 163.144 640.662 163.144ZM640.662 161.764C641.294 161.764 641.81 161.5 642.21 160.972C642.61 160.444 642.81 159.72 642.81 158.8C642.81 157.88 642.61 157.156 642.21 156.628C641.81 156.1 641.294 155.836 640.662 155.836C640.022 155.836 639.502 156.1 639.102 156.628C638.71 157.156 638.514 157.88 638.514 158.8C638.514 159.72 638.71 160.444 639.102 160.972C639.502 161.5 640.022 161.764 640.662 161.764Z" fill="white"/>
<path opacity="0.8" d="M595.255 147V146.535C595.468 146.358 595.675 146.183 595.875 146.01C596.078 145.837 596.258 145.665 596.415 145.495C596.575 145.325 596.702 145.16 596.795 145C596.892 144.837 596.94 144.678 596.94 144.525C596.94 144.382 596.9 144.255 596.82 144.145C596.743 144.035 596.615 143.98 596.435 143.98C596.252 143.98 596.113 144.04 596.02 144.16C595.927 144.28 595.88 144.425 595.88 144.595H595.26C595.267 144.338 595.323 144.125 595.43 143.955C595.537 143.782 595.678 143.653 595.855 143.57C596.032 143.483 596.23 143.44 596.45 143.44C596.807 143.44 597.083 143.538 597.28 143.735C597.48 143.928 597.58 144.18 597.58 144.49C597.58 144.683 597.535 144.872 597.445 145.055C597.358 145.238 597.243 145.415 597.1 145.585C596.957 145.755 596.802 145.915 596.635 146.065C596.468 146.212 596.307 146.348 596.15 146.475H597.665V147H595.255ZM599.607 147.06C599.284 147.06 599.007 146.985 598.777 146.835C598.547 146.682 598.369 146.47 598.242 146.2C598.119 145.927 598.057 145.61 598.057 145.25C598.057 144.893 598.119 144.578 598.242 144.305C598.369 144.032 598.547 143.82 598.777 143.67C599.007 143.517 599.284 143.44 599.607 143.44C599.93 143.44 600.207 143.517 600.437 143.67C600.667 143.82 600.844 144.032 600.967 144.305C601.094 144.578 601.157 144.893 601.157 145.25C601.157 145.61 601.094 145.927 600.967 146.2C600.844 146.47 600.667 146.682 600.437 146.835C600.207 146.985 599.93 147.06 599.607 147.06ZM599.607 146.485C599.87 146.485 600.085 146.375 600.252 146.155C600.419 145.935 600.502 145.633 600.502 145.25C600.502 144.867 600.419 144.565 600.252 144.345C600.085 144.125 599.87 144.015 599.607 144.015C599.34 144.015 599.124 144.125 598.957 144.345C598.794 144.565 598.712 144.867 598.712 145.25C598.712 145.633 598.794 145.935 598.957 146.155C599.124 146.375 599.34 146.485 599.607 146.485ZM602.913 147V143.5H603.673L604.788 145.72L605.888 143.5H606.648V147H606.008V144.585L605.033 146.5H604.528L603.553 144.585V147H602.913ZM608.167 147.06C607.954 147.06 607.779 147.027 607.642 146.96C607.506 146.89 607.404 146.798 607.337 146.685C607.271 146.572 607.237 146.447 607.237 146.31C607.237 146.08 607.327 145.893 607.507 145.75C607.687 145.607 607.957 145.535 608.317 145.535H608.947V145.475C608.947 145.305 608.899 145.18 608.802 145.1C608.706 145.02 608.586 144.98 608.442 144.98C608.312 144.98 608.199 145.012 608.102 145.075C608.006 145.135 607.946 145.225 607.922 145.345H607.297C607.314 145.165 607.374 145.008 607.477 144.875C607.584 144.742 607.721 144.64 607.887 144.57C608.054 144.497 608.241 144.46 608.447 144.46C608.801 144.46 609.079 144.548 609.282 144.725C609.486 144.902 609.587 145.152 609.587 145.475V147H609.042L608.982 146.6C608.909 146.733 608.806 146.843 608.672 146.93C608.542 147.017 608.374 147.06 608.167 147.06ZM608.312 146.56C608.496 146.56 608.637 146.5 608.737 146.38C608.841 146.26 608.906 146.112 608.932 145.935H608.387C608.217 145.935 608.096 145.967 608.022 146.03C607.949 146.09 607.912 146.165 607.912 146.255C607.912 146.352 607.949 146.427 608.022 146.48C608.096 146.533 608.192 146.56 608.312 146.56ZM610.425 148.1L611 146.835H610.85L609.885 144.52H610.58L611.275 146.265L612 144.52H612.68L611.105 148.1H610.425ZM614.22 147V146.535C614.433 146.358 614.64 146.183 614.84 146.01C615.043 145.837 615.223 145.665 615.38 145.495C615.54 145.325 615.667 145.16 615.76 145C615.857 144.837 615.905 144.678 615.905 144.525C615.905 144.382 615.865 144.255 615.785 144.145C615.708 144.035 615.58 143.98 615.4 143.98C615.217 143.98 615.078 144.04 614.985 144.16C614.892 144.28 614.845 144.425 614.845 144.595H614.225C614.232 144.338 614.288 144.125 614.395 143.955C614.502 143.782 614.643 143.653 614.82 143.57C614.997 143.483 615.195 143.44 615.415 143.44C615.772 143.44 616.048 143.538 616.245 143.735C616.445 143.928 616.545 144.18 616.545 144.49C616.545 144.683 616.5 144.872 616.41 145.055C616.323 145.238 616.208 145.415 616.065 145.585C615.922 145.755 615.767 145.915 615.6 146.065C615.433 146.212 615.272 146.348 615.115 146.475H616.63V147H614.22ZM618.572 147.06C618.249 147.06 617.972 146.985 617.742 146.835C617.512 146.682 617.334 146.47 617.207 146.2C617.084 145.927 617.022 145.61 617.022 145.25C617.022 144.893 617.084 144.578 617.207 144.305C617.334 144.032 617.512 143.82 617.742 143.67C617.972 143.517 618.249 143.44 618.572 143.44C618.895 143.44 619.172 143.517 619.402 143.67C619.632 143.82 619.809 144.032 619.932 144.305C620.059 144.578 620.122 144.893 620.122 145.25C620.122 145.61 620.059 145.927 619.932 146.2C619.809 146.47 619.632 146.682 619.402 146.835C619.172 146.985 618.895 147.06 618.572 147.06ZM618.572 146.485C618.835 146.485 619.05 146.375 619.217 146.155C619.384 145.935 619.467 145.633 619.467 145.25C619.467 144.867 619.384 144.565 619.217 144.345C619.05 144.125 618.835 144.015 618.572 144.015C618.305 144.015 618.089 144.125 617.922 144.345C617.759 144.565 617.677 144.867 617.677 145.25C617.677 145.633 617.759 145.935 617.922 146.155C618.089 146.375 618.305 146.485 618.572 146.485ZM620.577 147V146.535C620.791 146.358 620.997 146.183 621.197 146.01C621.401 145.837 621.581 145.665 621.737 145.495C621.897 145.325 622.024 145.16 622.117 145C622.214 144.837 622.262 144.678 622.262 144.525C622.262 144.382 622.222 144.255 622.142 144.145C622.066 144.035 621.937 143.98 621.757 143.98C621.574 143.98 621.436 144.04 621.342 144.16C621.249 144.28 621.202 144.425 621.202 144.595H620.582C620.589 144.338 620.646 144.125 620.752 143.955C620.859 143.782 621.001 143.653 621.177 143.57C621.354 143.483 621.552 143.44 621.772 143.44C622.129 143.44 622.406 143.538 622.602 143.735C622.802 143.928 622.902 144.18 622.902 144.49C622.902 144.683 622.857 144.872 622.767 145.055C622.681 145.238 622.566 145.415 622.422 145.585C622.279 145.755 622.124 145.915 621.957 146.065C621.791 146.212 621.629 146.348 621.472 146.475H622.987V147H620.577ZM623.434 147V146.535C623.647 146.358 623.854 146.183 624.054 146.01C624.257 145.837 624.437 145.665 624.594 145.495C624.754 145.325 624.88 145.16 624.974 145C625.07 144.837 625.119 144.678 625.119 144.525C625.119 144.382 625.079 144.255 624.999 144.145C624.922 144.035 624.794 143.98 624.614 143.98C624.43 143.98 624.292 144.04 624.199 144.16C624.105 144.28 624.059 144.425 624.059 144.595H623.439C623.445 144.338 623.502 144.125 623.609 143.955C623.715 143.782 623.857 143.653 624.034 143.57C624.21 143.483 624.409 143.44 624.629 143.44C624.985 143.44 625.262 143.538 625.459 143.735C625.659 143.928 625.759 144.18 625.759 144.49C625.759 144.683 625.714 144.872 625.624 145.055C625.537 145.238 625.422 145.415 625.279 145.585C625.135 145.755 624.98 145.915 624.814 146.065C624.647 146.212 624.485 146.348 624.329 146.475H625.844V147H623.434Z" fill="white"/>
<rect x="686.156" y="57.9375" width="159.316" height="26.1109" rx="6" fill="white"/>
<path d="M692.512 77.9375V70.3655H690.004V69.5375H696.028V70.3655H693.52V77.9375H692.512ZM698.833 78.0815C698.273 78.0815 697.769 77.9535 697.321 77.6975C696.873 77.4415 696.517 77.0815 696.253 76.6175C695.997 76.1455 695.869 75.5935 695.869 74.9615C695.869 74.3295 696.001 73.7815 696.265 73.3175C696.529 72.8455 696.885 72.4815 697.333 72.2255C697.789 71.9695 698.297 71.8415 698.857 71.8415C699.417 71.8415 699.921 71.9695 700.369 72.2255C700.817 72.4815 701.169 72.8455 701.425 73.3175C701.689 73.7815 701.821 74.3295 701.821 74.9615C701.821 75.5935 701.689 76.1455 701.425 76.6175C701.161 77.0815 700.801 77.4415 700.345 77.6975C699.897 77.9535 699.393 78.0815 698.833 78.0815ZM698.833 77.2175C699.177 77.2175 699.497 77.1335 699.793 76.9655C700.089 76.7975 700.329 76.5455 700.513 76.2095C700.697 75.8735 700.789 75.4575 700.789 74.9615C700.789 74.4655 700.697 74.0495 700.513 73.7135C700.337 73.3775 700.101 73.1255 699.805 72.9575C699.509 72.7895 699.193 72.7055 698.857 72.7055C698.513 72.7055 698.193 72.7895 697.897 72.9575C697.601 73.1255 697.361 73.3775 697.177 73.7135C696.993 74.0495 696.901 74.4655 696.901 74.9615C696.901 75.4575 696.993 75.8735 697.177 76.2095C697.361 76.5455 697.597 76.7975 697.885 76.9655C698.181 77.1335 698.497 77.2175 698.833 77.2175ZM705.34 77.9375C704.796 77.9375 704.368 77.8055 704.056 77.5415C703.744 77.2775 703.588 76.8015 703.588 76.1135V72.8375H702.556V71.9855H703.588L703.72 70.5575H704.596V71.9855H706.348V72.8375H704.596V76.1135C704.596 76.4895 704.672 76.7455 704.824 76.8815C704.976 77.0095 705.244 77.0735 705.628 77.0735H706.252V77.9375H705.34ZM709.609 78.0815C709.113 78.0815 708.701 77.9975 708.373 77.8295C708.045 77.6615 707.801 77.4375 707.641 77.1575C707.481 76.8775 707.401 76.5735 707.401 76.2455C707.401 75.6375 707.633 75.1695 708.097 74.8415C708.561 74.5135 709.193 74.3495 709.993 74.3495H711.601V74.2775C711.601 73.7575 711.465 73.3655 711.193 73.1015C710.921 72.8295 710.557 72.6935 710.101 72.6935C709.709 72.6935 709.369 72.7935 709.081 72.9935C708.801 73.1855 708.625 73.4695 708.553 73.8455H707.521C707.561 73.4135 707.705 73.0495 707.953 72.7535C708.209 72.4575 708.525 72.2335 708.901 72.0815C709.277 71.9215 709.677 71.8415 710.101 71.8415C710.933 71.8415 711.557 72.0655 711.973 72.5135C712.397 72.9535 712.609 73.5415 712.609 74.2775V77.9375H711.709L711.649 76.8695C711.481 77.2055 711.233 77.4935 710.905 77.7335C710.585 77.9655 710.153 78.0815 709.609 78.0815ZM709.765 77.2295C710.149 77.2295 710.477 77.1295 710.749 76.9295C711.029 76.7295 711.241 76.4695 711.385 76.1495C711.529 75.8295 711.601 75.4935 711.601 75.1415V75.1295H710.077C709.485 75.1295 709.065 75.2335 708.817 75.4415C708.577 75.6415 708.457 75.8935 708.457 76.1975C708.457 76.5095 708.569 76.7615 708.793 76.9535C709.025 77.1375 709.349 77.2295 709.765 77.2295ZM714.121 77.9375V69.2975H715.129V77.9375H714.121ZM720.017 77.9375V69.5375H725.213V70.3655H721.025V73.2935H724.853V74.1095H721.025V77.1095H725.213V77.9375H720.017ZM728.71 78.0815C728.214 78.0815 727.802 77.9975 727.474 77.8295C727.146 77.6615 726.902 77.4375 726.742 77.1575C726.582 76.8775 726.502 76.5735 726.502 76.2455C726.502 75.6375 726.734 75.1695 727.198 74.8415C727.662 74.5135 728.294 74.3495 729.094 74.3495H730.702V74.2775C730.702 73.7575 730.566 73.3655 730.294 73.1015C730.022 72.8295 729.658 72.6935 729.202 72.6935C728.81 72.6935 728.47 72.7935 728.182 72.9935C727.902 73.1855 727.726 73.4695 727.654 73.8455H726.622C726.662 73.4135 726.806 73.0495 727.054 72.7535C727.31 72.4575 727.626 72.2335 728.002 72.0815C728.378 71.9215 728.778 71.8415 729.202 71.8415C730.034 71.8415 730.658 72.0655 731.074 72.5135C731.498 72.9535 731.71 73.5415 731.71 74.2775V77.9375H730.81L730.75 76.8695C730.582 77.2055 730.334 77.4935 730.006 77.7335C729.686 77.9655 729.254 78.0815 728.71 78.0815ZM728.866 77.2295C729.25 77.2295 729.578 77.1295 729.85 76.9295C730.13 76.7295 730.342 76.4695 730.486 76.1495C730.63 75.8295 730.702 75.4935 730.702 75.1415V75.1295H729.178C728.586 75.1295 728.166 75.2335 727.918 75.4415C727.678 75.6415 727.558 75.8935 727.558 76.1975C727.558 76.5095 727.67 76.7615 727.894 76.9535C728.126 77.1375 728.45 77.2295 728.866 77.2295ZM733.223 77.9375V71.9855H734.135L734.219 73.1255C734.403 72.7335 734.683 72.4215 735.059 72.1895C735.435 71.9575 735.899 71.8415 736.451 71.8415V72.8975H736.175C735.823 72.8975 735.499 72.9615 735.203 73.0895C734.907 73.2095 734.671 73.4175 734.495 73.7135C734.319 74.0095 734.231 74.4175 734.231 74.9375V77.9375H733.223ZM737.582 77.9375V71.9855H738.494L738.554 73.0535C738.746 72.6775 739.022 72.3815 739.382 72.1655C739.742 71.9495 740.15 71.8415 740.606 71.8415C741.31 71.8415 741.87 72.0575 742.286 72.4895C742.71 72.9135 742.922 73.5695 742.922 74.4575V77.9375H741.914V74.5655C741.914 73.3255 741.402 72.7055 740.378 72.7055C739.866 72.7055 739.438 72.8935 739.094 73.2695C738.758 73.6375 738.59 74.1655 738.59 74.8535V77.9375H737.582ZM745.061 70.6655C744.861 70.6655 744.693 70.6015 744.557 70.4735C744.429 70.3375 744.365 70.1695 744.365 69.9695C744.365 69.7775 744.429 69.6175 744.557 69.4895C744.693 69.3615 744.861 69.2975 745.061 69.2975C745.253 69.2975 745.417 69.3615 745.553 69.4895C745.689 69.6175 745.757 69.7775 745.757 69.9695C745.757 70.1695 745.689 70.3375 745.553 70.4735C745.417 70.6015 745.253 70.6655 745.061 70.6655ZM744.557 77.9375V71.9855H745.565V77.9375H744.557ZM747.32 77.9375V71.9855H748.232L748.292 73.0535C748.484 72.6775 748.76 72.3815 749.12 72.1655C749.48 71.9495 749.888 71.8415 750.344 71.8415C751.048 71.8415 751.608 72.0575 752.024 72.4895C752.448 72.9135 752.66 73.5695 752.66 74.4575V77.9375H751.652V74.5655C751.652 73.3255 751.14 72.7055 750.116 72.7055C749.604 72.7055 749.176 72.8935 748.832 73.2695C748.496 73.6375 748.328 74.1655 748.328 74.8535V77.9375H747.32ZM756.539 76.0655C756.203 76.0655 755.895 76.0215 755.615 75.9335L755.015 76.4975C755.103 76.5615 755.211 76.6175 755.339 76.6655C755.475 76.7055 755.667 76.7455 755.915 76.7855C756.163 76.8175 756.511 76.8535 756.959 76.8935C757.759 76.9495 758.331 77.1335 758.675 77.4455C759.019 77.7575 759.191 78.1655 759.191 78.6695C759.191 79.0135 759.095 79.3415 758.903 79.6535C758.719 79.9655 758.431 80.2215 758.039 80.4215C757.655 80.6215 757.159 80.7215 756.551 80.7215C756.015 80.7215 755.539 80.6495 755.123 80.5055C754.707 80.3695 754.383 80.1575 754.151 79.8695C753.919 79.5895 753.803 79.2335 753.803 78.8015C753.803 78.5775 753.863 78.3335 753.983 78.0695C754.103 77.8135 754.327 77.5695 754.655 77.3375C754.479 77.2655 754.327 77.1895 754.199 77.1095C754.079 77.0215 753.967 76.9255 753.863 76.8215V76.5455L754.883 75.5375C754.411 75.1375 754.175 74.6095 754.175 73.9535C754.175 73.5615 754.267 73.2055 754.451 72.8855C754.635 72.5655 754.903 72.3135 755.255 72.1295C755.607 71.9375 756.035 71.8415 756.539 71.8415C756.883 71.8415 757.195 71.8895 757.475 71.9855H759.671V72.7415L758.555 72.7895C758.787 73.1255 758.903 73.5135 758.903 73.9535C758.903 74.3455 758.807 74.7015 758.615 75.0215C758.431 75.3415 758.163 75.5975 757.811 75.7895C757.467 75.9735 757.043 76.0655 756.539 76.0655ZM756.539 75.2375C756.963 75.2375 757.299 75.1295 757.547 74.9135C757.803 74.6895 757.931 74.3695 757.931 73.9535C757.931 73.5455 757.803 73.2335 757.547 73.0175C757.299 72.7935 756.963 72.6815 756.539 72.6815C756.107 72.6815 755.763 72.7935 755.507 73.0175C755.259 73.2335 755.135 73.5455 755.135 73.9535C755.135 74.3695 755.259 74.6895 755.507 74.9135C755.763 75.1295 756.107 75.2375 756.539 75.2375ZM754.787 78.7055C754.787 79.1055 754.955 79.4015 755.291 79.5935C755.627 79.7935 756.047 79.8935 756.551 79.8935C757.047 79.8935 757.443 79.7855 757.739 79.5695C758.043 79.3535 758.195 79.0655 758.195 78.7055C758.195 78.4495 758.091 78.2255 757.883 78.0335C757.675 77.8495 757.291 77.7415 756.731 77.7095C756.291 77.6775 755.911 77.6375 755.591 77.5895C755.263 77.7655 755.047 77.9535 754.943 78.1535C754.839 78.3615 754.787 78.5455 754.787 78.7055Z" fill="#6D7D93"/>
<path d="M778.656 72.4375L781.656 75.4375L784.656 72.4375" stroke="#6D7D93" stroke-width="1.5" stroke-linecap="round" stroke-linejoin="round"/>
<rect x="686.406" y="58.1875" width="158.816" height="25.6109" rx="5.75" stroke="#6D7D93" stroke-opacity="0.15" stroke-width="0.5"/>
<rect x="873.43" y="57.9375" width="134.423" height="26.1109" rx="6" fill="white"/>
<path d="M880.318 77.9375V69.5375H881.494L884.518 75.3935L887.518 69.5375H888.706V77.9375H887.698V71.3375L884.89 76.7375H884.134L881.326 71.3495V77.9375H880.318ZM893.13 78.0815C892.57 78.0815 892.066 77.9535 891.618 77.6975C891.17 77.4415 890.814 77.0815 890.55 76.6175C890.294 76.1455 890.166 75.5935 890.166 74.9615C890.166 74.3295 890.298 73.7815 890.562 73.3175C890.826 72.8455 891.182 72.4815 891.63 72.2255C892.086 71.9695 892.594 71.8415 893.154 71.8415C893.714 71.8415 894.218 71.9695 894.666 72.2255C895.114 72.4815 895.466 72.8455 895.722 73.3175C895.986 73.7815 896.118 74.3295 896.118 74.9615C896.118 75.5935 895.986 76.1455 895.722 76.6175C895.458 77.0815 895.098 77.4415 894.642 77.6975C894.194 77.9535 893.69 78.0815 893.13 78.0815ZM893.13 77.2175C893.474 77.2175 893.794 77.1335 894.09 76.9655C894.386 76.7975 894.626 76.5455 894.81 76.2095C894.994 75.8735 895.086 75.4575 895.086 74.9615C895.086 74.4655 894.994 74.0495 894.81 73.7135C894.634 73.3775 894.398 73.1255 894.102 72.9575C893.806 72.7895 893.49 72.7055 893.154 72.7055C892.81 72.7055 892.49 72.7895 892.194 72.9575C891.898 73.1255 891.658 73.3775 891.474 73.7135C891.29 74.0495 891.198 74.4655 891.198 74.9615C891.198 75.4575 891.29 75.8735 891.474 76.2095C891.658 76.5455 891.894 76.7975 892.182 76.9655C892.478 77.1335 892.794 77.2175 893.13 77.2175ZM897.519 77.9375V71.9855H898.431L898.491 73.0535C898.683 72.6775 898.959 72.3815 899.319 72.1655C899.679 71.9495 900.087 71.8415 900.543 71.8415C901.247 71.8415 901.807 72.0575 902.223 72.4895C902.647 72.9135 902.859 73.5695 902.859 74.4575V77.9375H901.851V74.5655C901.851 73.3255 901.339 72.7055 900.315 72.7055C899.803 72.7055 899.375 72.8935 899.031 73.2695C898.695 73.6375 898.527 74.1655 898.527 74.8535V77.9375H897.519ZM906.739 77.9375C906.195 77.9375 905.767 77.8055 905.455 77.5415C905.143 77.2775 904.987 76.8015 904.987 76.1135V72.8375H903.955V71.9855H904.987L905.119 70.5575H905.995V71.9855H907.747V72.8375H905.995V76.1135C905.995 76.4895 906.071 76.7455 906.223 76.8815C906.375 77.0095 906.643 77.0735 907.027 77.0735H907.651V77.9375H906.739ZM909.027 77.9375V69.2975H910.035V73.0055C910.235 72.6375 910.519 72.3535 910.887 72.1535C911.255 71.9455 911.655 71.8415 912.087 71.8415C912.775 71.8415 913.327 72.0575 913.743 72.4895C914.159 72.9135 914.367 73.5695 914.367 74.4575V77.9375H913.371V74.5655C913.371 73.3255 912.871 72.7055 911.871 72.7055C911.351 72.7055 910.915 72.8935 910.563 73.2695C910.211 73.6375 910.035 74.1655 910.035 74.8535V77.9375H909.027ZM915.894 77.9375V69.2975H916.902V77.9375H915.894ZM919.203 80.5775L920.679 77.3615H920.331L917.967 71.9855H919.059L921.027 76.6175L923.115 71.9855H924.159L920.259 80.5775H919.203Z" fill="#6D7D93"/>
<path d="M947.43 72.4375L950.43 75.4375L953.43 72.4375" stroke="#6D7D93" stroke-width="1.5" stroke-linecap="round" stroke-linejoin="round"/>
<rect x="873.68" y="58.1875" width="133.923" height="25.6109" rx="5.75" stroke="#6D7D93" stroke-opacity="0.15" stroke-width="0.5"/>
<defs>
<filter id="filter0_d_325_3178" x="0" y="36" width="1077" height="389" filterUnits="userSpaceOnUse" color-interpolation-filters="sRGB">
<feFlood flood-opacity="0" result="BackgroundImageFix"/>
<feColorMatrix in="SourceAlpha" type="matrix" values="0 0 0 0 0 0 0 0 0 0 0 0 0 0 0 0 0 0 127 0" result="hardAlpha"/>
<feMorphology radius="10" operator="erode" in="SourceAlpha" result="effect1_dropShadow_325_3178"/>
<feOffset dx="4" dy="4"/>
<feGaussianBlur stdDeviation="10"/>
<feComposite in2="hardAlpha" operator="out"/>
<feColorMatrix type="matrix" values="0 0 0 0 0 0 0 0 0 0 0 0 0 0 0 0 0 0 0.1 0"/>
<feBlend mode="normal" in2="BackgroundImageFix" result="effect1_dropShadow_325_3178"/>
<feBlend mode="normal" in="SourceGraphic" in2="effect1_dropShadow_325_3178" result="shape"/>
</filter>
<filter id="filter1_b_325_3178" x="567" y="117" width="120" height="77.1484" filterUnits="userSpaceOnUse" color-interpolation-filters="sRGB">
<feFlood flood-opacity="0" result="BackgroundImageFix"/>
<feGaussianBlur in="BackgroundImageFix" stdDeviation="10"/>
<feComposite in2="SourceAlpha" operator="in" result="effect1_backgroundBlur_325_3178"/>
<feBlend mode="normal" in="SourceGraphic" in2="effect1_backgroundBlur_325_3178" result="shape"/>
</filter>
<linearGradient id="paint0_linear_325_3178" x1="548.284" y1="129.709" x2="548.284" y2="339.82" gradientUnits="userSpaceOnUse">
<stop stop-color="#D50036"/>
<stop offset="1" stop-color="#D50036" stop-opacity="0.6"/>
</linearGradient>
<linearGradient id="paint1_linear_325_3178" x1="548.283" y1="129.703" x2="548.283" y2="305.951" gradientUnits="userSpaceOnUse">
<stop stop-color="#D50036"/>
<stop offset="1" stop-color="#D50036"/>
</linearGradient>
</defs>
</svg>
