<svg width="185" height="27" viewBox="0 0 185 27" fill="none" xmlns="http://www.w3.org/2000/svg">
<path d="M7.10056 0H30.1775V2.84208H7.10056V0Z" fill="#D50036"/>
<path d="M0 6.03938H23.0769V8.88146H0V6.03938Z" fill="#D50036"/>
<path d="M7.10056 12.079H30.1775V14.921H7.10056V12.079Z" fill="#D50036"/>
<path d="M12.781 18.1185H35.858V20.9606H12.781V18.1185Z" fill="#D50036"/>
<path d="M7.10056 24.1579H30.1775V27H7.10056V24.1579Z" fill="#D50036"/>
<path d="M56.0672 20.1616C55.9103 21.0644 55.518 21.9084 54.8903 22.6935C54.2823 23.4786 53.4584 24.1165 52.4189 24.6072C51.3989 25.0782 50.2024 25.3137 48.8294 25.3137C47.3583 25.3137 46.0932 25.0586 45.034 24.5483C43.9748 24.0183 43.1706 23.3019 42.6214 22.3991C42.0918 21.4962 41.8368 20.4756 41.8564 19.3372H45.4164C45.3772 20.2401 45.642 21.0154 46.2108 21.6631C46.7993 22.3108 47.6917 22.6346 48.8882 22.6346C50.0063 22.6346 50.8889 22.3009 51.5362 21.6336C52.1835 20.9663 52.5071 20.1419 52.5071 19.1606C52.5071 18.4932 52.3306 17.9437 51.9775 17.5119C51.6245 17.0604 51.1733 16.6973 50.6241 16.4225C50.0945 16.1281 49.3688 15.8043 48.4469 15.451C47.3485 15.0192 46.456 14.6266 45.7695 14.2733C45.1026 13.9004 44.5338 13.3803 44.063 12.713C43.5923 12.0456 43.3569 11.1918 43.3569 10.1516C43.3569 9.70016 43.3961 9.24874 43.4746 8.79731C43.7296 7.36451 44.5044 6.2163 45.7989 5.3527C47.1131 4.48909 48.7117 4.05729 50.5947 4.05729C52.8112 4.05729 54.4784 4.57742 55.5964 5.61767C56.7341 6.63829 57.3323 7.96314 57.3912 9.59221H53.7723C53.7723 8.80712 53.5075 8.13979 52.9779 7.59022C52.4483 7.02103 51.6343 6.73643 50.5359 6.73643C49.5159 6.73643 48.6823 7.01121 48.035 7.56078C47.3877 8.09072 47.0641 8.85619 47.0641 9.85718C47.0641 10.4656 47.2308 10.9759 47.5643 11.3881C47.9173 11.8003 48.3488 12.134 48.8588 12.3891C49.3688 12.6443 50.0749 12.9485 50.9772 13.3018C52.0756 13.714 52.9681 14.1163 53.6546 14.5089C54.3607 14.8818 54.959 15.4117 55.4493 16.0987C55.9397 16.7857 56.1849 17.6689 56.1849 18.7484C56.1849 19.2391 56.1456 19.7101 56.0672 20.1616Z" fill="white"/>
<path d="M76.491 8.88563L73.6371 25.1077H70.2536L70.8715 21.5747C70.2242 22.772 69.3317 23.7043 68.1941 24.3716C67.076 25.0193 65.8501 25.3432 64.5163 25.3432C62.9079 25.3432 61.6428 24.8918 60.7209 23.9889C59.799 23.086 59.3381 21.7906 59.3381 20.1027C59.3381 19.5531 59.3969 18.9545 59.5146 18.3068L61.1917 8.88563H64.5458L62.9275 17.9535C62.8491 18.346 62.8099 18.7484 62.8099 19.1606C62.8099 20.2597 63.1139 21.1037 63.7219 21.6925C64.3496 22.2617 65.2126 22.5463 66.3111 22.5463C67.6449 22.5463 68.7825 22.1145 69.724 21.2509C70.6655 20.3873 71.2834 19.1311 71.5776 17.4824V17.6002L73.1075 8.88563H76.491Z" fill="white"/>
<path d="M77.3634 25.1077L81.2176 3.32126H84.5717L82.9241 12.6541C83.5518 11.4568 84.4442 10.4951 85.6015 9.76886C86.7784 9.04265 88.1024 8.67954 89.5735 8.67954C91.4172 8.67954 92.8785 9.23892 93.9573 10.3577C95.0557 11.4764 95.605 13.0172 95.605 14.9799C95.605 15.608 95.5461 16.2753 95.4284 16.9819C95.1342 18.6895 94.5556 20.1714 93.6925 21.4275C92.8491 22.6837 91.8095 23.6454 90.5738 24.3128C89.3577 24.9801 88.0435 25.3137 86.6313 25.3137C85.1602 25.3137 83.9735 24.9506 83.0712 24.2244C82.1689 23.4982 81.6099 22.5365 81.3942 21.3392L80.7175 25.1077H77.3634ZM86.1311 22.3402C87.6218 22.3402 88.8968 21.8691 89.9559 20.927C91.0348 19.9653 91.7213 18.6503 92.0155 16.9819C92.0939 16.5697 92.1332 16.1379 92.1332 15.6865C92.1332 14.4107 91.7703 13.4196 91.0446 12.713C90.3188 11.9868 89.3185 11.6236 88.0435 11.6236C86.592 11.6236 85.3171 12.1143 84.2187 13.0957C83.1203 14.0771 82.4239 15.3725 82.1297 16.9819C82.0513 17.3745 82.012 17.7768 82.012 18.189C82.012 19.4648 82.3847 20.4756 83.1301 21.2214C83.8754 21.9673 84.8758 22.3402 86.1311 22.3402Z" fill="white"/>
<path d="M115.194 8.88563L112.34 25.1077H108.956L109.574 21.5747C108.927 22.772 108.034 23.7043 106.897 24.3716C105.778 25.0193 104.553 25.3432 103.219 25.3432C101.61 25.3432 100.345 24.8918 99.4234 23.9889C98.5015 23.086 98.0405 21.7906 98.0405 20.1027C98.0405 19.5531 98.0994 18.9545 98.2171 18.3068L99.8941 8.88563H103.248L101.63 17.9535C101.552 18.346 101.512 18.7484 101.512 19.1606C101.512 20.2597 101.816 21.1037 102.424 21.6925C103.052 22.2617 103.915 22.5463 105.014 22.5463C106.347 22.5463 107.485 22.1145 108.426 21.2509C109.368 20.3873 109.986 19.1311 110.28 17.4824V17.6002L111.81 8.88563H115.194Z" fill="white"/>
<path d="M121.98 12.0653C122.725 11.0054 123.657 10.1712 124.775 9.56277C125.912 8.9347 127.148 8.62066 128.482 8.62066L127.835 12.2714H126.834C125.363 12.2714 124.118 12.6345 123.098 13.3607C122.078 14.0673 121.43 15.2449 121.156 16.8936L121.126 16.8642L119.685 25.1077H116.301L119.155 8.88563H122.539L121.98 12.0653Z" fill="white"/>
<path d="M127.817 25.1077L131.672 3.32126H135.026L133.378 12.6541C134.006 11.4568 134.898 10.4951 136.055 9.76886C137.232 9.04265 138.556 8.67954 140.027 8.67954C141.871 8.67954 143.333 9.23892 144.411 10.3577C145.51 11.4764 146.059 13.0172 146.059 14.9799C146.059 15.608 146 16.2753 145.882 16.9819C145.588 18.6895 145.01 20.1714 144.147 21.4275C143.303 22.6837 142.264 23.6454 141.028 24.3128C139.812 24.9801 138.497 25.3137 137.085 25.3137C135.614 25.3137 134.427 24.9506 133.525 24.2244C132.623 23.4982 132.064 22.5365 131.848 21.3392L131.171 25.1077H127.817ZM136.585 22.3402C138.076 22.3402 139.351 21.8691 140.41 20.927C141.489 19.9653 142.175 18.6503 142.469 16.9819C142.548 16.5697 142.587 16.1379 142.587 15.6865C142.587 14.4107 142.224 13.4196 141.499 12.713C140.773 11.9868 139.772 11.6236 138.497 11.6236C137.046 11.6236 135.771 12.1143 134.673 13.0957C133.574 14.0771 132.878 15.3725 132.584 16.9819C132.505 17.3745 132.466 17.7768 132.466 18.189C132.466 19.4648 132.839 20.4756 133.584 21.2214C134.329 21.9673 135.33 22.3402 136.585 22.3402Z" fill="white"/>
<path d="M157.292 8.67954C158.802 8.67954 160.018 9.04265 160.94 9.76886C161.882 10.4951 162.46 11.4568 162.676 12.6541L163.353 8.88563H166.707L163.823 25.1077H160.469L161.146 21.3392C160.518 22.5365 159.616 23.4982 158.439 24.2244C157.282 24.9506 155.968 25.3137 154.497 25.3137C152.614 25.3137 151.133 24.7446 150.054 23.6062C148.975 22.4678 148.436 20.8976 148.436 18.8956C148.436 18.1498 148.504 17.4235 148.642 16.717C148.936 15.0683 149.495 13.6453 150.319 12.448C151.162 11.2311 152.182 10.2988 153.379 9.6511C154.595 9.00339 155.899 8.67954 157.292 8.67954ZM157.939 11.6236C156.448 11.6236 155.163 12.1045 154.085 13.0663C153.025 14.028 152.349 15.3332 152.055 16.9819C151.976 17.3941 151.937 17.8357 151.937 18.3068C151.937 19.5826 152.3 20.5737 153.025 21.2803C153.751 21.9869 154.752 22.3402 156.027 22.3402C157.458 22.3402 158.724 21.8593 159.822 20.8976C160.92 19.9162 161.617 18.611 161.911 16.9819C161.989 16.5894 162.029 16.1772 162.029 15.7454C162.029 14.4892 161.656 13.4882 160.911 12.7424C160.165 11.9966 159.175 11.6236 157.939 11.6236Z" fill="white"/>
<path d="M179.851 8.62066C181.44 8.62066 182.695 9.07209 183.617 9.97495C184.539 10.8582 185 12.134 185 13.8023C185 14.3911 184.941 15.0094 184.823 15.6571L183.176 25.1077H179.822L181.411 16.0104C181.489 15.6375 181.528 15.2449 181.528 14.8327C181.528 13.7336 181.214 12.8994 180.587 12.3302C179.979 11.7414 179.125 11.447 178.027 11.447C176.693 11.447 175.556 11.8788 174.614 12.7424C173.673 13.5864 173.055 14.8327 172.76 16.4814V16.3931L171.231 25.1077H167.847L170.701 8.88563H174.084L173.467 12.4774C174.094 11.2409 174.967 10.289 176.085 9.62166C177.223 8.95432 178.478 8.62066 179.851 8.62066Z" fill="white"/>
</svg>
