<svg width="322" height="47" viewBox="0 0 322 47" fill="none" xmlns="http://www.w3.org/2000/svg">
<path d="M12.5024 0H52.6299V4.94733H12.5024V0Z" fill="#D50036"/>
<path d="M0.155518 10.513H40.283V15.4603H0.155518V10.513Z" fill="#D50036"/>
<path d="M12.5024 21.0263H52.6299V25.9737H12.5024V21.0263Z" fill="#D50036"/>
<path d="M22.3799 31.5397H62.5074V36.487H22.3799V31.5397Z" fill="#D50036"/>
<path d="M12.5024 42.0527H52.6299V47H12.5024V42.0527Z" fill="#D50036"/>
<path d="M97.6484 35.096C97.3756 36.6677 96.6934 38.1368 95.602 39.5035C94.5447 40.8701 93.1122 41.9805 91.3045 42.8347C89.531 43.6547 87.4504 44.0647 85.0629 44.0647C82.5049 44.0647 80.305 43.6205 78.4632 42.7322C76.6215 41.8097 75.2231 40.5626 74.2681 38.991C73.3472 37.4193 72.9038 35.6427 72.9379 33.6611H79.1283C79.0601 35.2327 79.5205 36.5823 80.5097 37.7098C81.5329 38.8372 83.0847 39.401 85.1653 39.401C87.1094 39.401 88.6442 38.8202 89.7697 37.6585C90.8953 36.4969 91.458 35.0619 91.458 33.3536C91.458 32.1919 91.1511 31.2353 90.5371 30.4836C89.9232 29.6978 89.1387 29.0657 88.1837 28.5874C87.2628 28.0749 86.0009 27.5112 84.3979 26.8962C82.4879 26.1445 80.936 25.4612 79.7422 24.8462C78.5826 24.197 77.5935 23.2916 76.7749 22.13C75.9564 20.9683 75.5471 19.4821 75.5471 17.6713C75.5471 16.8855 75.6153 16.0996 75.7517 15.3138C76.1951 12.8197 77.5423 10.821 79.7934 9.31766C82.0786 7.81435 84.8583 7.06269 88.1326 7.06269C91.9867 7.06269 94.8858 7.9681 96.8299 9.7789C98.8081 11.5555 99.8483 13.8618 99.9507 16.6976H93.6579C93.6579 15.3309 93.1975 14.1693 92.2766 13.2126C91.3557 12.2218 89.9403 11.7264 88.0303 11.7264C86.2567 11.7264 84.8071 12.2047 83.6816 13.1614C82.5561 14.0838 81.9933 15.4163 81.9933 17.1588C81.9933 18.218 82.2832 19.1063 82.863 19.8238C83.477 20.5413 84.2273 21.1221 85.1141 21.5662C86.0009 22.0104 87.2287 22.54 88.7977 23.155C90.7077 23.8725 92.2595 24.5729 93.4533 25.2562C94.6811 25.9053 95.7214 26.8278 96.5741 28.0236C97.4268 29.2195 97.8531 30.7569 97.8531 32.6361C97.8531 33.4902 97.7849 34.3102 97.6484 35.096Z" fill="#0F151F"/>
<path d="M133.163 15.4676L128.2 43.7059H122.317L123.391 37.556C122.265 39.6401 120.714 41.263 118.735 42.4247C116.791 43.5522 114.66 44.1159 112.34 44.1159C109.544 44.1159 107.344 43.3301 105.741 41.7585C104.138 40.1868 103.336 37.9318 103.336 34.9936C103.336 34.0369 103.438 32.9948 103.643 31.8673L106.559 15.4676H112.391L109.578 31.2524C109.441 31.9357 109.373 32.6361 109.373 33.3536C109.373 35.2669 109.902 36.736 110.959 37.761C112.05 38.7518 113.551 39.2472 115.461 39.2472C117.78 39.2472 119.759 38.4956 121.396 36.9923C123.033 35.489 124.107 33.3023 124.619 30.4324V30.6374L127.279 15.4676H133.163Z" fill="#0F151F"/>
<path d="M134.679 43.7059L141.382 5.78146H147.214L144.349 22.0275C145.44 19.9433 146.992 18.2692 149.004 17.0051C151.051 15.7409 153.353 15.1088 155.911 15.1088C159.117 15.1088 161.658 16.0826 163.534 18.03C165.444 19.9775 166.399 22.6596 166.399 26.0762C166.399 27.1695 166.297 28.3311 166.092 29.5611C165.58 32.5336 164.574 35.1131 163.074 37.2998C161.607 39.4864 159.799 41.1605 157.651 42.3222C155.536 43.4838 153.251 44.0647 150.795 44.0647C148.237 44.0647 146.174 43.4326 144.605 42.1684C143.036 40.9043 142.064 39.2302 141.688 37.146L140.512 43.7059H134.679ZM149.925 38.8885C152.517 38.8885 154.734 38.0685 156.576 36.4285C158.452 34.7544 159.646 32.4653 160.157 29.5611C160.294 28.8436 160.362 28.092 160.362 27.3062C160.362 25.0854 159.731 23.36 158.469 22.13C157.207 20.8658 155.468 20.2338 153.251 20.2338C150.727 20.2338 148.51 21.0879 146.6 22.7962C144.69 24.5045 143.479 26.7595 142.968 29.5611C142.831 30.2444 142.763 30.9449 142.763 31.6623C142.763 33.8831 143.411 35.6427 144.707 36.941C146.003 38.2393 147.742 38.8885 149.925 38.8885Z" fill="#0F151F"/>
<path d="M200.461 15.4676L195.498 43.7059H189.615L190.689 37.556C189.564 39.6401 188.012 41.263 186.034 42.4247C184.089 43.5522 181.958 44.1159 179.638 44.1159C176.842 44.1159 174.642 43.3301 173.039 41.7585C171.436 40.1868 170.634 37.9318 170.634 34.9936C170.634 34.0369 170.737 32.9948 170.941 31.8673L173.857 15.4676H179.69L176.876 31.2524C176.739 31.9357 176.671 32.6361 176.671 33.3536C176.671 35.2669 177.2 36.736 178.257 37.761C179.349 38.7518 180.849 39.2472 182.759 39.2472C185.079 39.2472 187.057 38.4956 188.694 36.9923C190.331 35.489 191.405 33.3023 191.917 30.4324V30.6374L194.577 15.4676H200.461Z" fill="#0F151F"/>
<path d="M212.261 21.0025C213.557 19.1575 215.177 17.7055 217.121 16.6463C219.099 15.553 221.248 15.0063 223.567 15.0063L222.442 21.3612H220.702C218.144 21.3612 215.979 21.9933 214.205 23.2575C212.431 24.4874 211.306 26.5374 210.828 29.4074L210.777 29.3561L208.27 43.7059H202.387L207.35 15.4676H213.233L212.261 21.0025Z" fill="#0F151F"/>
<path d="M222.412 43.7059L229.114 5.78146H234.946L232.081 22.0275C233.173 19.9433 234.725 18.2692 236.737 17.0051C238.783 15.7409 241.085 15.1088 243.644 15.1088C246.85 15.1088 249.391 16.0826 251.266 18.03C253.176 19.9775 254.131 22.6596 254.131 26.0762C254.131 27.1695 254.029 28.3311 253.824 29.5611C253.313 32.5336 252.307 35.1131 250.806 37.2998C249.339 39.4864 247.532 41.1605 245.383 42.3222C243.268 43.4838 240.983 44.0647 238.527 44.0647C235.969 44.0647 233.906 43.4326 232.337 42.1684C230.768 40.9043 229.796 39.2302 229.421 37.146L228.244 43.7059H222.412ZM237.658 38.8885C240.25 38.8885 242.467 38.0685 244.309 36.4285C246.184 34.7544 247.378 32.4653 247.89 29.5611C248.026 28.8436 248.094 28.092 248.094 27.3062C248.094 25.0854 247.464 23.36 246.202 22.13C244.94 20.8658 243.2 20.2338 240.983 20.2338C238.459 20.2338 236.242 21.0879 234.332 22.7962C232.422 24.5045 231.212 26.7595 230.7 29.5611C230.563 30.2444 230.495 30.9449 230.495 31.6623C230.495 33.8831 231.143 35.6427 232.439 36.941C233.735 38.2393 235.475 38.8885 237.658 38.8885Z" fill="#0F151F"/>
<path d="M273.664 15.1088C276.29 15.1088 278.404 15.7409 280.007 17.0051C281.645 18.2692 282.651 19.9433 283.026 22.0275L284.203 15.4676H290.035L285.021 43.7059H279.189L280.366 37.146C279.274 39.2302 277.705 40.9043 275.659 42.1684C273.647 43.4326 271.361 44.0647 268.803 44.0647C265.529 44.0647 262.954 43.0739 261.078 41.0922C259.202 39.1106 258.264 36.3773 258.264 32.8923C258.264 31.594 258.384 30.3299 258.622 29.0999C259.134 26.2299 260.106 23.7529 261.539 21.6687C263.005 19.5504 264.779 17.9275 266.859 16.8001C268.974 15.6726 271.242 15.1088 273.664 15.1088ZM274.789 20.2338C272.197 20.2338 269.963 21.0708 268.087 22.745C266.245 24.4191 265.069 26.6912 264.557 29.5611C264.421 30.2786 264.352 31.0474 264.352 31.8673C264.352 34.0881 264.983 35.8135 266.245 37.0435C267.507 38.2735 269.247 38.8885 271.464 38.8885C273.953 38.8885 276.153 38.0514 278.063 36.3773C279.973 34.669 281.184 32.3969 281.696 29.5611C281.832 28.8778 281.9 28.1603 281.9 27.4087C281.9 25.222 281.252 23.4795 279.956 22.1812C278.66 20.8829 276.938 20.2338 274.789 20.2338Z" fill="#0F151F"/>
<path d="M312.891 15.0063C315.654 15.0063 317.837 15.7922 319.44 17.3638C321.043 18.9013 321.844 21.1221 321.844 24.0262C321.844 25.0512 321.742 26.1274 321.537 27.2549L318.672 43.7059H312.84L315.603 27.8699C315.739 27.2207 315.807 26.5374 315.807 25.8199C315.807 23.9066 315.262 22.4546 314.17 21.4637C313.113 20.4388 311.629 19.9263 309.719 19.9263C307.4 19.9263 305.422 20.6779 303.785 22.1812C302.148 23.6504 301.073 25.8199 300.562 28.6899V28.5361L297.901 43.7059H292.018L296.98 15.4676H302.864L301.789 21.72C302.881 19.5675 304.399 17.9105 306.343 16.7488C308.321 15.5872 310.504 15.0063 312.891 15.0063Z" fill="#0F151F"/>
</svg>
