<svg width="89" height="94" viewBox="0 0 89 94" fill="none" xmlns="http://www.w3.org/2000/svg">
<g opacity="0.1">
<path fill-rule="evenodd" clip-rule="evenodd" d="M94.9528 94.1049C95.3021 94.1511 95.6512 94.1988 96.0002 94.2477L97.7548 94.4939C105.394 95.5659 112.229 89.7433 112.229 82.1634V76.3786C112.229 70.9575 108.759 66.1217 103.562 64.2984C97.5568 62.1917 91.3573 60.8201 85.0991 60.1834C91.6292 64.9044 95.6795 72.5494 95.6795 80.89V88.0722C95.6795 90.1579 95.4271 92.1776 94.9528 94.1049ZM68.4856 52.4879C71.0878 53.5622 73.9463 54.1559 76.9459 54.1559C89.0146 54.1559 98.7982 44.5457 98.7982 32.691C98.7982 20.8362 89.0146 11.2261 76.9459 11.2261C76.5883 11.2261 76.2327 11.2345 75.8793 11.2512C78.0741 15.9253 79.3007 21.1443 79.3007 26.6498C79.3007 36.763 75.1618 45.9095 68.4856 52.4879Z" fill="#0F151F"/>
<path fill-rule="evenodd" clip-rule="evenodd" d="M69.6781 26.6497C69.6781 11.9315 57.7466 0 43.0284 0C28.3102 0 16.3788 11.9315 16.3788 26.6497C16.3788 41.3679 28.3102 53.2993 43.0284 53.2993C57.7466 53.2993 69.6781 41.3679 69.6781 26.6497Z" fill="#0F151F"/>
<path fill-rule="evenodd" clip-rule="evenodd" d="M10.5695 65.8917C31.5596 58.3953 54.4974 58.3953 75.4874 65.8917C81.8259 68.1554 86.0569 74.1593 86.0569 80.8899V88.072C86.0569 97.4828 77.7218 104.712 68.4056 103.381L66.2658 103.075C50.8525 100.873 35.2044 100.873 19.7911 103.075L17.6514 103.381C8.33511 104.712 0 97.4828 0 88.072V80.8899C0 74.1593 4.23106 68.1554 10.5695 65.8917Z" fill="#0F151F"/>
</g>
</svg>
