<svg width="24" height="24" viewBox="0 0 24 24" fill="none" xmlns="http://www.w3.org/2000/svg">
<path d="M16.1115 6.74974L16.1115 6.74964C16.2036 5.50373 15.8146 4.37046 15.0421 3.53645C14.279 2.71258 13.208 2.24963 11.9999 2.24963C10.7811 2.24963 9.70673 2.71154 8.94978 3.52747L16.1115 6.74974ZM16.1115 6.74974C15.9216 9.32192 13.9864 11.2496 11.9999 11.2496C10.0128 11.2496 8.07483 9.32099 7.88794 6.74992L16.1115 6.74974ZM7.88792 6.74967C7.79666 5.48654 8.1855 4.3515 8.94973 3.52752L7.88792 6.74967Z" stroke="#B3B3B3" stroke-width="1.5"/>
<path d="M20.2595 21.7486V21.7486C20.364 21.75 20.4675 21.728 20.5625 21.6843C20.6574 21.6405 20.7414 21.5762 20.8084 21.496L20.8091 21.4951C20.9592 21.3157 21.0376 21.0482 20.9828 20.7453L20.9828 20.7449C20.6251 18.761 19.5137 17.0905 17.7341 15.904L20.2595 21.7486ZM20.2595 21.7486H20.2499M20.2595 21.7486H20.2499M20.2499 21.7486H3.74994V21.7485M20.2499 21.7486L3.74994 21.7485M3.74994 21.7485L3.74018 21.7486M3.74994 21.7485L3.74018 21.7486M3.74018 21.7486C3.63568 21.75 3.53219 21.728 3.43724 21.6844C3.34229 21.6407 3.25827 21.5764 3.19129 21.4962L3.19082 21.4956M3.74018 21.7486L3.19082 21.4956M3.19082 21.4956C3.04067 21.3161 2.96228 21.0486 3.01703 20.7458L3.0171 20.7454M3.19082 21.4956L3.0171 20.7454M3.0171 20.7454C3.37473 18.7615 4.48615 17.0909 6.26584 15.9039L3.0171 20.7454ZM6.26607 15.9038C7.85669 14.8439 9.89323 14.2486 11.9999 14.2486C14.1065 14.2486 16.1431 14.8443 17.7339 15.9039L6.26607 15.9038Z" stroke="#B3B3B3" stroke-width="1.5"/>
</svg>
