<svg width="93" height="94" viewBox="0 0 93 94" fill="none" xmlns="http://www.w3.org/2000/svg">
<path opacity="0.1" d="M4.28627 66.4583H26.9423C29.5447 66.4583 31.1265 65.1825 31.6878 62.6864L38.6785 27.6859L51.5373 111.998C52.2517 116.713 58.8852 116.657 59.7527 112.053L72.1012 48.7084L74.5505 62.1872C75.1118 65.0716 76.6427 66.4583 79.3471 66.4583H99.2476C101.595 66.4583 103.483 64.4614 103.483 61.9099C103.483 59.3029 101.646 57.306 99.2476 57.306H81.5413L75.8262 29.5718C74.9077 25.0789 68.6824 25.0789 67.7129 29.7382L55.6195 88.7011L42.7097 3.50172C42.0463 -1.10215 35.872 -1.21309 34.9535 3.44625L24.2379 57.306H4.28627C1.888 57.306 0 59.3583 0 61.9099C0 64.4614 1.888 66.4583 4.28627 66.4583Z" fill="#0F151F"/>
</svg>
