<svg width="22" height="16" viewBox="0 0 22 16" fill="none" xmlns="http://www.w3.org/2000/svg">
<path d="M2.10239 6.55273C2.28696 6.75488 2.57699 6.74609 2.77035 6.53516C4.94125 4.24121 7.7977 3.02832 10.9881 3.02832C14.2049 3.02832 17.0702 4.24121 19.2323 6.55273C19.4168 6.7373 19.6981 6.72852 19.8827 6.53516L21.1131 5.2959C21.2889 5.12012 21.2889 4.8916 21.1483 4.72461C19.0301 2.11426 15.0838 0.242188 10.9881 0.242188C6.90121 0.242188 2.94614 2.10547 0.83676 4.72461C0.696135 4.8916 0.696135 5.12012 0.863127 5.2959L2.10239 6.55273ZM5.77621 10.209C5.98715 10.4111 6.2684 10.3936 6.47055 10.1738C7.54281 9.00488 9.25668 8.17871 10.9969 8.1875C12.7459 8.17871 14.4598 9.02246 15.5584 10.2002C15.743 10.4111 16.0067 10.4023 16.2088 10.2002L17.5887 8.84668C17.7557 8.68848 17.7733 8.46875 17.6239 8.29297C16.2528 6.63184 13.7479 5.43652 10.9969 5.43652C8.23715 5.43652 5.73227 6.63184 4.36117 8.29297C4.21176 8.46875 4.22934 8.67969 4.39633 8.84668L5.77621 10.209ZM10.9969 15.0781C11.2079 15.0781 11.3924 14.9814 11.7528 14.6387L13.9061 12.5645C14.0643 12.415 14.0995 12.1689 13.9588 11.9932C13.3436 11.2109 12.2274 10.5781 10.9969 10.5781C9.73129 10.5781 8.5975 11.2373 7.99106 12.0635C7.88559 12.2217 7.93832 12.415 8.08774 12.5645L10.2411 14.6387C10.5926 14.9727 10.786 15.0781 10.9969 15.0781Z" fill="#1C1C1E"/>
</svg>
